<svg viewBox="0 0 330 200" xmlns="http://www.w3.org/2000/svg"><g><g><g><g><g><line x1="50" y1="177" x2="45" y2="177" style="visibility: inherit;" fill="rgb(0, 0, 0)" stroke="rgb(204, 204, 204)" stroke-width="1px"></line><line x1="50" y1="157.33333333333331" x2="45" y2="157.33333333333331" style="visibility: inherit;" fill="rgb(0, 0, 0)" stroke="rgb(204, 204, 204)" stroke-width="1px"></line><line x1="50" y1="137.66666666666666" x2="45" y2="137.66666666666666" style="visibility: inherit;" fill="rgb(0, 0, 0)" stroke="rgb(204, 204, 204)" stroke-width="1px"></line><line x1="50" y1="118.00000000000001" x2="45" y2="118.00000000000001" style="visibility: inherit;" fill="rgb(0, 0, 0)" stroke="rgb(204, 204, 204)" stroke-width="1px"></line><line x1="50" y1="98.33333333333334" x2="45" y2="98.33333333333334" style="visibility: inherit;" fill="rgb(0, 0, 0)" stroke="rgb(204, 204, 204)" stroke-width="1px"></line><line x1="50" y1="78.66666666666666" x2="45" y2="78.66666666666666" style="visibility: inherit;" fill="rgb(0, 0, 0)" stroke="rgb(204, 204, 204)" stroke-width="1px"></line><line x1="50" y1="59.00000000000001" x2="45" y2="59.00000000000001" style="visibility: inherit;" fill="rgb(0, 0, 0)" stroke="rgb(204, 204, 204)" stroke-width="1px"></line><line x1="50" y1="39.33333333333333" x2="45" y2="39.33333333333333" style="visibility: inherit;" fill="rgb(0, 0, 0)" stroke="rgb(204, 204, 204)" stroke-width="1px"></line><line x1="50" y1="19.666666666666675" x2="45" y2="19.666666666666675" style="visibility: inherit;" fill="rgb(0, 0, 0)" stroke="rgb(204, 204, 204)" stroke-width="1px"></line><line x1="50" y1="0" x2="45" y2="0" style="visibility: inherit;" fill="rgb(0, 0, 0)" stroke="rgb(204, 204, 204)" stroke-width="1px"></line></g><g transform="translate(40, 0)"><text x="0" y="177" dx="0em" dy="0.3em" style="text-anchor: end; visibility: hidden; font-family: Roboto, sans-serif; font-size: 12px; font-weight: 200;" fill="rgb(33, 33, 33)" stroke="none" stroke-width="1px">-0.5</text><text x="0" y="157.33333333333331" dx="0em" dy="0.3em" style="text-anchor: end; visibility: inherit; font-family: Roboto, sans-serif; font-size: 12px; font-weight: 200;" fill="rgb(33, 33, 33)" stroke="none" stroke-width="1px">0</text><text x="0" y="137.66666666666666" dx="0em" dy="0.3em" style="text-anchor: end; visibility: hidden; font-family: Roboto, sans-serif; font-size: 12px; font-weight: 200;" fill="rgb(33, 33, 33)" stroke="none" stroke-width="1px">0.5</text><text x="0" y="118.00000000000001" dx="0em" dy="0.3em" style="text-anchor: end; visibility: inherit; font-family: Roboto, sans-serif; font-size: 12px; font-weight: 200;" fill="rgb(33, 33, 33)" stroke="none" stroke-width="1px">1</text><text x="0" y="98.33333333333334" dx="0em" dy="0.3em" style="text-anchor: end; visibility: hidden; font-family: Roboto, sans-serif; font-size: 12px; font-weight: 200;" fill="rgb(33, 33, 33)" stroke="none" stroke-width="1px">1.5</text><text x="0" y="78.66666666666666" dx="0em" dy="0.3em" style="text-anchor: end; visibility: inherit; font-family: Roboto, sans-serif; font-size: 12px; font-weight: 200;" fill="rgb(33, 33, 33)" stroke="none" stroke-width="1px">2</text><text x="0" y="59.00000000000001" dx="0em" dy="0.3em" style="text-anchor: end; visibility: hidden; font-family: Roboto, sans-serif; font-size: 12px; font-weight: 200;" fill="rgb(33, 33, 33)" stroke="none" stroke-width="1px">2.5</text><text x="0" y="39.33333333333333" dx="0em" dy="0.3em" style="text-anchor: end; visibility: inherit; font-family: Roboto, sans-serif; font-size: 12px; font-weight: 200;" fill="rgb(33, 33, 33)" stroke="none" stroke-width="1px">3</text><text x="0" y="19.666666666666675" dx="0em" dy="0.3em" style="text-anchor: end; visibility: hidden; font-family: Roboto, sans-serif; font-size: 12px; font-weight: 200;" fill="rgb(33, 33, 33)" stroke="none" stroke-width="1px">3.5</text><text x="0" y="0" dx="0em" dy="0.3em" style="text-anchor: end; visibility: hidden; font-family: Roboto, sans-serif; font-size: 12px; font-weight: 200;" fill="rgb(33, 33, 33)" stroke="none" stroke-width="1px">4</text></g><line x1="50" y1="0" x2="50" y2="177" fill="rgb(0, 0, 0)" stroke="rgb(204, 204, 204)" stroke-width="1px"></line></g></g><g transform="translate(50, 0)" clip-path="url(#clip_0)"><clipPath id="clip_0"><rect width="280" height="177"></rect></clipPath><g><g><g><line x1="0" y1="0" x2="0" y2="177" fill="rgb(0, 0, 0)" stroke="rgb(66, 66, 66)" stroke-width="1px" opacity="0.25"></line><line x1="21.53846153846154" y1="0" x2="21.53846153846154" y2="177" fill="rgb(0, 0, 0)" stroke="rgb(66, 66, 66)" stroke-width="1px" opacity="0.25"></line><line x1="43.07692307692308" y1="0" x2="43.07692307692308" y2="177" fill="rgb(0, 0, 0)" stroke="rgb(66, 66, 66)" stroke-width="1px" opacity="0.25"></line><line x1="64.61538461538461" y1="0" x2="64.61538461538461" y2="177" fill="rgb(0, 0, 0)" stroke="rgb(66, 66, 66)" stroke-width="1px" opacity="0.25"></line><line x1="86.15384615384616" y1="0" x2="86.15384615384616" y2="177" fill="rgb(0, 0, 0)" stroke="rgb(66, 66, 66)" stroke-width="1px" opacity="0.25"></line><line x1="107.6923076923077" y1="0" x2="107.6923076923077" y2="177" fill="rgb(0, 0, 0)" stroke="rgb(66, 66, 66)" stroke-width="1px" opacity="0.25"></line><line x1="129.23076923076923" y1="0" x2="129.23076923076923" y2="177" fill="rgb(0, 0, 0)" stroke="rgb(66, 66, 66)" stroke-width="1px" opacity="0.25"></line><line x1="150.76923076923077" y1="0" x2="150.76923076923077" y2="177" fill="rgb(0, 0, 0)" stroke="rgb(66, 66, 66)" stroke-width="1px" opacity="0.25"></line><line x1="172.30769230769232" y1="0" x2="172.30769230769232" y2="177" fill="rgb(0, 0, 0)" stroke="rgb(66, 66, 66)" stroke-width="1px" opacity="0.25"></line><line x1="193.84615384615384" y1="0" x2="193.84615384615384" y2="177" fill="rgb(0, 0, 0)" stroke="rgb(66, 66, 66)" stroke-width="1px" opacity="0.25"></line><line x1="215.3846153846154" y1="0" x2="215.3846153846154" y2="177" fill="rgb(0, 0, 0)" stroke="rgb(66, 66, 66)" stroke-width="1px" opacity="0.25"></line><line x1="236.92307692307693" y1="0" x2="236.92307692307693" y2="177" fill="rgb(0, 0, 0)" stroke="rgb(66, 66, 66)" stroke-width="1px" opacity="0.25"></line><line x1="258.46153846153845" y1="0" x2="258.46153846153845" y2="177" fill="rgb(0, 0, 0)" stroke="rgb(66, 66, 66)" stroke-width="1px" opacity="0.25"></line><line x1="280" y1="0" x2="280" y2="177" fill="rgb(0, 0, 0)" stroke="rgb(66, 66, 66)" stroke-width="1px" opacity="0.25"></line></g><g><line x1="0" y1="177" x2="280" y2="177" fill="rgb(0, 0, 0)" stroke="rgb(66, 66, 66)" stroke-width="1px" opacity="0.25"></line><line x1="0" y1="157.33333333333331" x2="280" y2="157.33333333333331" fill="rgb(0, 0, 0)" stroke="rgb(66, 66, 66)" stroke-width="1px" opacity="0.25"></line><line x1="0" y1="137.66666666666666" x2="280" y2="137.66666666666666" fill="rgb(0, 0, 0)" stroke="rgb(66, 66, 66)" stroke-width="1px" opacity="0.25"></line><line x1="0" y1="118.00000000000001" x2="280" y2="118.00000000000001" fill="rgb(0, 0, 0)" stroke="rgb(66, 66, 66)" stroke-width="1px" opacity="0.25"></line><line x1="0" y1="98.33333333333334" x2="280" y2="98.33333333333334" fill="rgb(0, 0, 0)" stroke="rgb(66, 66, 66)" stroke-width="1px" opacity="0.25"></line><line x1="0" y1="78.66666666666666" x2="280" y2="78.66666666666666" fill="rgb(0, 0, 0)" stroke="rgb(66, 66, 66)" stroke-width="1px" opacity="0.25"></line><line x1="0" y1="59.00000000000001" x2="280" y2="59.00000000000001" fill="rgb(0, 0, 0)" stroke="rgb(66, 66, 66)" stroke-width="1px" opacity="0.25"></line><line x1="0" y1="39.33333333333333" x2="280" y2="39.33333333333333" fill="rgb(0, 0, 0)" stroke="rgb(66, 66, 66)" stroke-width="1px" opacity="0.25"></line><line x1="0" y1="19.666666666666675" x2="280" y2="19.666666666666675" fill="rgb(0, 0, 0)" stroke="rgb(66, 66, 66)" stroke-width="1px" opacity="0.25"></line><line x1="0" y1="0" x2="280" y2="0" fill="rgb(0, 0, 0)" stroke="rgb(66, 66, 66)" stroke-width="1px" opacity="0.25"></line></g></g></g><g><g><line x1="0" y1="157.33333333333331" x2="280" y2="157.33333333333331" fill="rgb(0, 0, 0)" stroke="rgb(153, 153, 153)" stroke-width="1.5px"></line></g></g><g><g><line x1="21.53846153846154" y1="0" x2="21.53846153846154" y2="177" fill="rgb(0, 0, 0)" stroke="rgb(153, 153, 153)" stroke-width="1.5px"></line></g></g><g><g><g><g><g><path stroke="rgb(255, 112, 67)" stroke-width="2px" d="M21.53846153846154,3.966733296712231L23.692307692307693,5.0794792970021545L25.846153846153847,3.249237057303091L28,6.7975788437852795L30.153846153846157,11.79505988433632L32.30769230769231,18.152850495181166L34.46153846153847,24.263396801329375L36.61538461538462,26.489460452591523L38.769230769230774,31.258247400335033L40.92307692307693,37.11416049114088L43.07692307692308,44.48271533465984L45.23076923076923,50.99232083456846L47.38461538461539,55.95980477730809L49.53846153846154,62.012690088602646L51.69230769230769,68.44550868842423L53.84615384615385,74.33540161323414L56,79.33934589421709L58.15384615384616,81.64099037108429L60.307692307692314,86.52697407381449L62.46153846153847,89.56614357724412L64.61538461538461,88.21795412265394L66.76923076923077,92.08790854319071L68.92307692307693,96.86064840555386L71.07692307692307,99.36336570649274L73.23076923076924,103.63134532817882L75.38461538461539,105.50354625454348L77.53846153846155,109.29518847115308L79.6923076923077,112.5866464111776L81.84615384615385,116.5156688464588L84,119.67377009508922L86.15384615384616,120.90877753497246L88.3076923076923,122.98088157376856L90.46153846153847,125.48275408890746L92.61538461538461,126.18050409814255L94.76923076923077,127.44452503386812L96.92307692307692,129.37819599157478L99.07692307692308,131.786723130226L101.23076923076923,132.94905942312133L103.38461538461539,134.3281764317358L105.53846153846153,135.16938792155207L107.6923076923077,136.26488088746925L109.84615384615384,137.204243933693L112,139.64478947125932L114.15384615384615,140.67338259279504L116.30769230769232,140.84846674956577L118.46153846153847,141.48003180562043L120.61538461538463,140.36002182005774L122.76923076923077,140.7636688890484L124.92307692307693,142.2757792359254L127.07692307692308,142.84146995658108L129.23076923076923,143.93280134587675L131.3846153846154,144.66895069672395L133.53846153846155,145.8852691173201L135.69230769230768,147.0907179983258L137.84615384615387,147.3553344928306L140,147.0050784820167L142.15384615384613,140.8984982852434L144.3076923076923,143.61260730530626L146.46153846153848,145.45601675811903L148.6153846153846,144.252580296418L150.76923076923077,145.96668287401656L152.9230769230769,148.0478947894887L155.0769230769231,149.28881445350942L157.23076923076923,149.77895692282536L159.3846153846154,150.5161876437681L161.53846153846152,149.58899511640968L163.6923076923077,150.27046422806802L165.84615384615384,150.56366095134072L168,149.75384095026126L170.15384615384613,151.4443627161567L172.30769230769232,151.6518454847406L174.46153846153845,151.67400860573872L176.6153846153846,149.13747092755253L178.76923076923075,150.66665633323757L180.92307692307693,151.517834781426L183.07692307692307,152.90381570288608L185.23076923076923,154.18523841428203L187.38461538461536,153.80103965199456L189.53846153846155,150.92065140960494L191.6923076923077,151.6856409551176L193.84615384615384,153.18733187664384L196,152.3010945527683L198.15384615384616,152.10582588964283L200.30769230769232,152.95746337684142L202.46153846153845,154.24920605905143L204.6153846153846,154.4073885338741L206.76923076923077,153.1329997454427L208.92307692307693,151.6854405646131L211.07692307692307,150.41681609816982L213.23076923076923,152.58086152633607L215.3846153846154,153.39281600968388L217.53846153846155,151.14936562531997L219.69230769230768,152.42783190103654L221.84615384615384,153.35547116374346L224,153.9567604401233L226.15384615384616,153.72881979575885L228.3076923076923,152.6937824497489L230.46153846153845,153.16628847379693L232.61538461538464,153.49595828171098L234.76923076923077,153.25565514156537L236.92307692307693,153.19971598698288L239.07692307692307,154.36613079565916L241.23076923076925,155.05555663997822L243.3846153846154,155.26067689256803L245.53846153846155,153.5964928300993L247.69230769230768,154.50835320344464L249.84615384615387,155.27590762669382L252,155.3713300968878L254.15384615384616,155.71249651386375" style="fill: none;" fill="none"></path></g></g></g></g><g opacity="0.2"><g><g><g><path stroke="rgb(255, 112, 67)" stroke-width="2px" d="M21.53846153846154,3.966733296712231L23.692307692307693,5.747126897176105L25.846153846153847,1.4922045071919672L28,10.970428784688306L30.153846153846157,18.319771130879726L32.30769230769231,26.94796371459961L34.46153846153847,33.00157578786213L36.61538461538462,29.73508262634278L38.769230769230774,38.29128185908L40.92307692307693,45.80950895945231L43.07692307692308,55.46871534983318L45.23076923076923,60.72130409876506L47.38461538461539,63.39481099446614L49.53846153846154,71.08015982309978L51.69230769230769,78.08717505137125L53.84615384615385,83.166086991628L56,86.84314481417337L58.15384615384616,85.09287269910176L60.307692307692314,93.85520529747008L62.46153846153847,94.12462004025777L64.61538461538461,86.19574387868246L66.76923076923077,97.8927128314972L68.92307692307693,104.0196639696757L71.07692307692307,103.11741201082866L73.23076923076924,110.03328442573546L75.38461538461539,108.31183966000876L77.53846153846155,114.98264209429423L79.6923076923077,117.52382826805115L81.84615384615385,122.4091988801956L84,124.41092022260031L86.15384615384616,122.76128828525545L88.3076923076923,126.08903721968332L90.46153846153847,129.2355625629425L92.61538461538461,127.2271290620168L94.76923076923077,129.34055638313293L96.92307692307692,132.278702378273L99.07692307692308,135.39951380093893L101.23076923076923,134.69256385167438L103.38461538461539,136.3968519369761L105.53846153846153,136.43120515346527L107.6923076923077,137.9081203341484L109.84615384615384,138.61328850189844L112,143.3056077758471L114.15384615384615,142.21627227465314L116.30769230769232,141.11109298467636L118.46153846153847,142.42737938960394L120.61538461538463,138.68000684181848L122.76923076923077,141.36913949251175L124.92307692307693,144.54394475619L127.07692307692308,143.69000603755316L129.23076923076923,145.56979842980704L131.3846153846154,145.7731747229894L133.53846153846155,147.709746748209L135.69230769230768,148.8988913198312L137.84615384615387,147.75225923458737L140,146.47969446579617L142.15384615384613,131.73862799008688L144.3076923076923,147.68377083539963L146.46153846153848,148.22113093733788L148.6153846153846,142.44742560386658L150.76923076923077,148.5378367404143L152.9230769230769,151.16971266269684L155.0769230769231,151.15019394954047L157.23076923076923,150.51417062679928L159.3846153846154,151.62203372518223L161.53846153846152,148.19820632537204L163.6923076923077,151.2926678955555L165.84615384615384,151.0034560362498L168,148.5391109486421L170.15384615384613,153.98014536499977L172.30769230769232,151.96306963761648L174.46153846153845,151.7072532872359L176.6153846153846,145.33266441027325L178.76923076923075,152.96043444176516L180.92307692307693,152.79460245370865L183.07692307692307,154.98278708507615L185.23076923076923,156.10737248137593L187.38461538461536,153.22474150856337L189.53846153846155,146.6000690460205L191.6923076923077,152.83312527338663L193.84615384615384,155.43986825893322L196,150.9717385669549L198.15384615384616,151.81292289495468L200.30769230769232,154.2349196076393L202.46153846153845,156.18682008236647L204.6153846153846,154.64466224610806L206.76923076923077,151.22141656279564L208.92307692307693,149.51410179336867L211.07692307692307,148.51387939850488L213.23076923076923,155.82692966858548L215.3846153846154,154.6107477347056L217.53846153846155,147.7841900487741L219.69230769230768,154.34553131461143L221.84615384615384,154.74693005780378L224,154.85869435469309L226.15384615384616,153.3869088292122L228.3076923076923,151.141226430734L230.46153846153845,153.87504750986895L232.61538461538464,153.9904629935821L234.76923076923077,152.8952004313469L236.92307692307693,153.11580725510916L239.07692307692307,156.1157530086736L241.23076923076925,156.08969540645677L243.3846153846154,155.56835727145275L245.53846153846155,151.10021673639613L247.69230769230768,155.8761437634627L249.84615384615387,156.4272392615676L252,155.5144638021787L254.15384615384616,156.2242461393277" style="fill: none;" fill="none"></path></g></g></g></g></g></g><g transform="translate(50, 177)" clip-path="url(#clip_1)"><clipPath id="clip_1"><rect width="280" height="23"></rect></clipPath><g><g><line x1="0" y1="0" x2="0" y2="5" style="visibility: inherit;" fill="rgb(0, 0, 0)" stroke="rgb(204, 204, 204)" stroke-width="1px"></line><line x1="21.53846153846154" y1="0" x2="21.53846153846154" y2="5" style="visibility: inherit;" fill="rgb(0, 0, 0)" stroke="rgb(204, 204, 204)" stroke-width="1px"></line><line x1="43.07692307692308" y1="0" x2="43.07692307692308" y2="5" style="visibility: inherit;" fill="rgb(0, 0, 0)" stroke="rgb(204, 204, 204)" stroke-width="1px"></line><line x1="64.61538461538461" y1="0" x2="64.61538461538461" y2="5" style="visibility: inherit;" fill="rgb(0, 0, 0)" stroke="rgb(204, 204, 204)" stroke-width="1px"></line><line x1="86.15384615384616" y1="0" x2="86.15384615384616" y2="5" style="visibility: inherit;" fill="rgb(0, 0, 0)" stroke="rgb(204, 204, 204)" stroke-width="1px"></line><line x1="107.6923076923077" y1="0" x2="107.6923076923077" y2="5" style="visibility: inherit;" fill="rgb(0, 0, 0)" stroke="rgb(204, 204, 204)" stroke-width="1px"></line><line x1="129.23076923076923" y1="0" x2="129.23076923076923" y2="5" style="visibility: inherit;" fill="rgb(0, 0, 0)" stroke="rgb(204, 204, 204)" stroke-width="1px"></line><line x1="150.76923076923077" y1="0" x2="150.76923076923077" y2="5" style="visibility: inherit;" fill="rgb(0, 0, 0)" stroke="rgb(204, 204, 204)" stroke-width="1px"></line><line x1="172.30769230769232" y1="0" x2="172.30769230769232" y2="5" style="visibility: inherit;" fill="rgb(0, 0, 0)" stroke="rgb(204, 204, 204)" stroke-width="1px"></line><line x1="193.84615384615384" y1="0" x2="193.84615384615384" y2="5" style="visibility: inherit;" fill="rgb(0, 0, 0)" stroke="rgb(204, 204, 204)" stroke-width="1px"></line><line x1="215.3846153846154" y1="0" x2="215.3846153846154" y2="5" style="visibility: inherit;" fill="rgb(0, 0, 0)" stroke="rgb(204, 204, 204)" stroke-width="1px"></line><line x1="236.92307692307693" y1="0" x2="236.92307692307693" y2="5" style="visibility: inherit;" fill="rgb(0, 0, 0)" stroke="rgb(204, 204, 204)" stroke-width="1px"></line><line x1="258.46153846153845" y1="0" x2="258.46153846153845" y2="5" style="visibility: inherit;" fill="rgb(0, 0, 0)" stroke="rgb(204, 204, 204)" stroke-width="1px"></line><line x1="280" y1="0" x2="280" y2="5" style="visibility: inherit;" fill="rgb(0, 0, 0)" stroke="rgb(204, 204, 204)" stroke-width="1px"></line></g><g transform="translate(0, 8)"><text x="0" y="0" dx="0em" dy="0.95em" style="text-anchor: middle; visibility: hidden; font-family: Roboto, sans-serif; font-size: 12px; font-weight: 200;" fill="rgb(33, 33, 33)" stroke="none" stroke-width="1px">-10</text><text x="21.53846153846154" y="0" dx="0em" dy="0.95em" style="text-anchor: middle; visibility: inherit; font-family: Roboto, sans-serif; font-size: 12px; font-weight: 200;" fill="rgb(33, 33, 33)" stroke="none" stroke-width="1px">0</text><text x="43.07692307692308" y="0" dx="0em" dy="0.95em" style="text-anchor: middle; visibility: hidden; font-family: Roboto, sans-serif; font-size: 12px; font-weight: 200;" fill="rgb(33, 33, 33)" stroke="none" stroke-width="1px">10</text><text x="64.61538461538461" y="0" dx="0em" dy="0.95em" style="text-anchor: middle; visibility: inherit; font-family: Roboto, sans-serif; font-size: 12px; font-weight: 200;" fill="rgb(33, 33, 33)" stroke="none" stroke-width="1px">20</text><text x="86.15384615384616" y="0" dx="0em" dy="0.95em" style="text-anchor: middle; visibility: hidden; font-family: Roboto, sans-serif; font-size: 12px; font-weight: 200;" fill="rgb(33, 33, 33)" stroke="none" stroke-width="1px">30</text><text x="107.6923076923077" y="0" dx="0em" dy="0.95em" style="text-anchor: middle; visibility: inherit; font-family: Roboto, sans-serif; font-size: 12px; font-weight: 200;" fill="rgb(33, 33, 33)" stroke="none" stroke-width="1px">40</text><text x="129.23076923076923" y="0" dx="0em" dy="0.95em" style="text-anchor: middle; visibility: hidden; font-family: Roboto, sans-serif; font-size: 12px; font-weight: 200;" fill="rgb(33, 33, 33)" stroke="none" stroke-width="1px">50</text><text x="150.76923076923077" y="0" dx="0em" dy="0.95em" style="text-anchor: middle; visibility: inherit; font-family: Roboto, sans-serif; font-size: 12px; font-weight: 200;" fill="rgb(33, 33, 33)" stroke="none" stroke-width="1px">60</text><text x="172.30769230769232" y="0" dx="0em" dy="0.95em" style="text-anchor: middle; visibility: hidden; font-family: Roboto, sans-serif; font-size: 12px; font-weight: 200;" fill="rgb(33, 33, 33)" stroke="none" stroke-width="1px">70</text><text x="193.84615384615384" y="0" dx="0em" dy="0.95em" style="text-anchor: middle; visibility: inherit; font-family: Roboto, sans-serif; font-size: 12px; font-weight: 200;" fill="rgb(33, 33, 33)" stroke="none" stroke-width="1px">80</text><text x="215.3846153846154" y="0" dx="0em" dy="0.95em" style="text-anchor: middle; visibility: hidden; font-family: Roboto, sans-serif; font-size: 12px; font-weight: 200;" fill="rgb(33, 33, 33)" stroke="none" stroke-width="1px">90</text><text x="236.92307692307693" y="0" dx="0em" dy="0.95em" style="text-anchor: middle; visibility: inherit; font-family: Roboto, sans-serif; font-size: 12px; font-weight: 200;" fill="rgb(33, 33, 33)" stroke="none" stroke-width="1px">100</text><text x="258.46153846153845" y="0" dx="0em" dy="0.95em" style="text-anchor: middle; visibility: hidden; font-family: Roboto, sans-serif; font-size: 12px; font-weight: 200;" fill="rgb(33, 33, 33)" stroke="none" stroke-width="1px">110</text><text x="280" y="0" dx="0em" dy="0.95em" style="text-anchor: middle; visibility: hidden; font-family: Roboto, sans-serif; font-size: 12px; font-weight: 200;" fill="rgb(33, 33, 33)" stroke="none" stroke-width="1px">120</text></g><line x1="0" y1="0" x2="280" y2="0" fill="rgb(0, 0, 0)" stroke="rgb(204, 204, 204)" stroke-width="1px"></line></g></g></g></g></svg>