<svg viewBox="0 0 330 200" xmlns="http://www.w3.org/2000/svg"><g><g><g><g><g><line x1="40" y1="177" x2="35" y2="177" style="visibility: inherit;" fill="rgb(0, 0, 0)" stroke="rgb(204, 204, 204)" stroke-width="1px"></line><line x1="40" y1="160.9090909090909" x2="35" y2="160.9090909090909" style="visibility: inherit;" fill="rgb(0, 0, 0)" stroke="rgb(204, 204, 204)" stroke-width="1px"></line><line x1="40" y1="144.8181818181818" x2="35" y2="144.8181818181818" style="visibility: inherit;" fill="rgb(0, 0, 0)" stroke="rgb(204, 204, 204)" stroke-width="1px"></line><line x1="40" y1="128.72727272727272" x2="35" y2="128.72727272727272" style="visibility: inherit;" fill="rgb(0, 0, 0)" stroke="rgb(204, 204, 204)" stroke-width="1px"></line><line x1="40" y1="112.63636363636364" x2="35" y2="112.63636363636364" style="visibility: inherit;" fill="rgb(0, 0, 0)" stroke="rgb(204, 204, 204)" stroke-width="1px"></line><line x1="40" y1="96.54545454545453" x2="35" y2="96.54545454545453" style="visibility: inherit;" fill="rgb(0, 0, 0)" stroke="rgb(204, 204, 204)" stroke-width="1px"></line><line x1="40" y1="80.45454545454547" x2="35" y2="80.45454545454547" style="visibility: inherit;" fill="rgb(0, 0, 0)" stroke="rgb(204, 204, 204)" stroke-width="1px"></line><line x1="40" y1="64.36363636363639" x2="35" y2="64.36363636363639" style="visibility: inherit;" fill="rgb(0, 0, 0)" stroke="rgb(204, 204, 204)" stroke-width="1px"></line><line x1="40" y1="48.272727272727266" x2="35" y2="48.272727272727266" style="visibility: inherit;" fill="rgb(0, 0, 0)" stroke="rgb(204, 204, 204)" stroke-width="1px"></line><line x1="40" y1="32.181818181818194" x2="35" y2="32.181818181818194" style="visibility: inherit;" fill="rgb(0, 0, 0)" stroke="rgb(204, 204, 204)" stroke-width="1px"></line><line x1="40" y1="16.090909090909097" x2="35" y2="16.090909090909097" style="visibility: inherit;" fill="rgb(0, 0, 0)" stroke="rgb(204, 204, 204)" stroke-width="1px"></line><line x1="40" y1="0" x2="35" y2="0" style="visibility: inherit;" fill="rgb(0, 0, 0)" stroke="rgb(204, 204, 204)" stroke-width="1px"></line></g><g transform="translate(30, 0)"><text x="0" y="177" dx="0em" dy="0.3em" style="text-anchor: end; visibility: hidden; font-family: Roboto, sans-serif; font-size: 12px; font-weight: 200;" fill="rgb(33, 33, 33)" stroke="none" stroke-width="1px">0</text><text x="0" y="160.9090909090909" dx="0em" dy="0.3em" style="text-anchor: end; visibility: inherit; font-family: Roboto, sans-serif; font-size: 12px; font-weight: 200;" fill="rgb(33, 33, 33)" stroke="none" stroke-width="1px">0.1</text><text x="0" y="144.8181818181818" dx="0em" dy="0.3em" style="text-anchor: end; visibility: hidden; font-family: Roboto, sans-serif; font-size: 12px; font-weight: 200;" fill="rgb(33, 33, 33)" stroke="none" stroke-width="1px">0.2</text><text x="0" y="128.72727272727272" dx="0em" dy="0.3em" style="text-anchor: end; visibility: inherit; font-family: Roboto, sans-serif; font-size: 12px; font-weight: 200;" fill="rgb(33, 33, 33)" stroke="none" stroke-width="1px">0.3</text><text x="0" y="112.63636363636364" dx="0em" dy="0.3em" style="text-anchor: end; visibility: hidden; font-family: Roboto, sans-serif; font-size: 12px; font-weight: 200;" fill="rgb(33, 33, 33)" stroke="none" stroke-width="1px">0.4</text><text x="0" y="96.54545454545453" dx="0em" dy="0.3em" style="text-anchor: end; visibility: inherit; font-family: Roboto, sans-serif; font-size: 12px; font-weight: 200;" fill="rgb(33, 33, 33)" stroke="none" stroke-width="1px">0.5</text><text x="0" y="80.45454545454547" dx="0em" dy="0.3em" style="text-anchor: end; visibility: hidden; font-family: Roboto, sans-serif; font-size: 12px; font-weight: 200;" fill="rgb(33, 33, 33)" stroke="none" stroke-width="1px">0.6</text><text x="0" y="64.36363636363639" dx="0em" dy="0.3em" style="text-anchor: end; visibility: inherit; font-family: Roboto, sans-serif; font-size: 12px; font-weight: 200;" fill="rgb(33, 33, 33)" stroke="none" stroke-width="1px">0.7</text><text x="0" y="48.272727272727266" dx="0em" dy="0.3em" style="text-anchor: end; visibility: hidden; font-family: Roboto, sans-serif; font-size: 12px; font-weight: 200;" fill="rgb(33, 33, 33)" stroke="none" stroke-width="1px">0.8</text><text x="0" y="32.181818181818194" dx="0em" dy="0.3em" style="text-anchor: end; visibility: inherit; font-family: Roboto, sans-serif; font-size: 12px; font-weight: 200;" fill="rgb(33, 33, 33)" stroke="none" stroke-width="1px">0.9</text><text x="0" y="16.090909090909097" dx="0em" dy="0.3em" style="text-anchor: end; visibility: hidden; font-family: Roboto, sans-serif; font-size: 12px; font-weight: 200;" fill="rgb(33, 33, 33)" stroke="none" stroke-width="1px">1</text><text x="0" y="0" dx="0em" dy="0.3em" style="text-anchor: end; visibility: hidden; font-family: Roboto, sans-serif; font-size: 12px; font-weight: 200;" fill="rgb(33, 33, 33)" stroke="none" stroke-width="1px">1.1</text></g><line x1="40" y1="0" x2="40" y2="177" fill="rgb(0, 0, 0)" stroke="rgb(204, 204, 204)" stroke-width="1px"></line></g></g><g transform="translate(40, 0)" clip-path="url(#clip_0)"><clipPath id="clip_0"><rect width="290" height="177"></rect></clipPath><g><g><g><line x1="0" y1="0" x2="0" y2="177" fill="rgb(0, 0, 0)" stroke="rgb(66, 66, 66)" stroke-width="1px" opacity="0.25"></line><line x1="20.71428571428571" y1="0" x2="20.71428571428571" y2="177" fill="rgb(0, 0, 0)" stroke="rgb(66, 66, 66)" stroke-width="1px" opacity="0.25"></line><line x1="41.42857142857142" y1="0" x2="41.42857142857142" y2="177" fill="rgb(0, 0, 0)" stroke="rgb(66, 66, 66)" stroke-width="1px" opacity="0.25"></line><line x1="62.14285714285714" y1="0" x2="62.14285714285714" y2="177" fill="rgb(0, 0, 0)" stroke="rgb(66, 66, 66)" stroke-width="1px" opacity="0.25"></line><line x1="82.85714285714285" y1="0" x2="82.85714285714285" y2="177" fill="rgb(0, 0, 0)" stroke="rgb(66, 66, 66)" stroke-width="1px" opacity="0.25"></line><line x1="103.57142857142857" y1="0" x2="103.57142857142857" y2="177" fill="rgb(0, 0, 0)" stroke="rgb(66, 66, 66)" stroke-width="1px" opacity="0.25"></line><line x1="124.28571428571428" y1="0" x2="124.28571428571428" y2="177" fill="rgb(0, 0, 0)" stroke="rgb(66, 66, 66)" stroke-width="1px" opacity="0.25"></line><line x1="145" y1="0" x2="145" y2="177" fill="rgb(0, 0, 0)" stroke="rgb(66, 66, 66)" stroke-width="1px" opacity="0.25"></line><line x1="165.7142857142857" y1="0" x2="165.7142857142857" y2="177" fill="rgb(0, 0, 0)" stroke="rgb(66, 66, 66)" stroke-width="1px" opacity="0.25"></line><line x1="186.42857142857144" y1="0" x2="186.42857142857144" y2="177" fill="rgb(0, 0, 0)" stroke="rgb(66, 66, 66)" stroke-width="1px" opacity="0.25"></line><line x1="207.14285714285714" y1="0" x2="207.14285714285714" y2="177" fill="rgb(0, 0, 0)" stroke="rgb(66, 66, 66)" stroke-width="1px" opacity="0.25"></line><line x1="227.85714285714286" y1="0" x2="227.85714285714286" y2="177" fill="rgb(0, 0, 0)" stroke="rgb(66, 66, 66)" stroke-width="1px" opacity="0.25"></line><line x1="248.57142857142856" y1="0" x2="248.57142857142856" y2="177" fill="rgb(0, 0, 0)" stroke="rgb(66, 66, 66)" stroke-width="1px" opacity="0.25"></line><line x1="269.2857142857143" y1="0" x2="269.2857142857143" y2="177" fill="rgb(0, 0, 0)" stroke="rgb(66, 66, 66)" stroke-width="1px" opacity="0.25"></line><line x1="290" y1="0" x2="290" y2="177" fill="rgb(0, 0, 0)" stroke="rgb(66, 66, 66)" stroke-width="1px" opacity="0.25"></line></g><g><line x1="0" y1="177" x2="290" y2="177" fill="rgb(0, 0, 0)" stroke="rgb(66, 66, 66)" stroke-width="1px" opacity="0.25"></line><line x1="0" y1="160.9090909090909" x2="290" y2="160.9090909090909" fill="rgb(0, 0, 0)" stroke="rgb(66, 66, 66)" stroke-width="1px" opacity="0.25"></line><line x1="0" y1="144.8181818181818" x2="290" y2="144.8181818181818" fill="rgb(0, 0, 0)" stroke="rgb(66, 66, 66)" stroke-width="1px" opacity="0.25"></line><line x1="0" y1="128.72727272727272" x2="290" y2="128.72727272727272" fill="rgb(0, 0, 0)" stroke="rgb(66, 66, 66)" stroke-width="1px" opacity="0.25"></line><line x1="0" y1="112.63636363636364" x2="290" y2="112.63636363636364" fill="rgb(0, 0, 0)" stroke="rgb(66, 66, 66)" stroke-width="1px" opacity="0.25"></line><line x1="0" y1="96.54545454545453" x2="290" y2="96.54545454545453" fill="rgb(0, 0, 0)" stroke="rgb(66, 66, 66)" stroke-width="1px" opacity="0.25"></line><line x1="0" y1="80.45454545454547" x2="290" y2="80.45454545454547" fill="rgb(0, 0, 0)" stroke="rgb(66, 66, 66)" stroke-width="1px" opacity="0.25"></line><line x1="0" y1="64.36363636363639" x2="290" y2="64.36363636363639" fill="rgb(0, 0, 0)" stroke="rgb(66, 66, 66)" stroke-width="1px" opacity="0.25"></line><line x1="0" y1="48.272727272727266" x2="290" y2="48.272727272727266" fill="rgb(0, 0, 0)" stroke="rgb(66, 66, 66)" stroke-width="1px" opacity="0.25"></line><line x1="0" y1="32.181818181818194" x2="290" y2="32.181818181818194" fill="rgb(0, 0, 0)" stroke="rgb(66, 66, 66)" stroke-width="1px" opacity="0.25"></line><line x1="0" y1="16.090909090909097" x2="290" y2="16.090909090909097" fill="rgb(0, 0, 0)" stroke="rgb(66, 66, 66)" stroke-width="1px" opacity="0.25"></line><line x1="0" y1="0" x2="290" y2="0" fill="rgb(0, 0, 0)" stroke="rgb(66, 66, 66)" stroke-width="1px" opacity="0.25"></line></g></g></g><g><g><line x1="0" y1="177" x2="290" y2="177" fill="rgb(0, 0, 0)" stroke="rgb(153, 153, 153)" stroke-width="1.5px"></line></g></g><g><g><line x1="20.71428571428571" y1="0" x2="20.71428571428571" y2="177" fill="rgb(0, 0, 0)" stroke="rgb(153, 153, 153)" stroke-width="1.5px"></line></g></g><g><g><g><g><g><path stroke="rgb(255, 112, 67)" stroke-width="2px" d="M20.71428571428571,163.2556817382574L22.785714285714285,164.72230115634474L24.857142857142858,163.71747470347137L26.92857142857143,161.04034740147105L29,160.1837347311542L31.07142857142857,160.76938316155872L33.14285714285714,161.447662644187L35.214285714285715,160.27388242631923L37.285714285714285,157.34733616465994L39.357142857142854,155.88021263779697L41.42857142857142,152.5832112937134L43.5,149.73919005891878L45.57142857142857,146.0898846003678L47.642857142857146,146.72147083233975L49.714285714285715,142.13640810630136L51.785714285714285,138.91729945906127L53.85714285714286,145.56968707303824L55.92857142857143,148.95692910712896L58,149.044617417044L60.07142857142858,147.15283764739706L62.14285714285714,149.57130154428353L64.21428571428571,150.62006732999777L66.28571428571428,149.0368006856757L68.35714285714286,146.67888786811022L70.42857142857143,143.25277797336827L72.5,139.58802327382932L74.57142857142857,133.9698531571838L76.64285714285714,128.65463628663076L78.71428571428571,122.24732448207087L80.78571428571429,116.4586211937547L82.85714285714285,110.37062658204832L84.92857142857143,104.97464811917503L87,100.530244227763L89.07142857142858,98.33292073552329L91.14285714285714,96.34407084470052L93.21428571428572,91.39621518305877L95.28571428571429,86.68431973400777L97.35714285714285,86.1367276904915L99.42857142857143,82.32180831003586L101.5,77.35104105938007L103.57142857142857,74.23448801373394L105.64285714285714,69.54864786295619L107.71428571428572,65.66441752392815L109.78571428571428,62.73046792839246L111.85714285714286,59.15987166575522L113.92857142857143,58.02319572665497L116,55.79914522015325L118.07142857142857,56.945397246059215L120.14285714285715,56.024055250650754L122.21428571428571,54.666705366135986L124.28571428571428,51.63979466814907L126.35714285714286,49.48842225542867L128.42857142857142,47.661235682952054L130.5,51.32515126795852L132.57142857142856,49.29963621531928L134.64285714285714,44.26273704191856L136.71428571428572,42.17923492454836L138.78571428571428,40.66094825533113L140.85714285714286,40.48747650955909L142.92857142857144,48.16066644512713L145,45.5236743846557L147.07142857142856,43.60624931806451L149.14285714285714,40.71261220416987L151.21428571428572,46.686658487350996L153.28571428571428,45.510858728774224L155.35714285714286,42.25765211241713L157.42857142857142,39.903453880781456L159.5,38.155708947863374L161.57142857142858,35.497972613570276L163.64285714285714,34.1715123754181L165.7142857142857,31.900635721010573L167.7857142857143,30.33697259745538L169.85714285714286,29.666956285745954L171.92857142857142,30.270628316902144L174,29.157831024079616L176.07142857142856,28.758334210809807L178.14285714285717,28.317498991937224L180.21428571428572,29.058679678795485L182.28571428571428,29.637480790308125L184.35714285714283,27.906353389339078L186.42857142857144,26.599495386333945L188.5,25.346061891196463L190.57142857142858,24.392864663203262L192.64285714285714,23.753901894894348L194.7142857142857,23.1023426714853L196.7857142857143,24.521633642892787L198.85714285714286,24.233433708157776L200.92857142857142,23.926424884290764L203,23.07176376572543L205.07142857142858,23.765786043678762L207.14285714285714,25.321970091658596L209.21428571428572,24.713635577417275L211.28571428571428,22.80658992584323L213.35714285714286,22.533955490054616L215.42857142857144,22.303326560696764L217.5,22.83540502732715L219.57142857142856,22.21601472063657L221.64285714285714,26.87278962753132L223.71428571428572,26.247538691672982L225.78571428571428,28.889433584703458L227.85714285714286,26.652976542333484L229.92857142857142,24.506557629640362L232,22.481206026266396L234.07142857142858,21.534176626665705L236.14285714285714,22.5080077663062L238.2142857142857,21.751394801600302L240.2857142857143,20.559926767018638L242.35714285714286,20.649590633540754L244.42857142857142,22.848845289215372L246.5,22.492260440193217L248.57142857142856,21.272627712598105L250.64285714285717,21.680622593620523L252.71428571428572,22.1936010846577L254.78571428571428,21.227524798674477L256.85714285714283,19.776286071928734L258.92857142857144,18.771453972855294L261,18.503780707347925L263.07142857142856,18.074995185619816L265.1428571428571,21.035906458039108L267.2142857142857,25.963587539062132L269.2857142857143,24.29406135858828L271.35714285714283,22.353708263635138L273.42857142857144,21.524726236971627" style="fill: none;" fill="none"></path></g></g></g></g><g opacity="0.2"><g><g><g><path stroke="rgb(255, 112, 67)" stroke-width="2px" d="M20.71428571428571,163.2556817382574L22.785714285714285,165.60227280719712L24.857142857142858,162.75284130871296L26.92857142857143,157.89204569431868L29,159.06534122878855L31.07142857142857,161.5795457742431L33.14285714285714,162.41761315681717L35.214285714285715,158.56249960037795L37.285714285714285,153.03124888105825L39.357142857142854,153.70170518484983L41.42857142857142,147.66761283711955L43.5,145.48863524469465L45.57142857142857,140.62784202803266L47.642857142857146,147.66761283711955L49.714285714285715,135.26420358636162L51.785714285714285,134.09090685302561L53.85714285714286,155.5454534265128L55.92857142857143,154.03693213787946L58,149.17613652348518L60.07142857142858,144.31534090909093L62.14285714285714,153.19886475530538L64.21428571428571,152.19318149848417L66.28571428571428,146.66193197803065L68.35714285714286,143.14204657348722L70.42857142857143,138.1136374825781L72.5,134.09090685302561L74.57142857142857,125.54261235757306L76.64285714285714,120.6818191409111L78.71428571428571,112.63636267727072L80.78571428571429,107.77556946060874L82.85714285714285,101.23863668333402L84.92857142857143,96.88068149848417L87,93.86363892121747L89.07142857142858,95.0369356545535L91.14285714285714,93.36079609394073L93.21428571428572,83.97443181818183L95.28571428571429,79.616476633332L97.35714285714285,85.31533963030036L99.42857142857143,76.59942926060071L101.5,69.89489020000806L103.57142857142857,69.55965845151383L105.64285714285714,62.51988764242693L107.71428571428572,59.83807201818987L109.78571428571428,58.32954353635962L111.85714285714286,53.80397727272729L113.92857142857143,56.31818181818183L116,52.46306946060876L118.07142857142857,58.66477528485386L120.14285714285715,54.64204225756906L122.21428571428571,52.630680539391264L124.28571428571428,47.09942862120542L126.35714285714286,46.261363636363654L128.42857142857142,44.920455824245124L130.5,56.82102464545857L132.57142857142856,46.261363636363654L134.64285714285714,36.707388281822226L136.71428571428572,39.05398174849424L138.78571428571428,38.38351825150578L140.85714285714286,40.22726889090105L142.92857142857144,59.67045134847815L145,41.5681862939488L147.07142857142856,40.73011171817782L149.14285714285714,36.37215653332798L151.21428571428572,55.64772791212256L153.28571428571428,43.74715909090909L155.35714285714286,37.37784218788149L157.42857142857142,36.37215653332798L159.5,35.534091548486195L161.57142857142858,31.511368112130604L163.64285714285714,32.18182201818987L165.7142857142857,28.494320739399324L167.7857142857143,27.991477912122562L169.85714285714286,28.661931818181827L171.92857142857142,31.176136363636385L174,27.488635084845818L176.07142857142856,28.159088990905083L178.14285714285717,27.65624616362832L180.21428571428572,30.17045070908288L182.28571428571428,30.50568245757712L184.35714285714283,25.3096622878855L186.42857142857144,24.639208381826236L188.5,23.465911648490227L190.57142857142858,22.963068821213465L192.64285714285714,22.795457742430962L194.7142857142857,22.125003836371697L196.7857142857143,26.650570100004032L198.85714285714286,23.801133806055255L200.92857142857142,23.465911648490227L203,21.78977208787746L205.07142857142858,24.806819460608757L207.14285714285714,27.65624616362832L209.21428571428572,23.801133806055255L211.28571428571428,19.946021448482185L213.35714285714286,22.125003836371697L215.42857142857144,21.95738316665998L217.5,23.63352272727273L219.57142857142856,21.286929260600715L221.64285714285714,33.85795198787343L223.71428571428572,25.3096622878855L225.78571428571428,32.852275924249135L227.85714285714286,23.29829097877851L229.92857142857142,21.286929260600715L232,19.443178621205423L234.07142857142858,20.113632527264688L236.14285714285714,23.96875447576697L238.2142857142857,20.61647535454145L240.2857142857143,18.772724715146158L242.35714285714286,20.784086433323953L244.42857142857142,26.147727272727288L246.5,21.95738316665998L248.57142857142856,19.443178621205423L250.64285714285717,22.2926149151542L252.71428571428572,22.963068821213465L254.78571428571428,19.778410369699664L256.85714285714283,17.59942798181015L258.92857142857144,17.264205824245124L261,18.102270809086892L263.07142857142856,17.431816903027627L265.1428571428571,25.477273366668022L267.2142857142857,33.35510916059668L269.2857142857143,21.78977208787746L271.35714285714283,19.443178621205423L273.42857142857144,20.281253196976404" style="fill: none;" fill="none"></path></g></g></g></g></g></g><g transform="translate(40, 177)" clip-path="url(#clip_1)"><clipPath id="clip_1"><rect width="290" height="23"></rect></clipPath><g><g><line x1="0" y1="0" x2="0" y2="5" style="visibility: inherit;" fill="rgb(0, 0, 0)" stroke="rgb(204, 204, 204)" stroke-width="1px"></line><line x1="20.71428571428571" y1="0" x2="20.71428571428571" y2="5" style="visibility: inherit;" fill="rgb(0, 0, 0)" stroke="rgb(204, 204, 204)" stroke-width="1px"></line><line x1="41.42857142857142" y1="0" x2="41.42857142857142" y2="5" style="visibility: inherit;" fill="rgb(0, 0, 0)" stroke="rgb(204, 204, 204)" stroke-width="1px"></line><line x1="62.14285714285714" y1="0" x2="62.14285714285714" y2="5" style="visibility: inherit;" fill="rgb(0, 0, 0)" stroke="rgb(204, 204, 204)" stroke-width="1px"></line><line x1="82.85714285714285" y1="0" x2="82.85714285714285" y2="5" style="visibility: inherit;" fill="rgb(0, 0, 0)" stroke="rgb(204, 204, 204)" stroke-width="1px"></line><line x1="103.57142857142857" y1="0" x2="103.57142857142857" y2="5" style="visibility: inherit;" fill="rgb(0, 0, 0)" stroke="rgb(204, 204, 204)" stroke-width="1px"></line><line x1="124.28571428571428" y1="0" x2="124.28571428571428" y2="5" style="visibility: inherit;" fill="rgb(0, 0, 0)" stroke="rgb(204, 204, 204)" stroke-width="1px"></line><line x1="145" y1="0" x2="145" y2="5" style="visibility: inherit;" fill="rgb(0, 0, 0)" stroke="rgb(204, 204, 204)" stroke-width="1px"></line><line x1="165.7142857142857" y1="0" x2="165.7142857142857" y2="5" style="visibility: inherit;" fill="rgb(0, 0, 0)" stroke="rgb(204, 204, 204)" stroke-width="1px"></line><line x1="186.42857142857144" y1="0" x2="186.42857142857144" y2="5" style="visibility: inherit;" fill="rgb(0, 0, 0)" stroke="rgb(204, 204, 204)" stroke-width="1px"></line><line x1="207.14285714285714" y1="0" x2="207.14285714285714" y2="5" style="visibility: inherit;" fill="rgb(0, 0, 0)" stroke="rgb(204, 204, 204)" stroke-width="1px"></line><line x1="227.85714285714286" y1="0" x2="227.85714285714286" y2="5" style="visibility: inherit;" fill="rgb(0, 0, 0)" stroke="rgb(204, 204, 204)" stroke-width="1px"></line><line x1="248.57142857142856" y1="0" x2="248.57142857142856" y2="5" style="visibility: inherit;" fill="rgb(0, 0, 0)" stroke="rgb(204, 204, 204)" stroke-width="1px"></line><line x1="269.2857142857143" y1="0" x2="269.2857142857143" y2="5" style="visibility: inherit;" fill="rgb(0, 0, 0)" stroke="rgb(204, 204, 204)" stroke-width="1px"></line><line x1="290" y1="0" x2="290" y2="5" style="visibility: inherit;" fill="rgb(0, 0, 0)" stroke="rgb(204, 204, 204)" stroke-width="1px"></line></g><g transform="translate(0, 8)"><text x="0" y="0" dx="0em" dy="0.95em" style="text-anchor: middle; visibility: hidden; font-family: Roboto, sans-serif; font-size: 12px; font-weight: 200;" fill="rgb(33, 33, 33)" stroke="none" stroke-width="1px">-10</text><text x="20.71428571428571" y="0" dx="0em" dy="0.95em" style="text-anchor: middle; visibility: inherit; font-family: Roboto, sans-serif; font-size: 12px; font-weight: 200;" fill="rgb(33, 33, 33)" stroke="none" stroke-width="1px">0</text><text x="41.42857142857142" y="0" dx="0em" dy="0.95em" style="text-anchor: middle; visibility: hidden; font-family: Roboto, sans-serif; font-size: 12px; font-weight: 200;" fill="rgb(33, 33, 33)" stroke="none" stroke-width="1px">10</text><text x="62.14285714285714" y="0" dx="0em" dy="0.95em" style="text-anchor: middle; visibility: inherit; font-family: Roboto, sans-serif; font-size: 12px; font-weight: 200;" fill="rgb(33, 33, 33)" stroke="none" stroke-width="1px">20</text><text x="82.85714285714285" y="0" dx="0em" dy="0.95em" style="text-anchor: middle; visibility: hidden; font-family: Roboto, sans-serif; font-size: 12px; font-weight: 200;" fill="rgb(33, 33, 33)" stroke="none" stroke-width="1px">30</text><text x="103.57142857142857" y="0" dx="0em" dy="0.95em" style="text-anchor: middle; visibility: inherit; font-family: Roboto, sans-serif; font-size: 12px; font-weight: 200;" fill="rgb(33, 33, 33)" stroke="none" stroke-width="1px">40</text><text x="124.28571428571428" y="0" dx="0em" dy="0.95em" style="text-anchor: middle; visibility: hidden; font-family: Roboto, sans-serif; font-size: 12px; font-weight: 200;" fill="rgb(33, 33, 33)" stroke="none" stroke-width="1px">50</text><text x="145" y="0" dx="0em" dy="0.95em" style="text-anchor: middle; visibility: inherit; font-family: Roboto, sans-serif; font-size: 12px; font-weight: 200;" fill="rgb(33, 33, 33)" stroke="none" stroke-width="1px">60</text><text x="165.7142857142857" y="0" dx="0em" dy="0.95em" style="text-anchor: middle; visibility: hidden; font-family: Roboto, sans-serif; font-size: 12px; font-weight: 200;" fill="rgb(33, 33, 33)" stroke="none" stroke-width="1px">70</text><text x="186.42857142857144" y="0" dx="0em" dy="0.95em" style="text-anchor: middle; visibility: inherit; font-family: Roboto, sans-serif; font-size: 12px; font-weight: 200;" fill="rgb(33, 33, 33)" stroke="none" stroke-width="1px">80</text><text x="207.14285714285714" y="0" dx="0em" dy="0.95em" style="text-anchor: middle; visibility: hidden; font-family: Roboto, sans-serif; font-size: 12px; font-weight: 200;" fill="rgb(33, 33, 33)" stroke="none" stroke-width="1px">90</text><text x="227.85714285714286" y="0" dx="0em" dy="0.95em" style="text-anchor: middle; visibility: inherit; font-family: Roboto, sans-serif; font-size: 12px; font-weight: 200;" fill="rgb(33, 33, 33)" stroke="none" stroke-width="1px">100</text><text x="248.57142857142856" y="0" dx="0em" dy="0.95em" style="text-anchor: middle; visibility: hidden; font-family: Roboto, sans-serif; font-size: 12px; font-weight: 200;" fill="rgb(33, 33, 33)" stroke="none" stroke-width="1px">110</text><text x="269.2857142857143" y="0" dx="0em" dy="0.95em" style="text-anchor: middle; visibility: inherit; font-family: Roboto, sans-serif; font-size: 12px; font-weight: 200;" fill="rgb(33, 33, 33)" stroke="none" stroke-width="1px">120</text><text x="290" y="0" dx="0em" dy="0.95em" style="text-anchor: middle; visibility: hidden; font-family: Roboto, sans-serif; font-size: 12px; font-weight: 200;" fill="rgb(33, 33, 33)" stroke="none" stroke-width="1px">130</text></g><line x1="0" y1="0" x2="290" y2="0" fill="rgb(0, 0, 0)" stroke="rgb(204, 204, 204)" stroke-width="1px"></line></g></g></g></g></svg>