<svg viewBox="0 0 857.8333740234375 400" xmlns="http://www.w3.org/2000/svg"><g><g><g><g><g><line x1="40" y1="377" x2="35" y2="377" style="visibility: inherit;" fill="rgb(0, 0, 0)" stroke="rgb(204, 204, 204)" stroke-width="1px"></line><line x1="40" y1="339.3" x2="35" y2="339.3" style="visibility: inherit;" fill="rgb(0, 0, 0)" stroke="rgb(204, 204, 204)" stroke-width="1px"></line><line x1="40" y1="301.6" x2="35" y2="301.6" style="visibility: inherit;" fill="rgb(0, 0, 0)" stroke="rgb(204, 204, 204)" stroke-width="1px"></line><line x1="40" y1="263.9" x2="35" y2="263.9" style="visibility: inherit;" fill="rgb(0, 0, 0)" stroke="rgb(204, 204, 204)" stroke-width="1px"></line><line x1="40" y1="226.2" x2="35" y2="226.2" style="visibility: inherit;" fill="rgb(0, 0, 0)" stroke="rgb(204, 204, 204)" stroke-width="1px"></line><line x1="40" y1="188.5" x2="35" y2="188.5" style="visibility: inherit;" fill="rgb(0, 0, 0)" stroke="rgb(204, 204, 204)" stroke-width="1px"></line><line x1="40" y1="150.8" x2="35" y2="150.8" style="visibility: inherit;" fill="rgb(0, 0, 0)" stroke="rgb(204, 204, 204)" stroke-width="1px"></line><line x1="40" y1="113.10000000000002" x2="35" y2="113.10000000000002" style="visibility: inherit;" fill="rgb(0, 0, 0)" stroke="rgb(204, 204, 204)" stroke-width="1px"></line><line x1="40" y1="75.39999999999998" x2="35" y2="75.39999999999998" style="visibility: inherit;" fill="rgb(0, 0, 0)" stroke="rgb(204, 204, 204)" stroke-width="1px"></line><line x1="40" y1="37.69999999999999" x2="35" y2="37.69999999999999" style="visibility: inherit;" fill="rgb(0, 0, 0)" stroke="rgb(204, 204, 204)" stroke-width="1px"></line><line x1="40" y1="0" x2="35" y2="0" style="visibility: inherit;" fill="rgb(0, 0, 0)" stroke="rgb(204, 204, 204)" stroke-width="1px"></line></g><g transform="translate(30, 0)"><text x="0" y="377" dx="0em" dy="0.3em" style="text-anchor: end; visibility: hidden; font-family: Roboto, sans-serif; font-size: 12px; font-weight: 200;" fill="rgb(33, 33, 33)" stroke="none" stroke-width="1px">-20</text><text x="0" y="339.3" dx="0em" dy="0.3em" style="text-anchor: end; visibility: inherit; font-family: Roboto, sans-serif; font-size: 12px; font-weight: 200;" fill="rgb(33, 33, 33)" stroke="none" stroke-width="1px">0</text><text x="0" y="301.6" dx="0em" dy="0.3em" style="text-anchor: end; visibility: inherit; font-family: Roboto, sans-serif; font-size: 12px; font-weight: 200;" fill="rgb(33, 33, 33)" stroke="none" stroke-width="1px">20</text><text x="0" y="263.9" dx="0em" dy="0.3em" style="text-anchor: end; visibility: inherit; font-family: Roboto, sans-serif; font-size: 12px; font-weight: 200;" fill="rgb(33, 33, 33)" stroke="none" stroke-width="1px">40</text><text x="0" y="226.2" dx="0em" dy="0.3em" style="text-anchor: end; visibility: inherit; font-family: Roboto, sans-serif; font-size: 12px; font-weight: 200;" fill="rgb(33, 33, 33)" stroke="none" stroke-width="1px">60</text><text x="0" y="188.5" dx="0em" dy="0.3em" style="text-anchor: end; visibility: inherit; font-family: Roboto, sans-serif; font-size: 12px; font-weight: 200;" fill="rgb(33, 33, 33)" stroke="none" stroke-width="1px">80</text><text x="0" y="150.8" dx="0em" dy="0.3em" style="text-anchor: end; visibility: inherit; font-family: Roboto, sans-serif; font-size: 12px; font-weight: 200;" fill="rgb(33, 33, 33)" stroke="none" stroke-width="1px">100</text><text x="0" y="113.10000000000002" dx="0em" dy="0.3em" style="text-anchor: end; visibility: inherit; font-family: Roboto, sans-serif; font-size: 12px; font-weight: 200;" fill="rgb(33, 33, 33)" stroke="none" stroke-width="1px">120</text><text x="0" y="75.39999999999998" dx="0em" dy="0.3em" style="text-anchor: end; visibility: inherit; font-family: Roboto, sans-serif; font-size: 12px; font-weight: 200;" fill="rgb(33, 33, 33)" stroke="none" stroke-width="1px">140</text><text x="0" y="37.69999999999999" dx="0em" dy="0.3em" style="text-anchor: end; visibility: inherit; font-family: Roboto, sans-serif; font-size: 12px; font-weight: 200;" fill="rgb(33, 33, 33)" stroke="none" stroke-width="1px">160</text><text x="0" y="0" dx="0em" dy="0.3em" style="text-anchor: end; visibility: hidden; font-family: Roboto, sans-serif; font-size: 12px; font-weight: 200;" fill="rgb(33, 33, 33)" stroke="none" stroke-width="1px">180</text></g><line x1="40" y1="0" x2="40" y2="377" fill="rgb(0, 0, 0)" stroke="rgb(204, 204, 204)" stroke-width="1px"></line></g></g><g transform="translate(40, 0)" clip-path="url(#clip_0)"><clipPath id="clip_0"><rect width="817" height="377"></rect></clipPath><g><g><g><line x1="0" y1="0" x2="0" y2="377" fill="rgb(0, 0, 0)" stroke="rgb(66, 66, 66)" stroke-width="1px" opacity="0.25"></line><line x1="74.34845454545454" y1="0" x2="74.34845454545454" y2="377" fill="rgb(0, 0, 0)" stroke="rgb(66, 66, 66)" stroke-width="1px" opacity="0.25"></line><line x1="148.6969090909091" y1="0" x2="148.6969090909091" y2="377" fill="rgb(0, 0, 0)" stroke="rgb(66, 66, 66)" stroke-width="1px" opacity="0.25"></line><line x1="223.04536363636362" y1="0" x2="223.04536363636362" y2="377" fill="rgb(0, 0, 0)" stroke="rgb(66, 66, 66)" stroke-width="1px" opacity="0.25"></line><line x1="297.3938181818182" y1="0" x2="297.3938181818182" y2="377" fill="rgb(0, 0, 0)" stroke="rgb(66, 66, 66)" stroke-width="1px" opacity="0.25"></line><line x1="371.7422727272727" y1="0" x2="371.7422727272727" y2="377" fill="rgb(0, 0, 0)" stroke="rgb(66, 66, 66)" stroke-width="1px" opacity="0.25"></line><line x1="446.09072727272724" y1="0" x2="446.09072727272724" y2="377" fill="rgb(0, 0, 0)" stroke="rgb(66, 66, 66)" stroke-width="1px" opacity="0.25"></line><line x1="520.4391818181817" y1="0" x2="520.4391818181817" y2="377" fill="rgb(0, 0, 0)" stroke="rgb(66, 66, 66)" stroke-width="1px" opacity="0.25"></line><line x1="594.7876363636364" y1="0" x2="594.7876363636364" y2="377" fill="rgb(0, 0, 0)" stroke="rgb(66, 66, 66)" stroke-width="1px" opacity="0.25"></line><line x1="669.136090909091" y1="0" x2="669.136090909091" y2="377" fill="rgb(0, 0, 0)" stroke="rgb(66, 66, 66)" stroke-width="1px" opacity="0.25"></line><line x1="743.4845454545454" y1="0" x2="743.4845454545454" y2="377" fill="rgb(0, 0, 0)" stroke="rgb(66, 66, 66)" stroke-width="1px" opacity="0.25"></line><line x1="817.833" y1="0" x2="817.833" y2="377" fill="rgb(0, 0, 0)" stroke="rgb(66, 66, 66)" stroke-width="1px" opacity="0.25"></line></g><g><line x1="0" y1="377" x2="817.833" y2="377" fill="rgb(0, 0, 0)" stroke="rgb(66, 66, 66)" stroke-width="1px" opacity="0.25"></line><line x1="0" y1="339.3" x2="817.833" y2="339.3" fill="rgb(0, 0, 0)" stroke="rgb(66, 66, 66)" stroke-width="1px" opacity="0.25"></line><line x1="0" y1="301.6" x2="817.833" y2="301.6" fill="rgb(0, 0, 0)" stroke="rgb(66, 66, 66)" stroke-width="1px" opacity="0.25"></line><line x1="0" y1="263.9" x2="817.833" y2="263.9" fill="rgb(0, 0, 0)" stroke="rgb(66, 66, 66)" stroke-width="1px" opacity="0.25"></line><line x1="0" y1="226.2" x2="817.833" y2="226.2" fill="rgb(0, 0, 0)" stroke="rgb(66, 66, 66)" stroke-width="1px" opacity="0.25"></line><line x1="0" y1="188.5" x2="817.833" y2="188.5" fill="rgb(0, 0, 0)" stroke="rgb(66, 66, 66)" stroke-width="1px" opacity="0.25"></line><line x1="0" y1="150.8" x2="817.833" y2="150.8" fill="rgb(0, 0, 0)" stroke="rgb(66, 66, 66)" stroke-width="1px" opacity="0.25"></line><line x1="0" y1="113.10000000000002" x2="817.833" y2="113.10000000000002" fill="rgb(0, 0, 0)" stroke="rgb(66, 66, 66)" stroke-width="1px" opacity="0.25"></line><line x1="0" y1="75.39999999999998" x2="817.833" y2="75.39999999999998" fill="rgb(0, 0, 0)" stroke="rgb(66, 66, 66)" stroke-width="1px" opacity="0.25"></line><line x1="0" y1="37.69999999999999" x2="817.833" y2="37.69999999999999" fill="rgb(0, 0, 0)" stroke="rgb(66, 66, 66)" stroke-width="1px" opacity="0.25"></line><line x1="0" y1="0" x2="817.833" y2="0" fill="rgb(0, 0, 0)" stroke="rgb(66, 66, 66)" stroke-width="1px" opacity="0.25"></line></g></g></g><g><g><line x1="0" y1="339.3" x2="817.833" y2="339.3" fill="rgb(0, 0, 0)" stroke="rgb(153, 153, 153)" stroke-width="1.5px"></line></g></g><g><g><line x1="74.34845454545454" y1="0" x2="74.34845454545454" y2="377" fill="rgb(0, 0, 0)" stroke="rgb(153, 153, 153)" stroke-width="1.5px"></line></g></g><g><g><g><g><g><path stroke="rgb(255, 112, 67)" stroke-width="2px" d="M74.34845454545454,333.21376132607463L78.06587727272728,333.51128570675854L81.7833,333.64140214392114L85.50072272727272,333.8235656705148L89.21814545454545,333.673313684667L92.93556818181817,333.8402398754469L96.6529909090909,334.09966478653604L100.37041363636364,334.4091408068181L104.08783636363636,334.67312685944313L107.80525909090908,307.14140083933995L111.52268181818181,-3773.4117069383674L144.97948636363637,-156.64542621729973L148.6969090909091,38.88290171274888L152.4143318181818,155.34177610602634L156.13175454545456,226.05964686482807L159.84917727272727,268.66252831195135L163.5666,294.20204634667226L167.28402272727274,309.6012664330172L171.00144545454543,318.8677286854712L174.71886818181815,324.49869216763796L178.4362909090909,303.4893726215124L182.15371363636362,254.26545814976808L185.87113636363634,269.09915305909635L189.5885590909091,294.05537007667397L197.02340454545453,309.80069848156387L200.74082727272727,319.3279239896092L204.45825,325.01863522412924L208.1756727272727,328.47400775064216L211.89309545454546,330.54753684867677L215.61051818181815,331.79198794796775L219.3279409090909,332.5388543715112L223.04536363636362,332.9871437454275L226.76278636363637,333.25623547671273L230.48020909090906,333.4177388728325L234.19763181818183,333.51495766098117L237.91505454545452,333.5731046720535L241.63247727272727,333.592114185585L245.3499,333.61796242338187L249.06732272727274,333.6348474871032L252.78474545454543,333.6454185964415L256.5021681818182,333.6519654780478L260.21959090909087,333.65597791801997L263.93701363636364,333.6583780115313L267.65443636363636,333.659900760738L271.3718590909091,333.66081494956495L275.0892818181818,333.66142350524234L278.8067045454545,333.661780728874L282.52412727272724,333.66318602346024L286.24154999999996,333.6640115829864L289.95897272727274,333.6645522201394L293.6763954545454,333.66374784161655L297.3938181818182,333.66442651325474L301.1112409090909,333.6648089083076L304.8286636363636,333.6638319249177L308.54608636363633,333.6633199789062L312.2635090909091,333.6630467873773L315.9809318181818,333.66289545619253L319.69835454545455,333.66283917286256L323.41577727272727,333.66283434544954L327.1332,333.6628925699887L330.8506227272727,333.6630466906367L334.5680454545455,333.66312262440556L338.28546818181815,333.66321726122396L342.00289090909087,333.663302087062L345.72031363636364,333.6633608923396L349.4377363636363,333.6634107366824L353.1551590909091,333.6634435195699L356.8725818181818,333.66348170536605L360.5900045454545,333.6635035382381L364.30742727272724,333.6635371314687L368.02485,333.66353841180813L371.7422727272727,333.6635656058503L375.45969545454545,333.6636067302056L379.1771181818182,333.66361109107896L382.8945409090909,333.66360400015213L386.6119636363636,333.6635869820958L390.3293863636364,333.66347160721097L394.04680909090905,333.66349028864073L397.7642318181818,333.66350149749854L401.48165454545455,333.66354183935607L405.19907727272727,333.6636010991542L408.9165,333.6636560699349L412.6339227272727,333.66371386033325L416.3513454545454,333.6637030533673L420.0687681818182,333.66372281525867L423.7861909090909,333.6637330544849L427.5036136363636,333.66369893007635L431.2210363636363,333.66366874798035L434.93845909090913,333.66366124501167L438.6558818181818,333.66362959832156L442.3733045454545,333.6631957066667L446.09072727272724,333.66337742022347L449.80815,333.6634377313356L453.52557272727273,333.66355355505345L457.24299545454545,333.6635153684867L460.9604181818181,333.663563464752L464.67784090909095,333.66347259728377L468.39526363636367,333.66321565847556L472.1126863636363,333.6628091014681L475.83010909090905,333.66308865054L479.54753181818177,333.6629164394352L483.26495454545454,333.6632533636458L486.98237727272726,333.663245729373L490.6998,333.66333211121923L494.41722272727264,333.66330664025526L498.1346454545455,333.6632721225427L501.8520681818182,333.6631160469059L505.56949090909086,333.66306896133443L509.2869136363636,333.5809225068285L513.0043363636364,333.09265885220725L516.7217590909091,332.33455538765645L520.4391818181817,332.5723483315471L524.1566045454545,332.7028094281771L527.8740272727273,332.9720246337663L531.59145,333.1916823324448L535.3088727272727,333.35459903913056L539.0262954545454,333.4670973775227L542.7437181818182,333.53391775783535L546.4611409090909,333.5812094989815L550.1785636363636,333.6101060495018L553.8959863636363,333.62772297914256L557.613409090909,333.63827174458163L561.3308318181819,333.6447018534736L565.0482545454545,333.6485432004211L568.7656772727272,333.6508501658009L572.4830999999999,333.6522862978677L576.2005227272728,333.6532116148412L579.9179454545455,333.65368986448885L583.6353681818182,333.65405465365194L587.3527909090908,333.6542893466994L591.0702136363636,333.6543816252735L594.7876363636364,333.6544781592004L598.5050590909091,333.65463279452996L602.2224818181818,333.6548231895391L605.9399045454545,333.6549981879964L609.6573272727272,333.6554267687663L613.37475,333.65575007170827L617.0921727272727,333.65593057090274L620.8095954545454,333.6560834527864L624.5270181818182,333.6561901026281L628.2444409090909,333.6562195771523L631.9618636363635,333.65621784696503L635.6792863636363,333.65625240283924L639.3967090909091,333.6562211835248L643.1141318181818,333.6562400233664L646.8315545454545,333.6562387435387L650.5489772727273,333.65626242403687L654.2664,333.65624409439863L657.9838227272727,333.65628145410244L661.7012454545454,333.65625389452947L665.4186681818181,333.656267559744L669.136090909091,333.6562741409642L672.8535136363637,333.6562383610548L676.5709363636363,333.65623954382784L680.288359090909,333.6562560730413L684.0057818181817,333.65627785523145L687.7232045454546,333.6562398705447L691.4406272727273,333.6562657967546L695.15805,333.6562781166636L698.8754727272726,333.65626447579876L702.5928954545454,333.6562863124705L706.3103181818182,333.65630858262165L710.0277409090909,333.65625614976756L713.7451636363636,333.65628059778135L717.4625863636363,333.6563020977588L721.180009090909,333.65628210027285L724.8974318181818,333.6562560799078L728.6148545454545,333.6562819940064L732.3322772727273,333.65627093685947L736.0497,333.6562438090639L739.7671227272727,333.65626690149287L743.4845454545454,333.65626799345006L747.2019681818182,333.65627170467366L750.9193909090909,333.6562751897811L754.6368136363636,333.6562772808456L758.3542363636363,333.65626469337843L762.0716590909091,333.65627997138444L765.7890818181818,333.6562862619063L769.5065045454545,333.65626217224" style="fill: none;" fill="none"></path></g></g></g></g><g opacity="0.2"><g><g><g><path stroke="rgb(255, 112, 67)" stroke-width="2px" d="M74.34845454545454,333.21376132607463L78.06587727272728,333.6898003351688L81.7833,333.7663139235973L85.50072272727272,334.0377899777889L89.21814545454545,333.4771446919441L92.93556818181817,334.0711588907242L96.6529909090909,334.4706465601921L100.37041363636364,334.8603598153591L104.08783636363636,335.0624550104141L107.80525909090908,266.2599963569641L111.52268181818181,-9857.231052246094L122.67495,-548.706311340332L126.39237272727271,32.59724609374999L130.10979545454543,199.1675968551636L133.82721818181818,330.4649172949791L137.5446409090909,331.89874508976936L141.26206363636362,333.0913544154167L144.97948636363637,333.3034658122063L148.6969090909091,332.16467036962507L152.4143318181818,330.0262555670738L156.13175454545456,332.1350568020344L159.84917727272727,332.5663458108902L163.5666,332.5111418747902L167.28402272727274,332.7000308918953L171.00144545454543,332.7673983538151L174.71886818181815,332.9451287460327L178.4362909090909,271.9754126548767L182.15371363636362,180.42961364746094L185.87113636363634,291.3496905040741L189.5885590909091,331.4896906375885L197.02340454545453,333.4186892092228L200.74082727272727,333.61876156926155L204.45825,333.5547018313408L208.1756727272727,333.65706645131115L211.89309545454546,333.6578304636479L215.61051818181815,333.6586645853519L219.3279409090909,333.65915400266647L223.04536363636362,333.65957780480386L226.76278636363637,333.65987307310104L230.48020909090906,333.65999396681786L234.19763181818183,333.6607858431339L237.91505454545452,333.66032518863676L241.63247727272727,333.6206284558773L245.3499,333.6567347800731L249.06732272727274,333.66017508268357L252.78474545454543,333.66127526044846L256.5021681818182,333.661785800457L260.21959090909087,333.66199657797813L263.93701363636364,333.6619781517983L267.65443636363636,333.6621848845482L271.3718590909091,333.66218623280525L275.0892818181818,333.66233633875845L278.8067045454545,333.6623165643215L282.52412727272724,333.66529396533963L286.24154999999996,333.66524992227556L289.95897272727274,333.66536317586895L293.6763954545454,333.6625412738323L297.3938181818182,333.6654445207119L301.1112409090909,333.66538250088695L304.8286636363636,333.6623664498329L308.54608636363633,333.6625520598888L312.2635090909091,333.6626370000839L315.9809318181818,333.66266845941544L319.69835454545455,333.66275474786755L323.41577727272727,333.66282710433006L327.1332,333.66297990679743L330.8506227272727,333.6632778716087L334.5680454545455,333.6632365250588L338.28546818181815,333.6633592164516L342.00289090909087,333.66342932581904L345.72031363636364,333.66344910025595L349.4377363636363,333.66348550319674L353.1551590909091,333.6634926939011L356.8725818181818,333.66353898406027L360.5900045454545,333.66353628754615L364.30742727272724,333.66358752131464L368.02485,333.6635403323174L371.7422727272727,333.6636063969135L375.45969545454545,333.6636684167385L379.1771181818182,333.66361763238905L382.8945409090909,333.6635933637619L386.6119636363636,333.66356145501135L390.3293863636364,333.66329854488373L394.04680909090905,333.66351831078526L397.7642318181818,333.66351831078526L401.48165454545455,333.66360235214233L405.19907727272727,333.66368998885156L408.9165,333.6637385261059L412.6339227272727,333.6638005459309L416.3513454545454,333.66368684291837L420.0687681818182,333.66375245809553L423.7861909090909,333.66374841332436L427.5036136363636,333.6636477434635L431.2210363636363,333.66362347483636L434.93845909090913,333.66364999055867L438.6558818181818,333.66358212828635L442.3733045454545,333.6625448691845L446.09072727272724,333.66364999055867L449.80815,333.66352819800375L453.52557272727273,333.66372729063033L457.24299545454545,333.6634580886364L460.9604181818181,333.66363560914994L464.67784090909095,333.6633362960815L468.39526363636367,333.66283025026326L472.1126863636363,333.6621992659569L475.83010909090905,333.6635079741478L479.54753181818177,333.66265812277794L483.26495454545454,333.66375874996186L486.98237727272726,333.6632342779637L490.6998,333.6634616839886L494.41722272727264,333.6632684338093L498.1346454545455,333.66322034597397L501.8520681818182,333.6628819334507L505.56949090909086,333.66299833297734L509.2869136363636,333.4577028250694L513.0043363636364,332.3602633702755L516.7217590909091,331.19740019083025L520.4391818181817,332.9290377473831L524.1566045454545,332.898501073122L527.8740272727273,333.3758474421501L531.59145,333.52116888046265L535.3088727272727,333.59897409915925L539.0262954545454,333.6358448851109L542.7437181818182,333.6341483283043L546.4611409090909,333.65214711070064L550.1785636363636,333.6534508752823L553.8959863636363,333.6541483736038L557.613409090909,333.65409489274026L561.3308318181819,333.6543470168114L565.0482545454545,333.65430522084233L568.7656772727272,333.6543106138706L572.4830999999999,333.65444049596783L576.2005227272728,333.6545995903015L579.9179454545455,333.6544072389603L583.6353681818182,333.6546018373966L587.3527909090908,333.65464138627055L591.0702136363636,333.6545200431347L594.7876363636364,333.65462296009065L598.5050590909091,333.65486474752424L602.2224818181818,333.655108782053L605.9399045454545,333.65526068568226L609.6573272727272,333.65606963992116L613.37475,333.6562350261212L617.0921727272727,333.65620131969456L620.8095954545454,333.65631277561187L624.5270181818182,333.65635007739064L628.2444409090909,333.65626378893853L631.9618636363635,333.65621525168416L635.6792863636363,333.6563042366505L639.3967090909091,333.65617435455323L643.1141318181818,333.6562682831288L646.8315545454545,333.65623682379726L650.5489772727273,333.65629794478417L654.2664,333.6562165999413L657.9838227272727,333.65633749365804L661.7012454545454,333.6562125551701L665.4186681818181,333.6562880575657L669.136090909091,333.6562840127945L672.8535136363637,333.65618469119073L676.5709363636363,333.65624131798745L680.288359090909,333.6562808668613L684.0057818181817,333.65631052851677L687.7232045454546,333.65618289351465L691.4406272727273,333.6563046860695L695.15805,333.65629659652706L698.8754727272726,333.65624401450157L702.5928954545454,333.65631906747814L706.3103181818182,333.6563419878483L710.0277409090909,333.65617750048636L713.7451636363636,333.6563172698021L717.4625863636363,333.6563343477249L721.180009090909,333.656252104044L724.8974318181818,333.6562170493603L728.6148545454545,333.65632086515427L732.3322772727273,333.65625435113907L736.0497,333.65620311737064L739.7671227272727,333.6563015401363L743.4845454545454,333.6562696313858L747.2019681818182,333.65627727150917L750.9193909090909,333.6562804174423L754.6368136363636,333.6562804174423L758.3542363636363,333.6562458121777L762.0716590909091,333.6563028883934L765.7890818181818,333.6562956976891L769.5065045454545,333.65622603774074" style="fill: none;" fill="none"></path></g></g></g></g></g></g><g transform="translate(40, 377)" clip-path="url(#clip_1)"><clipPath id="clip_1"><rect width="817" height="23"></rect></clipPath><g><g><line x1="0" y1="0" x2="0" y2="5" style="visibility: inherit;" fill="rgb(0, 0, 0)" stroke="rgb(204, 204, 204)" stroke-width="1px"></line><line x1="74.34845454545454" y1="0" x2="74.34845454545454" y2="5" style="visibility: inherit;" fill="rgb(0, 0, 0)" stroke="rgb(204, 204, 204)" stroke-width="1px"></line><line x1="148.6969090909091" y1="0" x2="148.6969090909091" y2="5" style="visibility: inherit;" fill="rgb(0, 0, 0)" stroke="rgb(204, 204, 204)" stroke-width="1px"></line><line x1="223.04536363636362" y1="0" x2="223.04536363636362" y2="5" style="visibility: inherit;" fill="rgb(0, 0, 0)" stroke="rgb(204, 204, 204)" stroke-width="1px"></line><line x1="297.3938181818182" y1="0" x2="297.3938181818182" y2="5" style="visibility: inherit;" fill="rgb(0, 0, 0)" stroke="rgb(204, 204, 204)" stroke-width="1px"></line><line x1="371.7422727272727" y1="0" x2="371.7422727272727" y2="5" style="visibility: inherit;" fill="rgb(0, 0, 0)" stroke="rgb(204, 204, 204)" stroke-width="1px"></line><line x1="446.09072727272724" y1="0" x2="446.09072727272724" y2="5" style="visibility: inherit;" fill="rgb(0, 0, 0)" stroke="rgb(204, 204, 204)" stroke-width="1px"></line><line x1="520.4391818181817" y1="0" x2="520.4391818181817" y2="5" style="visibility: inherit;" fill="rgb(0, 0, 0)" stroke="rgb(204, 204, 204)" stroke-width="1px"></line><line x1="594.7876363636364" y1="0" x2="594.7876363636364" y2="5" style="visibility: inherit;" fill="rgb(0, 0, 0)" stroke="rgb(204, 204, 204)" stroke-width="1px"></line><line x1="669.136090909091" y1="0" x2="669.136090909091" y2="5" style="visibility: inherit;" fill="rgb(0, 0, 0)" stroke="rgb(204, 204, 204)" stroke-width="1px"></line><line x1="743.4845454545454" y1="0" x2="743.4845454545454" y2="5" style="visibility: inherit;" fill="rgb(0, 0, 0)" stroke="rgb(204, 204, 204)" stroke-width="1px"></line><line x1="817.833" y1="0" x2="817.833" y2="5" style="visibility: inherit;" fill="rgb(0, 0, 0)" stroke="rgb(204, 204, 204)" stroke-width="1px"></line></g><g transform="translate(0, 8)"><text x="0" y="0" dx="0em" dy="0.95em" style="text-anchor: middle; visibility: hidden; font-family: Roboto, sans-serif; font-size: 12px; font-weight: 200;" fill="rgb(33, 33, 33)" stroke="none" stroke-width="1px">-20</text><text x="74.34845454545454" y="0" dx="0em" dy="0.95em" style="text-anchor: middle; visibility: inherit; font-family: Roboto, sans-serif; font-size: 12px; font-weight: 200;" fill="rgb(33, 33, 33)" stroke="none" stroke-width="1px">0</text><text x="148.6969090909091" y="0" dx="0em" dy="0.95em" style="text-anchor: middle; visibility: inherit; font-family: Roboto, sans-serif; font-size: 12px; font-weight: 200;" fill="rgb(33, 33, 33)" stroke="none" stroke-width="1px">20</text><text x="223.04536363636362" y="0" dx="0em" dy="0.95em" style="text-anchor: middle; visibility: inherit; font-family: Roboto, sans-serif; font-size: 12px; font-weight: 200;" fill="rgb(33, 33, 33)" stroke="none" stroke-width="1px">40</text><text x="297.3938181818182" y="0" dx="0em" dy="0.95em" style="text-anchor: middle; visibility: inherit; font-family: Roboto, sans-serif; font-size: 12px; font-weight: 200;" fill="rgb(33, 33, 33)" stroke="none" stroke-width="1px">60</text><text x="371.7422727272727" y="0" dx="0em" dy="0.95em" style="text-anchor: middle; visibility: inherit; font-family: Roboto, sans-serif; font-size: 12px; font-weight: 200;" fill="rgb(33, 33, 33)" stroke="none" stroke-width="1px">80</text><text x="446.09072727272724" y="0" dx="0em" dy="0.95em" style="text-anchor: middle; visibility: inherit; font-family: Roboto, sans-serif; font-size: 12px; font-weight: 200;" fill="rgb(33, 33, 33)" stroke="none" stroke-width="1px">100</text><text x="520.4391818181817" y="0" dx="0em" dy="0.95em" style="text-anchor: middle; visibility: inherit; font-family: Roboto, sans-serif; font-size: 12px; font-weight: 200;" fill="rgb(33, 33, 33)" stroke="none" stroke-width="1px">120</text><text x="594.7876363636364" y="0" dx="0em" dy="0.95em" style="text-anchor: middle; visibility: inherit; font-family: Roboto, sans-serif; font-size: 12px; font-weight: 200;" fill="rgb(33, 33, 33)" stroke="none" stroke-width="1px">140</text><text x="669.136090909091" y="0" dx="0em" dy="0.95em" style="text-anchor: middle; visibility: inherit; font-family: Roboto, sans-serif; font-size: 12px; font-weight: 200;" fill="rgb(33, 33, 33)" stroke="none" stroke-width="1px">160</text><text x="743.4845454545454" y="0" dx="0em" dy="0.95em" style="text-anchor: middle; visibility: inherit; font-family: Roboto, sans-serif; font-size: 12px; font-weight: 200;" fill="rgb(33, 33, 33)" stroke="none" stroke-width="1px">180</text><text x="817.833" y="0" dx="0em" dy="0.95em" style="text-anchor: middle; visibility: hidden; font-family: Roboto, sans-serif; font-size: 12px; font-weight: 200;" fill="rgb(33, 33, 33)" stroke="none" stroke-width="1px">200</text></g><line x1="0" y1="0" x2="817.833" y2="0" fill="rgb(0, 0, 0)" stroke="rgb(204, 204, 204)" stroke-width="1px"></line></g></g></g></g></svg>