<svg viewBox="0 0 857.8333740234375 400" xmlns="http://www.w3.org/2000/svg"><g><g><g><g><g><line x1="60" y1="377" x2="55" y2="377" style="visibility: inherit;" fill="rgb(0, 0, 0)" stroke="rgb(204, 204, 204)" stroke-width="1px"></line><line x1="60" y1="323.14285714285717" x2="55" y2="323.14285714285717" style="visibility: inherit;" fill="rgb(0, 0, 0)" stroke="rgb(204, 204, 204)" stroke-width="1px"></line><line x1="60" y1="269.28571428571433" x2="55" y2="269.28571428571433" style="visibility: inherit;" fill="rgb(0, 0, 0)" stroke="rgb(204, 204, 204)" stroke-width="1px"></line><line x1="60" y1="215.42857142857144" x2="55" y2="215.42857142857144" style="visibility: inherit;" fill="rgb(0, 0, 0)" stroke="rgb(204, 204, 204)" stroke-width="1px"></line><line x1="60" y1="161.57142857142856" x2="55" y2="161.57142857142856" style="visibility: inherit;" fill="rgb(0, 0, 0)" stroke="rgb(204, 204, 204)" stroke-width="1px"></line><line x1="60" y1="107.7142857142858" x2="55" y2="107.7142857142858" style="visibility: inherit;" fill="rgb(0, 0, 0)" stroke="rgb(204, 204, 204)" stroke-width="1px"></line><line x1="60" y1="53.85714285714292" x2="55" y2="53.85714285714292" style="visibility: inherit;" fill="rgb(0, 0, 0)" stroke="rgb(204, 204, 204)" stroke-width="1px"></line><line x1="60" y1="0" x2="55" y2="0" style="visibility: inherit;" fill="rgb(0, 0, 0)" stroke="rgb(204, 204, 204)" stroke-width="1px"></line></g><g transform="translate(50, 0)"><text x="0" y="377" dx="0em" dy="0.3em" style="text-anchor: end; visibility: hidden; font-family: Roboto, sans-serif; font-size: 12px; font-weight: 200;" fill="rgb(33, 33, 33)" stroke="none" stroke-width="1px">0.05</text><text x="0" y="323.14285714285717" dx="0em" dy="0.3em" style="text-anchor: end; visibility: inherit; font-family: Roboto, sans-serif; font-size: 12px; font-weight: 200;" fill="rgb(33, 33, 33)" stroke="none" stroke-width="1px">0.055</text><text x="0" y="269.28571428571433" dx="0em" dy="0.3em" style="text-anchor: end; visibility: inherit; font-family: Roboto, sans-serif; font-size: 12px; font-weight: 200;" fill="rgb(33, 33, 33)" stroke="none" stroke-width="1px">0.06</text><text x="0" y="215.42857142857144" dx="0em" dy="0.3em" style="text-anchor: end; visibility: inherit; font-family: Roboto, sans-serif; font-size: 12px; font-weight: 200;" fill="rgb(33, 33, 33)" stroke="none" stroke-width="1px">0.065</text><text x="0" y="161.57142857142856" dx="0em" dy="0.3em" style="text-anchor: end; visibility: inherit; font-family: Roboto, sans-serif; font-size: 12px; font-weight: 200;" fill="rgb(33, 33, 33)" stroke="none" stroke-width="1px">0.07</text><text x="0" y="107.7142857142858" dx="0em" dy="0.3em" style="text-anchor: end; visibility: inherit; font-family: Roboto, sans-serif; font-size: 12px; font-weight: 200;" fill="rgb(33, 33, 33)" stroke="none" stroke-width="1px">0.075</text><text x="0" y="53.85714285714292" dx="0em" dy="0.3em" style="text-anchor: end; visibility: inherit; font-family: Roboto, sans-serif; font-size: 12px; font-weight: 200;" fill="rgb(33, 33, 33)" stroke="none" stroke-width="1px">0.08</text><text x="0" y="0" dx="0em" dy="0.3em" style="text-anchor: end; visibility: hidden; font-family: Roboto, sans-serif; font-size: 12px; font-weight: 200;" fill="rgb(33, 33, 33)" stroke="none" stroke-width="1px">0.085</text></g><line x1="60" y1="0" x2="60" y2="377" fill="rgb(0, 0, 0)" stroke="rgb(204, 204, 204)" stroke-width="1px"></line></g></g><g transform="translate(60, 0)" clip-path="url(#clip_0)"><clipPath id="clip_0"><rect width="797" height="377"></rect></clipPath><g><g><g><line x1="0" y1="0" x2="0" y2="377" fill="rgb(0, 0, 0)" stroke="rgb(66, 66, 66)" stroke-width="1px" opacity="0.25"></line><line x1="72.53027272727273" y1="0" x2="72.53027272727273" y2="377" fill="rgb(0, 0, 0)" stroke="rgb(66, 66, 66)" stroke-width="1px" opacity="0.25"></line><line x1="145.06054545454546" y1="0" x2="145.06054545454546" y2="377" fill="rgb(0, 0, 0)" stroke="rgb(66, 66, 66)" stroke-width="1px" opacity="0.25"></line><line x1="217.59081818181815" y1="0" x2="217.59081818181815" y2="377" fill="rgb(0, 0, 0)" stroke="rgb(66, 66, 66)" stroke-width="1px" opacity="0.25"></line><line x1="290.1210909090909" y1="0" x2="290.1210909090909" y2="377" fill="rgb(0, 0, 0)" stroke="rgb(66, 66, 66)" stroke-width="1px" opacity="0.25"></line><line x1="362.6513636363636" y1="0" x2="362.6513636363636" y2="377" fill="rgb(0, 0, 0)" stroke="rgb(66, 66, 66)" stroke-width="1px" opacity="0.25"></line><line x1="435.1816363636363" y1="0" x2="435.1816363636363" y2="377" fill="rgb(0, 0, 0)" stroke="rgb(66, 66, 66)" stroke-width="1px" opacity="0.25"></line><line x1="507.71190909090905" y1="0" x2="507.71190909090905" y2="377" fill="rgb(0, 0, 0)" stroke="rgb(66, 66, 66)" stroke-width="1px" opacity="0.25"></line><line x1="580.2421818181818" y1="0" x2="580.2421818181818" y2="377" fill="rgb(0, 0, 0)" stroke="rgb(66, 66, 66)" stroke-width="1px" opacity="0.25"></line><line x1="652.7724545454546" y1="0" x2="652.7724545454546" y2="377" fill="rgb(0, 0, 0)" stroke="rgb(66, 66, 66)" stroke-width="1px" opacity="0.25"></line><line x1="725.3027272727272" y1="0" x2="725.3027272727272" y2="377" fill="rgb(0, 0, 0)" stroke="rgb(66, 66, 66)" stroke-width="1px" opacity="0.25"></line><line x1="797.833" y1="0" x2="797.833" y2="377" fill="rgb(0, 0, 0)" stroke="rgb(66, 66, 66)" stroke-width="1px" opacity="0.25"></line></g><g><line x1="0" y1="377" x2="797.833" y2="377" fill="rgb(0, 0, 0)" stroke="rgb(66, 66, 66)" stroke-width="1px" opacity="0.25"></line><line x1="0" y1="323.14285714285717" x2="797.833" y2="323.14285714285717" fill="rgb(0, 0, 0)" stroke="rgb(66, 66, 66)" stroke-width="1px" opacity="0.25"></line><line x1="0" y1="269.28571428571433" x2="797.833" y2="269.28571428571433" fill="rgb(0, 0, 0)" stroke="rgb(66, 66, 66)" stroke-width="1px" opacity="0.25"></line><line x1="0" y1="215.42857142857144" x2="797.833" y2="215.42857142857144" fill="rgb(0, 0, 0)" stroke="rgb(66, 66, 66)" stroke-width="1px" opacity="0.25"></line><line x1="0" y1="161.57142857142856" x2="797.833" y2="161.57142857142856" fill="rgb(0, 0, 0)" stroke="rgb(66, 66, 66)" stroke-width="1px" opacity="0.25"></line><line x1="0" y1="107.7142857142858" x2="797.833" y2="107.7142857142858" fill="rgb(0, 0, 0)" stroke="rgb(66, 66, 66)" stroke-width="1px" opacity="0.25"></line><line x1="0" y1="53.85714285714292" x2="797.833" y2="53.85714285714292" fill="rgb(0, 0, 0)" stroke="rgb(66, 66, 66)" stroke-width="1px" opacity="0.25"></line><line x1="0" y1="0" x2="797.833" y2="0" fill="rgb(0, 0, 0)" stroke="rgb(66, 66, 66)" stroke-width="1px" opacity="0.25"></line></g></g></g><g><g><line x1="0" y1="915.5714285714287" x2="797.833" y2="915.5714285714287" fill="rgb(0, 0, 0)" stroke="rgb(153, 153, 153)" stroke-width="1.5px"></line></g></g><g><g><line x1="72.53027272727273" y1="0" x2="72.53027272727273" y2="377" fill="rgb(0, 0, 0)" stroke="rgb(153, 153, 153)" stroke-width="1.5px"></line></g></g><g><g><g><g><g><path stroke="rgb(255, 112, 67)" stroke-width="2px" d="M72.53027272727273,107.7142536129271L76.15678636363636,58.625708602368874L79.7833,-288.4288208250053L112.42192272727272,-164.10920033547467L116.04843636363636,61.60547358418543L119.67495,169.8957618372264L123.30146363636364,252.7764231346537L126.92797727272726,284.52242668483444L130.5544909090909,303.56429607081213L134.18100454545453,314.9873546753526L137.80751818181818,353.2590306413489L141.4340318181818,349.29098117207633L145.06054545454546,351.3984498087172L148.6870590909091,348.1747353195934L152.3135727272727,332.7761545762104L155.94008636363637,337.0014206320907L159.5666,339.53656745219234L163.19311363636365,341.05765093144845L166.81962727272725,341.9702993583985L170.4461409090909,342.5178878167526L174.07265454545453,311.42977634479854L177.69916818181818,306.2411926429255L181.3256818181818,321.0804254195382L184.95219545454543,343.4482538217668L192.2052227272727,343.40466015642085L195.83173636363637,343.37850395854565L199.45825,338.8747192052327L203.08476363636362,336.1724484027957L206.71127727272727,334.5510859391718L210.33779090909087,333.5782684674193L213.96430454545455,332.9945779866796L217.59081818181815,332.64436369906815L221.2173318181818,332.43423512680096L224.84384545454543,332.3081579835483L228.47035909090908,332.23251169763563L232.0968727272727,332.187123926102L235.72338636363637,332.1598912631868L239.3499,332.14355166543953L242.97641363636365,332.1337479067919L246.60292727272727,332.12786565160343L250.22944090909093,332.1243362984905L253.85595454545452,332.1222186866228L257.4824681818182,332.12094811950203L261.1089818181818,332.12018577922976L264.73549545454546,332.1197283750662L268.36200909090905,332.1194539325682L271.9885227272727,332.11928926706946L275.61503636363636,332.1191904677701L279.24154999999996,332.1191311881906L282.8680636363636,332.11909562044275L286.49457727272727,332.11907427979423L290.1210909090909,332.11906147540503L293.7476045454545,332.1190537927715L297.3741181818182,332.11904918319146L301.0006318181818,332.1190464174434L304.6271454545454,332.1190447579945L308.2536590909091,332.11904376232525L311.88017272727274,332.1190431649235L315.50668636363633,332.11904280648264L319.1332,332.119042591418L322.75971363636364,332.1190424623794L326.3862272727273,332.119042384956L330.0127409090909,332.1190423385021L333.6392545454545,332.11904231062977L337.26576818181815,332.11904229390626L340.8922818181818,332.11904228387226L344.51879545454545,332.1190422778518L348.14530909090905,332.1190422742395L351.7718227272727,332.1190422720722L355.39833636363636,332.11904227077184L359.02485,332.1190422699915L362.6513636363636,332.11904226952333L366.27787727272727,332.11904226924247L369.90439090909086,332.119042269074L373.5309045454545,332.1190422689729L377.1574181818182,332.1190422689122L380.7839318181818,332.1190422688758L384.4104454545454,332.11904226885395L388.0369590909091,332.11904226884076L391.66347272727273,332.119042268833L395.2899863636364,332.1190422688282L398.9165,332.11904226882535L402.5430136363636,332.11904226882376L406.16952727272724,332.1190422688227L409.7960409090909,332.1190422688221L413.42255454545455,332.11904226882183L417.04906818181814,332.1190422688215L420.67558181818174,332.1190422688214L424.30209545454545,332.1190422688214L427.9286090909091,332.1190422688214L431.5551227272727,332.1190422688214L435.1816363636363,332.1190422688214L438.80815,332.1190422688214L442.4346636363636,332.1190422688214L446.06117727272726,332.1190422688214L449.68769090909086,332.1190422688214L453.3142045454546,332.1190422688214L456.94071818181817,332.1190422688214L460.5672318181818,332.1190422688214L464.1937454545454,332.1190422688214L467.820259090909,332.1190422688214L471.44677272727273,332.1190422688214L475.0732863636363,332.1190422688214L478.6998,332.1190422688214L482.3263136363636,332.1190422688214L485.9528272727273,332.1190422688214L489.5793409090909,332.1190422688214L493.20585454545454,332.1190422688214L496.83236818181814,332.1190422688214L500.45888181818185,327.6309513109073L504.08539545454545,333.91427865198693L507.71190909090905,337.68427505663476L511.3384227272727,335.45818194150934L514.9649363636364,334.1225260724341L518.59145,328.8330415930748L522.2179636363636,330.14744186337344L525.8444772727272,330.9360820255526L529.4709909090909,326.9211751649459L533.0975045454545,329.0003220064961L536.7240181818181,330.2478101114262L540.3505318181818,330.9963029743841L543.9770454545454,331.4453986921589L547.6035590909091,331.7148561228238L551.2300727272727,331.87653058122277L554.8565863636363,331.97353525626215L558.4830999999999,332.0317380612857L562.1096136363636,332.0666597442999L565.7361272727272,332.0876127541084L569.3626409090908,332.1001845599936L572.9891545454545,332.1077276435246L576.6156681818183,332.1122534936432L580.2421818181818,332.11496900371446L583.8686954545454,332.11659830975714L587.495209090909,332.11757589338276L591.1217227272728,332.11816244355816L594.7482363636364,332.11851437366334L598.37475,332.1187255317265L602.0012636363635,332.1188522265643L605.6277772727273,332.1189282434671L609.2542909090909,332.1189738536087L612.8808045454546,332.11900121969364L616.5073181818182,332.11901763934463L620.1338318181818,332.1190274911353L623.7603454545455,332.1190334022097L627.3868590909091,332.11903694885433L631.0133727272727,332.1190390768411L634.6398863636363,354.5595111938828L638.2664,345.5833236238581L641.8929136363636,340.19761108184343L645.5194272727273,336.96618355663446L649.1459409090909,335.02732704150924L652.7724545454546,333.86401313243397L656.3989681818182,333.1660247869888L660.0254818181818,332.74723177972174L663.6519954545454,332.4959559753615L667.278509090909,332.34519049274536L670.9050227272727,332.2547312031756L674.5315363636363,332.20045562943386L678.15805,332.1678902851888L681.7845636363636,332.1483510786418L685.4110772727273,332.13662755471364L689.0375909090909,332.12959344035664L692.6641045454545,332.1253729717424L696.2906181818181,332.1228406905739L699.9171318181818,332.1213213218728L703.5436454545454,332.12040970065215L707.170159090909,332.1198627279198L710.7966727272727,332.11953454428027L714.4231863636363,332.1193376340967L718.0497,381.48826817707936L721.6762136363636,357.25248685586195L725.3027272727272,347.19910902104573L728.9292409090909,377.0718420848272L732.5557545454545,359.09072215842474L736.1822681818181,348.30205020258325L739.8087818181817,341.8288470290785L743.4352954545454,337.94492512497555L747.061809090909,335.61457198251384L750.6883227272727,334.2163600970368" style="fill: none;" fill="none"></path></g></g></g></g><g opacity="0.2"><g><g><g><path stroke="rgb(255, 112, 67)" stroke-width="2px" d="M72.53027272727273,107.7142536129271L76.15678636363636,29.172581596033993L79.7833,-621.6011690752846L105.16889545454544,-688.9226939507893L108.79540909090908,376.99999197466036L112.42192272727272,466.7618913863386L116.04843636363636,399.4404868909291L119.67495,332.1190422688212L123.30146363636364,376.99999197466036L126.92797727272726,332.1190422688212L130.5544909090909,332.1190422688212L134.18100454545453,332.1190422688212L137.80751818181818,410.66071428571433L141.4340318181818,343.3392696636064L145.06054545454546,354.55953718508994L148.6870590909091,343.3392696636064L152.3135727272727,309.6785874792508L155.94008636363637,343.3392696636064L159.5666,343.3392696636064L163.19311363636365,343.3392696636064L166.81962727272725,343.3392696636064L170.4461409090909,343.3392696636064L174.07265454545453,264.7976377734116L177.69916818181818,298.45831995776723L181.3256818181818,343.3392696636064L184.95219545454543,376.99999197466036L192.2052227272727,343.3392696636064L195.83173636363637,343.3392696636064L199.45825,332.1190422688212L203.08476363636362,332.1190422688212L206.71127727272727,332.1190422688212L210.33779090909087,332.1190422688212L213.96430454545455,332.1190422688212L217.59081818181815,332.1190422688212L221.2173318181818,332.1190422688212L224.84384545454543,332.1190422688212L228.47035909090908,332.1190422688212L232.0968727272727,332.1190422688212L235.72338636363637,332.1190422688212L239.3499,332.1190422688212L242.97641363636365,332.1190422688212L246.60292727272727,332.1190422688212L250.22944090909093,332.1190422688212L253.85595454545452,332.1190422688212L257.4824681818182,332.1190422688212L261.1089818181818,332.1190422688212L264.73549545454546,332.1190422688212L268.36200909090905,332.1190422688212L271.9885227272727,332.1190422688212L275.61503636363636,332.1190422688212L279.24154999999996,332.1190422688212L282.8680636363636,332.1190422688212L286.49457727272727,332.1190422688212L290.1210909090909,332.1190422688212L293.7476045454545,332.1190422688212L297.3741181818182,332.1190422688212L301.0006318181818,332.1190422688212L304.6271454545454,332.1190422688212L308.2536590909091,332.1190422688212L311.88017272727274,332.1190422688212L315.50668636363633,332.1190422688212L319.1332,332.1190422688212L322.75971363636364,332.1190422688212L326.3862272727273,332.1190422688212L330.0127409090909,332.1190422688212L333.6392545454545,332.1190422688212L337.26576818181815,332.1190422688212L340.8922818181818,332.1190422688212L344.51879545454545,332.1190422688212L348.14530909090905,332.1190422688212L351.7718227272727,332.1190422688212L355.39833636363636,332.1190422688212L359.02485,332.1190422688212L362.6513636363636,332.1190422688212L366.27787727272727,332.1190422688212L369.90439090909086,332.1190422688212L373.5309045454545,332.1190422688212L377.1574181818182,332.1190422688212L380.7839318181818,332.1190422688212L384.4104454545454,332.1190422688212L388.0369590909091,332.1190422688212L391.66347272727273,332.1190422688212L395.2899863636364,332.1190422688212L398.9165,332.1190422688212L402.5430136363636,332.1190422688212L406.16952727272724,332.1190422688212L409.7960409090909,332.1190422688212L413.42255454545455,332.1190422688212L417.04906818181814,332.1190422688212L420.67558181818174,332.1190422688212L424.30209545454545,332.1190422688212L427.9286090909091,332.1190422688212L431.5551227272727,332.1190422688212L435.1816363636363,332.1190422688212L438.80815,332.1190422688212L442.4346636363636,332.1190422688212L446.06117727272726,332.1190422688212L449.68769090909086,332.1190422688212L453.3142045454546,332.1190422688212L456.94071818181817,332.1190422688212L460.5672318181818,332.1190422688212L464.1937454545454,332.1190422688212L467.820259090909,332.1190422688212L471.44677272727273,332.1190422688212L475.0732863636363,332.1190422688212L478.6998,332.1190422688212L482.3263136363636,332.1190422688212L485.9528272727273,332.1190422688212L489.5793409090909,332.1190422688212L493.20585454545454,332.1190422688212L496.83236818181814,332.1190422688212L500.45888181818185,320.898814874036L504.08539545454545,343.3392696636064L507.71190909090905,343.3392696636064L511.3384227272727,332.1190422688212L514.9649363636364,332.1190422688212L518.59145,320.898814874036L522.2179636363636,332.1190422688212L525.8444772727272,332.1190422688212L529.4709909090909,320.898814874036L533.0975045454545,332.1190422688212L536.7240181818181,332.1190422688212L540.3505318181818,332.1190422688212L543.9770454545454,332.1190422688212L547.6035590909091,332.1190422688212L551.2300727272727,332.1190422688212L554.8565863636363,332.1190422688212L558.4830999999999,332.1190422688212L562.1096136363636,332.1190422688212L565.7361272727272,332.1190422688212L569.3626409090908,332.1190422688212L572.9891545454545,332.1190422688212L576.6156681818183,332.1190422688212L580.2421818181818,332.1190422688212L583.8686954545454,332.1190422688212L587.495209090909,332.1190422688212L591.1217227272728,332.1190422688212L594.7482363636364,332.1190422688212L598.37475,332.1190422688212L602.0012636363635,332.1190422688212L605.6277772727273,332.1190422688212L609.2542909090909,332.1190422688212L612.8808045454546,332.1190422688212L616.5073181818182,332.1190422688212L620.1338318181818,332.1190422688212L623.7603454545455,332.1190422688212L627.3868590909091,332.1190422688212L631.0133727272727,332.1190422688212L634.6398863636363,388.22021936944554L638.2664,332.1190422688212L641.8929136363636,332.1190422688212L645.5194272727273,332.1190422688212L649.1459409090909,332.1190422688212L652.7724545454546,332.1190422688212L656.3989681818182,332.1190422688212L660.0254818181818,332.1190422688212L663.6519954545454,332.1190422688212L667.278509090909,332.1190422688212L670.9050227272727,332.1190422688212L674.5315363636363,332.1190422688212L678.15805,332.1190422688212L681.7845636363636,332.1190422688212L685.4110772727273,332.1190422688212L689.0375909090909,332.1190422688212L692.6641045454545,332.1190422688212L696.2906181818181,332.1190422688212L699.9171318181818,332.1190422688212L703.5436454545454,332.1190422688212L707.170159090909,332.1190422688212L710.7966727272727,332.1190422688212L714.4231863636363,332.1190422688212L718.0497,455.5416639915535L721.6762136363636,320.898814874036L725.3027272727272,332.1190422688212L728.9292409090909,421.8809416804995L732.5557545454545,332.1190422688212L736.1822681818181,332.1190422688212L739.8087818181817,332.1190422688212L743.4352954545454,332.1190422688212L747.061809090909,332.1190422688212L750.6883227272727,332.1190422688212" style="fill: none;" fill="none"></path></g></g></g></g></g></g><g transform="translate(60, 377)" clip-path="url(#clip_1)"><clipPath id="clip_1"><rect width="797" height="23"></rect></clipPath><g><g><line x1="0" y1="0" x2="0" y2="5" style="visibility: inherit;" fill="rgb(0, 0, 0)" stroke="rgb(204, 204, 204)" stroke-width="1px"></line><line x1="72.53027272727273" y1="0" x2="72.53027272727273" y2="5" style="visibility: inherit;" fill="rgb(0, 0, 0)" stroke="rgb(204, 204, 204)" stroke-width="1px"></line><line x1="145.06054545454546" y1="0" x2="145.06054545454546" y2="5" style="visibility: inherit;" fill="rgb(0, 0, 0)" stroke="rgb(204, 204, 204)" stroke-width="1px"></line><line x1="217.59081818181815" y1="0" x2="217.59081818181815" y2="5" style="visibility: inherit;" fill="rgb(0, 0, 0)" stroke="rgb(204, 204, 204)" stroke-width="1px"></line><line x1="290.1210909090909" y1="0" x2="290.1210909090909" y2="5" style="visibility: inherit;" fill="rgb(0, 0, 0)" stroke="rgb(204, 204, 204)" stroke-width="1px"></line><line x1="362.6513636363636" y1="0" x2="362.6513636363636" y2="5" style="visibility: inherit;" fill="rgb(0, 0, 0)" stroke="rgb(204, 204, 204)" stroke-width="1px"></line><line x1="435.1816363636363" y1="0" x2="435.1816363636363" y2="5" style="visibility: inherit;" fill="rgb(0, 0, 0)" stroke="rgb(204, 204, 204)" stroke-width="1px"></line><line x1="507.71190909090905" y1="0" x2="507.71190909090905" y2="5" style="visibility: inherit;" fill="rgb(0, 0, 0)" stroke="rgb(204, 204, 204)" stroke-width="1px"></line><line x1="580.2421818181818" y1="0" x2="580.2421818181818" y2="5" style="visibility: inherit;" fill="rgb(0, 0, 0)" stroke="rgb(204, 204, 204)" stroke-width="1px"></line><line x1="652.7724545454546" y1="0" x2="652.7724545454546" y2="5" style="visibility: inherit;" fill="rgb(0, 0, 0)" stroke="rgb(204, 204, 204)" stroke-width="1px"></line><line x1="725.3027272727272" y1="0" x2="725.3027272727272" y2="5" style="visibility: inherit;" fill="rgb(0, 0, 0)" stroke="rgb(204, 204, 204)" stroke-width="1px"></line><line x1="797.833" y1="0" x2="797.833" y2="5" style="visibility: inherit;" fill="rgb(0, 0, 0)" stroke="rgb(204, 204, 204)" stroke-width="1px"></line></g><g transform="translate(0, 8)"><text x="0" y="0" dx="0em" dy="0.95em" style="text-anchor: middle; visibility: hidden; font-family: Roboto, sans-serif; font-size: 12px; font-weight: 200;" fill="rgb(33, 33, 33)" stroke="none" stroke-width="1px">-20</text><text x="72.53027272727273" y="0" dx="0em" dy="0.95em" style="text-anchor: middle; visibility: inherit; font-family: Roboto, sans-serif; font-size: 12px; font-weight: 200;" fill="rgb(33, 33, 33)" stroke="none" stroke-width="1px">0</text><text x="145.06054545454546" y="0" dx="0em" dy="0.95em" style="text-anchor: middle; visibility: inherit; font-family: Roboto, sans-serif; font-size: 12px; font-weight: 200;" fill="rgb(33, 33, 33)" stroke="none" stroke-width="1px">20</text><text x="217.59081818181815" y="0" dx="0em" dy="0.95em" style="text-anchor: middle; visibility: inherit; font-family: Roboto, sans-serif; font-size: 12px; font-weight: 200;" fill="rgb(33, 33, 33)" stroke="none" stroke-width="1px">40</text><text x="290.1210909090909" y="0" dx="0em" dy="0.95em" style="text-anchor: middle; visibility: inherit; font-family: Roboto, sans-serif; font-size: 12px; font-weight: 200;" fill="rgb(33, 33, 33)" stroke="none" stroke-width="1px">60</text><text x="362.6513636363636" y="0" dx="0em" dy="0.95em" style="text-anchor: middle; visibility: inherit; font-family: Roboto, sans-serif; font-size: 12px; font-weight: 200;" fill="rgb(33, 33, 33)" stroke="none" stroke-width="1px">80</text><text x="435.1816363636363" y="0" dx="0em" dy="0.95em" style="text-anchor: middle; visibility: inherit; font-family: Roboto, sans-serif; font-size: 12px; font-weight: 200;" fill="rgb(33, 33, 33)" stroke="none" stroke-width="1px">100</text><text x="507.71190909090905" y="0" dx="0em" dy="0.95em" style="text-anchor: middle; visibility: inherit; font-family: Roboto, sans-serif; font-size: 12px; font-weight: 200;" fill="rgb(33, 33, 33)" stroke="none" stroke-width="1px">120</text><text x="580.2421818181818" y="0" dx="0em" dy="0.95em" style="text-anchor: middle; visibility: inherit; font-family: Roboto, sans-serif; font-size: 12px; font-weight: 200;" fill="rgb(33, 33, 33)" stroke="none" stroke-width="1px">140</text><text x="652.7724545454546" y="0" dx="0em" dy="0.95em" style="text-anchor: middle; visibility: inherit; font-family: Roboto, sans-serif; font-size: 12px; font-weight: 200;" fill="rgb(33, 33, 33)" stroke="none" stroke-width="1px">160</text><text x="725.3027272727272" y="0" dx="0em" dy="0.95em" style="text-anchor: middle; visibility: inherit; font-family: Roboto, sans-serif; font-size: 12px; font-weight: 200;" fill="rgb(33, 33, 33)" stroke="none" stroke-width="1px">180</text><text x="797.833" y="0" dx="0em" dy="0.95em" style="text-anchor: middle; visibility: hidden; font-family: Roboto, sans-serif; font-size: 12px; font-weight: 200;" fill="rgb(33, 33, 33)" stroke="none" stroke-width="1px">200</text></g><line x1="0" y1="0" x2="797.833" y2="0" fill="rgb(0, 0, 0)" stroke="rgb(204, 204, 204)" stroke-width="1px"></line></g></g></g></g></svg>