<svg viewBox="0 0 857.8333740234375 400" xmlns="http://www.w3.org/2000/svg"><g><g><g><g><g><line x1="40" y1="377" x2="35" y2="377" style="visibility: inherit;" fill="rgb(0, 0, 0)" stroke="rgb(204, 204, 204)" stroke-width="1px"></line><line x1="40" y1="342.7272727272727" x2="35" y2="342.7272727272727" style="visibility: inherit;" fill="rgb(0, 0, 0)" stroke="rgb(204, 204, 204)" stroke-width="1px"></line><line x1="40" y1="308.45454545454544" x2="35" y2="308.45454545454544" style="visibility: inherit;" fill="rgb(0, 0, 0)" stroke="rgb(204, 204, 204)" stroke-width="1px"></line><line x1="40" y1="274.1818181818182" x2="35" y2="274.1818181818182" style="visibility: inherit;" fill="rgb(0, 0, 0)" stroke="rgb(204, 204, 204)" stroke-width="1px"></line><line x1="40" y1="239.9090909090909" x2="35" y2="239.9090909090909" style="visibility: inherit;" fill="rgb(0, 0, 0)" stroke="rgb(204, 204, 204)" stroke-width="1px"></line><line x1="40" y1="205.63636363636363" x2="35" y2="205.63636363636363" style="visibility: inherit;" fill="rgb(0, 0, 0)" stroke="rgb(204, 204, 204)" stroke-width="1px"></line><line x1="40" y1="171.36363636363637" x2="35" y2="171.36363636363637" style="visibility: inherit;" fill="rgb(0, 0, 0)" stroke="rgb(204, 204, 204)" stroke-width="1px"></line><line x1="40" y1="137.09090909090915" x2="35" y2="137.09090909090915" style="visibility: inherit;" fill="rgb(0, 0, 0)" stroke="rgb(204, 204, 204)" stroke-width="1px"></line><line x1="40" y1="102.81818181818181" x2="35" y2="102.81818181818181" style="visibility: inherit;" fill="rgb(0, 0, 0)" stroke="rgb(204, 204, 204)" stroke-width="1px"></line><line x1="40" y1="68.54545454545458" x2="35" y2="68.54545454545458" style="visibility: inherit;" fill="rgb(0, 0, 0)" stroke="rgb(204, 204, 204)" stroke-width="1px"></line><line x1="40" y1="34.27272727272729" x2="35" y2="34.27272727272729" style="visibility: inherit;" fill="rgb(0, 0, 0)" stroke="rgb(204, 204, 204)" stroke-width="1px"></line><line x1="40" y1="0" x2="35" y2="0" style="visibility: inherit;" fill="rgb(0, 0, 0)" stroke="rgb(204, 204, 204)" stroke-width="1px"></line></g><g transform="translate(30, 0)"><text x="0" y="377" dx="0em" dy="0.3em" style="text-anchor: end; visibility: hidden; font-family: Roboto, sans-serif; font-size: 12px; font-weight: 200;" fill="rgb(33, 33, 33)" stroke="none" stroke-width="1px">0</text><text x="0" y="342.7272727272727" dx="0em" dy="0.3em" style="text-anchor: end; visibility: inherit; font-family: Roboto, sans-serif; font-size: 12px; font-weight: 200;" fill="rgb(33, 33, 33)" stroke="none" stroke-width="1px">0.1</text><text x="0" y="308.45454545454544" dx="0em" dy="0.3em" style="text-anchor: end; visibility: inherit; font-family: Roboto, sans-serif; font-size: 12px; font-weight: 200;" fill="rgb(33, 33, 33)" stroke="none" stroke-width="1px">0.2</text><text x="0" y="274.1818181818182" dx="0em" dy="0.3em" style="text-anchor: end; visibility: inherit; font-family: Roboto, sans-serif; font-size: 12px; font-weight: 200;" fill="rgb(33, 33, 33)" stroke="none" stroke-width="1px">0.3</text><text x="0" y="239.9090909090909" dx="0em" dy="0.3em" style="text-anchor: end; visibility: inherit; font-family: Roboto, sans-serif; font-size: 12px; font-weight: 200;" fill="rgb(33, 33, 33)" stroke="none" stroke-width="1px">0.4</text><text x="0" y="205.63636363636363" dx="0em" dy="0.3em" style="text-anchor: end; visibility: inherit; font-family: Roboto, sans-serif; font-size: 12px; font-weight: 200;" fill="rgb(33, 33, 33)" stroke="none" stroke-width="1px">0.5</text><text x="0" y="171.36363636363637" dx="0em" dy="0.3em" style="text-anchor: end; visibility: inherit; font-family: Roboto, sans-serif; font-size: 12px; font-weight: 200;" fill="rgb(33, 33, 33)" stroke="none" stroke-width="1px">0.6</text><text x="0" y="137.09090909090915" dx="0em" dy="0.3em" style="text-anchor: end; visibility: inherit; font-family: Roboto, sans-serif; font-size: 12px; font-weight: 200;" fill="rgb(33, 33, 33)" stroke="none" stroke-width="1px">0.7</text><text x="0" y="102.81818181818181" dx="0em" dy="0.3em" style="text-anchor: end; visibility: inherit; font-family: Roboto, sans-serif; font-size: 12px; font-weight: 200;" fill="rgb(33, 33, 33)" stroke="none" stroke-width="1px">0.8</text><text x="0" y="68.54545454545458" dx="0em" dy="0.3em" style="text-anchor: end; visibility: inherit; font-family: Roboto, sans-serif; font-size: 12px; font-weight: 200;" fill="rgb(33, 33, 33)" stroke="none" stroke-width="1px">0.9</text><text x="0" y="34.27272727272729" dx="0em" dy="0.3em" style="text-anchor: end; visibility: inherit; font-family: Roboto, sans-serif; font-size: 12px; font-weight: 200;" fill="rgb(33, 33, 33)" stroke="none" stroke-width="1px">1</text><text x="0" y="0" dx="0em" dy="0.3em" style="text-anchor: end; visibility: hidden; font-family: Roboto, sans-serif; font-size: 12px; font-weight: 200;" fill="rgb(33, 33, 33)" stroke="none" stroke-width="1px">1.1</text></g><line x1="40" y1="0" x2="40" y2="377" fill="rgb(0, 0, 0)" stroke="rgb(204, 204, 204)" stroke-width="1px"></line></g></g><g transform="translate(40, 0)" clip-path="url(#clip_0)"><clipPath id="clip_0"><rect width="817" height="377"></rect></clipPath><g><g><g><line x1="0" y1="0" x2="0" y2="377" fill="rgb(0, 0, 0)" stroke="rgb(66, 66, 66)" stroke-width="1px" opacity="0.25"></line><line x1="74.34845454545454" y1="0" x2="74.34845454545454" y2="377" fill="rgb(0, 0, 0)" stroke="rgb(66, 66, 66)" stroke-width="1px" opacity="0.25"></line><line x1="148.6969090909091" y1="0" x2="148.6969090909091" y2="377" fill="rgb(0, 0, 0)" stroke="rgb(66, 66, 66)" stroke-width="1px" opacity="0.25"></line><line x1="223.04536363636362" y1="0" x2="223.04536363636362" y2="377" fill="rgb(0, 0, 0)" stroke="rgb(66, 66, 66)" stroke-width="1px" opacity="0.25"></line><line x1="297.3938181818182" y1="0" x2="297.3938181818182" y2="377" fill="rgb(0, 0, 0)" stroke="rgb(66, 66, 66)" stroke-width="1px" opacity="0.25"></line><line x1="371.7422727272727" y1="0" x2="371.7422727272727" y2="377" fill="rgb(0, 0, 0)" stroke="rgb(66, 66, 66)" stroke-width="1px" opacity="0.25"></line><line x1="446.09072727272724" y1="0" x2="446.09072727272724" y2="377" fill="rgb(0, 0, 0)" stroke="rgb(66, 66, 66)" stroke-width="1px" opacity="0.25"></line><line x1="520.4391818181817" y1="0" x2="520.4391818181817" y2="377" fill="rgb(0, 0, 0)" stroke="rgb(66, 66, 66)" stroke-width="1px" opacity="0.25"></line><line x1="594.7876363636364" y1="0" x2="594.7876363636364" y2="377" fill="rgb(0, 0, 0)" stroke="rgb(66, 66, 66)" stroke-width="1px" opacity="0.25"></line><line x1="669.136090909091" y1="0" x2="669.136090909091" y2="377" fill="rgb(0, 0, 0)" stroke="rgb(66, 66, 66)" stroke-width="1px" opacity="0.25"></line><line x1="743.4845454545454" y1="0" x2="743.4845454545454" y2="377" fill="rgb(0, 0, 0)" stroke="rgb(66, 66, 66)" stroke-width="1px" opacity="0.25"></line><line x1="817.833" y1="0" x2="817.833" y2="377" fill="rgb(0, 0, 0)" stroke="rgb(66, 66, 66)" stroke-width="1px" opacity="0.25"></line></g><g><line x1="0" y1="377" x2="817.833" y2="377" fill="rgb(0, 0, 0)" stroke="rgb(66, 66, 66)" stroke-width="1px" opacity="0.25"></line><line x1="0" y1="342.7272727272727" x2="817.833" y2="342.7272727272727" fill="rgb(0, 0, 0)" stroke="rgb(66, 66, 66)" stroke-width="1px" opacity="0.25"></line><line x1="0" y1="308.45454545454544" x2="817.833" y2="308.45454545454544" fill="rgb(0, 0, 0)" stroke="rgb(66, 66, 66)" stroke-width="1px" opacity="0.25"></line><line x1="0" y1="274.1818181818182" x2="817.833" y2="274.1818181818182" fill="rgb(0, 0, 0)" stroke="rgb(66, 66, 66)" stroke-width="1px" opacity="0.25"></line><line x1="0" y1="239.9090909090909" x2="817.833" y2="239.9090909090909" fill="rgb(0, 0, 0)" stroke="rgb(66, 66, 66)" stroke-width="1px" opacity="0.25"></line><line x1="0" y1="205.63636363636363" x2="817.833" y2="205.63636363636363" fill="rgb(0, 0, 0)" stroke="rgb(66, 66, 66)" stroke-width="1px" opacity="0.25"></line><line x1="0" y1="171.36363636363637" x2="817.833" y2="171.36363636363637" fill="rgb(0, 0, 0)" stroke="rgb(66, 66, 66)" stroke-width="1px" opacity="0.25"></line><line x1="0" y1="137.09090909090915" x2="817.833" y2="137.09090909090915" fill="rgb(0, 0, 0)" stroke="rgb(66, 66, 66)" stroke-width="1px" opacity="0.25"></line><line x1="0" y1="102.81818181818181" x2="817.833" y2="102.81818181818181" fill="rgb(0, 0, 0)" stroke="rgb(66, 66, 66)" stroke-width="1px" opacity="0.25"></line><line x1="0" y1="68.54545454545458" x2="817.833" y2="68.54545454545458" fill="rgb(0, 0, 0)" stroke="rgb(66, 66, 66)" stroke-width="1px" opacity="0.25"></line><line x1="0" y1="34.27272727272729" x2="817.833" y2="34.27272727272729" fill="rgb(0, 0, 0)" stroke="rgb(66, 66, 66)" stroke-width="1px" opacity="0.25"></line><line x1="0" y1="0" x2="817.833" y2="0" fill="rgb(0, 0, 0)" stroke="rgb(66, 66, 66)" stroke-width="1px" opacity="0.25"></line></g></g></g><g><g><line x1="0" y1="377" x2="817.833" y2="377" fill="rgb(0, 0, 0)" stroke="rgb(153, 153, 153)" stroke-width="1.5px"></line></g></g><g><g><line x1="74.34845454545454" y1="0" x2="74.34845454545454" y2="377" fill="rgb(0, 0, 0)" stroke="rgb(153, 153, 153)" stroke-width="1.5px"></line></g></g><g><g><g><g><g><path stroke="rgb(255, 112, 67)" stroke-width="2px" d="M74.34845454545454,338.8001900748773L81.7833,343.70904434794056L89.21814545454545,340.29379281578565L96.6529909090909,343.2168461687236L104.08783636363636,344.70778594277584L111.52268181818181,344.1763935993492L118.95752727272726,340.4948207272395L126.39237272727271,337.19102321782714L133.82721818181818,331.78245638704084L141.26206363636362,333.7445957826792L148.6969090909091,326.4582023900825L156.13175454545456,320.09971757738737L163.5666,320.1542190938881L171.00144545454543,315.32776412438056L178.4362909090909,314.86310612132866L185.87113636363634,313.5845488408443L193.3059818181818,312.38916414657217L200.74082727272727,305.9593607650932L208.1756727272727,299.1028490764888L215.61051818181815,288.8484543792215L223.04536363636362,276.84100428376365L230.48020909090906,259.78316729276503L237.91505454545452,241.2659673504474L245.3499,224.15798691836972L252.78474545454543,211.6083895672895L260.21959090909087,194.22523136060929L267.65443636363636,190.79271051603894L275.0892818181818,175.02409766144189L282.52412727272724,171.7034730696248L289.95897272727274,153.7171550782945L297.3938181818182,140.0693085671834L304.8286636363636,134.0226474441387L312.2635090909091,126.96737328461627L319.69835454545455,119.73535018498931L327.1332,125.24954244961913L334.5680454545455,130.12889164201553L342.00289090909087,125.63074241402992L349.4377363636363,117.79094868780928L356.8725818181818,107.37494852210877L364.30742727272724,101.12534843754018L371.7422727272727,103.94452561235244L379.1771181818182,97.78187069284961L386.6119636363636,91.94223228788202L394.04680909090905,89.00966082254136L401.48165454545455,85.67928406541516L408.9165,81.11060183149512L416.3513454545454,77.51257104097323L423.7861909090909,76.49617571969549L431.2210363636363,75.88633852694348L438.6558818181818,73.80680148189823L446.09072727272724,72.55907925488194L453.52557272727273,67.38355415827048L460.9604181818181,64.70664982547403L468.39526363636367,87.94823123005062L475.83010909090905,133.16704861191718L483.26495454545454,131.73772753289882L490.6998,123.8827869453884L498.1346454545455,112.17247465278409L505.56949090909086,143.41750375644048L513.0043363636364,144.5997468571081L520.4391818181817,128.88674150890802L527.8740272727273,111.46196805826813L535.3088727272727,97.86543623171697L542.7437181818182,88.27949228025939L550.1785636363636,76.67300112221027L557.613409090909,71.85115188192621L565.0482545454545,64.5311424061083L572.4830999999999,63.70921520194497L579.9179454545455,58.217955542592556L587.3527909090908,54.20917914796263L594.7876363636364,51.803913311184694L602.2224818181818,50.07515210651447L609.6573272727272,49.323497086315804L617.0921727272727,47.44447921866963L624.5270181818182,50.886761109776174L631.9618636363635,49.52486078566944L639.3967090909091,45.566052835038L646.8315545454545,42.90515819080081L654.2664,40.73740982779674L661.7012454545454,40.15078140901267L669.136090909091,42.226451514891146L676.5709363636363,41.75821884903287L684.0057818181817,42.33410069983808L691.4406272727273,40.965986909680886L698.8754727272726,46.14285244531775L706.3103181818182,45.821694136674154L713.7451636363636,43.34415284564086L721.180009090909,40.2867941929372L728.6148545454545,40.023212879398685L736.0497,41.435897969359246L743.4845454545454,47.13881150888825L750.9193909090909,45.13404557059121" style="fill: none;" fill="none"></path></g></g></g></g><g opacity="0.2"><g><g><g><path stroke="rgb(255, 112, 67)" stroke-width="2px" d="M74.34845454545454,338.8001900748773L81.7833,346.65435691177845L89.21814545454545,337.015151344917L96.6529909090909,346.65435691177845L104.08783636363636,346.65435691177845L111.52268181818181,343.44128668714654L118.95752727272726,335.23011261495674L126.39237272727271,332.3740547326478L133.82721818181818,323.80587087165225L141.26206363636362,336.6581441096284L148.6969090909091,315.59469935297966L156.13175454545456,310.59659295190465L163.5666,320.2357934117317L171.00144545454543,308.09753719785L178.4362909090909,314.16666530479085L185.87113636363634,311.6676146577705L193.3059818181818,310.59659295190465L200.74082727272727,296.3162882192569L208.1756727272727,288.81912606412715L215.61051818181815,273.4677996256135L223.04536363636362,258.83048765767705L230.48020909090906,234.19697310165927L237.91505454545452,213.49053302678197L245.3499,198.49621893059123L252.78474545454543,192.78408273783603L260.21959090909087,168.1505681818182L267.65443636363636,185.64393803206357L275.0892818181818,151.37120258808136L282.52412727272724,166.7225392406637L289.95897272727274,126.73768803206357L297.3938181818182,119.59754332629117L304.8286636363636,124.95265696265484L312.2635090909091,116.38446288759059L319.69835454545455,108.88731605356394L327.1332,133.5208306095817L334.5680454545455,137.44791530479085L342.00289090909087,118.8835186416453L349.4377363636363,106.03125817125498L356.8725818181818,91.7509483315728L364.30742727272724,91.7509483315728L371.7422727272727,108.17329136891802L379.1771181818182,88.53788832100959L386.6119636363636,83.18277468464592L394.04680909090905,84.6108036258004L401.48165454545455,80.68371893059127L408.9165,74.25757848132741L416.3513454545454,72.11552485552701L423.7861909090909,74.97158273783597L431.2210363636363,74.97158273783597L438.6558818181818,70.68749591437258L446.09072727272724,70.68749591437258L453.52557272727273,59.620266513390995L460.9604181818181,60.691293326291216L468.39526363636367,122.81060333685443L475.83010909090905,200.99527468464592L483.26495454545454,129.59374591437253L490.6998,112.10037606412715L498.1346454545455,94.60700621388176L505.56949090909086,190.28504741191864L513.0043363636364,146.37311150810936L520.4391818181817,105.31723348660906L527.8740272727273,85.324807882309L535.3088727272727,77.47063849189068L542.7437181818182,73.90057635307316L550.1785636363636,59.263264385136736L557.613409090909,64.61837802150036L565.0482545454545,53.55112819238145L572.4830999999999,62.476324395699955L579.9179454545455,49.981066053563936L587.3527909090908,48.19601455601783L594.7876363636364,48.19601455601783L602.2224818181818,47.48201029950923L609.6573272727272,48.19601455601783L617.0921727272727,44.62595241720027L624.5270181818182,56.05018394643611L631.9618636363635,47.48201029950923L639.3967090909091,39.62784090909095L646.8315545454545,38.91381622444502L654.2664,37.48578728329054L661.7012454545454,39.27083878083665L669.136090909091,45.33995667370887L676.5709363636363,41.05586985024543L684.0057818181817,43.19792347604579L691.4406272727273,38.91381622444502L698.8754727272726,53.908150748773075L706.3103181818182,45.33995667370887L713.7451636363636,39.62784090909095L721.180009090909,35.70075621388177L728.6148545454545,39.62784090909095L736.0497,43.55492560430009L743.4845454545454,55.693181818181856L750.9193909090909,42.12689666314561" style="fill: none;" fill="none"></path></g></g></g></g></g></g><g transform="translate(40, 377)" clip-path="url(#clip_1)"><clipPath id="clip_1"><rect width="817" height="23"></rect></clipPath><g><g><line x1="0" y1="0" x2="0" y2="5" style="visibility: inherit;" fill="rgb(0, 0, 0)" stroke="rgb(204, 204, 204)" stroke-width="1px"></line><line x1="74.34845454545454" y1="0" x2="74.34845454545454" y2="5" style="visibility: inherit;" fill="rgb(0, 0, 0)" stroke="rgb(204, 204, 204)" stroke-width="1px"></line><line x1="148.6969090909091" y1="0" x2="148.6969090909091" y2="5" style="visibility: inherit;" fill="rgb(0, 0, 0)" stroke="rgb(204, 204, 204)" stroke-width="1px"></line><line x1="223.04536363636362" y1="0" x2="223.04536363636362" y2="5" style="visibility: inherit;" fill="rgb(0, 0, 0)" stroke="rgb(204, 204, 204)" stroke-width="1px"></line><line x1="297.3938181818182" y1="0" x2="297.3938181818182" y2="5" style="visibility: inherit;" fill="rgb(0, 0, 0)" stroke="rgb(204, 204, 204)" stroke-width="1px"></line><line x1="371.7422727272727" y1="0" x2="371.7422727272727" y2="5" style="visibility: inherit;" fill="rgb(0, 0, 0)" stroke="rgb(204, 204, 204)" stroke-width="1px"></line><line x1="446.09072727272724" y1="0" x2="446.09072727272724" y2="5" style="visibility: inherit;" fill="rgb(0, 0, 0)" stroke="rgb(204, 204, 204)" stroke-width="1px"></line><line x1="520.4391818181817" y1="0" x2="520.4391818181817" y2="5" style="visibility: inherit;" fill="rgb(0, 0, 0)" stroke="rgb(204, 204, 204)" stroke-width="1px"></line><line x1="594.7876363636364" y1="0" x2="594.7876363636364" y2="5" style="visibility: inherit;" fill="rgb(0, 0, 0)" stroke="rgb(204, 204, 204)" stroke-width="1px"></line><line x1="669.136090909091" y1="0" x2="669.136090909091" y2="5" style="visibility: inherit;" fill="rgb(0, 0, 0)" stroke="rgb(204, 204, 204)" stroke-width="1px"></line><line x1="743.4845454545454" y1="0" x2="743.4845454545454" y2="5" style="visibility: inherit;" fill="rgb(0, 0, 0)" stroke="rgb(204, 204, 204)" stroke-width="1px"></line><line x1="817.833" y1="0" x2="817.833" y2="5" style="visibility: inherit;" fill="rgb(0, 0, 0)" stroke="rgb(204, 204, 204)" stroke-width="1px"></line></g><g transform="translate(0, 8)"><text x="0" y="0" dx="0em" dy="0.95em" style="text-anchor: middle; visibility: hidden; font-family: Roboto, sans-serif; font-size: 12px; font-weight: 200;" fill="rgb(33, 33, 33)" stroke="none" stroke-width="1px">-10</text><text x="74.34845454545454" y="0" dx="0em" dy="0.95em" style="text-anchor: middle; visibility: inherit; font-family: Roboto, sans-serif; font-size: 12px; font-weight: 200;" fill="rgb(33, 33, 33)" stroke="none" stroke-width="1px">0</text><text x="148.6969090909091" y="0" dx="0em" dy="0.95em" style="text-anchor: middle; visibility: inherit; font-family: Roboto, sans-serif; font-size: 12px; font-weight: 200;" fill="rgb(33, 33, 33)" stroke="none" stroke-width="1px">10</text><text x="223.04536363636362" y="0" dx="0em" dy="0.95em" style="text-anchor: middle; visibility: inherit; font-family: Roboto, sans-serif; font-size: 12px; font-weight: 200;" fill="rgb(33, 33, 33)" stroke="none" stroke-width="1px">20</text><text x="297.3938181818182" y="0" dx="0em" dy="0.95em" style="text-anchor: middle; visibility: inherit; font-family: Roboto, sans-serif; font-size: 12px; font-weight: 200;" fill="rgb(33, 33, 33)" stroke="none" stroke-width="1px">30</text><text x="371.7422727272727" y="0" dx="0em" dy="0.95em" style="text-anchor: middle; visibility: inherit; font-family: Roboto, sans-serif; font-size: 12px; font-weight: 200;" fill="rgb(33, 33, 33)" stroke="none" stroke-width="1px">40</text><text x="446.09072727272724" y="0" dx="0em" dy="0.95em" style="text-anchor: middle; visibility: inherit; font-family: Roboto, sans-serif; font-size: 12px; font-weight: 200;" fill="rgb(33, 33, 33)" stroke="none" stroke-width="1px">50</text><text x="520.4391818181817" y="0" dx="0em" dy="0.95em" style="text-anchor: middle; visibility: inherit; font-family: Roboto, sans-serif; font-size: 12px; font-weight: 200;" fill="rgb(33, 33, 33)" stroke="none" stroke-width="1px">60</text><text x="594.7876363636364" y="0" dx="0em" dy="0.95em" style="text-anchor: middle; visibility: inherit; font-family: Roboto, sans-serif; font-size: 12px; font-weight: 200;" fill="rgb(33, 33, 33)" stroke="none" stroke-width="1px">70</text><text x="669.136090909091" y="0" dx="0em" dy="0.95em" style="text-anchor: middle; visibility: inherit; font-family: Roboto, sans-serif; font-size: 12px; font-weight: 200;" fill="rgb(33, 33, 33)" stroke="none" stroke-width="1px">80</text><text x="743.4845454545454" y="0" dx="0em" dy="0.95em" style="text-anchor: middle; visibility: inherit; font-family: Roboto, sans-serif; font-size: 12px; font-weight: 200;" fill="rgb(33, 33, 33)" stroke="none" stroke-width="1px">90</text><text x="817.833" y="0" dx="0em" dy="0.95em" style="text-anchor: middle; visibility: hidden; font-family: Roboto, sans-serif; font-size: 12px; font-weight: 200;" fill="rgb(33, 33, 33)" stroke="none" stroke-width="1px">100</text></g><line x1="0" y1="0" x2="817.833" y2="0" fill="rgb(0, 0, 0)" stroke="rgb(204, 204, 204)" stroke-width="1px"></line></g></g></g></g></svg>