<svg viewBox="0 0 857.8333740234375 400" xmlns="http://www.w3.org/2000/svg"><g><g><g><g><g><line x1="50" y1="377" x2="45" y2="377" style="visibility: inherit;" fill="rgb(0, 0, 0)" stroke="rgb(204, 204, 204)" stroke-width="1px"></line><line x1="50" y1="329.875" x2="45" y2="329.875" style="visibility: inherit;" fill="rgb(0, 0, 0)" stroke="rgb(204, 204, 204)" stroke-width="1px"></line><line x1="50" y1="282.75" x2="45" y2="282.75" style="visibility: inherit;" fill="rgb(0, 0, 0)" stroke="rgb(204, 204, 204)" stroke-width="1px"></line><line x1="50" y1="235.625" x2="45" y2="235.625" style="visibility: inherit;" fill="rgb(0, 0, 0)" stroke="rgb(204, 204, 204)" stroke-width="1px"></line><line x1="50" y1="188.5" x2="45" y2="188.5" style="visibility: inherit;" fill="rgb(0, 0, 0)" stroke="rgb(204, 204, 204)" stroke-width="1px"></line><line x1="50" y1="141.375" x2="45" y2="141.375" style="visibility: inherit;" fill="rgb(0, 0, 0)" stroke="rgb(204, 204, 204)" stroke-width="1px"></line><line x1="50" y1="94.25" x2="45" y2="94.25" style="visibility: inherit;" fill="rgb(0, 0, 0)" stroke="rgb(204, 204, 204)" stroke-width="1px"></line><line x1="50" y1="47.125" x2="45" y2="47.125" style="visibility: inherit;" fill="rgb(0, 0, 0)" stroke="rgb(204, 204, 204)" stroke-width="1px"></line><line x1="50" y1="0" x2="45" y2="0" style="visibility: inherit;" fill="rgb(0, 0, 0)" stroke="rgb(204, 204, 204)" stroke-width="1px"></line></g><g transform="translate(40, 0)"><text x="0" y="377" dx="0em" dy="0.3em" style="text-anchor: end; visibility: hidden; font-family: Roboto, sans-serif; font-size: 12px; font-weight: 200;" fill="rgb(33, 33, 33)" stroke="none" stroke-width="1px">-0.5</text><text x="0" y="329.875" dx="0em" dy="0.3em" style="text-anchor: end; visibility: inherit; font-family: Roboto, sans-serif; font-size: 12px; font-weight: 200;" fill="rgb(33, 33, 33)" stroke="none" stroke-width="1px">0</text><text x="0" y="282.75" dx="0em" dy="0.3em" style="text-anchor: end; visibility: inherit; font-family: Roboto, sans-serif; font-size: 12px; font-weight: 200;" fill="rgb(33, 33, 33)" stroke="none" stroke-width="1px">0.5</text><text x="0" y="235.625" dx="0em" dy="0.3em" style="text-anchor: end; visibility: inherit; font-family: Roboto, sans-serif; font-size: 12px; font-weight: 200;" fill="rgb(33, 33, 33)" stroke="none" stroke-width="1px">1</text><text x="0" y="188.5" dx="0em" dy="0.3em" style="text-anchor: end; visibility: inherit; font-family: Roboto, sans-serif; font-size: 12px; font-weight: 200;" fill="rgb(33, 33, 33)" stroke="none" stroke-width="1px">1.5</text><text x="0" y="141.375" dx="0em" dy="0.3em" style="text-anchor: end; visibility: inherit; font-family: Roboto, sans-serif; font-size: 12px; font-weight: 200;" fill="rgb(33, 33, 33)" stroke="none" stroke-width="1px">2</text><text x="0" y="94.25" dx="0em" dy="0.3em" style="text-anchor: end; visibility: inherit; font-family: Roboto, sans-serif; font-size: 12px; font-weight: 200;" fill="rgb(33, 33, 33)" stroke="none" stroke-width="1px">2.5</text><text x="0" y="47.125" dx="0em" dy="0.3em" style="text-anchor: end; visibility: inherit; font-family: Roboto, sans-serif; font-size: 12px; font-weight: 200;" fill="rgb(33, 33, 33)" stroke="none" stroke-width="1px">3</text><text x="0" y="0" dx="0em" dy="0.3em" style="text-anchor: end; visibility: hidden; font-family: Roboto, sans-serif; font-size: 12px; font-weight: 200;" fill="rgb(33, 33, 33)" stroke="none" stroke-width="1px">3.5</text></g><line x1="50" y1="0" x2="50" y2="377" fill="rgb(0, 0, 0)" stroke="rgb(204, 204, 204)" stroke-width="1px"></line></g></g><g transform="translate(50, 0)" clip-path="url(#clip_0)"><clipPath id="clip_0"><rect width="807" height="377"></rect></clipPath><g><g><g><line x1="0" y1="0" x2="0" y2="377" fill="rgb(0, 0, 0)" stroke="rgb(66, 66, 66)" stroke-width="1px" opacity="0.25"></line><line x1="73.43936363636364" y1="0" x2="73.43936363636364" y2="377" fill="rgb(0, 0, 0)" stroke="rgb(66, 66, 66)" stroke-width="1px" opacity="0.25"></line><line x1="146.87872727272728" y1="0" x2="146.87872727272728" y2="377" fill="rgb(0, 0, 0)" stroke="rgb(66, 66, 66)" stroke-width="1px" opacity="0.25"></line><line x1="220.3180909090909" y1="0" x2="220.3180909090909" y2="377" fill="rgb(0, 0, 0)" stroke="rgb(66, 66, 66)" stroke-width="1px" opacity="0.25"></line><line x1="293.75745454545455" y1="0" x2="293.75745454545455" y2="377" fill="rgb(0, 0, 0)" stroke="rgb(66, 66, 66)" stroke-width="1px" opacity="0.25"></line><line x1="367.1968181818182" y1="0" x2="367.1968181818182" y2="377" fill="rgb(0, 0, 0)" stroke="rgb(66, 66, 66)" stroke-width="1px" opacity="0.25"></line><line x1="440.6361818181818" y1="0" x2="440.6361818181818" y2="377" fill="rgb(0, 0, 0)" stroke="rgb(66, 66, 66)" stroke-width="1px" opacity="0.25"></line><line x1="514.0755454545455" y1="0" x2="514.0755454545455" y2="377" fill="rgb(0, 0, 0)" stroke="rgb(66, 66, 66)" stroke-width="1px" opacity="0.25"></line><line x1="587.5149090909091" y1="0" x2="587.5149090909091" y2="377" fill="rgb(0, 0, 0)" stroke="rgb(66, 66, 66)" stroke-width="1px" opacity="0.25"></line><line x1="660.9542727272727" y1="0" x2="660.9542727272727" y2="377" fill="rgb(0, 0, 0)" stroke="rgb(66, 66, 66)" stroke-width="1px" opacity="0.25"></line><line x1="734.3936363636363" y1="0" x2="734.3936363636363" y2="377" fill="rgb(0, 0, 0)" stroke="rgb(66, 66, 66)" stroke-width="1px" opacity="0.25"></line><line x1="807.833" y1="0" x2="807.833" y2="377" fill="rgb(0, 0, 0)" stroke="rgb(66, 66, 66)" stroke-width="1px" opacity="0.25"></line></g><g><line x1="0" y1="377" x2="807.833" y2="377" fill="rgb(0, 0, 0)" stroke="rgb(66, 66, 66)" stroke-width="1px" opacity="0.25"></line><line x1="0" y1="329.875" x2="807.833" y2="329.875" fill="rgb(0, 0, 0)" stroke="rgb(66, 66, 66)" stroke-width="1px" opacity="0.25"></line><line x1="0" y1="282.75" x2="807.833" y2="282.75" fill="rgb(0, 0, 0)" stroke="rgb(66, 66, 66)" stroke-width="1px" opacity="0.25"></line><line x1="0" y1="235.625" x2="807.833" y2="235.625" fill="rgb(0, 0, 0)" stroke="rgb(66, 66, 66)" stroke-width="1px" opacity="0.25"></line><line x1="0" y1="188.5" x2="807.833" y2="188.5" fill="rgb(0, 0, 0)" stroke="rgb(66, 66, 66)" stroke-width="1px" opacity="0.25"></line><line x1="0" y1="141.375" x2="807.833" y2="141.375" fill="rgb(0, 0, 0)" stroke="rgb(66, 66, 66)" stroke-width="1px" opacity="0.25"></line><line x1="0" y1="94.25" x2="807.833" y2="94.25" fill="rgb(0, 0, 0)" stroke="rgb(66, 66, 66)" stroke-width="1px" opacity="0.25"></line><line x1="0" y1="47.125" x2="807.833" y2="47.125" fill="rgb(0, 0, 0)" stroke="rgb(66, 66, 66)" stroke-width="1px" opacity="0.25"></line><line x1="0" y1="0" x2="807.833" y2="0" fill="rgb(0, 0, 0)" stroke="rgb(66, 66, 66)" stroke-width="1px" opacity="0.25"></line></g></g></g><g><g><line x1="0" y1="329.875" x2="807.833" y2="329.875" fill="rgb(0, 0, 0)" stroke="rgb(153, 153, 153)" stroke-width="1.5px"></line></g></g><g><g><line x1="73.43936363636364" y1="0" x2="73.43936363636364" y2="377" fill="rgb(0, 0, 0)" stroke="rgb(153, 153, 153)" stroke-width="1.5px"></line></g></g><g><g><g><g><g><path stroke="rgb(255, 112, 67)" stroke-width="2px" d="M73.43936363636364,49.61105120182037L80.7833,-91.92049267888069L102.81510909090908,-25.568466567604325L110.15904545454545,9.330525546913904L117.50298181818181,25.33805889791518L124.84691818181817,37.75957601260654L132.19085454545453,47.265227039747145L139.5347909090909,52.79602271517081L146.87872727272728,61.06966691940016L154.22266363636365,69.4156842485348L161.5666,26.451488628653912L168.91053636363634,48.0457777312589L176.2544727272727,67.40865939802005L183.5984090909091,82.76105125151359L190.94234545454543,85.32429744623411L198.2862818181818,100.3600926383358L205.63021818181815,109.21651748573522L212.97415454545452,119.39271185812181L220.3180909090909,133.2963477199771L227.66202727272724,145.6830730747501L235.00596363636362,160.58042069265835L242.3499,176.82705646486767L249.69383636363634,190.0245276491391L257.03777272727274,203.3792984365779L264.38170909090906,206.61052528403906L271.72564545454543,216.6255487633329L279.0695818181818,220.6838549327678L286.4135181818182,232.90720635582784L293.75745454545455,242.3906274019129L301.1013909090909,248.73362444328552L308.4453272727273,255.63353987792505L315.7892636363636,261.25015628491474L323.1332,256.9034305132517L330.47713636363636,253.0307546762784L337.8210727272727,257.6086591889546L345.16500909090905,263.8622275054255L352.5089454545454,270.9016034735988L359.8528818181818,275.01735499656525L367.1968181818182,275.2549146425026L374.54075454545455,279.6710669158073L381.88469090909086,284.3853757817154L389.22862727272724,287.01387301064995L396.5725636363636,289.4212729902235L403.9165,292.55739808228304L411.2604363636363,295.1873558083964L418.60437272727273,295.7711032134302L425.94830909090905,295.2446475000315L433.2922454545454,295.5353313309653L440.6361818181818,297.92197755115615L447.98011818181817,301.72418266468793L455.3240545454545,303.4754457708243L462.6679909090909,272.98540144178315L470.01192727272723,240.00796106463412L477.35586363636367,241.62120599750187L484.6998,252.34911169531293L492.04373636363636,257.8052992100863L499.3876727272727,232.06713979693134L506.7316090909091,232.31662610323357L514.0755454545455,248.0016189047766L521.4194818181818,264.5510514991925L528.7634181818181,277.0310729961067L536.1073545454545,285.26206654432235L543.4512909090909,294.21443575246826L550.7952272727272,298.6218765087348L558.1391636363636,303.8118929956807L565.4830999999999,305.0271092068823L572.8270363636364,308.97673407117554L580.1709727272727,312.2929416309001L587.5149090909091,313.9671183979632L594.8588454545454,314.82325944191945L602.2027818181818,315.88291009298996L609.5467181818182,316.74781823326373L616.8906545454546,314.5795547704054L624.2345909090909,315.3133424365612L631.5785272727272,318.6843554053659L638.9224636363635,321.22210889750454L646.2664,323.11504701528685L653.6103363636363,323.710304302372L660.9542727272727,322.6155148833379L668.298209090909,322.76334930371553L675.6421454545454,322.3963039571721L682.9860818181818,323.2084564245301L690.3300181818181,318.97281787255747L697.6739545454545,319.32156701212733L705.0178909090909,321.34888454907L712.3618272727273,323.6818852808795L719.7057636363636,324.22607307913734L727.0497,323.30824181457064L734.3936363636363,318.45408065479813L741.7375727272728,320.36953240252626" style="fill: none;" fill="none"></path></g></g></g></g><g opacity="0.2"><g><g><g><path stroke="rgb(255, 112, 67)" stroke-width="2px" d="M73.43936363636364,49.61105120182037L80.7833,-176.83941900730133L88.12723636363636,-307.1588009595871L95.47117272727272,49.73221457004547L102.81510909090908,53.554905354976654L110.15904545454545,57.60839527845383L117.50298181818181,48.229087710380554L124.84691818181817,55.8702672123909L132.19085454545453,61.28421592712402L139.5347909090909,61.00860971212387L146.87872727272728,73.40509188175201L154.22266363636365,81.88929158449173L161.5666,-37.85451924800873L168.91053636363634,80.39490592479706L176.2544727272727,96.43022155761719L183.5984090909091,105.77881133556366L190.94234545454543,89.16808205842972L198.2862818181818,122.90996783971786L205.63021818181815,122.49980556964874L212.97415454545452,134.65607327222824L220.3180909090909,154.15103900432587L227.66202727272724,164.26275351643562L235.00596363636362,182.9261479973793L242.3499,201.1968176662922L249.69383636363634,209.8206406235695L257.03777272727274,223.41139766573906L264.38170909090906,211.45735728740692L271.72564545454543,231.64806860685349L279.0695818181818,226.77131044864655L286.4135181818182,251.24222673475742L293.75745454545455,256.6157558262348L301.1013909090909,258.24811874330044L308.4453272727273,265.98341220617294L315.7892636363636,269.67508049309254L323.1332,250.38334204256535L330.47713636363636,247.22174102067947L337.8210727272727,264.4755158871412L345.16500909090905,273.24257992208004L352.5089454545454,281.46066738665104L359.8528818181818,281.19098226726055L367.1968181818182,275.61125411093235L374.54075454545455,286.29529532045126L381.88469090909086,291.45683907717466L389.22862727272724,290.9566188529134L396.5725636363636,293.03237295895815L403.9165,297.26158571988344L411.2604363636363,299.13229239732027L418.60437272727273,296.6467243209481L425.94830909090905,294.4549639299512L433.2922454545454,295.97135707736015L440.6361818181818,301.50194688141346L447.98011818181817,307.42749033495784L455.3240545454545,306.1023404300213L462.6679909090909,227.25033494830132L470.01192727272723,190.5418004989624L477.35586363636367,244.04107339680195L484.6998,268.44097024202347L492.04373636363636,265.9895804822445L499.3876727272727,193.45990067720413L506.7316090909091,232.69085556268692L514.0755454545455,271.52910810709L521.4194818181818,289.37520039081573L528.7634181818181,295.7511052414775L536.1073545454545,297.6085568666458L543.4512909090909,307.642989564687L550.7952272727272,305.2330376431346L558.1391636363636,311.5969177260995L565.4830999999999,306.84993352368474L572.8270363636364,314.90117136761546L580.1709727272727,317.2672529704869L587.5149090909091,316.47838354855776L594.8588454545454,316.10747100785375L602.2027818181818,317.4723860695958L609.5467181818182,318.0451804436743L616.8906545454546,311.327159576118L624.2345909090909,316.41402393579483L631.5785272727272,323.7408748585731L638.9224636363635,325.0287391357124L646.2664,325.9544541919604L653.6103363636363,324.6031902329996L660.9542727272727,320.97333075478673L668.298209090909,322.98510093428195L675.6421454545454,321.84573593735695L682.9860818181818,324.426685125567L690.3300181818181,312.6193600445986L697.6739545454545,319.84469072148204L705.0178909090909,324.38986085448414L712.3618272727273,327.18138637859374L719.7057636363636,325.042354776524L727.0497,321.93149491772056L734.3936363636363,311.17283891513944L741.7375727272728,323.2427100241184" style="fill: none;" fill="none"></path></g></g></g></g></g><g><g opacity="0.0755742"><span fill="rgb(0, 0, 0)" stroke="none" stroke-width="1px">Alt + Scroll to Zoom</span></g></g></g><g transform="translate(50, 377)" clip-path="url(#clip_1)"><clipPath id="clip_1"><rect width="807" height="23"></rect></clipPath><g><g><line x1="0" y1="0" x2="0" y2="5" style="visibility: inherit;" fill="rgb(0, 0, 0)" stroke="rgb(204, 204, 204)" stroke-width="1px"></line><line x1="73.43936363636364" y1="0" x2="73.43936363636364" y2="5" style="visibility: inherit;" fill="rgb(0, 0, 0)" stroke="rgb(204, 204, 204)" stroke-width="1px"></line><line x1="146.87872727272728" y1="0" x2="146.87872727272728" y2="5" style="visibility: inherit;" fill="rgb(0, 0, 0)" stroke="rgb(204, 204, 204)" stroke-width="1px"></line><line x1="220.3180909090909" y1="0" x2="220.3180909090909" y2="5" style="visibility: inherit;" fill="rgb(0, 0, 0)" stroke="rgb(204, 204, 204)" stroke-width="1px"></line><line x1="293.75745454545455" y1="0" x2="293.75745454545455" y2="5" style="visibility: inherit;" fill="rgb(0, 0, 0)" stroke="rgb(204, 204, 204)" stroke-width="1px"></line><line x1="367.1968181818182" y1="0" x2="367.1968181818182" y2="5" style="visibility: inherit;" fill="rgb(0, 0, 0)" stroke="rgb(204, 204, 204)" stroke-width="1px"></line><line x1="440.6361818181818" y1="0" x2="440.6361818181818" y2="5" style="visibility: inherit;" fill="rgb(0, 0, 0)" stroke="rgb(204, 204, 204)" stroke-width="1px"></line><line x1="514.0755454545455" y1="0" x2="514.0755454545455" y2="5" style="visibility: inherit;" fill="rgb(0, 0, 0)" stroke="rgb(204, 204, 204)" stroke-width="1px"></line><line x1="587.5149090909091" y1="0" x2="587.5149090909091" y2="5" style="visibility: inherit;" fill="rgb(0, 0, 0)" stroke="rgb(204, 204, 204)" stroke-width="1px"></line><line x1="660.9542727272727" y1="0" x2="660.9542727272727" y2="5" style="visibility: inherit;" fill="rgb(0, 0, 0)" stroke="rgb(204, 204, 204)" stroke-width="1px"></line><line x1="734.3936363636363" y1="0" x2="734.3936363636363" y2="5" style="visibility: inherit;" fill="rgb(0, 0, 0)" stroke="rgb(204, 204, 204)" stroke-width="1px"></line><line x1="807.833" y1="0" x2="807.833" y2="5" style="visibility: inherit;" fill="rgb(0, 0, 0)" stroke="rgb(204, 204, 204)" stroke-width="1px"></line></g><g transform="translate(0, 8)"><text x="0" y="0" dx="0em" dy="0.95em" style="text-anchor: middle; visibility: hidden; font-family: Roboto, sans-serif; font-size: 12px; font-weight: 200;" fill="rgb(33, 33, 33)" stroke="none" stroke-width="1px">-10</text><text x="73.43936363636364" y="0" dx="0em" dy="0.95em" style="text-anchor: middle; visibility: inherit; font-family: Roboto, sans-serif; font-size: 12px; font-weight: 200;" fill="rgb(33, 33, 33)" stroke="none" stroke-width="1px">0</text><text x="146.87872727272728" y="0" dx="0em" dy="0.95em" style="text-anchor: middle; visibility: inherit; font-family: Roboto, sans-serif; font-size: 12px; font-weight: 200;" fill="rgb(33, 33, 33)" stroke="none" stroke-width="1px">10</text><text x="220.3180909090909" y="0" dx="0em" dy="0.95em" style="text-anchor: middle; visibility: inherit; font-family: Roboto, sans-serif; font-size: 12px; font-weight: 200;" fill="rgb(33, 33, 33)" stroke="none" stroke-width="1px">20</text><text x="293.75745454545455" y="0" dx="0em" dy="0.95em" style="text-anchor: middle; visibility: inherit; font-family: Roboto, sans-serif; font-size: 12px; font-weight: 200;" fill="rgb(33, 33, 33)" stroke="none" stroke-width="1px">30</text><text x="367.1968181818182" y="0" dx="0em" dy="0.95em" style="text-anchor: middle; visibility: inherit; font-family: Roboto, sans-serif; font-size: 12px; font-weight: 200;" fill="rgb(33, 33, 33)" stroke="none" stroke-width="1px">40</text><text x="440.6361818181818" y="0" dx="0em" dy="0.95em" style="text-anchor: middle; visibility: inherit; font-family: Roboto, sans-serif; font-size: 12px; font-weight: 200;" fill="rgb(33, 33, 33)" stroke="none" stroke-width="1px">50</text><text x="514.0755454545455" y="0" dx="0em" dy="0.95em" style="text-anchor: middle; visibility: inherit; font-family: Roboto, sans-serif; font-size: 12px; font-weight: 200;" fill="rgb(33, 33, 33)" stroke="none" stroke-width="1px">60</text><text x="587.5149090909091" y="0" dx="0em" dy="0.95em" style="text-anchor: middle; visibility: inherit; font-family: Roboto, sans-serif; font-size: 12px; font-weight: 200;" fill="rgb(33, 33, 33)" stroke="none" stroke-width="1px">70</text><text x="660.9542727272727" y="0" dx="0em" dy="0.95em" style="text-anchor: middle; visibility: inherit; font-family: Roboto, sans-serif; font-size: 12px; font-weight: 200;" fill="rgb(33, 33, 33)" stroke="none" stroke-width="1px">80</text><text x="734.3936363636363" y="0" dx="0em" dy="0.95em" style="text-anchor: middle; visibility: inherit; font-family: Roboto, sans-serif; font-size: 12px; font-weight: 200;" fill="rgb(33, 33, 33)" stroke="none" stroke-width="1px">90</text><text x="807.833" y="0" dx="0em" dy="0.95em" style="text-anchor: middle; visibility: hidden; font-family: Roboto, sans-serif; font-size: 12px; font-weight: 200;" fill="rgb(33, 33, 33)" stroke="none" stroke-width="1px">100</text></g><line x1="0" y1="0" x2="807.833" y2="0" fill="rgb(0, 0, 0)" stroke="rgb(204, 204, 204)" stroke-width="1px"></line></g></g></g></g></svg>