<svg viewBox="0 0 857.8333740234375 400" xmlns="http://www.w3.org/2000/svg"><g><g><g><g><g><line x1="40" y1="377" x2="35" y2="377" style="visibility: inherit;" fill="rgb(0, 0, 0)" stroke="rgb(204, 204, 204)" stroke-width="1px"></line><line x1="40" y1="342.7272727272727" x2="35" y2="342.7272727272727" style="visibility: inherit;" fill="rgb(0, 0, 0)" stroke="rgb(204, 204, 204)" stroke-width="1px"></line><line x1="40" y1="308.45454545454544" x2="35" y2="308.45454545454544" style="visibility: inherit;" fill="rgb(0, 0, 0)" stroke="rgb(204, 204, 204)" stroke-width="1px"></line><line x1="40" y1="274.1818181818182" x2="35" y2="274.1818181818182" style="visibility: inherit;" fill="rgb(0, 0, 0)" stroke="rgb(204, 204, 204)" stroke-width="1px"></line><line x1="40" y1="239.9090909090909" x2="35" y2="239.9090909090909" style="visibility: inherit;" fill="rgb(0, 0, 0)" stroke="rgb(204, 204, 204)" stroke-width="1px"></line><line x1="40" y1="205.63636363636363" x2="35" y2="205.63636363636363" style="visibility: inherit;" fill="rgb(0, 0, 0)" stroke="rgb(204, 204, 204)" stroke-width="1px"></line><line x1="40" y1="171.36363636363637" x2="35" y2="171.36363636363637" style="visibility: inherit;" fill="rgb(0, 0, 0)" stroke="rgb(204, 204, 204)" stroke-width="1px"></line><line x1="40" y1="137.09090909090915" x2="35" y2="137.09090909090915" style="visibility: inherit;" fill="rgb(0, 0, 0)" stroke="rgb(204, 204, 204)" stroke-width="1px"></line><line x1="40" y1="102.81818181818181" x2="35" y2="102.81818181818181" style="visibility: inherit;" fill="rgb(0, 0, 0)" stroke="rgb(204, 204, 204)" stroke-width="1px"></line><line x1="40" y1="68.54545454545458" x2="35" y2="68.54545454545458" style="visibility: inherit;" fill="rgb(0, 0, 0)" stroke="rgb(204, 204, 204)" stroke-width="1px"></line><line x1="40" y1="34.27272727272729" x2="35" y2="34.27272727272729" style="visibility: inherit;" fill="rgb(0, 0, 0)" stroke="rgb(204, 204, 204)" stroke-width="1px"></line><line x1="40" y1="0" x2="35" y2="0" style="visibility: inherit;" fill="rgb(0, 0, 0)" stroke="rgb(204, 204, 204)" stroke-width="1px"></line></g><g transform="translate(30, 0)"><text x="0" y="377" dx="0em" dy="0.3em" style="text-anchor: end; visibility: hidden; font-family: Roboto, sans-serif; font-size: 12px; font-weight: 200;" fill="rgb(33, 33, 33)" stroke="none" stroke-width="1px">0</text><text x="0" y="342.7272727272727" dx="0em" dy="0.3em" style="text-anchor: end; visibility: inherit; font-family: Roboto, sans-serif; font-size: 12px; font-weight: 200;" fill="rgb(33, 33, 33)" stroke="none" stroke-width="1px">0.1</text><text x="0" y="308.45454545454544" dx="0em" dy="0.3em" style="text-anchor: end; visibility: inherit; font-family: Roboto, sans-serif; font-size: 12px; font-weight: 200;" fill="rgb(33, 33, 33)" stroke="none" stroke-width="1px">0.2</text><text x="0" y="274.1818181818182" dx="0em" dy="0.3em" style="text-anchor: end; visibility: inherit; font-family: Roboto, sans-serif; font-size: 12px; font-weight: 200;" fill="rgb(33, 33, 33)" stroke="none" stroke-width="1px">0.3</text><text x="0" y="239.9090909090909" dx="0em" dy="0.3em" style="text-anchor: end; visibility: inherit; font-family: Roboto, sans-serif; font-size: 12px; font-weight: 200;" fill="rgb(33, 33, 33)" stroke="none" stroke-width="1px">0.4</text><text x="0" y="205.63636363636363" dx="0em" dy="0.3em" style="text-anchor: end; visibility: inherit; font-family: Roboto, sans-serif; font-size: 12px; font-weight: 200;" fill="rgb(33, 33, 33)" stroke="none" stroke-width="1px">0.5</text><text x="0" y="171.36363636363637" dx="0em" dy="0.3em" style="text-anchor: end; visibility: inherit; font-family: Roboto, sans-serif; font-size: 12px; font-weight: 200;" fill="rgb(33, 33, 33)" stroke="none" stroke-width="1px">0.6</text><text x="0" y="137.09090909090915" dx="0em" dy="0.3em" style="text-anchor: end; visibility: inherit; font-family: Roboto, sans-serif; font-size: 12px; font-weight: 200;" fill="rgb(33, 33, 33)" stroke="none" stroke-width="1px">0.7</text><text x="0" y="102.81818181818181" dx="0em" dy="0.3em" style="text-anchor: end; visibility: inherit; font-family: Roboto, sans-serif; font-size: 12px; font-weight: 200;" fill="rgb(33, 33, 33)" stroke="none" stroke-width="1px">0.8</text><text x="0" y="68.54545454545458" dx="0em" dy="0.3em" style="text-anchor: end; visibility: inherit; font-family: Roboto, sans-serif; font-size: 12px; font-weight: 200;" fill="rgb(33, 33, 33)" stroke="none" stroke-width="1px">0.9</text><text x="0" y="34.27272727272729" dx="0em" dy="0.3em" style="text-anchor: end; visibility: inherit; font-family: Roboto, sans-serif; font-size: 12px; font-weight: 200;" fill="rgb(33, 33, 33)" stroke="none" stroke-width="1px">1</text><text x="0" y="0" dx="0em" dy="0.3em" style="text-anchor: end; visibility: hidden; font-family: Roboto, sans-serif; font-size: 12px; font-weight: 200;" fill="rgb(33, 33, 33)" stroke="none" stroke-width="1px">1.1</text></g><line x1="40" y1="0" x2="40" y2="377" fill="rgb(0, 0, 0)" stroke="rgb(204, 204, 204)" stroke-width="1px"></line></g></g><g transform="translate(40, 0)" clip-path="url(#clip_0)"><clipPath id="clip_0"><rect width="817" height="377"></rect></clipPath><g><g><g><line x1="0" y1="0" x2="0" y2="377" fill="rgb(0, 0, 0)" stroke="rgb(66, 66, 66)" stroke-width="1px" opacity="0.25"></line><line x1="68.15275" y1="0" x2="68.15275" y2="377" fill="rgb(0, 0, 0)" stroke="rgb(66, 66, 66)" stroke-width="1px" opacity="0.25"></line><line x1="136.3055" y1="0" x2="136.3055" y2="377" fill="rgb(0, 0, 0)" stroke="rgb(66, 66, 66)" stroke-width="1px" opacity="0.25"></line><line x1="204.45825" y1="0" x2="204.45825" y2="377" fill="rgb(0, 0, 0)" stroke="rgb(66, 66, 66)" stroke-width="1px" opacity="0.25"></line><line x1="272.611" y1="0" x2="272.611" y2="377" fill="rgb(0, 0, 0)" stroke="rgb(66, 66, 66)" stroke-width="1px" opacity="0.25"></line><line x1="340.76375" y1="0" x2="340.76375" y2="377" fill="rgb(0, 0, 0)" stroke="rgb(66, 66, 66)" stroke-width="1px" opacity="0.25"></line><line x1="408.9165" y1="0" x2="408.9165" y2="377" fill="rgb(0, 0, 0)" stroke="rgb(66, 66, 66)" stroke-width="1px" opacity="0.25"></line><line x1="477.06925" y1="0" x2="477.06925" y2="377" fill="rgb(0, 0, 0)" stroke="rgb(66, 66, 66)" stroke-width="1px" opacity="0.25"></line><line x1="545.222" y1="0" x2="545.222" y2="377" fill="rgb(0, 0, 0)" stroke="rgb(66, 66, 66)" stroke-width="1px" opacity="0.25"></line><line x1="613.37475" y1="0" x2="613.37475" y2="377" fill="rgb(0, 0, 0)" stroke="rgb(66, 66, 66)" stroke-width="1px" opacity="0.25"></line><line x1="681.5275" y1="0" x2="681.5275" y2="377" fill="rgb(0, 0, 0)" stroke="rgb(66, 66, 66)" stroke-width="1px" opacity="0.25"></line><line x1="749.6802499999999" y1="0" x2="749.6802499999999" y2="377" fill="rgb(0, 0, 0)" stroke="rgb(66, 66, 66)" stroke-width="1px" opacity="0.25"></line><line x1="817.833" y1="0" x2="817.833" y2="377" fill="rgb(0, 0, 0)" stroke="rgb(66, 66, 66)" stroke-width="1px" opacity="0.25"></line></g><g><line x1="0" y1="377" x2="817.833" y2="377" fill="rgb(0, 0, 0)" stroke="rgb(66, 66, 66)" stroke-width="1px" opacity="0.25"></line><line x1="0" y1="342.7272727272727" x2="817.833" y2="342.7272727272727" fill="rgb(0, 0, 0)" stroke="rgb(66, 66, 66)" stroke-width="1px" opacity="0.25"></line><line x1="0" y1="308.45454545454544" x2="817.833" y2="308.45454545454544" fill="rgb(0, 0, 0)" stroke="rgb(66, 66, 66)" stroke-width="1px" opacity="0.25"></line><line x1="0" y1="274.1818181818182" x2="817.833" y2="274.1818181818182" fill="rgb(0, 0, 0)" stroke="rgb(66, 66, 66)" stroke-width="1px" opacity="0.25"></line><line x1="0" y1="239.9090909090909" x2="817.833" y2="239.9090909090909" fill="rgb(0, 0, 0)" stroke="rgb(66, 66, 66)" stroke-width="1px" opacity="0.25"></line><line x1="0" y1="205.63636363636363" x2="817.833" y2="205.63636363636363" fill="rgb(0, 0, 0)" stroke="rgb(66, 66, 66)" stroke-width="1px" opacity="0.25"></line><line x1="0" y1="171.36363636363637" x2="817.833" y2="171.36363636363637" fill="rgb(0, 0, 0)" stroke="rgb(66, 66, 66)" stroke-width="1px" opacity="0.25"></line><line x1="0" y1="137.09090909090915" x2="817.833" y2="137.09090909090915" fill="rgb(0, 0, 0)" stroke="rgb(66, 66, 66)" stroke-width="1px" opacity="0.25"></line><line x1="0" y1="102.81818181818181" x2="817.833" y2="102.81818181818181" fill="rgb(0, 0, 0)" stroke="rgb(66, 66, 66)" stroke-width="1px" opacity="0.25"></line><line x1="0" y1="68.54545454545458" x2="817.833" y2="68.54545454545458" fill="rgb(0, 0, 0)" stroke="rgb(66, 66, 66)" stroke-width="1px" opacity="0.25"></line><line x1="0" y1="34.27272727272729" x2="817.833" y2="34.27272727272729" fill="rgb(0, 0, 0)" stroke="rgb(66, 66, 66)" stroke-width="1px" opacity="0.25"></line><line x1="0" y1="0" x2="817.833" y2="0" fill="rgb(0, 0, 0)" stroke="rgb(66, 66, 66)" stroke-width="1px" opacity="0.25"></line></g></g></g><g><g><line x1="0" y1="377" x2="817.833" y2="377" fill="rgb(0, 0, 0)" stroke="rgb(153, 153, 153)" stroke-width="1.5px"></line></g></g><g><g><line x1="68.15275" y1="0" x2="68.15275" y2="377" fill="rgb(0, 0, 0)" stroke="rgb(153, 153, 153)" stroke-width="1.5px"></line></g></g><g><g><g><g><g><path stroke="rgb(255, 112, 67)" stroke-width="2px" d="M68.15275,368.2890151600269L74.968025,365.87921432689336L81.7833,363.9757809803401L88.598575,361.82350320069065L95.41385,361.59283141265587L102.229125,354.21655145682445L109.0444,344.84594622502294L115.859675,333.3522455441L122.67495,327.6771856379364L129.49022499999998,315.6886694314807L136.3055,301.8346059732923L143.12077499999998,286.39867649709106L149.93605,272.0110199181918L156.751325,254.70122844199943L163.5666,240.66656116488093L170.381875,231.73574978956617L177.19715,228.60698208239643L184.012425,216.21869172156505L190.8277,205.2447870084081L197.642975,195.4619703826245L204.45825,194.33367350129737L211.273525,183.83173460918727L218.0888,173.93199430365235L224.904075,167.19250016023278L231.71935,158.63623574309253L238.534625,152.53142723921417L245.3499,148.01172647438466L252.165175,140.10187635253413L258.98044999999996,133.01400514737875L265.795725,131.16037324720781L272.611,127.87759009089743L279.426275,121.05261760382474L286.24154999999996,114.27293583601652L293.056825,111.00482321248596L299.8721,108.13001716024407L306.687375,108.63286281733392L313.50265,99.39532456543898L320.317925,96.19477320870656L327.1332,90.56156306137193L333.948475,85.06815005964204L340.76375,86.28467780659878L347.579025,83.98716901181646L354.3943,79.58123829390561L361.209575,75.73813963882316L368.02485,72.8610688696786L374.84012499999994,69.30694119233667L381.6554,69.80204600915083L388.47067499999997,81.58047384324966L395.28595,75.28116331164388L402.10122499999994,68.18854984922947L408.9165,71.64434213971666L415.73177499999997,70.2905480552175L422.54705,68.39296552361377L429.362325,70.22471620225808L436.1776,66.86831631303865L442.99287499999997,62.855231776263835L449.80815,59.247832658002444L456.623425,58.85415315970539L463.4387,55.93324696572902L470.25397499999997,53.2096476549858L477.06925,53.403365113217724L483.884525,55.29035556081595L490.6998,58.59315381992964L497.51507499999997,59.718011325077676L504.33035,54.45232543296385L511.145625,53.86336190614617L517.9608999999999,49.7971044574265L524.776175,50.04204848319255L531.59145,54.07326178984728L538.4067249999999,79.2262268595293L545.222,75.92497679675894L552.037275,66.46135102181981L558.85255,59.926354106536124L565.667825,53.606267336226445L572.4830999999999,53.013000102226655L579.298375,51.40037429361084L586.11365,52.546285726977466L592.9289249999999,49.57807849764193L599.7442,47.11169209703154L606.559475,45.28913331078823L613.37475,46.080600326993654L620.190025,49.183053788441114L627.0053,48.75967955946243L633.820575,47.077621995293285L640.63585,45.325816493018934L647.4511249999999,43.475036984607854L654.2664,43.05002317131532L661.081675,45.251228747752975L667.89695,41.88800899537392L674.712225,39.41310788277708L681.5275,39.07059036814255L688.342775,37.95114133702296L695.15805,37.39371423364357L701.9733249999999,41.34334888070687L708.7886,43.02767577719067L715.603875,44.72372580683509L722.41915,45.055901932867584L729.234425,41.08535901468857L736.0497,38.360306317904026L742.864975,37.0680016457104" style="fill: none;" fill="none"></path></g></g></g></g><g opacity="0.2"><g><g><g><path stroke="rgb(255, 112, 67)" stroke-width="2px" d="M68.15275,368.2890151600269L74.968025,364.4333338270133L81.7833,362.148484967649L88.598575,359.29242453182286L95.41385,361.29166632619774L102.229125,344.0125008171255L109.0444,331.4458308138631L115.859675,316.5943196117878L122.67495,319.3075745999813L129.49022499999998,297.8871200545268L136.3055,281.17916612191635L143.12077499999998,263.328783929348L149.93605,250.47651324488902L156.751325,228.77045291120356L163.5666,219.63105747374624L170.381875,218.3458314267072L177.19715,223.91515451127833L184.012425,197.63940156589854L190.8277,188.7856017026035L197.642975,180.78863963213834L204.45825,192.6412900577892L211.273525,168.07917184179482L218.0888,159.0825792984529L224.904075,157.08333878083664L231.71935,145.80189993164757L238.534625,143.37424051761627L245.3499,141.2321868918159L252.165175,128.23711331324145L258.98044999999996,122.38220486857678L265.795725,128.37992642142558L272.611,122.95341644503857L279.426275,110.8151602311568L286.24154999999996,104.10341399366206L293.056825,106.10265451127833L299.8721,103.81780820543116L306.687375,109.38713129000232L313.50265,85.5390173305165L320.317925,91.39394620331855L327.1332,82.11174787174575L333.948475,76.82803057540548L340.76375,88.10946942459456L347.579025,80.54090582240713L354.3943,72.9723422202197L361.209575,69.97349165786397L368.02485,68.5454627167095L374.84012499999994,63.97574967687784L381.6554,70.54470323432577L388.47067499999997,99.24811559373683L395.28595,65.83219751444734L402.10122499999994,57.54962965575136L408.9165,76.82803057540548L415.73177499999997,68.2598569284786L422.54705,65.54659172621645L429.362325,72.9723422202197L436.1776,61.8337164792148L442.99287499999997,56.83560497110544L449.80815,53.836733980612344L456.623425,58.26363391225992L463.4387,51.551887674765176L470.25397499999997,49.12424868887125L477.06925,53.693941300565584L483.884525,58.12084123221315L490.6998,63.547351208600176L497.51507499999997,61.405297582799776L504.33035,46.553796594793184L511.145625,52.979916615919656L517.9608999999999,43.697718284346855L524.776175,50.40946452184159L531.59145,60.120081749829424L538.4067249999999,116.95567446405238L545.222,70.97310170260343L552.037275,52.265912359411104L558.85255,50.123858733610696L565.667825,44.12613718076188L572.4830999999999,52.12309925122697L579.298375,48.98143558068711L586.11365,54.265152877027376L592.9289249999999,45.125767653638704L599.7442,43.41211249611596L606.559475,42.55529513142327L613.37475,47.267800851301736L620.190025,53.836733980612344L627.0053,48.124618215994424L633.820575,44.55453564903954L640.63585,42.6981082396074L647.4511249999999,40.69886772199113L654.2664,42.412502451376504L661.081675,48.553037112409456L667.89695,36.84317936680535L674.712225,35.70075621388177L681.5275,38.55681409619073L688.342775,36.27196779034356L695.15805,36.557573578574456L701.9733249999999,47.267800851301736L708.7886,45.55416612191636L715.603875,47.267800851301736L722.41915,45.55416612191636L729.234425,35.129544637419976L736.0497,34.27272727272729L742.864975,35.129544637419976" style="fill: none;" fill="none"></path></g></g></g></g></g></g><g transform="translate(40, 377)" clip-path="url(#clip_1)"><clipPath id="clip_1"><rect width="817" height="23"></rect></clipPath><g><g><line x1="0" y1="0" x2="0" y2="5" style="visibility: inherit;" fill="rgb(0, 0, 0)" stroke="rgb(204, 204, 204)" stroke-width="1px"></line><line x1="68.15275" y1="0" x2="68.15275" y2="5" style="visibility: inherit;" fill="rgb(0, 0, 0)" stroke="rgb(204, 204, 204)" stroke-width="1px"></line><line x1="136.3055" y1="0" x2="136.3055" y2="5" style="visibility: inherit;" fill="rgb(0, 0, 0)" stroke="rgb(204, 204, 204)" stroke-width="1px"></line><line x1="204.45825" y1="0" x2="204.45825" y2="5" style="visibility: inherit;" fill="rgb(0, 0, 0)" stroke="rgb(204, 204, 204)" stroke-width="1px"></line><line x1="272.611" y1="0" x2="272.611" y2="5" style="visibility: inherit;" fill="rgb(0, 0, 0)" stroke="rgb(204, 204, 204)" stroke-width="1px"></line><line x1="340.76375" y1="0" x2="340.76375" y2="5" style="visibility: inherit;" fill="rgb(0, 0, 0)" stroke="rgb(204, 204, 204)" stroke-width="1px"></line><line x1="408.9165" y1="0" x2="408.9165" y2="5" style="visibility: inherit;" fill="rgb(0, 0, 0)" stroke="rgb(204, 204, 204)" stroke-width="1px"></line><line x1="477.06925" y1="0" x2="477.06925" y2="5" style="visibility: inherit;" fill="rgb(0, 0, 0)" stroke="rgb(204, 204, 204)" stroke-width="1px"></line><line x1="545.222" y1="0" x2="545.222" y2="5" style="visibility: inherit;" fill="rgb(0, 0, 0)" stroke="rgb(204, 204, 204)" stroke-width="1px"></line><line x1="613.37475" y1="0" x2="613.37475" y2="5" style="visibility: inherit;" fill="rgb(0, 0, 0)" stroke="rgb(204, 204, 204)" stroke-width="1px"></line><line x1="681.5275" y1="0" x2="681.5275" y2="5" style="visibility: inherit;" fill="rgb(0, 0, 0)" stroke="rgb(204, 204, 204)" stroke-width="1px"></line><line x1="749.6802499999999" y1="0" x2="749.6802499999999" y2="5" style="visibility: inherit;" fill="rgb(0, 0, 0)" stroke="rgb(204, 204, 204)" stroke-width="1px"></line><line x1="817.833" y1="0" x2="817.833" y2="5" style="visibility: inherit;" fill="rgb(0, 0, 0)" stroke="rgb(204, 204, 204)" stroke-width="1px"></line></g><g transform="translate(0, 8)"><text x="0" y="0" dx="0em" dy="0.95em" style="text-anchor: middle; visibility: hidden; font-family: Roboto, sans-serif; font-size: 12px; font-weight: 200;" fill="rgb(33, 33, 33)" stroke="none" stroke-width="1px">-10</text><text x="68.15275" y="0" dx="0em" dy="0.95em" style="text-anchor: middle; visibility: inherit; font-family: Roboto, sans-serif; font-size: 12px; font-weight: 200;" fill="rgb(33, 33, 33)" stroke="none" stroke-width="1px">0</text><text x="136.3055" y="0" dx="0em" dy="0.95em" style="text-anchor: middle; visibility: inherit; font-family: Roboto, sans-serif; font-size: 12px; font-weight: 200;" fill="rgb(33, 33, 33)" stroke="none" stroke-width="1px">10</text><text x="204.45825" y="0" dx="0em" dy="0.95em" style="text-anchor: middle; visibility: inherit; font-family: Roboto, sans-serif; font-size: 12px; font-weight: 200;" fill="rgb(33, 33, 33)" stroke="none" stroke-width="1px">20</text><text x="272.611" y="0" dx="0em" dy="0.95em" style="text-anchor: middle; visibility: inherit; font-family: Roboto, sans-serif; font-size: 12px; font-weight: 200;" fill="rgb(33, 33, 33)" stroke="none" stroke-width="1px">30</text><text x="340.76375" y="0" dx="0em" dy="0.95em" style="text-anchor: middle; visibility: inherit; font-family: Roboto, sans-serif; font-size: 12px; font-weight: 200;" fill="rgb(33, 33, 33)" stroke="none" stroke-width="1px">40</text><text x="408.9165" y="0" dx="0em" dy="0.95em" style="text-anchor: middle; visibility: inherit; font-family: Roboto, sans-serif; font-size: 12px; font-weight: 200;" fill="rgb(33, 33, 33)" stroke="none" stroke-width="1px">50</text><text x="477.06925" y="0" dx="0em" dy="0.95em" style="text-anchor: middle; visibility: inherit; font-family: Roboto, sans-serif; font-size: 12px; font-weight: 200;" fill="rgb(33, 33, 33)" stroke="none" stroke-width="1px">60</text><text x="545.222" y="0" dx="0em" dy="0.95em" style="text-anchor: middle; visibility: inherit; font-family: Roboto, sans-serif; font-size: 12px; font-weight: 200;" fill="rgb(33, 33, 33)" stroke="none" stroke-width="1px">70</text><text x="613.37475" y="0" dx="0em" dy="0.95em" style="text-anchor: middle; visibility: inherit; font-family: Roboto, sans-serif; font-size: 12px; font-weight: 200;" fill="rgb(33, 33, 33)" stroke="none" stroke-width="1px">80</text><text x="681.5275" y="0" dx="0em" dy="0.95em" style="text-anchor: middle; visibility: inherit; font-family: Roboto, sans-serif; font-size: 12px; font-weight: 200;" fill="rgb(33, 33, 33)" stroke="none" stroke-width="1px">90</text><text x="749.6802499999999" y="0" dx="0em" dy="0.95em" style="text-anchor: middle; visibility: inherit; font-family: Roboto, sans-serif; font-size: 12px; font-weight: 200;" fill="rgb(33, 33, 33)" stroke="none" stroke-width="1px">100</text><text x="817.833" y="0" dx="0em" dy="0.95em" style="text-anchor: middle; visibility: hidden; font-family: Roboto, sans-serif; font-size: 12px; font-weight: 200;" fill="rgb(33, 33, 33)" stroke="none" stroke-width="1px">110</text></g><line x1="0" y1="0" x2="817.833" y2="0" fill="rgb(0, 0, 0)" stroke="rgb(204, 204, 204)" stroke-width="1px"></line></g></g></g></g></svg>