<svg viewBox="0 0 857.8333740234375 400" xmlns="http://www.w3.org/2000/svg"><g><g><g><g><g><line x1="20" y1="377" x2="15" y2="377" style="visibility: inherit;" fill="rgb(0, 0, 0)" stroke="rgb(204, 204, 204)" stroke-width="1px"></line><line x1="20" y1="329.875" x2="15" y2="329.875" style="visibility: inherit;" fill="rgb(0, 0, 0)" stroke="rgb(204, 204, 204)" stroke-width="1px"></line><line x1="20" y1="282.75" x2="15" y2="282.75" style="visibility: inherit;" fill="rgb(0, 0, 0)" stroke="rgb(204, 204, 204)" stroke-width="1px"></line><line x1="20" y1="235.625" x2="15" y2="235.625" style="visibility: inherit;" fill="rgb(0, 0, 0)" stroke="rgb(204, 204, 204)" stroke-width="1px"></line><line x1="20" y1="188.5" x2="15" y2="188.5" style="visibility: inherit;" fill="rgb(0, 0, 0)" stroke="rgb(204, 204, 204)" stroke-width="1px"></line><line x1="20" y1="141.375" x2="15" y2="141.375" style="visibility: inherit;" fill="rgb(0, 0, 0)" stroke="rgb(204, 204, 204)" stroke-width="1px"></line><line x1="20" y1="94.25" x2="15" y2="94.25" style="visibility: inherit;" fill="rgb(0, 0, 0)" stroke="rgb(204, 204, 204)" stroke-width="1px"></line><line x1="20" y1="47.125" x2="15" y2="47.125" style="visibility: inherit;" fill="rgb(0, 0, 0)" stroke="rgb(204, 204, 204)" stroke-width="1px"></line><line x1="20" y1="0" x2="15" y2="0" style="visibility: inherit;" fill="rgb(0, 0, 0)" stroke="rgb(204, 204, 204)" stroke-width="1px"></line></g><g transform="translate(10, 0)"><text x="0" y="377" dx="0em" dy="0.3em" style="text-anchor: end; visibility: hidden; font-family: Roboto, sans-serif; font-size: 12px; font-weight: 200;" fill="rgb(33, 33, 33)" stroke="none" stroke-width="1px">3</text><text x="0" y="329.875" dx="0em" dy="0.3em" style="text-anchor: end; visibility: inherit; font-family: Roboto, sans-serif; font-size: 12px; font-weight: 200;" fill="rgb(33, 33, 33)" stroke="none" stroke-width="1px">3</text><text x="0" y="282.75" dx="0em" dy="0.3em" style="text-anchor: end; visibility: inherit; font-family: Roboto, sans-serif; font-size: 12px; font-weight: 200;" fill="rgb(33, 33, 33)" stroke="none" stroke-width="1px">3</text><text x="0" y="235.625" dx="0em" dy="0.3em" style="text-anchor: end; visibility: inherit; font-family: Roboto, sans-serif; font-size: 12px; font-weight: 200;" fill="rgb(33, 33, 33)" stroke="none" stroke-width="1px">3</text><text x="0" y="188.5" dx="0em" dy="0.3em" style="text-anchor: end; visibility: inherit; font-family: Roboto, sans-serif; font-size: 12px; font-weight: 200;" fill="rgb(33, 33, 33)" stroke="none" stroke-width="1px">3</text><text x="0" y="141.375" dx="0em" dy="0.3em" style="text-anchor: end; visibility: inherit; font-family: Roboto, sans-serif; font-size: 12px; font-weight: 200;" fill="rgb(33, 33, 33)" stroke="none" stroke-width="1px">3</text><text x="0" y="94.25" dx="0em" dy="0.3em" style="text-anchor: end; visibility: inherit; font-family: Roboto, sans-serif; font-size: 12px; font-weight: 200;" fill="rgb(33, 33, 33)" stroke="none" stroke-width="1px">3</text><text x="0" y="47.125" dx="0em" dy="0.3em" style="text-anchor: end; visibility: inherit; font-family: Roboto, sans-serif; font-size: 12px; font-weight: 200;" fill="rgb(33, 33, 33)" stroke="none" stroke-width="1px">3</text><text x="0" y="0" dx="0em" dy="0.3em" style="text-anchor: end; visibility: hidden; font-family: Roboto, sans-serif; font-size: 12px; font-weight: 200;" fill="rgb(33, 33, 33)" stroke="none" stroke-width="1px">3</text></g><line x1="20" y1="0" x2="20" y2="377" fill="rgb(0, 0, 0)" stroke="rgb(204, 204, 204)" stroke-width="1px"></line></g></g><g transform="translate(20, 0)" clip-path="url(#clip_0)"><clipPath id="clip_0"><rect width="837" height="377"></rect></clipPath><g><g><g><line x1="0" y1="0" x2="0" y2="377" fill="rgb(0, 0, 0)" stroke="rgb(66, 66, 66)" stroke-width="1px" opacity="0.25"></line><line x1="69.81941666666665" y1="0" x2="69.81941666666665" y2="377" fill="rgb(0, 0, 0)" stroke="rgb(66, 66, 66)" stroke-width="1px" opacity="0.25"></line><line x1="139.6388333333333" y1="0" x2="139.6388333333333" y2="377" fill="rgb(0, 0, 0)" stroke="rgb(66, 66, 66)" stroke-width="1px" opacity="0.25"></line><line x1="209.45825" y1="0" x2="209.45825" y2="377" fill="rgb(0, 0, 0)" stroke="rgb(66, 66, 66)" stroke-width="1px" opacity="0.25"></line><line x1="279.2776666666666" y1="0" x2="279.2776666666666" y2="377" fill="rgb(0, 0, 0)" stroke="rgb(66, 66, 66)" stroke-width="1px" opacity="0.25"></line><line x1="349.09708333333333" y1="0" x2="349.09708333333333" y2="377" fill="rgb(0, 0, 0)" stroke="rgb(66, 66, 66)" stroke-width="1px" opacity="0.25"></line><line x1="418.9165" y1="0" x2="418.9165" y2="377" fill="rgb(0, 0, 0)" stroke="rgb(66, 66, 66)" stroke-width="1px" opacity="0.25"></line><line x1="488.7359166666667" y1="0" x2="488.7359166666667" y2="377" fill="rgb(0, 0, 0)" stroke="rgb(66, 66, 66)" stroke-width="1px" opacity="0.25"></line><line x1="558.5553333333332" y1="0" x2="558.5553333333332" y2="377" fill="rgb(0, 0, 0)" stroke="rgb(66, 66, 66)" stroke-width="1px" opacity="0.25"></line><line x1="628.37475" y1="0" x2="628.37475" y2="377" fill="rgb(0, 0, 0)" stroke="rgb(66, 66, 66)" stroke-width="1px" opacity="0.25"></line><line x1="698.1941666666667" y1="0" x2="698.1941666666667" y2="377" fill="rgb(0, 0, 0)" stroke="rgb(66, 66, 66)" stroke-width="1px" opacity="0.25"></line><line x1="768.0135833333333" y1="0" x2="768.0135833333333" y2="377" fill="rgb(0, 0, 0)" stroke="rgb(66, 66, 66)" stroke-width="1px" opacity="0.25"></line><line x1="837.833" y1="0" x2="837.833" y2="377" fill="rgb(0, 0, 0)" stroke="rgb(66, 66, 66)" stroke-width="1px" opacity="0.25"></line></g><g><line x1="0" y1="377" x2="837.833" y2="377" fill="rgb(0, 0, 0)" stroke="rgb(66, 66, 66)" stroke-width="1px" opacity="0.25"></line><line x1="0" y1="329.875" x2="837.833" y2="329.875" fill="rgb(0, 0, 0)" stroke="rgb(66, 66, 66)" stroke-width="1px" opacity="0.25"></line><line x1="0" y1="282.75" x2="837.833" y2="282.75" fill="rgb(0, 0, 0)" stroke="rgb(66, 66, 66)" stroke-width="1px" opacity="0.25"></line><line x1="0" y1="235.625" x2="837.833" y2="235.625" fill="rgb(0, 0, 0)" stroke="rgb(66, 66, 66)" stroke-width="1px" opacity="0.25"></line><line x1="0" y1="188.5" x2="837.833" y2="188.5" fill="rgb(0, 0, 0)" stroke="rgb(66, 66, 66)" stroke-width="1px" opacity="0.25"></line><line x1="0" y1="141.375" x2="837.833" y2="141.375" fill="rgb(0, 0, 0)" stroke="rgb(66, 66, 66)" stroke-width="1px" opacity="0.25"></line><line x1="0" y1="94.25" x2="837.833" y2="94.25" fill="rgb(0, 0, 0)" stroke="rgb(66, 66, 66)" stroke-width="1px" opacity="0.25"></line><line x1="0" y1="47.125" x2="837.833" y2="47.125" fill="rgb(0, 0, 0)" stroke="rgb(66, 66, 66)" stroke-width="1px" opacity="0.25"></line><line x1="0" y1="0" x2="837.833" y2="0" fill="rgb(0, 0, 0)" stroke="rgb(66, 66, 66)" stroke-width="1px" opacity="0.25"></line></g></g></g><g><g><line x1="0" y1="706121.0000000778" x2="837.833" y2="706121.0000000778" fill="rgb(0, 0, 0)" stroke="rgb(153, 153, 153)" stroke-width="1.5px"></line></g></g><g><g><line x1="69.81941666666665" y1="0" x2="69.81941666666665" y2="377" fill="rgb(0, 0, 0)" stroke="rgb(153, 153, 153)" stroke-width="1.5px"></line></g></g><g><g><g><g><g><path stroke="rgb(255, 112, 67)" stroke-width="2px" d="M83.7833,-17.90781998636699L85.17968833333333,150.56813573836777L86.57607666666667,168.09547758102107L87.972465,239.44074726105214L89.36885333333333,288.0341789722544L90.76524166666667,361.96360802652276L92.16163,289.2700812816722L93.55801833333332,338.87470579148913L94.95440666666666,407.52346134188116L96.350795,278.4840247631164L97.74718333333333,303.98855423928495L99.14357166666666,309.15687298775964L100.53996,266.7429528236467L101.93634833333334,307.6400837898377L103.33273666666666,326.066263675704L104.729125,345.5598137378857L106.12551333333334,333.42550015451036L107.52190166666665,323.8191685676715L108.91829,305.168279171002L110.31467833333332,302.3032329082606L111.71106666666667,353.9864203930075L113.107455,287.9780015945536L114.50384333333332,311.96574187280027L115.90023166666667,417.4106798172241L117.29662,311.1792585849889L118.69300833333332,261.4622793197704L120.08939666666667,285.6185517311195L121.48578499999999,161.97214341163257L122.88217333333333,367.35663628580073L124.27856166666668,264.04643869400775L125.67495,181.18480658531027L127.07133833333333,287.24769568444304L128.46772666666666,359.0985617637814L129.864115,246.7999837398585L131.26050333333333,350.6157777309588L132.65689166666667,256.8557343483038L134.05328,351.40226101877016L135.4496683333333,278.3716700077147L136.84605666666667,315.84198093415625L138.242445,265.56322789192967L139.6388333333333,302.97736144067034L141.03522166666667,348.98663377763523L142.43161,359.94122242929353L143.8279983333333,187.19578599929713L145.22438666666667,433.64594197275864L146.62077499999998,284.9444231987097L148.01716333333331,259.3837163448403L149.41355166666668,328.3133587837365L150.80993999999998,303.1458935737728L152.20632833333332,274.55160832405954L153.60271666666665,277.8660736084074L154.999105,246.35056471825197L156.39549333333335,251.5750608444275L157.79188166666665,176.2973747253396L159.18827,40.06723380087086L160.58465833333335,222.13811492920206L161.98104666666666,321.40354132653664L163.377435,294.2136905193437L164.77382333333333,230.95796322822954L166.17021166666666,316.6846415996684L167.5666,331.9648883342893L168.96298833333333,205.34107899665932L170.35937666666666,297.64051055909323L171.755765,180.06125903129401L173.15215333333333,251.4627060890259L174.54854166666667,214.32945942878925L175.94493,261.79934358597524L177.34131833333333,183.31954693794108L178.73770666666667,411.5120551586388L180.134095,390.95113492014167L181.53048333333334,213.7676856517811L182.92687166666664,204.89165997505285L184.32326,218.43040800094852L185.71964833333334,293.4833846092331L187.11603666666664,263.25995540619635L188.512425,253.65362381935756L189.9088133333333,220.3404388427761L191.30520166666665,197.08300447463998L192.70159,276.6863486766904L194.09797833333332,178.31976032256884L195.49436666666665,165.45514082908292L196.89075499999998,237.02512001991724L198.28714333333332,260.675796031959L199.68353166666665,284.8320684433081L201.07992,195.22915101051322L202.47630833333332,279.1581532955261L203.87269666666668,280.0008139610383L205.269085,152.1411023139905L206.66547333333332,210.45322036743323L208.06186166666666,278.42784738541553L209.45825,230.1153025627174L210.8546383333333,273.14717388153923L212.2510266666667,165.8483824729886L213.647415,143.32125401496305L215.0438033333333,339.7735438347021L216.4401916666667,172.08407139777873L217.83658,251.5188834667267L219.23296833333333,254.38392972946812L220.62935666666664,182.58924102783052L222.025745,253.20420479775103L223.42213333333333,221.18309950828828L224.81852166666664,215.45300698280548L226.21491,191.74615359306284L227.61129833333334,306.6288909912231L229.00768666666664,295.1687059402575L230.404075,146.2986550331061L231.80046333333334,46.69616436956668L233.19685166666665,125.90626692771137L234.59324,202.98162913322525L235.98962833333334,159.2194519042928L237.38601666666665,289.944209814082L238.78240499999998,333.87491917611686L240.17879333333335,236.29481410980668L241.57518166666665,109.55865001677512L242.97156999999999,215.95860338211278L244.36795833333335,196.80211758613595L245.76434666666665,150.39960360526536L247.160735,307.5839064121369L248.55712333333335,0.4621825217985128L249.95351166666666,257.8669271469184L251.3499,341.6273972988289L252.74628833333335,272.2483358383262L254.14267666666666,342.91947698594754L255.539065,192.86970114707913L256.9354533333333,235.62068557739693L258.33184166666666,242.24961614609276L259.72823,150.0063619613597L261.12461833333333,330.9536955356746L262.52100666666666,189.21817159652633L263.917395,399.82716059687L265.31378333333333,216.9136188030266L266.71017166666667,238.71044135094158L268.10656,201.8019042015082L269.50294833333334,223.43019461632076L270.8993366666666,69.84124398230117L272.295725,229.89059305191412L273.69211333333334,187.92609190940766L275.0885016666666,229.83441567421332L276.48489,316.5722868442668L277.88127833333334,99.16583514212495L279.2776666666666,166.63486576079995L280.674055,194.44266772270186L282.07044333333334,228.65469074249629L283.4668316666666,296.7416725158802L284.86322,115.4572746753604L286.25960833333335,336.68378806115743L287.6559966666666,65.96500492094516L289.05238499999996,185.6789968013752L290.44877333333335,300.5055568218346L291.8451616666666,292.8654334545242L293.24154999999996,301.9661686420557L294.63793833333335,240.1710531711627L296.03432666666663,188.9934620857231L297.43071499999996,208.71172165870806L298.82710333333335,47.81971192358292L300.22349166666663,282.9220376014805L301.61987999999997,246.7999837398585L303.01626833333336,240.95753645897406L304.41265666666663,188.76875257491983L305.80904499999997,254.83334875107457L307.2054333333333,154.66908431052704L308.6018216666667,210.50939774513404L309.99821,191.24055719375556L311.3945983333333,307.3591969013337L312.7909866666667,87.36858582495447L314.187375,205.6219658851634L315.5837633333333,148.43339538573696L316.9801516666667,326.90892434121616L318.37654,250.90093231201774L319.7729283333333,263.82172918320447L321.1693166666667,218.37423062324766L322.565705,179.33095312118346L323.9620933333333,295.8428344726672L325.35848166666665,108.54745721816055L326.75487,304.10090899468656L328.1512583333333,285.05677795411134L329.54764666666665,155.8488092422441L330.944035,258.6534104347298L332.3404233333333,163.938351631161L333.73681166666665,146.13012290000367L335.1332,214.55416893959247L336.5295883333333,235.3959760665937L337.92597666666666,210.34086561203162L339.322365,108.26657032965647L340.7187533333333,93.66045212744537L342.11514166666666,119.61440062522047L343.51153,255.1704130172795L344.9079183333333,86.97534418104878L346.30430666666666,211.85765480995354L347.700695,254.15922021866484L349.09708333333333,402.86073899271383L350.49347166666666,183.15101480483867L351.88986,186.52165746688738L353.28624833333333,305.33681130410446L354.68263666666667,308.25803494454664L356.079025,45.909681081755316L357.47541333333334,242.41814827919518L358.87180166666667,236.4633462429091L360.26819,242.24961614609276L361.6645783333333,356.73911190034727L363.0609666666667,296.2360761165729L364.457355,269.94506335259297L365.8537433333333,272.1359810829246L367.2501316666667,82.25644445418055L368.64652,40.291943311674125L370.0429083333333,214.77887845039572L371.4392966666667,131.58018207549338L372.835685,255.45129990578351L374.2320733333333,249.94591689110396L375.6284616666666,172.9829094409917L377.02485,295.1687059402575L378.4212383333333,189.55523586273122L379.8176266666666,188.1508014202109L381.214015,256.23778319359485L382.6104033333333,162.42156243323907L384.00679166666663,233.9915416240734L385.40318,229.55352878570926L386.7995683333333,97.08727216719488L388.19595666666663,272.2483358383262L389.592345,265.56322789192967L390.9887333333333,217.5877473354363L392.38512166666663,222.02576017380045L393.78150999999997,223.59872674942318L395.1778983333333,276.6301712989896L396.57428666666664,-1.3354935646274777L397.97067499999997,198.20655202865626L399.3670633333333,267.86650037766293L400.76345166666664,141.80446481704112L402.15984,324.7180066108845L403.5562283333333,262.7543590068891L404.95261666666664,160.39917683600987L406.349005,246.35056471825197L407.74539333333337,143.82685041427035L409.14178166666665,199.4424543380741L410.53817,162.4777398109399L411.9345583333333,242.97992205620332L413.33094666666665,325.8415541649008L414.727335,290.5621609687909L416.1237233333333,276.2931070327847L417.52011166666665,131.2992951869893L418.9165,23.270197868328125L420.3128883333334,203.936644554139L421.7092766666666,188.3755109310142L423.105665,223.26166248321834L424.5020533333334,243.8225827217155L425.8984416666666,140.062966108316L427.29483,314.83078813554164L428.6912183333334,164.33159327506667L430.0876066666666,288.9330170154674L431.483995,213.7115082740803L432.8803833333334,216.9136188030266L434.27677166666666,86.18886089323742L435.67316,250.5638680458129L437.0695483333333,211.63294529915026L438.46593666666666,179.0500662326794L439.862325,99.22201251982575L441.2587133333333,362.86244606973577L442.65510166666667,134.22051882743153L444.05149,152.1972796916913L445.4478783333333,225.1716933250459L446.84426666666667,144.16391468047522L448.240655,294.7754642963518L449.6370433333333,308.5950992107515L451.0334316666667,333.65020966531364L452.42982,99.8961410522355L453.8262083333333,176.40972948074122L455.2225966666667,249.1594336032926L456.618985,202.02661371231147L458.0153733333333,305.6738755703093L459.4117616666667,297.41580104828995L460.80815,283.1467471122838L462.2045383333333,100.62644696234607L463.6009266666667,145.90541338920042L464.997315,167.3651716709105L466.3937033333333,167.08428478240648L467.7900916666667,340.6162045002143L469.18648,296.9663820266835L470.5828683333333,190.28554177284173L471.9792566666667,155.3432128429368L473.37564499999996,280.7311198711488L474.7720333333333,54.72952938078277L476.1684216666667,269.94506335259297L477.56480999999997,202.08279109001228L478.9611983333333,262.30493998528254L480.3575866666667,362.4130270481293L481.75397499999997,200.73453402519277L483.1503633333333,313.98812747002944L484.5467516666667,244.44053387642438L485.94313999999997,213.03737974167055L487.3395283333333,202.64456486702036L488.7359166666667,217.70010209083796L490.132305,321.29118657113503L491.5286933333333,224.10432314873051L492.9250816666667,324.3247649669789L494.32147,304.43797326089145L495.7178583333333,257.69839501381597L497.1142466666667,247.64264440537067L498.510635,262.69818162918824L499.9070233333333,181.0724518299086L501.3034116666667,200.06040549278302L502.6998,69.6165344714979L504.0961883333333,95.62666034697381L505.4925766666667,267.75414562226126L506.888965,155.7364544868425L508.2853533333333,195.95945692062378L509.6817416666666,277.30429983139936L511.07813,309.43775987626367L512.4745183333333,221.80105066299723L513.8709066666667,117.5358376502904L515.267295,175.286181926725L516.6636833333333,205.1163694858561L518.0600716666667,163.32040047645208L519.45646,157.64648532867008L520.8528483333333,287.6409373283487L522.2492366666667,276.7425260543912L523.645625,166.57868838309915L525.0420133333333,105.28916931151343L526.4384016666667,261.79934358597524L527.83479,132.08577847480072L529.2311783333333,282.3040864467716L530.6275666666667,190.79113817214906L532.023955,303.82002210618253L533.4203433333333,349.43605279924174L534.8167316666667,6.304629802682972L536.21312,230.50854420662304L537.6095083333333,145.51217174529472L539.0058966666667,301.2358627319452L540.402285,226.2390635013614L541.7986733333332,270.5630145073019L543.1950616666667,269.43946695328566L544.59145,345.33510422708247L545.9878383333332,309.8871788978702L547.3842266666667,308.20185756684583L548.780615,240.1710531711627L550.1770033333332,236.01392722130262L551.5733916666667,184.7239813804614L552.96978,227.02554678917275L554.3661683333332,256.0130736827916L555.7625566666667,157.98354959487497L557.158945,227.30643367767678L558.5553333333332,334.2119834423217L559.9517216666667,251.74359297752991L561.34811,123.49063968657647L562.7444983333332,227.81203007698412L564.1408866666667,106.41271686552967L565.537275,282.58497333527566L566.9336633333332,232.36239767074986L568.3300516666667,308.5950992107515L569.72644,231.85680127144252L571.1228283333332,203.65575766563498L572.5192166666667,322.92033052445856L573.915605,310.7860169410832L575.3119933333332,246.63145160675606L576.7083816666667,156.74764728545708L578.1047699999999,115.4572746753604L579.5011583333333,262.41729474068416L580.8975466666667,176.3535521030404L582.2939349999999,157.14088892936275L583.6903233333333,218.65511751175177L585.0867116666667,200.0042281150822L586.4830999999999,203.15016126632767L587.8794883333333,125.0636062621992L589.2758766666667,213.48679876327708L590.6722649999999,37.59542918203516L592.0686533333333,260.5634412765574L593.4650416666667,279.77610445023504L594.8614299999999,240.84518170357245L596.2578183333333,225.90199923515647L597.6542066666667,127.87247514723978L599.0505949999999,186.6901895999898L600.4469833333333,237.30600690842127L601.8433716666667,198.26272940635707L603.2397599999999,211.57676792144943L604.6361483333333,268.0912098884662L606.0325366666667,267.97885513306454L607.4289249999999,134.38905096053398L608.8253133333333,116.80553174017984L610.2217016666667,210.28468823433082L611.6180899999999,265.6194052696305L613.0144783333333,216.40802240371931L614.4108666666666,205.6219658851634L615.8072549999999,185.11722302436706L617.2036433333334,101.91852664946472L618.6000316666666,408.25376725199175L619.99642,293.03396558762665L621.3928083333334,135.0070021152429L622.7891966666666,184.3307397365557L624.185585,246.96851587296092L625.5819733333334,237.8116033077286L626.9783616666666,144.78186583518416L628.37475,270.9000787735068L629.7711383333334,224.16050052643132L631.1675266666666,173.3761510848974L632.563915,79.50375294684079L633.9603033333334,223.1493077278167L635.3566916666666,187.75755977630524L636.75308,258.09163665772166L638.1494683333334,157.8150174617725L639.5458566666666,202.47603273391795L640.942245,46.302922725661L642.3386333333334,215.22829747200223L643.7350216666666,107.9856834411524L645.13141,215.45300698280548L646.5277983333333,40.74136233328061L647.9241866666666,187.1396086215963L649.320575,232.7556393146555L650.7169633333333,249.6650300025999L652.1133516666666,390.78260278703925L653.50974,229.38499665260684L654.9061283333333,169.38755726813977L656.3025166666666,28.269984483700373L657.698905,258.31634616852494L659.0952933333333,172.42113566398362L660.4916816666666,261.74316620827443L661.88807,304.04473161698576L663.2844583333333,111.2439713477995L664.6808466666666,259.3837163448403L666.077235,290.1689193248853L667.4736233333333,220.2280840873745L668.8700116666666,233.54212260246686L670.2664,208.59936690330645L671.6627883333333,217.70010209083796L673.0591766666666,275.3380916118709L674.455565,182.2521767616257L675.8519533333333,239.1598603725481L677.2483416666666,278.2593152523131L678.64473,279.38286280632934L680.0411183333333,148.93899178504424L681.4375066666666,261.0690376758647L682.833895,286.7420992851357L684.2302833333333,277.36047720910017L685.6266716666667,136.0181949138575L687.02306,236.68805575371238L688.4194483333333,326.57186007501133L689.8158366666667,172.30878090858195L691.212225,181.69040298461755L692.6086133333333,252.19301199913644L694.0050016666667,215.50918436050628L695.40139,211.63294529915026L696.7977783333333,-7.346472978614353L698.1941666666667,219.55395555496474L699.590555,251.12564182282102L700.9869433333333,186.29694795608413L702.3833316666667,243.9349374771171L703.77972,264.60821247101586L705.1761083333333,100.90733385085014L706.5724966666667,259.2713615894387L707.968885,418.4780499935395L709.3652733333333,230.00294780731573L710.7616616666667,240.2272305488635L712.15805,170.511104822156L713.5544383333333,209.72291445732267L714.9508266666667,205.73432064056504L716.347215,238.31719970703588L717.7436033333333,110.68219757079136L719.1399916666666,127.08599185942842L720.53638,286.57356715203326L721.9327683333333,207.531996726991L723.3291566666666,365.3904280662723L724.725545,289.944209814082L726.1219333333333,167.98312282561946L727.5183216666666,115.28874254225794L728.91471,172.02789402007792L730.3110983333333,100.28938269614119L731.7074866666666,340.2791402340094L733.103875,149.16370129584746L734.5002633333334,306.5165362358215L735.8966516666666,337.13320708276393L737.29304,244.83377552033005L738.6894283333334,184.55544924735898L740.0858166666666,353.0314049720937L741.482205,257.8669271469184L742.8785933333334,177.92651867866314L744.2749816666666,273.9336571693506L745.67137,161.97214341163257L747.0677583333334,176.6906163692453L748.4641466666666,117.25495076178638L749.860535,259.3837163448403L751.2569233333332,216.52037715912093L752.6533116666666,117.81672453879447L754.0497,227.36261105537758L755.4460883333333,261.574634075172L756.8424766666666,218.879827022555L758.238865,222.98077559471423L759.6352533333333,295.1687059402575L761.0316416666666,168.76960611343083L762.42803,109.61482739447592L763.8244183333333,151.91639280318728L765.2208066666666,133.1531486511161L766.617195,374.54734063150465" style="fill: none;" fill="none"></path></g></g></g></g></g></g><g transform="translate(20, 377)" clip-path="url(#clip_1)"><clipPath id="clip_1"><rect width="837" height="23"></rect></clipPath><g><g><line x1="0" y1="0" x2="0" y2="5" style="visibility: inherit;" fill="rgb(0, 0, 0)" stroke="rgb(204, 204, 204)" stroke-width="1px"></line><line x1="69.81941666666665" y1="0" x2="69.81941666666665" y2="5" style="visibility: inherit;" fill="rgb(0, 0, 0)" stroke="rgb(204, 204, 204)" stroke-width="1px"></line><line x1="139.6388333333333" y1="0" x2="139.6388333333333" y2="5" style="visibility: inherit;" fill="rgb(0, 0, 0)" stroke="rgb(204, 204, 204)" stroke-width="1px"></line><line x1="209.45825" y1="0" x2="209.45825" y2="5" style="visibility: inherit;" fill="rgb(0, 0, 0)" stroke="rgb(204, 204, 204)" stroke-width="1px"></line><line x1="279.2776666666666" y1="0" x2="279.2776666666666" y2="5" style="visibility: inherit;" fill="rgb(0, 0, 0)" stroke="rgb(204, 204, 204)" stroke-width="1px"></line><line x1="349.09708333333333" y1="0" x2="349.09708333333333" y2="5" style="visibility: inherit;" fill="rgb(0, 0, 0)" stroke="rgb(204, 204, 204)" stroke-width="1px"></line><line x1="418.9165" y1="0" x2="418.9165" y2="5" style="visibility: inherit;" fill="rgb(0, 0, 0)" stroke="rgb(204, 204, 204)" stroke-width="1px"></line><line x1="488.7359166666667" y1="0" x2="488.7359166666667" y2="5" style="visibility: inherit;" fill="rgb(0, 0, 0)" stroke="rgb(204, 204, 204)" stroke-width="1px"></line><line x1="558.5553333333332" y1="0" x2="558.5553333333332" y2="5" style="visibility: inherit;" fill="rgb(0, 0, 0)" stroke="rgb(204, 204, 204)" stroke-width="1px"></line><line x1="628.37475" y1="0" x2="628.37475" y2="5" style="visibility: inherit;" fill="rgb(0, 0, 0)" stroke="rgb(204, 204, 204)" stroke-width="1px"></line><line x1="698.1941666666667" y1="0" x2="698.1941666666667" y2="5" style="visibility: inherit;" fill="rgb(0, 0, 0)" stroke="rgb(204, 204, 204)" stroke-width="1px"></line><line x1="768.0135833333333" y1="0" x2="768.0135833333333" y2="5" style="visibility: inherit;" fill="rgb(0, 0, 0)" stroke="rgb(204, 204, 204)" stroke-width="1px"></line><line x1="837.833" y1="0" x2="837.833" y2="5" style="visibility: inherit;" fill="rgb(0, 0, 0)" stroke="rgb(204, 204, 204)" stroke-width="1px"></line></g><g transform="translate(0, 8)"><text x="0" y="0" dx="0em" dy="0.95em" style="text-anchor: middle; visibility: hidden; font-family: Roboto, sans-serif; font-size: 12px; font-weight: 200;" fill="rgb(33, 33, 33)" stroke="none" stroke-width="1px">-50</text><text x="69.81941666666665" y="0" dx="0em" dy="0.95em" style="text-anchor: middle; visibility: inherit; font-family: Roboto, sans-serif; font-size: 12px; font-weight: 200;" fill="rgb(33, 33, 33)" stroke="none" stroke-width="1px">0</text><text x="139.6388333333333" y="0" dx="0em" dy="0.95em" style="text-anchor: middle; visibility: inherit; font-family: Roboto, sans-serif; font-size: 12px; font-weight: 200;" fill="rgb(33, 33, 33)" stroke="none" stroke-width="1px">50</text><text x="209.45825" y="0" dx="0em" dy="0.95em" style="text-anchor: middle; visibility: inherit; font-family: Roboto, sans-serif; font-size: 12px; font-weight: 200;" fill="rgb(33, 33, 33)" stroke="none" stroke-width="1px">100</text><text x="279.2776666666666" y="0" dx="0em" dy="0.95em" style="text-anchor: middle; visibility: inherit; font-family: Roboto, sans-serif; font-size: 12px; font-weight: 200;" fill="rgb(33, 33, 33)" stroke="none" stroke-width="1px">150</text><text x="349.09708333333333" y="0" dx="0em" dy="0.95em" style="text-anchor: middle; visibility: inherit; font-family: Roboto, sans-serif; font-size: 12px; font-weight: 200;" fill="rgb(33, 33, 33)" stroke="none" stroke-width="1px">200</text><text x="418.9165" y="0" dx="0em" dy="0.95em" style="text-anchor: middle; visibility: inherit; font-family: Roboto, sans-serif; font-size: 12px; font-weight: 200;" fill="rgb(33, 33, 33)" stroke="none" stroke-width="1px">250</text><text x="488.7359166666667" y="0" dx="0em" dy="0.95em" style="text-anchor: middle; visibility: inherit; font-family: Roboto, sans-serif; font-size: 12px; font-weight: 200;" fill="rgb(33, 33, 33)" stroke="none" stroke-width="1px">300</text><text x="558.5553333333332" y="0" dx="0em" dy="0.95em" style="text-anchor: middle; visibility: inherit; font-family: Roboto, sans-serif; font-size: 12px; font-weight: 200;" fill="rgb(33, 33, 33)" stroke="none" stroke-width="1px">350</text><text x="628.37475" y="0" dx="0em" dy="0.95em" style="text-anchor: middle; visibility: inherit; font-family: Roboto, sans-serif; font-size: 12px; font-weight: 200;" fill="rgb(33, 33, 33)" stroke="none" stroke-width="1px">400</text><text x="698.1941666666667" y="0" dx="0em" dy="0.95em" style="text-anchor: middle; visibility: inherit; font-family: Roboto, sans-serif; font-size: 12px; font-weight: 200;" fill="rgb(33, 33, 33)" stroke="none" stroke-width="1px">450</text><text x="768.0135833333333" y="0" dx="0em" dy="0.95em" style="text-anchor: middle; visibility: inherit; font-family: Roboto, sans-serif; font-size: 12px; font-weight: 200;" fill="rgb(33, 33, 33)" stroke="none" stroke-width="1px">500</text><text x="837.833" y="0" dx="0em" dy="0.95em" style="text-anchor: middle; visibility: hidden; font-family: Roboto, sans-serif; font-size: 12px; font-weight: 200;" fill="rgb(33, 33, 33)" stroke="none" stroke-width="1px">550</text></g><line x1="0" y1="0" x2="837.833" y2="0" fill="rgb(0, 0, 0)" stroke="rgb(204, 204, 204)" stroke-width="1px"></line></g></g></g></g></svg>