<svg viewBox="0 0 330 200" xmlns="http://www.w3.org/2000/svg"><g><g><g><g><g><line x1="60" y1="177" x2="55" y2="177" style="visibility: inherit;" fill="rgb(0, 0, 0)" stroke="rgb(204, 204, 204)" stroke-width="1px"></line><line x1="60" y1="163.3846153846154" x2="55" y2="163.3846153846154" style="visibility: inherit;" fill="rgb(0, 0, 0)" stroke="rgb(204, 204, 204)" stroke-width="1px"></line><line x1="60" y1="149.76923076923075" x2="55" y2="149.76923076923075" style="visibility: inherit;" fill="rgb(0, 0, 0)" stroke="rgb(204, 204, 204)" stroke-width="1px"></line><line x1="60" y1="136.15384615384613" x2="55" y2="136.15384615384613" style="visibility: inherit;" fill="rgb(0, 0, 0)" stroke="rgb(204, 204, 204)" stroke-width="1px"></line><line x1="60" y1="122.53846153846149" x2="55" y2="122.53846153846149" style="visibility: inherit;" fill="rgb(0, 0, 0)" stroke="rgb(204, 204, 204)" stroke-width="1px"></line><line x1="60" y1="108.92307692307689" x2="55" y2="108.92307692307689" style="visibility: inherit;" fill="rgb(0, 0, 0)" stroke="rgb(204, 204, 204)" stroke-width="1px"></line><line x1="60" y1="95.30769230769226" x2="55" y2="95.30769230769226" style="visibility: inherit;" fill="rgb(0, 0, 0)" stroke="rgb(204, 204, 204)" stroke-width="1px"></line><line x1="60" y1="81.69230769230764" x2="55" y2="81.69230769230764" style="visibility: inherit;" fill="rgb(0, 0, 0)" stroke="rgb(204, 204, 204)" stroke-width="1px"></line><line x1="60" y1="68.07692307692311" x2="55" y2="68.07692307692311" style="visibility: inherit;" fill="rgb(0, 0, 0)" stroke="rgb(204, 204, 204)" stroke-width="1px"></line><line x1="60" y1="54.46153846153848" x2="55" y2="54.46153846153848" style="visibility: inherit;" fill="rgb(0, 0, 0)" stroke="rgb(204, 204, 204)" stroke-width="1px"></line><line x1="60" y1="40.84615384615386" x2="55" y2="40.84615384615386" style="visibility: inherit;" fill="rgb(0, 0, 0)" stroke="rgb(204, 204, 204)" stroke-width="1px"></line><line x1="60" y1="27.23076923076925" x2="55" y2="27.23076923076925" style="visibility: inherit;" fill="rgb(0, 0, 0)" stroke="rgb(204, 204, 204)" stroke-width="1px"></line><line x1="60" y1="13.615384615384626" x2="55" y2="13.615384615384626" style="visibility: inherit;" fill="rgb(0, 0, 0)" stroke="rgb(204, 204, 204)" stroke-width="1px"></line><line x1="60" y1="0" x2="55" y2="0" style="visibility: inherit;" fill="rgb(0, 0, 0)" stroke="rgb(204, 204, 204)" stroke-width="1px"></line></g><g transform="translate(50, 0)"><text x="0" y="177" dx="0em" dy="0.3em" style="text-anchor: end; visibility: hidden; font-family: Roboto, sans-serif; font-size: 12px; font-weight: 200;" fill="rgb(33, 33, 33)" stroke="none" stroke-width="1px">0.043</text><text x="0" y="163.3846153846154" dx="0em" dy="0.3em" style="text-anchor: end; visibility: inherit; font-family: Roboto, sans-serif; font-size: 12px; font-weight: 200;" fill="rgb(33, 33, 33)" stroke="none" stroke-width="1px">0.044</text><text x="0" y="149.76923076923075" dx="0em" dy="0.3em" style="text-anchor: end; visibility: hidden; font-family: Roboto, sans-serif; font-size: 12px; font-weight: 200;" fill="rgb(33, 33, 33)" stroke="none" stroke-width="1px">0.045</text><text x="0" y="136.15384615384613" dx="0em" dy="0.3em" style="text-anchor: end; visibility: inherit; font-family: Roboto, sans-serif; font-size: 12px; font-weight: 200;" fill="rgb(33, 33, 33)" stroke="none" stroke-width="1px">0.046</text><text x="0" y="122.53846153846149" dx="0em" dy="0.3em" style="text-anchor: end; visibility: hidden; font-family: Roboto, sans-serif; font-size: 12px; font-weight: 200;" fill="rgb(33, 33, 33)" stroke="none" stroke-width="1px">0.047</text><text x="0" y="108.92307692307689" dx="0em" dy="0.3em" style="text-anchor: end; visibility: inherit; font-family: Roboto, sans-serif; font-size: 12px; font-weight: 200;" fill="rgb(33, 33, 33)" stroke="none" stroke-width="1px">0.048</text><text x="0" y="95.30769230769226" dx="0em" dy="0.3em" style="text-anchor: end; visibility: hidden; font-family: Roboto, sans-serif; font-size: 12px; font-weight: 200;" fill="rgb(33, 33, 33)" stroke="none" stroke-width="1px">0.049</text><text x="0" y="81.69230769230764" dx="0em" dy="0.3em" style="text-anchor: end; visibility: inherit; font-family: Roboto, sans-serif; font-size: 12px; font-weight: 200;" fill="rgb(33, 33, 33)" stroke="none" stroke-width="1px">0.05</text><text x="0" y="68.07692307692311" dx="0em" dy="0.3em" style="text-anchor: end; visibility: hidden; font-family: Roboto, sans-serif; font-size: 12px; font-weight: 200;" fill="rgb(33, 33, 33)" stroke="none" stroke-width="1px">0.051</text><text x="0" y="54.46153846153848" dx="0em" dy="0.3em" style="text-anchor: end; visibility: inherit; font-family: Roboto, sans-serif; font-size: 12px; font-weight: 200;" fill="rgb(33, 33, 33)" stroke="none" stroke-width="1px">0.052</text><text x="0" y="40.84615384615386" dx="0em" dy="0.3em" style="text-anchor: end; visibility: hidden; font-family: Roboto, sans-serif; font-size: 12px; font-weight: 200;" fill="rgb(33, 33, 33)" stroke="none" stroke-width="1px">0.053</text><text x="0" y="27.23076923076925" dx="0em" dy="0.3em" style="text-anchor: end; visibility: inherit; font-family: Roboto, sans-serif; font-size: 12px; font-weight: 200;" fill="rgb(33, 33, 33)" stroke="none" stroke-width="1px">0.054</text><text x="0" y="13.615384615384626" dx="0em" dy="0.3em" style="text-anchor: end; visibility: hidden; font-family: Roboto, sans-serif; font-size: 12px; font-weight: 200;" fill="rgb(33, 33, 33)" stroke="none" stroke-width="1px">0.055</text><text x="0" y="0" dx="0em" dy="0.3em" style="text-anchor: end; visibility: hidden; font-family: Roboto, sans-serif; font-size: 12px; font-weight: 200;" fill="rgb(33, 33, 33)" stroke="none" stroke-width="1px">0.056</text></g><line x1="60" y1="0" x2="60" y2="177" fill="rgb(0, 0, 0)" stroke="rgb(204, 204, 204)" stroke-width="1px"></line></g></g><g transform="translate(60, 0)" clip-path="url(#clip_0)"><clipPath id="clip_0"><rect width="270" height="177"></rect></clipPath><g><g><g><line x1="0" y1="0" x2="0" y2="177" fill="rgb(0, 0, 0)" stroke="rgb(66, 66, 66)" stroke-width="1px" opacity="0.25"></line><line x1="22.5" y1="0" x2="22.5" y2="177" fill="rgb(0, 0, 0)" stroke="rgb(66, 66, 66)" stroke-width="1px" opacity="0.25"></line><line x1="45" y1="0" x2="45" y2="177" fill="rgb(0, 0, 0)" stroke="rgb(66, 66, 66)" stroke-width="1px" opacity="0.25"></line><line x1="67.5" y1="0" x2="67.5" y2="177" fill="rgb(0, 0, 0)" stroke="rgb(66, 66, 66)" stroke-width="1px" opacity="0.25"></line><line x1="90" y1="0" x2="90" y2="177" fill="rgb(0, 0, 0)" stroke="rgb(66, 66, 66)" stroke-width="1px" opacity="0.25"></line><line x1="112.5" y1="0" x2="112.5" y2="177" fill="rgb(0, 0, 0)" stroke="rgb(66, 66, 66)" stroke-width="1px" opacity="0.25"></line><line x1="135" y1="0" x2="135" y2="177" fill="rgb(0, 0, 0)" stroke="rgb(66, 66, 66)" stroke-width="1px" opacity="0.25"></line><line x1="157.5" y1="0" x2="157.5" y2="177" fill="rgb(0, 0, 0)" stroke="rgb(66, 66, 66)" stroke-width="1px" opacity="0.25"></line><line x1="180" y1="0" x2="180" y2="177" fill="rgb(0, 0, 0)" stroke="rgb(66, 66, 66)" stroke-width="1px" opacity="0.25"></line><line x1="202.5" y1="0" x2="202.5" y2="177" fill="rgb(0, 0, 0)" stroke="rgb(66, 66, 66)" stroke-width="1px" opacity="0.25"></line><line x1="225" y1="0" x2="225" y2="177" fill="rgb(0, 0, 0)" stroke="rgb(66, 66, 66)" stroke-width="1px" opacity="0.25"></line><line x1="247.5" y1="0" x2="247.5" y2="177" fill="rgb(0, 0, 0)" stroke="rgb(66, 66, 66)" stroke-width="1px" opacity="0.25"></line><line x1="270" y1="0" x2="270" y2="177" fill="rgb(0, 0, 0)" stroke="rgb(66, 66, 66)" stroke-width="1px" opacity="0.25"></line></g><g><line x1="0" y1="177" x2="270" y2="177" fill="rgb(0, 0, 0)" stroke="rgb(66, 66, 66)" stroke-width="1px" opacity="0.25"></line><line x1="0" y1="163.3846153846154" x2="270" y2="163.3846153846154" fill="rgb(0, 0, 0)" stroke="rgb(66, 66, 66)" stroke-width="1px" opacity="0.25"></line><line x1="0" y1="149.76923076923075" x2="270" y2="149.76923076923075" fill="rgb(0, 0, 0)" stroke="rgb(66, 66, 66)" stroke-width="1px" opacity="0.25"></line><line x1="0" y1="136.15384615384613" x2="270" y2="136.15384615384613" fill="rgb(0, 0, 0)" stroke="rgb(66, 66, 66)" stroke-width="1px" opacity="0.25"></line><line x1="0" y1="122.53846153846149" x2="270" y2="122.53846153846149" fill="rgb(0, 0, 0)" stroke="rgb(66, 66, 66)" stroke-width="1px" opacity="0.25"></line><line x1="0" y1="108.92307692307689" x2="270" y2="108.92307692307689" fill="rgb(0, 0, 0)" stroke="rgb(66, 66, 66)" stroke-width="1px" opacity="0.25"></line><line x1="0" y1="95.30769230769226" x2="270" y2="95.30769230769226" fill="rgb(0, 0, 0)" stroke="rgb(66, 66, 66)" stroke-width="1px" opacity="0.25"></line><line x1="0" y1="81.69230769230764" x2="270" y2="81.69230769230764" fill="rgb(0, 0, 0)" stroke="rgb(66, 66, 66)" stroke-width="1px" opacity="0.25"></line><line x1="0" y1="68.07692307692311" x2="270" y2="68.07692307692311" fill="rgb(0, 0, 0)" stroke="rgb(66, 66, 66)" stroke-width="1px" opacity="0.25"></line><line x1="0" y1="54.46153846153848" x2="270" y2="54.46153846153848" fill="rgb(0, 0, 0)" stroke="rgb(66, 66, 66)" stroke-width="1px" opacity="0.25"></line><line x1="0" y1="40.84615384615386" x2="270" y2="40.84615384615386" fill="rgb(0, 0, 0)" stroke="rgb(66, 66, 66)" stroke-width="1px" opacity="0.25"></line><line x1="0" y1="27.23076923076925" x2="270" y2="27.23076923076925" fill="rgb(0, 0, 0)" stroke="rgb(66, 66, 66)" stroke-width="1px" opacity="0.25"></line><line x1="0" y1="13.615384615384626" x2="270" y2="13.615384615384626" fill="rgb(0, 0, 0)" stroke="rgb(66, 66, 66)" stroke-width="1px" opacity="0.25"></line><line x1="0" y1="0" x2="270" y2="0" fill="rgb(0, 0, 0)" stroke="rgb(66, 66, 66)" stroke-width="1px" opacity="0.25"></line></g></g></g><g><g><line x1="0" y1="762.4615384615382" x2="270" y2="762.4615384615382" fill="rgb(0, 0, 0)" stroke="rgb(153, 153, 153)" stroke-width="1.5px"></line></g></g><g><g><line x1="22.5" y1="0" x2="22.5" y2="177" fill="rgb(0, 0, 0)" stroke="rgb(153, 153, 153)" stroke-width="1.5px"></line></g></g><g><g><g><g><g><path stroke="rgb(255, 112, 67)" stroke-width="2px" d="M22.5,223.5192375320654L22.950000000000003,53.32693998400982L23.400000000000002,-45.951912932671L23.85,223.5192375320654L24.3,81.69229754805563L24.75,81.69229754805563L25.200000000000003,81.69229754805563L25.65,81.69229754805563L26.099999999999998,81.69229754805563L26.549999999999997,152.60579290069063L27,180.97115046473644L27.45,10.77885291668086L27.9,10.77885291668086L28.349999999999998,10.77885291668086L28.8,180.97115046473644L29.25,10.77885291668086L29.7,10.77885291668086L30.15,10.77885291668086L30.599999999999998,110.05770583336168L31.05,138.4230633974075L31.5,138.4230633974075L31.95,110.05770583336168L32.4,10.77885291668086L32.85,24.961531698703766L33.300000000000004,10.77885291668086L33.75,10.77885291668086L34.2,53.32693998400982L34.65,39.14421048072669L35.1,124.24038461538458L35.55,152.60579290069063L36,10.77885291668086L36.45,24.961531698703766L36.9,10.77885291668086L37.35,10.77885291668086L37.800000000000004,-3.4038258653420455L38.25,10.77885291668086L38.7,10.77885291668086L39.15,53.32693998400982L39.6,39.14421048072669L40.050000000000004,67.50961876603273L40.5,110.05770583336168L40.95,10.77885291668086L41.4,53.32693998400982L41.85,124.24038461538458L42.300000000000004,53.32693998400982L42.75,10.77885291668086L43.2,10.77885291668086L43.65,95.87497633007854L44.1,10.77885291668086L44.550000000000004,39.14421048072669L45,10.77885291668086L45.45,53.32693998400982L45.900000000000006,110.05770583336168L46.35,124.24038461538458L46.800000000000004,39.14421048072669L47.25,124.24038461538458L47.7,124.24038461538458L48.150000000000006,10.77885291668086L48.6,10.77885291668086L49.050000000000004,24.961531698703766L49.5,81.69229754805563L49.95,67.50961876603273L50.400000000000006,10.77885291668086L50.849999999999994,10.77885291668086L51.3,152.60579290069063L51.75,110.05770583336168L52.199999999999996,95.87497633007854L52.65,10.77885291668086L53.099999999999994,81.69229754805563L53.55,110.05770583336168L54,39.14421048072669L54.449999999999996,138.4230633974075L54.9,10.77885291668086L55.349999999999994,10.77885291668086L55.8,10.77885291668086L56.25,95.87497633007854L56.699999999999996,10.77885291668086L57.15,138.4230633974075L57.6,10.77885291668086L58.05,10.77885291668086L58.5,67.50961876603273L58.949999999999996,166.78847168271355L59.4,10.77885291668086L59.85,67.50961876603273L60.3,10.77885291668086L60.75,95.87497633007854L61.199999999999996,110.05770583336168L61.65,10.77885291668086L62.1,10.77885291668086L62.55,10.77885291668086L63,81.69229754805563L63.449999999999996,67.50961876603273L63.9,10.77885291668086L64.35000000000001,67.50961876603273L64.8,10.77885291668086L65.25,10.77885291668086L65.7,39.14421048072669L66.15,95.87497633007854L66.60000000000001,10.77885291668086L67.05,53.32693998400982L67.5,10.77885291668086L67.94999999999999,209.33655875004249L68.4,67.50961876603273L68.85,10.77885291668086L69.3,152.60579290069063L69.75,10.77885291668086L70.2,10.77885291668086L70.64999999999999,110.05770583336168L71.1,53.32693998400982L71.55,10.77885291668086L72,10.77885291668086L72.44999999999999,10.77885291668086L72.9,67.50961876603273L73.35,39.14421048072669L73.8,10.77885291668086L74.25,10.77885291668086L74.7,166.78847168271355L75.14999999999999,110.05770583336168L75.60000000000001,81.69229754805563L76.05,10.77885291668086L76.5,10.77885291668086L76.94999999999999,10.77885291668086L77.4,10.77885291668086L77.85,67.50961876603273L78.3,10.77885291668086L78.75,152.60579290069063L79.2,110.05770583336168L79.64999999999999,53.32693998400982L80.10000000000001,53.32693998400982L80.55,81.69229754805563L81,124.24038461538458L81.45,10.77885291668086L81.9,10.77885291668086L82.35,53.32693998400982L82.8,10.77885291668086L83.25,67.50961876603273L83.7,124.24038461538458L84.14999999999999,10.77885291668086L84.60000000000001,10.77885291668086L85.05,10.77885291668086L85.5,53.32693998400982L85.95,152.60579290069063L86.4,10.77885291668086L86.85,53.32693998400982L87.3,53.32693998400982L87.75,110.05770583336168L88.2,10.77885291668086L88.64999999999999,53.32693998400982L89.10000000000001,10.77885291668086L89.55,166.78847168271355L90,10.77885291668086L90.45,195.1538292467594L90.9,223.5192375320654L91.35,124.24038461538458L91.80000000000001,195.1538292467594L92.25,10.77885291668086L92.7,39.14421048072669L93.14999999999999,110.05770583336168L93.60000000000001,67.50961876603273L94.05,81.69229754805563L94.5,10.77885291668086L94.95,39.14421048072669L95.4,10.77885291668086L95.85,24.961531698703766L96.30000000000001,95.87497633007854L96.75,95.87497633007854L97.2,10.77885291668086L97.65,10.77885291668086L98.10000000000001,24.961531698703766L98.55,10.77885291668086L99,53.32693998400982L99.45,180.97115046473644L99.9,95.87497633007854L100.35,10.77885291668086L100.80000000000001,10.77885291668086L101.25,67.50961876603273L101.69999999999999,10.77885291668086L102.15,110.05770583336168L102.6,10.77885291668086L103.05,152.60579290069063L103.5,124.24038461538458L103.95,81.69229754805563L104.39999999999999,95.87497633007854L104.85,95.87497633007854L105.3,95.87497633007854L105.75,53.32693998400982L106.19999999999999,67.50961876603273L106.65,53.32693998400982L107.1,138.4230633974075L107.55,95.87497633007854L108,10.77885291668086L108.45,53.32693998400982L108.89999999999999,95.87497633007854L109.35000000000001,53.32693998400982L109.8,10.77885291668086L110.25,24.961531698703766L110.69999999999999,10.77885291668086L111.15,110.05770583336168L111.6,95.87497633007854L112.05,67.50961876603273L112.5,67.50961876603273L112.95,180.97115046473644L113.39999999999999,124.24038461538458L113.85000000000001,81.69229754805563L114.3,10.77885291668086L114.75,53.32693998400982L115.2,180.97115046473644L115.65,81.69229754805563L116.1,10.77885291668086L116.55,81.69229754805563L117,81.69229754805563L117.45,166.78847168271355L117.89999999999999,124.24038461538458L118.35000000000001,67.50961876603273L118.8,67.50961876603273L119.25,10.77885291668086L119.7,10.77885291668086L120.15,39.14421048072669L120.6,81.69229754805563L121.05,10.77885291668086L121.5,10.77885291668086L121.95,95.87497633007854L122.39999999999999,10.77885291668086L122.85000000000001,81.69229754805563L123.3,81.69229754805563L123.75,110.05770583336168L124.2,95.87497633007854L124.65,39.14421048072669L125.1,10.77885291668086L125.55000000000001,81.69229754805563L126,67.50961876603273L126.45,67.50961876603273L126.89999999999999,39.14421048072669L127.35000000000001,81.69229754805563L127.8,10.77885291668086L128.25,152.60579290069063L128.70000000000002,53.32693998400982L129.15,67.50961876603273L129.6,10.77885291668086L130.05,39.14421048072669L130.5,10.77885291668086L130.95,67.50961876603273L131.4,10.77885291668086L131.85,209.33655875004249L132.3,138.4230633974075L132.75,10.77885291668086L133.20000000000002,95.87497633007854L133.65,81.69229754805563L134.1,67.50961876603273L134.55,24.961531698703766L135,124.24038461538458L135.45000000000002,110.05770583336168L135.89999999999998,124.24038461538458L136.35,67.50961876603273L136.8,67.50961876603273L137.25,124.24038461538458L137.7,67.50961876603273L138.15,81.69229754805563L138.6,67.50961876603273L139.05,10.77885291668086L139.5,10.77885291668086L139.95,195.1538292467594L140.4,81.69229754805563L140.85,53.32693998400982L141.29999999999998,10.77885291668086L141.75,124.24038461538458L142.2,39.14421048072669L142.65,10.77885291668086L143.1,110.05770583336168L143.54999999999998,10.77885291668086L144,24.961531698703766L144.45000000000002,95.87497633007854L144.89999999999998,81.69229754805563L145.35,67.50961876603273L145.8,10.77885291668086L146.25,53.32693998400982L146.7,10.77885291668086L147.15,124.24038461538458L147.6,10.77885291668086L148.05,180.97115046473644L148.5,110.05770583336168L148.95,10.77885291668086L149.4,67.50961876603273L149.85000000000002,10.77885291668086L150.29999999999998,67.50961876603273L150.75,10.77885291668086L151.20000000000002,24.961531698703766L151.65,10.77885291668086L152.1,10.77885291668086L152.54999999999998,10.77885291668086L153,124.24038461538458L153.45000000000002,53.32693998400982L153.89999999999998,10.77885291668086L154.35,10.77885291668086L154.8,152.60579290069063L155.25,10.77885291668086L155.7,67.50961876603273L156.15,67.50961876603273L156.6,81.69229754805563L157.05,124.24038461538458L157.5,10.77885291668086L157.95,110.05770583336168L158.4,152.60579290069063L158.85000000000002,39.14421048072669L159.29999999999998,95.87497633007854L159.75,10.77885291668086L160.20000000000002,110.05770583336168L160.65,10.77885291668086L161.1,-3.4038258653420455L161.55,10.77885291668086L162,67.50961876603273L162.45000000000002,67.50961876603273L162.9,10.77885291668086L163.35,24.961531698703766L163.8,95.87497633007854L164.25,138.4230633974075L164.7,39.14421048072669L165.15,10.77885291668086L165.6,10.77885291668086L166.05,10.77885291668086L166.5,39.14421048072669L166.95,10.77885291668086L167.4,81.69229754805563L167.85000000000002,53.32693998400982L168.29999999999998,10.77885291668086L168.75,10.77885291668086L169.20000000000002,10.77885291668086L169.64999999999998,152.60579290069063L170.1,39.14421048072669L170.55,95.87497633007854L171,10.77885291668086L171.45,39.14421048072669L171.9,10.77885291668086L172.35,10.77885291668086L172.8,124.24038461538458L173.25,10.77885291668086L173.7,67.50961876603273L174.15,124.24038461538458L174.6,81.69229754805563L175.04999999999998,10.77885291668086L175.5,67.50961876603273L175.95,53.32693998400982L176.4,67.50961876603273L176.85,81.69229754805563L177.29999999999998,10.77885291668086L177.75,67.50961876603273L178.20000000000002,10.77885291668086L178.64999999999998,10.77885291668086L179.1,10.77885291668086L179.55,110.05770583336168L180,53.32693998400982L180.45,95.87497633007854L180.9,67.50961876603273L181.35,95.87497633007854L181.8,95.87497633007854L182.25,53.32693998400982L182.7,10.77885291668086L183.15,10.77885291668086L183.60000000000002,39.14421048072669L184.04999999999998,10.77885291668086L184.5,10.77885291668086L184.95000000000002,10.77885291668086L185.4,39.14421048072669L185.85,95.87497633007854L186.29999999999998,81.69229754805563L186.75,67.50961876603273L187.20000000000002,67.50961876603273L187.64999999999998,67.50961876603273L188.1,95.87497633007854L188.55,39.14421048072669L189,10.77885291668086L189.45,10.77885291668086L189.9,138.4230633974075L190.35,67.50961876603273L190.8,67.50961876603273L191.25,10.77885291668086L191.7,39.14421048072669L192.15,195.1538292467594L192.60000000000002,251.8845950961112L193.04999999999998,67.50961876603273L193.5,10.77885291668086L193.95000000000002,81.69229754805563L194.4,39.14421048072669L194.85,53.32693998400982L195.3,223.5192375320654L195.75,81.69229754805563L196.20000000000002,10.77885291668086L196.65,138.4230633974075L197.1,95.87497633007854L197.55,10.77885291668086L198,95.87497633007854L198.45,10.77885291668086L198.9,10.77885291668086L199.35,124.24038461538458L199.8,110.05770583336168L200.25,10.77885291668086L200.7,10.77885291668086L201.15,39.14421048072669L201.60000000000002,209.33655875004249L202.04999999999998,10.77885291668086L202.5,81.69229754805563L202.95000000000002,81.69229754805563L203.39999999999998,95.87497633007854L203.85,95.87497633007854L204.3,95.87497633007854L204.75,10.77885291668086L205.2,138.4230633974075L205.65,67.50961876603273L206.1,95.87497633007854L206.55,10.77885291668086L207,53.32693998400982L207.45,53.32693998400982L207.9,67.50961876603273L208.35,138.4230633974075L208.79999999999998,67.50961876603273L209.25,152.60579290069063L209.7,10.77885291668086L210.15,24.961531698703766L210.6,81.69229754805563L211.04999999999998,152.60579290069063L211.5,10.77885291668086L211.95000000000002,24.961531698703766L212.39999999999998,10.77885291668086L212.85,67.50961876603273L213.3,95.87497633007854L213.75,67.50961876603273L214.2,67.50961876603273L214.65,53.32693998400982L215.1,53.32693998400982L215.55,95.87497633007854L216,81.69229754805563L216.45,124.24038461538458L216.9,10.77885291668086L217.35000000000002,81.69229754805563L217.79999999999998,10.77885291668086L218.25,95.87497633007854L218.70000000000002,110.05770583336168L219.15,39.14421048072669L219.6,110.05770583336168L220.04999999999998,10.77885291668086L220.5,67.50961876603273L220.95000000000002,39.14421048072669L221.39999999999998,138.4230633974075L221.85,39.14421048072669L222.3,110.05770583336168L222.75,10.77885291668086L223.2,24.961531698703766L223.65,10.77885291668086L224.1,81.69229754805563L224.55,110.05770583336168L225,10.77885291668086L225.45,53.32693998400982L225.9,95.87497633007854L226.35000000000002,53.32693998400982L226.79999999999998,81.69229754805563L227.25,10.77885291668086L227.70000000000002,-3.4038258653420455L228.15,10.77885291668086L228.6,10.77885291668086L229.05,166.78847168271355L229.5,67.50961876603273L229.95000000000002,10.77885291668086L230.4,10.77885291668086L230.85,10.77885291668086L231.3,166.78847168271355L231.75,24.961531698703766L232.2,195.1538292467594L232.65,10.77885291668086L233.1,24.961531698703766L233.55,95.87497633007854L234,95.87497633007854L234.45,152.60579290069063L234.9,110.05770583336168L235.35000000000002,53.32693998400982L235.79999999999998,10.77885291668086L236.25,166.78847168271355L236.70000000000002,53.32693998400982L237.14999999999998,81.69229754805563L237.6,81.69229754805563L238.05,10.77885291668086L238.5,10.77885291668086L238.95,95.87497633007854L239.4,124.24038461538458L239.85,10.77885291668086L240.3,10.77885291668086L240.75,10.77885291668086L241.2,67.50961876603273L241.65,110.05770583336168L242.1,95.87497633007854L242.54999999999998,67.50961876603273L243,95.87497633007854L243.45,67.50961876603273L243.9,10.77885291668086L244.35,24.961531698703766L244.79999999999998,10.77885291668086L245.25,110.05770583336168L245.70000000000002,95.87497633007854L246.14999999999998,110.05770583336168L246.6,138.4230633974075L247.05,39.14421048072669" style="fill: none;" fill="none"></path></g></g></g></g></g></g><g transform="translate(60, 177)" clip-path="url(#clip_1)"><clipPath id="clip_1"><rect width="270" height="23"></rect></clipPath><g><g><line x1="0" y1="0" x2="0" y2="5" style="visibility: inherit;" fill="rgb(0, 0, 0)" stroke="rgb(204, 204, 204)" stroke-width="1px"></line><line x1="22.5" y1="0" x2="22.5" y2="5" style="visibility: inherit;" fill="rgb(0, 0, 0)" stroke="rgb(204, 204, 204)" stroke-width="1px"></line><line x1="45" y1="0" x2="45" y2="5" style="visibility: inherit;" fill="rgb(0, 0, 0)" stroke="rgb(204, 204, 204)" stroke-width="1px"></line><line x1="67.5" y1="0" x2="67.5" y2="5" style="visibility: inherit;" fill="rgb(0, 0, 0)" stroke="rgb(204, 204, 204)" stroke-width="1px"></line><line x1="90" y1="0" x2="90" y2="5" style="visibility: inherit;" fill="rgb(0, 0, 0)" stroke="rgb(204, 204, 204)" stroke-width="1px"></line><line x1="112.5" y1="0" x2="112.5" y2="5" style="visibility: inherit;" fill="rgb(0, 0, 0)" stroke="rgb(204, 204, 204)" stroke-width="1px"></line><line x1="135" y1="0" x2="135" y2="5" style="visibility: inherit;" fill="rgb(0, 0, 0)" stroke="rgb(204, 204, 204)" stroke-width="1px"></line><line x1="157.5" y1="0" x2="157.5" y2="5" style="visibility: inherit;" fill="rgb(0, 0, 0)" stroke="rgb(204, 204, 204)" stroke-width="1px"></line><line x1="180" y1="0" x2="180" y2="5" style="visibility: inherit;" fill="rgb(0, 0, 0)" stroke="rgb(204, 204, 204)" stroke-width="1px"></line><line x1="202.5" y1="0" x2="202.5" y2="5" style="visibility: inherit;" fill="rgb(0, 0, 0)" stroke="rgb(204, 204, 204)" stroke-width="1px"></line><line x1="225" y1="0" x2="225" y2="5" style="visibility: inherit;" fill="rgb(0, 0, 0)" stroke="rgb(204, 204, 204)" stroke-width="1px"></line><line x1="247.5" y1="0" x2="247.5" y2="5" style="visibility: inherit;" fill="rgb(0, 0, 0)" stroke="rgb(204, 204, 204)" stroke-width="1px"></line><line x1="270" y1="0" x2="270" y2="5" style="visibility: inherit;" fill="rgb(0, 0, 0)" stroke="rgb(204, 204, 204)" stroke-width="1px"></line></g><g transform="translate(0, 8)"><text x="0" y="0" dx="0em" dy="0.95em" style="text-anchor: middle; visibility: hidden; font-family: Roboto, sans-serif; font-size: 12px; font-weight: 200;" fill="rgb(33, 33, 33)" stroke="none" stroke-width="1px">-50</text><text x="22.5" y="0" dx="0em" dy="0.95em" style="text-anchor: middle; visibility: inherit; font-family: Roboto, sans-serif; font-size: 12px; font-weight: 200;" fill="rgb(33, 33, 33)" stroke="none" stroke-width="1px">0</text><text x="45" y="0" dx="0em" dy="0.95em" style="text-anchor: middle; visibility: hidden; font-family: Roboto, sans-serif; font-size: 12px; font-weight: 200;" fill="rgb(33, 33, 33)" stroke="none" stroke-width="1px">50</text><text x="67.5" y="0" dx="0em" dy="0.95em" style="text-anchor: middle; visibility: inherit; font-family: Roboto, sans-serif; font-size: 12px; font-weight: 200;" fill="rgb(33, 33, 33)" stroke="none" stroke-width="1px">100</text><text x="90" y="0" dx="0em" dy="0.95em" style="text-anchor: middle; visibility: hidden; font-family: Roboto, sans-serif; font-size: 12px; font-weight: 200;" fill="rgb(33, 33, 33)" stroke="none" stroke-width="1px">150</text><text x="112.5" y="0" dx="0em" dy="0.95em" style="text-anchor: middle; visibility: inherit; font-family: Roboto, sans-serif; font-size: 12px; font-weight: 200;" fill="rgb(33, 33, 33)" stroke="none" stroke-width="1px">200</text><text x="135" y="0" dx="0em" dy="0.95em" style="text-anchor: middle; visibility: hidden; font-family: Roboto, sans-serif; font-size: 12px; font-weight: 200;" fill="rgb(33, 33, 33)" stroke="none" stroke-width="1px">250</text><text x="157.5" y="0" dx="0em" dy="0.95em" style="text-anchor: middle; visibility: inherit; font-family: Roboto, sans-serif; font-size: 12px; font-weight: 200;" fill="rgb(33, 33, 33)" stroke="none" stroke-width="1px">300</text><text x="180" y="0" dx="0em" dy="0.95em" style="text-anchor: middle; visibility: hidden; font-family: Roboto, sans-serif; font-size: 12px; font-weight: 200;" fill="rgb(33, 33, 33)" stroke="none" stroke-width="1px">350</text><text x="202.5" y="0" dx="0em" dy="0.95em" style="text-anchor: middle; visibility: inherit; font-family: Roboto, sans-serif; font-size: 12px; font-weight: 200;" fill="rgb(33, 33, 33)" stroke="none" stroke-width="1px">400</text><text x="225" y="0" dx="0em" dy="0.95em" style="text-anchor: middle; visibility: hidden; font-family: Roboto, sans-serif; font-size: 12px; font-weight: 200;" fill="rgb(33, 33, 33)" stroke="none" stroke-width="1px">450</text><text x="247.5" y="0" dx="0em" dy="0.95em" style="text-anchor: middle; visibility: inherit; font-family: Roboto, sans-serif; font-size: 12px; font-weight: 200;" fill="rgb(33, 33, 33)" stroke="none" stroke-width="1px">500</text><text x="270" y="0" dx="0em" dy="0.95em" style="text-anchor: middle; visibility: hidden; font-family: Roboto, sans-serif; font-size: 12px; font-weight: 200;" fill="rgb(33, 33, 33)" stroke="none" stroke-width="1px">550</text></g><line x1="0" y1="0" x2="270" y2="0" fill="rgb(0, 0, 0)" stroke="rgb(204, 204, 204)" stroke-width="1px"></line></g></g></g></g></svg>