<svg viewBox="0 0 330 200" xmlns="http://www.w3.org/2000/svg"><g><g><g><g><g><line x1="40" y1="177" x2="35" y2="177" style="visibility: inherit;" fill="rgb(0, 0, 0)" stroke="rgb(204, 204, 204)" stroke-width="1px"></line><line x1="40" y1="157.33333333333331" x2="35" y2="157.33333333333331" style="visibility: inherit;" fill="rgb(0, 0, 0)" stroke="rgb(204, 204, 204)" stroke-width="1px"></line><line x1="40" y1="137.66666666666666" x2="35" y2="137.66666666666666" style="visibility: inherit;" fill="rgb(0, 0, 0)" stroke="rgb(204, 204, 204)" stroke-width="1px"></line><line x1="40" y1="118.00000000000001" x2="35" y2="118.00000000000001" style="visibility: inherit;" fill="rgb(0, 0, 0)" stroke="rgb(204, 204, 204)" stroke-width="1px"></line><line x1="40" y1="98.33333333333334" x2="35" y2="98.33333333333334" style="visibility: inherit;" fill="rgb(0, 0, 0)" stroke="rgb(204, 204, 204)" stroke-width="1px"></line><line x1="40" y1="78.66666666666666" x2="35" y2="78.66666666666666" style="visibility: inherit;" fill="rgb(0, 0, 0)" stroke="rgb(204, 204, 204)" stroke-width="1px"></line><line x1="40" y1="59.00000000000001" x2="35" y2="59.00000000000001" style="visibility: inherit;" fill="rgb(0, 0, 0)" stroke="rgb(204, 204, 204)" stroke-width="1px"></line><line x1="40" y1="39.33333333333335" x2="35" y2="39.33333333333335" style="visibility: inherit;" fill="rgb(0, 0, 0)" stroke="rgb(204, 204, 204)" stroke-width="1px"></line><line x1="40" y1="19.666666666666657" x2="35" y2="19.666666666666657" style="visibility: inherit;" fill="rgb(0, 0, 0)" stroke="rgb(204, 204, 204)" stroke-width="1px"></line><line x1="40" y1="0" x2="35" y2="0" style="visibility: inherit;" fill="rgb(0, 0, 0)" stroke="rgb(204, 204, 204)" stroke-width="1px"></line></g><g transform="translate(30, 0)"><text x="0" y="177" dx="0em" dy="0.3em" style="text-anchor: end; visibility: hidden; font-family: Roboto, sans-serif; font-size: 12px; font-weight: 200;" fill="rgb(33, 33, 33)" stroke="none" stroke-width="1px">0</text><text x="0" y="157.33333333333331" dx="0em" dy="0.3em" style="text-anchor: end; visibility: inherit; font-family: Roboto, sans-serif; font-size: 12px; font-weight: 200;" fill="rgb(33, 33, 33)" stroke="none" stroke-width="1px">0.1</text><text x="0" y="137.66666666666666" dx="0em" dy="0.3em" style="text-anchor: end; visibility: hidden; font-family: Roboto, sans-serif; font-size: 12px; font-weight: 200;" fill="rgb(33, 33, 33)" stroke="none" stroke-width="1px">0.2</text><text x="0" y="118.00000000000001" dx="0em" dy="0.3em" style="text-anchor: end; visibility: inherit; font-family: Roboto, sans-serif; font-size: 12px; font-weight: 200;" fill="rgb(33, 33, 33)" stroke="none" stroke-width="1px">0.3</text><text x="0" y="98.33333333333334" dx="0em" dy="0.3em" style="text-anchor: end; visibility: hidden; font-family: Roboto, sans-serif; font-size: 12px; font-weight: 200;" fill="rgb(33, 33, 33)" stroke="none" stroke-width="1px">0.4</text><text x="0" y="78.66666666666666" dx="0em" dy="0.3em" style="text-anchor: end; visibility: inherit; font-family: Roboto, sans-serif; font-size: 12px; font-weight: 200;" fill="rgb(33, 33, 33)" stroke="none" stroke-width="1px">0.5</text><text x="0" y="59.00000000000001" dx="0em" dy="0.3em" style="text-anchor: end; visibility: hidden; font-family: Roboto, sans-serif; font-size: 12px; font-weight: 200;" fill="rgb(33, 33, 33)" stroke="none" stroke-width="1px">0.6</text><text x="0" y="39.33333333333335" dx="0em" dy="0.3em" style="text-anchor: end; visibility: inherit; font-family: Roboto, sans-serif; font-size: 12px; font-weight: 200;" fill="rgb(33, 33, 33)" stroke="none" stroke-width="1px">0.7</text><text x="0" y="19.666666666666657" dx="0em" dy="0.3em" style="text-anchor: end; visibility: hidden; font-family: Roboto, sans-serif; font-size: 12px; font-weight: 200;" fill="rgb(33, 33, 33)" stroke="none" stroke-width="1px">0.8</text><text x="0" y="0" dx="0em" dy="0.3em" style="text-anchor: end; visibility: hidden; font-family: Roboto, sans-serif; font-size: 12px; font-weight: 200;" fill="rgb(33, 33, 33)" stroke="none" stroke-width="1px">0.9</text></g><line x1="40" y1="0" x2="40" y2="177" fill="rgb(0, 0, 0)" stroke="rgb(204, 204, 204)" stroke-width="1px"></line></g></g><g transform="translate(40, 0)" clip-path="url(#clip_0)"><clipPath id="clip_0"><rect width="290" height="177"></rect></clipPath><g><g><g><line x1="0" y1="0" x2="0" y2="177" fill="rgb(0, 0, 0)" stroke="rgb(66, 66, 66)" stroke-width="1px" opacity="0.25"></line><line x1="32.22222222222222" y1="0" x2="32.22222222222222" y2="177" fill="rgb(0, 0, 0)" stroke="rgb(66, 66, 66)" stroke-width="1px" opacity="0.25"></line><line x1="64.44444444444444" y1="0" x2="64.44444444444444" y2="177" fill="rgb(0, 0, 0)" stroke="rgb(66, 66, 66)" stroke-width="1px" opacity="0.25"></line><line x1="96.66666666666666" y1="0" x2="96.66666666666666" y2="177" fill="rgb(0, 0, 0)" stroke="rgb(66, 66, 66)" stroke-width="1px" opacity="0.25"></line><line x1="128.88888888888889" y1="0" x2="128.88888888888889" y2="177" fill="rgb(0, 0, 0)" stroke="rgb(66, 66, 66)" stroke-width="1px" opacity="0.25"></line><line x1="161.11111111111111" y1="0" x2="161.11111111111111" y2="177" fill="rgb(0, 0, 0)" stroke="rgb(66, 66, 66)" stroke-width="1px" opacity="0.25"></line><line x1="193.33333333333331" y1="0" x2="193.33333333333331" y2="177" fill="rgb(0, 0, 0)" stroke="rgb(66, 66, 66)" stroke-width="1px" opacity="0.25"></line><line x1="225.55555555555557" y1="0" x2="225.55555555555557" y2="177" fill="rgb(0, 0, 0)" stroke="rgb(66, 66, 66)" stroke-width="1px" opacity="0.25"></line><line x1="257.77777777777777" y1="0" x2="257.77777777777777" y2="177" fill="rgb(0, 0, 0)" stroke="rgb(66, 66, 66)" stroke-width="1px" opacity="0.25"></line><line x1="290" y1="0" x2="290" y2="177" fill="rgb(0, 0, 0)" stroke="rgb(66, 66, 66)" stroke-width="1px" opacity="0.25"></line></g><g><line x1="0" y1="177" x2="290" y2="177" fill="rgb(0, 0, 0)" stroke="rgb(66, 66, 66)" stroke-width="1px" opacity="0.25"></line><line x1="0" y1="157.33333333333331" x2="290" y2="157.33333333333331" fill="rgb(0, 0, 0)" stroke="rgb(66, 66, 66)" stroke-width="1px" opacity="0.25"></line><line x1="0" y1="137.66666666666666" x2="290" y2="137.66666666666666" fill="rgb(0, 0, 0)" stroke="rgb(66, 66, 66)" stroke-width="1px" opacity="0.25"></line><line x1="0" y1="118.00000000000001" x2="290" y2="118.00000000000001" fill="rgb(0, 0, 0)" stroke="rgb(66, 66, 66)" stroke-width="1px" opacity="0.25"></line><line x1="0" y1="98.33333333333334" x2="290" y2="98.33333333333334" fill="rgb(0, 0, 0)" stroke="rgb(66, 66, 66)" stroke-width="1px" opacity="0.25"></line><line x1="0" y1="78.66666666666666" x2="290" y2="78.66666666666666" fill="rgb(0, 0, 0)" stroke="rgb(66, 66, 66)" stroke-width="1px" opacity="0.25"></line><line x1="0" y1="59.00000000000001" x2="290" y2="59.00000000000001" fill="rgb(0, 0, 0)" stroke="rgb(66, 66, 66)" stroke-width="1px" opacity="0.25"></line><line x1="0" y1="39.33333333333335" x2="290" y2="39.33333333333335" fill="rgb(0, 0, 0)" stroke="rgb(66, 66, 66)" stroke-width="1px" opacity="0.25"></line><line x1="0" y1="19.666666666666657" x2="290" y2="19.666666666666657" fill="rgb(0, 0, 0)" stroke="rgb(66, 66, 66)" stroke-width="1px" opacity="0.25"></line><line x1="0" y1="0" x2="290" y2="0" fill="rgb(0, 0, 0)" stroke="rgb(66, 66, 66)" stroke-width="1px" opacity="0.25"></line></g></g></g><g><g><line x1="0" y1="177" x2="290" y2="177" fill="rgb(0, 0, 0)" stroke="rgb(153, 153, 153)" stroke-width="1.5px"></line></g></g><g><g><line x1="32.22222222222222" y1="0" x2="32.22222222222222" y2="177" fill="rgb(0, 0, 0)" stroke="rgb(153, 153, 153)" stroke-width="1.5px"></line></g></g><g><g><g><g><g><path stroke="rgb(255, 112, 67)" stroke-width="2px" d="M32.22222222222222,162.6597227106492L33.833333333333336,160.99522593865794L35.44444444444444,159.85856011063873L37.05555555555555,157.2858837609015L38.666666666666664,155.08512126524954L40.27777777777778,151.38686001562036L41.888888888888886,144.3075517175625L43.5,135.35499675610922L45.111111111111114,123.78949989143331L46.72222222222223,113.2153172955289L48.33333333333333,103.04646474630644L49.94444444444444,89.82409757025465L51.55555555555556,77.64243765035285L53.166666666666664,69.93359015853945L54.77777777777778,60.557133689785935L56.38888888888889,51.5734115360011L58,44.29975986720469L59.61111111111111,61.40798263216763L61.22222222222222,73.47469248046458L62.833333333333336,63.99696709206254L64.44444444444444,54.131298103656974L66.05555555555556,82.54720827650442L67.66666666666667,105.57850685102827L69.27777777777779,113.00547169796218L70.88888888888889,116.80607128917593L72.5,111.87530056028845L74.1111111111111,103.09878168311852L75.72222222222223,93.73565293039987L77.33333333333333,80.0872191249389L78.94444444444444,68.94816422130164L80.55555555555556,58.49528447218816L82.16666666666667,53.944392855938325L83.77777777777777,47.52635794190466L85.38888888888889,39.33248213482499L87,34.498099996306436L88.61111111111111,29.303028486425845L90.22222222222223,24.62904147330476L91.83333333333333,27.23297982402085L93.44444444444446,23.38701229621899L95.05555555555556,19.112762302386855L96.66666666666666,16.384325921469944L98.27777777777779,15.238927947884331L99.88888888888889,13.568356768248256L101.5,9.861846455860407L103.11111111111111,7.064328532481456L104.72222222222221,4.812206042306775L106.33333333333333,4.362321749807755L107.94444444444444,2.043783189094476L109.55555555555556,1.9637699134556337L111.16666666666667,1.5879844828857754L112.77777777777779,0.2972329460169162L114.38888888888889,0.9158397676119432L116,35.37589306210945L117.61111111111111,37.368590767636846L119.22222222222221,32.418376057614736L120.83333333333334,68.86352610347245L122.44444444444444,108.43061566209242L124.05555555555554,132.74448054744403L125.66666666666667,146.8411326947637L127.27777777777777,155.29912398315477L128.88888888888889,160.37391875618914L130.5,163.41879562000966L132.11111111111111,165.24572173830197L133.72222222222223,166.34187740927732L135.33333333333334,166.99957081186253L136.94444444444443,167.39418685341366L138.55555555555557,167.63095647834433L140.16666666666666,167.77301825330272L141.77777777777777,167.85825531827777L143.38888888888889,167.9093975572628L145,167.9400829006538L146.61111111111111,167.95849410668842L148.2222222222222,167.96954083030917L149.83333333333334,167.97616886448165L151.44444444444446,167.98014568498513L153.05555555555557,167.98253177728722L154.66666666666666,168.72146360850215L156.27777777777777,167.93565604056445L157.88888888888889,167.46417149980186L159.5,167.18128077534428L161.11111111111111,167.01154634066972L162.72222222222223,166.90970567986503L164.33333333333334,166.84860128338215L165.94444444444443,166.81193864549246L167.55555555555554,166.78994106275866L169.16666666666669,166.77674251311836L170.77777777777777,166.7688233833342L172.38888888888889,166.76407190546368L174,166.76122101874137L175.6111111111111,166.759510486708L177.22222222222223,166.75848416748795L178.83333333333334,166.75786837595595L180.44444444444446,166.75749890103674L182.05555555555554,166.75727721608519L183.66666666666666,166.7571442051143L185.27777777777777,166.75706439853175L186.8888888888889,166.7570165145822L188.5,166.7569877842125L190.11111111111111,166.75697054599067L191.72222222222223,166.75696020305756L193.33333333333331,166.7569539972977L194.94444444444446,166.7569502738418L196.55555555555557,166.75694803976825L198.16666666666666,167.24861319015707L199.77777777777777,167.13389015585355L201.38888888888889,167.39283409351214L203,167.38431143045884L204.61111111111111,166.96947570809004L206.22222222222223,166.72057427466876L207.83333333333334,166.571233414616L209.44444444444443,166.48162889858432L211.05555555555554,166.42786618896534L212.66666666666666,166.39560856319395L214.2777777777778,166.3762539877311L215.88888888888889,166.3646412424534L217.5,166.35767359528677L219.11111111111111,166.3534930069868L220.7222222222222,166.35098465400682L222.33333333333334,166.34947964221882L223.94444444444446,166.34857663514603L225.55555555555557,166.34803483090235L227.16666666666666,166.34770974835615L228.77777777777777,166.34751469882843L230.38888888888889,166.34739766911179L232,166.3473274512818L233.61111111111111,166.3472853205838L235.22222222222223,166.347260042165L236.83333333333334,166.34724487511374L238.44444444444443,166.347235774883L240.05555555555554,166.3472303147445L241.66666666666669,166.34722703866143L243.27777777777777,166.3472250730116L244.88888888888889,166.34722389362167L246.5,166.34722318598776L248.1111111111111,166.34722276140738L249.72222222222223,166.34722250665916L251.33333333333334,166.34722235381022L252.94444444444446,166.34722226210087L254.55555555555554,166.34722220707528L256.1666666666667,166.34722217405988L257.77777777777777,166.34722215425066L259.3888888888889,166.34722214236513L261,166.3472221352338L262.6111111111111,166.34722213095503L264.22222222222223,166.34722212838773L265.8333333333333,166.34722212684738L267.44444444444446,166.34722212592317L269.05555555555554,166.34722212536863L270.6666666666667,166.34722212503593L272.27777777777777,166.3472221248363" style="fill: none;" fill="none"></path></g></g></g></g><g opacity="0.2"><g><g><g><path stroke="rgb(255, 112, 67)" stroke-width="2px" d="M32.22222222222222,162.6597227106492L33.833333333333336,159.9965278754632L35.44444444444444,158.7673609157403L37.05555555555555,154.2604163736105L38.666666666666664,152.21180575092635L40.27777777777778,146.27083333333331L41.888888888888886,134.184027582407L43.5,122.30208567778269L45.111111111111114,106.73263849814734L46.72222222222223,97.51388849814732L48.33333333333333,87.88541666666667L49.94444444444444,70.06250234444937L51.55555555555556,59.409723003705345L53.166666666666664,58.38542135556539L54.77777777777778,46.503470659255974L56.38888888888889,38.10416432221731L58,33.39236032962799L59.61111111111111,87.06597300370535L61.22222222222222,91.57291901111603L62.833333333333336,49.78124531110128L64.44444444444444,39.33333567778269L66.05555555555556,125.17013849814732L67.66666666666667,140.125L69.27777777777779,124.14583098888399L70.88888888888889,122.50694366296132L72.5,104.479165494442L74.1111111111111,89.93402582406998L75.72222222222223,79.69097417593002L77.33333333333333,59.61458098888398L78.94444444444444,52.23958802223206L80.55555555555556,42.81596831480663L82.16666666666667,47.11805633703869L83.77777777777777,37.89930633703868L85.38888888888889,27.041669011116028L87,27.24652699629466L88.61111111111111,21.510421355565388L90.22222222222223,17.618061025937408L91.83333333333333,31.138887325922656L93.44444444444446,17.618061025937408L95.05555555555556,12.701387325922644L96.66666666666666,12.2916713555654L98.27777777777779,13.520830988883985L99.88888888888889,11.0625L101.5,4.302080988883978L103.11111111111111,2.868051648139967L104.72222222222221,1.434022307395935L106.33333333333333,3.6874953111012885L107.94444444444444,-1.4340246518452744L109.55555555555556,1.843750000000013L111.16666666666667,1.0243063370386716L112.77777777777779,-1.6388943592707403L114.38888888888889,1.843750000000013L116,87.06597300370535L117.61111111111111,40.357637325922646L119.22222222222221,24.993053992589324L120.83333333333334,123.53125117222469L122.44444444444444,167.78125L124.05555555555554,169.21527787546316L125.66666666666667,167.98611091574034L127.27777777777777,167.98611091574034L128.88888888888889,167.98611091574034L130.5,167.98611091574034L132.11111111111111,167.98611091574034L133.72222222222223,167.98611091574034L135.33333333333334,167.98611091574034L136.94444444444443,167.98611091574034L138.55555555555557,167.98611091574034L140.16666666666666,167.98611091574034L141.77777777777777,167.98611091574034L143.38888888888889,167.98611091574034L145,167.98611091574034L146.61111111111111,167.98611091574034L148.2222222222222,167.98611091574034L149.83333333333334,167.98611091574034L151.44444444444446,167.98611091574034L153.05555555555557,167.98611091574034L154.66666666666666,169.8298613553246L156.27777777777777,166.7569446886579L157.88888888888889,166.7569446886579L159.5,166.7569446886579L161.11111111111111,166.7569446886579L162.72222222222223,166.7569446886579L164.33333333333334,166.7569446886579L165.94444444444443,166.7569446886579L167.55555555555554,166.7569446886579L169.16666666666669,166.7569446886579L170.77777777777777,166.7569446886579L172.38888888888889,166.7569446886579L174,166.7569446886579L175.6111111111111,166.7569446886579L177.22222222222223,166.7569446886579L178.83333333333334,166.7569446886579L180.44444444444446,166.7569446886579L182.05555555555554,166.7569446886579L183.66666666666666,166.7569446886579L185.27777777777777,166.7569446886579L186.8888888888889,166.7569446886579L188.5,166.7569446886579L190.11111111111111,166.7569446886579L191.72222222222223,166.7569446886579L193.33333333333331,166.7569446886579L194.94444444444446,166.7569446886579L196.55555555555557,166.7569446886579L198.16666666666666,167.98611091574034L199.77777777777777,166.96180560439825L201.38888888888889,167.78125L203,167.37152743587893L204.61111111111111,166.3472221245368L206.22222222222223,166.3472221245368L207.83333333333334,166.3472221245368L209.44444444444443,166.3472221245368L211.05555555555554,166.3472221245368L212.66666666666666,166.3472221245368L214.2777777777778,166.3472221245368L215.88888888888889,166.3472221245368L217.5,166.3472221245368L219.11111111111111,166.3472221245368L220.7222222222222,166.3472221245368L222.33333333333334,166.3472221245368L223.94444444444446,166.3472221245368L225.55555555555557,166.3472221245368L227.16666666666666,166.3472221245368L228.77777777777777,166.3472221245368L230.38888888888889,166.3472221245368L232,166.3472221245368L233.61111111111111,166.3472221245368L235.22222222222223,166.3472221245368L236.83333333333334,166.3472221245368L238.44444444444443,166.3472221245368L240.05555555555554,166.3472221245368L241.66666666666669,166.3472221245368L243.27777777777777,166.3472221245368L244.88888888888889,166.3472221245368L246.5,166.3472221245368L248.1111111111111,166.3472221245368L249.72222222222223,166.3472221245368L251.33333333333334,166.3472221245368L252.94444444444446,166.3472221245368L254.55555555555554,166.3472221245368L256.1666666666667,166.3472221245368L257.77777777777777,166.3472221245368L259.3888888888889,166.3472221245368L261,166.3472221245368L262.6111111111111,166.3472221245368L264.22222222222223,166.3472221245368L265.8333333333333,166.3472221245368L267.44444444444446,166.3472221245368L269.05555555555554,166.3472221245368L270.6666666666667,166.3472221245368L272.27777777777777,166.3472221245368" style="fill: none;" fill="none"></path></g></g></g></g></g></g><g transform="translate(40, 177)" clip-path="url(#clip_1)"><clipPath id="clip_1"><rect width="290" height="23"></rect></clipPath><g><g><line x1="0" y1="0" x2="0" y2="5" style="visibility: inherit;" fill="rgb(0, 0, 0)" stroke="rgb(204, 204, 204)" stroke-width="1px"></line><line x1="32.22222222222222" y1="0" x2="32.22222222222222" y2="5" style="visibility: inherit;" fill="rgb(0, 0, 0)" stroke="rgb(204, 204, 204)" stroke-width="1px"></line><line x1="64.44444444444444" y1="0" x2="64.44444444444444" y2="5" style="visibility: inherit;" fill="rgb(0, 0, 0)" stroke="rgb(204, 204, 204)" stroke-width="1px"></line><line x1="96.66666666666666" y1="0" x2="96.66666666666666" y2="5" style="visibility: inherit;" fill="rgb(0, 0, 0)" stroke="rgb(204, 204, 204)" stroke-width="1px"></line><line x1="128.88888888888889" y1="0" x2="128.88888888888889" y2="5" style="visibility: inherit;" fill="rgb(0, 0, 0)" stroke="rgb(204, 204, 204)" stroke-width="1px"></line><line x1="161.11111111111111" y1="0" x2="161.11111111111111" y2="5" style="visibility: inherit;" fill="rgb(0, 0, 0)" stroke="rgb(204, 204, 204)" stroke-width="1px"></line><line x1="193.33333333333331" y1="0" x2="193.33333333333331" y2="5" style="visibility: inherit;" fill="rgb(0, 0, 0)" stroke="rgb(204, 204, 204)" stroke-width="1px"></line><line x1="225.55555555555557" y1="0" x2="225.55555555555557" y2="5" style="visibility: inherit;" fill="rgb(0, 0, 0)" stroke="rgb(204, 204, 204)" stroke-width="1px"></line><line x1="257.77777777777777" y1="0" x2="257.77777777777777" y2="5" style="visibility: inherit;" fill="rgb(0, 0, 0)" stroke="rgb(204, 204, 204)" stroke-width="1px"></line><line x1="290" y1="0" x2="290" y2="5" style="visibility: inherit;" fill="rgb(0, 0, 0)" stroke="rgb(204, 204, 204)" stroke-width="1px"></line></g><g transform="translate(0, 8)"><text x="0" y="0" dx="0em" dy="0.95em" style="text-anchor: middle; visibility: hidden; font-family: Roboto, sans-serif; font-size: 12px; font-weight: 200;" fill="rgb(33, 33, 33)" stroke="none" stroke-width="1px">-20</text><text x="32.22222222222222" y="0" dx="0em" dy="0.95em" style="text-anchor: middle; visibility: inherit; font-family: Roboto, sans-serif; font-size: 12px; font-weight: 200;" fill="rgb(33, 33, 33)" stroke="none" stroke-width="1px">0</text><text x="64.44444444444444" y="0" dx="0em" dy="0.95em" style="text-anchor: middle; visibility: inherit; font-family: Roboto, sans-serif; font-size: 12px; font-weight: 200;" fill="rgb(33, 33, 33)" stroke="none" stroke-width="1px">20</text><text x="96.66666666666666" y="0" dx="0em" dy="0.95em" style="text-anchor: middle; visibility: inherit; font-family: Roboto, sans-serif; font-size: 12px; font-weight: 200;" fill="rgb(33, 33, 33)" stroke="none" stroke-width="1px">40</text><text x="128.88888888888889" y="0" dx="0em" dy="0.95em" style="text-anchor: middle; visibility: inherit; font-family: Roboto, sans-serif; font-size: 12px; font-weight: 200;" fill="rgb(33, 33, 33)" stroke="none" stroke-width="1px">60</text><text x="161.11111111111111" y="0" dx="0em" dy="0.95em" style="text-anchor: middle; visibility: inherit; font-family: Roboto, sans-serif; font-size: 12px; font-weight: 200;" fill="rgb(33, 33, 33)" stroke="none" stroke-width="1px">80</text><text x="193.33333333333331" y="0" dx="0em" dy="0.95em" style="text-anchor: middle; visibility: inherit; font-family: Roboto, sans-serif; font-size: 12px; font-weight: 200;" fill="rgb(33, 33, 33)" stroke="none" stroke-width="1px">100</text><text x="225.55555555555557" y="0" dx="0em" dy="0.95em" style="text-anchor: middle; visibility: inherit; font-family: Roboto, sans-serif; font-size: 12px; font-weight: 200;" fill="rgb(33, 33, 33)" stroke="none" stroke-width="1px">120</text><text x="257.77777777777777" y="0" dx="0em" dy="0.95em" style="text-anchor: middle; visibility: inherit; font-family: Roboto, sans-serif; font-size: 12px; font-weight: 200;" fill="rgb(33, 33, 33)" stroke="none" stroke-width="1px">140</text><text x="290" y="0" dx="0em" dy="0.95em" style="text-anchor: middle; visibility: hidden; font-family: Roboto, sans-serif; font-size: 12px; font-weight: 200;" fill="rgb(33, 33, 33)" stroke="none" stroke-width="1px">160</text></g><line x1="0" y1="0" x2="290" y2="0" fill="rgb(0, 0, 0)" stroke="rgb(204, 204, 204)" stroke-width="1px"></line></g></g></g></g></svg>