<svg viewBox="0 0 330 200" xmlns="http://www.w3.org/2000/svg"><g><g><g><g><g><line x1="60" y1="177" x2="55" y2="177" style="visibility: inherit;" fill="rgb(0, 0, 0)" stroke="rgb(204, 204, 204)" stroke-width="1px"></line><line x1="60" y1="160.9090909090909" x2="55" y2="160.9090909090909" style="visibility: inherit;" fill="rgb(0, 0, 0)" stroke="rgb(204, 204, 204)" stroke-width="1px"></line><line x1="60" y1="144.8181818181818" x2="55" y2="144.8181818181818" style="visibility: inherit;" fill="rgb(0, 0, 0)" stroke="rgb(204, 204, 204)" stroke-width="1px"></line><line x1="60" y1="128.72727272727272" x2="55" y2="128.72727272727272" style="visibility: inherit;" fill="rgb(0, 0, 0)" stroke="rgb(204, 204, 204)" stroke-width="1px"></line><line x1="60" y1="112.63636363636364" x2="55" y2="112.63636363636364" style="visibility: inherit;" fill="rgb(0, 0, 0)" stroke="rgb(204, 204, 204)" stroke-width="1px"></line><line x1="60" y1="96.54545454545453" x2="55" y2="96.54545454545453" style="visibility: inherit;" fill="rgb(0, 0, 0)" stroke="rgb(204, 204, 204)" stroke-width="1px"></line><line x1="60" y1="80.45454545454547" x2="55" y2="80.45454545454547" style="visibility: inherit;" fill="rgb(0, 0, 0)" stroke="rgb(204, 204, 204)" stroke-width="1px"></line><line x1="60" y1="64.36363636363636" x2="55" y2="64.36363636363636" style="visibility: inherit;" fill="rgb(0, 0, 0)" stroke="rgb(204, 204, 204)" stroke-width="1px"></line><line x1="60" y1="48.272727272727266" x2="55" y2="48.272727272727266" style="visibility: inherit;" fill="rgb(0, 0, 0)" stroke="rgb(204, 204, 204)" stroke-width="1px"></line><line x1="60" y1="32.18181818181817" x2="55" y2="32.18181818181817" style="visibility: inherit;" fill="rgb(0, 0, 0)" stroke="rgb(204, 204, 204)" stroke-width="1px"></line><line x1="60" y1="16.090909090909097" x2="55" y2="16.090909090909097" style="visibility: inherit;" fill="rgb(0, 0, 0)" stroke="rgb(204, 204, 204)" stroke-width="1px"></line><line x1="60" y1="0" x2="55" y2="0" style="visibility: inherit;" fill="rgb(0, 0, 0)" stroke="rgb(204, 204, 204)" stroke-width="1px"></line></g><g transform="translate(50, 0)"><text x="0" y="177" dx="0em" dy="0.3em" style="text-anchor: end; visibility: hidden; font-family: Roboto, sans-serif; font-size: 12px; font-weight: 200;" fill="rgb(33, 33, 33)" stroke="none" stroke-width="1px">-1e+4</text><text x="0" y="160.9090909090909" dx="0em" dy="0.3em" style="text-anchor: end; visibility: inherit; font-family: Roboto, sans-serif; font-size: 12px; font-weight: 200;" fill="rgb(33, 33, 33)" stroke="none" stroke-width="1px">0</text><text x="0" y="144.8181818181818" dx="0em" dy="0.3em" style="text-anchor: end; visibility: hidden; font-family: Roboto, sans-serif; font-size: 12px; font-weight: 200;" fill="rgb(33, 33, 33)" stroke="none" stroke-width="1px">1e+4</text><text x="0" y="128.72727272727272" dx="0em" dy="0.3em" style="text-anchor: end; visibility: inherit; font-family: Roboto, sans-serif; font-size: 12px; font-weight: 200;" fill="rgb(33, 33, 33)" stroke="none" stroke-width="1px">2e+4</text><text x="0" y="112.63636363636364" dx="0em" dy="0.3em" style="text-anchor: end; visibility: hidden; font-family: Roboto, sans-serif; font-size: 12px; font-weight: 200;" fill="rgb(33, 33, 33)" stroke="none" stroke-width="1px">3e+4</text><text x="0" y="96.54545454545453" dx="0em" dy="0.3em" style="text-anchor: end; visibility: inherit; font-family: Roboto, sans-serif; font-size: 12px; font-weight: 200;" fill="rgb(33, 33, 33)" stroke="none" stroke-width="1px">4e+4</text><text x="0" y="80.45454545454547" dx="0em" dy="0.3em" style="text-anchor: end; visibility: hidden; font-family: Roboto, sans-serif; font-size: 12px; font-weight: 200;" fill="rgb(33, 33, 33)" stroke="none" stroke-width="1px">5e+4</text><text x="0" y="64.36363636363636" dx="0em" dy="0.3em" style="text-anchor: end; visibility: inherit; font-family: Roboto, sans-serif; font-size: 12px; font-weight: 200;" fill="rgb(33, 33, 33)" stroke="none" stroke-width="1px">6e+4</text><text x="0" y="48.272727272727266" dx="0em" dy="0.3em" style="text-anchor: end; visibility: hidden; font-family: Roboto, sans-serif; font-size: 12px; font-weight: 200;" fill="rgb(33, 33, 33)" stroke="none" stroke-width="1px">7e+4</text><text x="0" y="32.18181818181817" dx="0em" dy="0.3em" style="text-anchor: end; visibility: inherit; font-family: Roboto, sans-serif; font-size: 12px; font-weight: 200;" fill="rgb(33, 33, 33)" stroke="none" stroke-width="1px">8e+4</text><text x="0" y="16.090909090909097" dx="0em" dy="0.3em" style="text-anchor: end; visibility: hidden; font-family: Roboto, sans-serif; font-size: 12px; font-weight: 200;" fill="rgb(33, 33, 33)" stroke="none" stroke-width="1px">9e+4</text><text x="0" y="0" dx="0em" dy="0.3em" style="text-anchor: end; visibility: hidden; font-family: Roboto, sans-serif; font-size: 12px; font-weight: 200;" fill="rgb(33, 33, 33)" stroke="none" stroke-width="1px">1e+5</text></g><line x1="60" y1="0" x2="60" y2="177" fill="rgb(0, 0, 0)" stroke="rgb(204, 204, 204)" stroke-width="1px"></line></g></g><g transform="translate(60, 0)" clip-path="url(#clip_0)"><clipPath id="clip_0"><rect width="270" height="177"></rect></clipPath><g><g><g><line x1="0" y1="0" x2="0" y2="177" fill="rgb(0, 0, 0)" stroke="rgb(66, 66, 66)" stroke-width="1px" opacity="0.25"></line><line x1="30" y1="0" x2="30" y2="177" fill="rgb(0, 0, 0)" stroke="rgb(66, 66, 66)" stroke-width="1px" opacity="0.25"></line><line x1="60" y1="0" x2="60" y2="177" fill="rgb(0, 0, 0)" stroke="rgb(66, 66, 66)" stroke-width="1px" opacity="0.25"></line><line x1="90" y1="0" x2="90" y2="177" fill="rgb(0, 0, 0)" stroke="rgb(66, 66, 66)" stroke-width="1px" opacity="0.25"></line><line x1="120" y1="0" x2="120" y2="177" fill="rgb(0, 0, 0)" stroke="rgb(66, 66, 66)" stroke-width="1px" opacity="0.25"></line><line x1="150" y1="0" x2="150" y2="177" fill="rgb(0, 0, 0)" stroke="rgb(66, 66, 66)" stroke-width="1px" opacity="0.25"></line><line x1="180" y1="0" x2="180" y2="177" fill="rgb(0, 0, 0)" stroke="rgb(66, 66, 66)" stroke-width="1px" opacity="0.25"></line><line x1="210" y1="0" x2="210" y2="177" fill="rgb(0, 0, 0)" stroke="rgb(66, 66, 66)" stroke-width="1px" opacity="0.25"></line><line x1="240" y1="0" x2="240" y2="177" fill="rgb(0, 0, 0)" stroke="rgb(66, 66, 66)" stroke-width="1px" opacity="0.25"></line><line x1="270" y1="0" x2="270" y2="177" fill="rgb(0, 0, 0)" stroke="rgb(66, 66, 66)" stroke-width="1px" opacity="0.25"></line></g><g><line x1="0" y1="177" x2="270" y2="177" fill="rgb(0, 0, 0)" stroke="rgb(66, 66, 66)" stroke-width="1px" opacity="0.25"></line><line x1="0" y1="160.9090909090909" x2="270" y2="160.9090909090909" fill="rgb(0, 0, 0)" stroke="rgb(66, 66, 66)" stroke-width="1px" opacity="0.25"></line><line x1="0" y1="144.8181818181818" x2="270" y2="144.8181818181818" fill="rgb(0, 0, 0)" stroke="rgb(66, 66, 66)" stroke-width="1px" opacity="0.25"></line><line x1="0" y1="128.72727272727272" x2="270" y2="128.72727272727272" fill="rgb(0, 0, 0)" stroke="rgb(66, 66, 66)" stroke-width="1px" opacity="0.25"></line><line x1="0" y1="112.63636363636364" x2="270" y2="112.63636363636364" fill="rgb(0, 0, 0)" stroke="rgb(66, 66, 66)" stroke-width="1px" opacity="0.25"></line><line x1="0" y1="96.54545454545453" x2="270" y2="96.54545454545453" fill="rgb(0, 0, 0)" stroke="rgb(66, 66, 66)" stroke-width="1px" opacity="0.25"></line><line x1="0" y1="80.45454545454547" x2="270" y2="80.45454545454547" fill="rgb(0, 0, 0)" stroke="rgb(66, 66, 66)" stroke-width="1px" opacity="0.25"></line><line x1="0" y1="64.36363636363636" x2="270" y2="64.36363636363636" fill="rgb(0, 0, 0)" stroke="rgb(66, 66, 66)" stroke-width="1px" opacity="0.25"></line><line x1="0" y1="48.272727272727266" x2="270" y2="48.272727272727266" fill="rgb(0, 0, 0)" stroke="rgb(66, 66, 66)" stroke-width="1px" opacity="0.25"></line><line x1="0" y1="32.18181818181817" x2="270" y2="32.18181818181817" fill="rgb(0, 0, 0)" stroke="rgb(66, 66, 66)" stroke-width="1px" opacity="0.25"></line><line x1="0" y1="16.090909090909097" x2="270" y2="16.090909090909097" fill="rgb(0, 0, 0)" stroke="rgb(66, 66, 66)" stroke-width="1px" opacity="0.25"></line><line x1="0" y1="0" x2="270" y2="0" fill="rgb(0, 0, 0)" stroke="rgb(66, 66, 66)" stroke-width="1px" opacity="0.25"></line></g></g></g><g><g><line x1="0" y1="160.9090909090909" x2="270" y2="160.9090909090909" fill="rgb(0, 0, 0)" stroke="rgb(153, 153, 153)" stroke-width="1.5px"></line></g></g><g><g><line x1="30" y1="0" x2="30" y2="177" fill="rgb(0, 0, 0)" stroke="rgb(153, 153, 153)" stroke-width="1.5px"></line></g></g><g><g><g><g><g><path stroke="rgb(255, 112, 67)" stroke-width="2px" d="M30,160.9036414148569L31.5,160.90408515478182L33,160.90423873577473L34.5,160.90438230750897L36,160.90459047564548L37.5,160.904751865444L38.99999999999999,160.9049743835813L40.5,160.9052650823803L42,160.90561524165724L43.5,160.90594733335297L45,160.90620507840003L46.5,160.90652867319906L48,160.9067975558839L49.5,160.90698071004846L51,160.90722800471625L52.5,160.90744314079797L54,160.90760423435023L55.5,160.90691397833103L57,160.90671456733423L58.5,160.9069321108014L60,160.90724186057298L61.5,160.90148367456598L63,160.90286978620063L64.5,160.89474094920573L66,160.89901745791138L67.5,160.90177630285055L69,160.90356107672946L70.5,160.90480584356686L72,160.90569440713966L73.5,160.9063191950928L75,160.9067897217321L76.5,160.90705900498304L77.99999999999999,160.90729209544145L79.5,160.90753376406275L81,160.90769930040832L82.5,160.90785343690683L84,160.90795610049705L85.5,160.90790048491215L87,160.90797220375651L88.5,160.90807293090901L90,160.90815486308153L91.5,160.9082082197209L93,160.90826098839858L94.5,160.90833609931502L96,160.9083936453518L97.5,160.90844301363242L99,160.9084696766048L100.5,160.90851061149468L102,160.90851933456275L103.5,160.90852882900126L105,160.90856310626896L106.5,160.9084076004714L108,160.90757955884797L109.5,160.90756694068176L111,160.90774549668677L112.5,149.96943098408747L114,-7960.049141411381L124.50000000000001,-87.75930858826824L126,11.706114911482686L127.5,71.38536965615033L129,107.1929230811688L130.5,128.67745569368137L132,141.5681757497892L133.5,149.30260830811608L135,153.94326829181423L136.5,156.7276646897627L138,158.3983029035755L139.5,159.40068618511626L141,160.00211651066985L142.5,160.3629749572076L144,160.57949035459785L145.5,160.70939984623254L147,160.78734580484883L148.5,160.8341135649317L150,160.86217443520442L151.5,160.8790111544041L153,160.88911334336862L154.5,160.89517484672444L155.99999999999997,160.8988119284336L157.5,160.9009943296863L159,160.9023038470119L160.5,160.9030897252869L162,160.90356138207468L163.5,160.90384445180064L165,160.90401436330473L166.5,160.9041164341987L168,160.90417779013822L169.5,160.90421463577403L171,160.9042368352284L172.5,160.90425023638556L174,160.90425831989378L175.5,160.90426323843957L177,160.90426628747127L178.5,160.9042681270183L180,160.90426927141206L181.50000000000003,160.9042700139059L183,160.90427050942847L184.5,160.90427085385267L186,160.9042710703283L187.5,160.9042712493192L189,160.90427138694437L190.5,160.9042715025123L192,160.90427158259484L193.5,160.9042716245062L195,160.90427169200657L196.5,160.90427177624142L198,160.904271895837L199.5,160.90427194687797L201,160.90427200358988L202.5,160.90427203823086L204,160.90427209262202L205.5,160.90427211773746L207,160.9042721151594L208.5,160.904272141081L210,160.90427219085436L211.5,160.90427217544922L213,160.9042722234448L214.5,160.90427222492718L216,160.90427225313155L217.5,160.90427228279094L219,160.90427231255606L220.5,160.90427233655333L222,160.90427233253712L223.49999999999997,160.90427232230118L225,160.9042723849074L226.5,160.90427242446603L228,160.9042724139808L229.5,160.90427244451882L231,160.90427243460593L232.5,160.9042724317273L234,160.90427242723794L235.5,160.90427245032473L237,160.9042724397775L238.5,160.90427246475392L240,160.90427248695218L241.5,160.90427252083407L243,160.90427252505046L244.5,160.90427250916568L246,160.90427252495488L247.5,160.90427254148733L249.00000000000003,160.90427255355516L250.5,160.90427252412016L252,160.9042725494265L253.5,160.90427253898338" style="fill: none;" fill="none"></path></g></g></g></g><g opacity="0.2"><g><g><g><path stroke="rgb(255, 112, 67)" stroke-width="2px" d="M30,160.9036414148569L31.5,160.9043513987368L33,160.9043861735279L34.5,160.90455114786843L36,160.90486225996452L37.5,160.90497512563573L38.99999999999999,160.90529258807788L40.5,160.90568892401998L42,160.90613165857576L43.5,160.90644045081788L45,160.906589358242L46.5,160.907012304409L48,160.90720000196262L49.5,160.9072550824772L51,160.90759865603232L52.5,160.90776569318987L54,160.90784580650924L55.5,160.90587876955811L57,160.90641548121735L58.5,160.90725840611782L60,160.90770646824296L61.5,160.892846585031L63,160.90494892628627L64.5,160.88254779000715L66,160.90543219057432L67.5,160.9059145584941L69,160.90623823298108L70.5,160.90667299191193L72,160.90702725168035L73.5,160.9072563766772L75,160.90749551153507L76.5,160.90746292980583L77.99999999999999,160.90764173110128L79.5,160.90789626697736L81,160.90794760491954L82.5,160.9080846416506L84,160.9081100958808L85.5,160.90781706153535L87,160.90807978202267L88.5,160.90822402163744L90,160.90827776134014L91.5,160.9082882546799L93,160.90834014141504L94.5,160.90844876568968L96,160.90847996440692L97.5,160.90851706605338L99,160.9085096710633L100.5,160.9085720138295L102,160.90853241916489L103.5,160.90854307065905L105,160.90861452217047L106.5,160.90817434177507L108,160.90633749641287L109.5,160.90754801343246L111,160.90801333069422L112.5,133.56195921519887L114,-20125.076999999997L115.5,-981.9730704545455L117,160.90423677178728L118.5,160.90423939931824L120,160.90424188912348L121.5,160.90424426767393L123,160.9042463492892L124.50000000000001,160.90424834535338L126,160.9042501611081L127.5,160.9042517731515L129,160.90425321869634L130.5,160.90425461245016L132,160.9042558339509L133.5,160.90425714560638L135,160.90425826736148L136.5,160.90425928668543L138,160.90426022429466L139.5,160.90426110742743L141,160.9042619990002L142.5,160.90426262701425L144,160.90426345068326L145.5,160.90426408368458L147,160.90426474277322L148.5,160.90426520505602L150,160.9042657406135L151.5,160.90426623320363L153,160.90426662681537L154.5,160.90426710175817L155.99999999999997,160.9042675509973L157.5,160.90426793156539L159,160.90426812300032L160.5,160.90426854269938L162,160.90426886725643L163.5,160.90426905638955L165,160.90426923056083L166.5,160.90426954053964L168,160.90426982404753L169.5,160.90426990422768L171,160.90427013440998L172.5,160.90427033812134L174,160.9042704451561L175.5,160.9042706162583L177,160.90427086101877L178.5,160.90427088633882L180,160.9042709880027L181.50000000000003,160.9042711276466L183,160.90427125271233L184.5,160.90427137048894L186,160.90427139504175L187.5,160.90427151780563L189,160.90427159338213L190.5,160.90427167586412L192,160.90427170271875L193.5,160.90427168737324L195,160.9042717932571L196.5,160.9042719025937L198,160.90427207523044L199.5,160.9042720234394L201,160.90427208865773L202.5,160.90427209019228L204,160.9042721742088L205.5,160.90427215541058L207,160.90427211129233L208.5,160.90427217996336L210,160.90427226551446L211.5,160.9042721523415L213,160.90427229543818L214.5,160.90427222715076L216,160.90427229543818L217.5,160.90427232728004L219,160.90427235720375L220.5,160.90427237254923L222,160.90427232651277L223.49999999999997,160.90427230694726L225,160.90427247881672L226.5,160.90427248380402L228,160.9042723982529L229.5,160.90427249032584L231,160.9042724197366L232.5,160.90427242740935L234,160.90427242050387L235.5,160.90427248495493L237,160.9042724239566L238.5,160.90427250221862L240,160.90427252024955L241.5,160.90427257165692L243,160.90427253137503L244.5,160.90427248533857L246,160.9042725486387L247.5,160.904272566286L249.00000000000003,160.90427257165692L250.5,160.90427247996763L252,160.90427258738603L253.5,160.90427252331864" style="fill: none;" fill="none"></path></g></g></g></g></g></g><g transform="translate(60, 177)" clip-path="url(#clip_1)"><clipPath id="clip_1"><rect width="270" height="23"></rect></clipPath><g><g><line x1="0" y1="0" x2="0" y2="5" style="visibility: inherit;" fill="rgb(0, 0, 0)" stroke="rgb(204, 204, 204)" stroke-width="1px"></line><line x1="30" y1="0" x2="30" y2="5" style="visibility: inherit;" fill="rgb(0, 0, 0)" stroke="rgb(204, 204, 204)" stroke-width="1px"></line><line x1="60" y1="0" x2="60" y2="5" style="visibility: inherit;" fill="rgb(0, 0, 0)" stroke="rgb(204, 204, 204)" stroke-width="1px"></line><line x1="90" y1="0" x2="90" y2="5" style="visibility: inherit;" fill="rgb(0, 0, 0)" stroke="rgb(204, 204, 204)" stroke-width="1px"></line><line x1="120" y1="0" x2="120" y2="5" style="visibility: inherit;" fill="rgb(0, 0, 0)" stroke="rgb(204, 204, 204)" stroke-width="1px"></line><line x1="150" y1="0" x2="150" y2="5" style="visibility: inherit;" fill="rgb(0, 0, 0)" stroke="rgb(204, 204, 204)" stroke-width="1px"></line><line x1="180" y1="0" x2="180" y2="5" style="visibility: inherit;" fill="rgb(0, 0, 0)" stroke="rgb(204, 204, 204)" stroke-width="1px"></line><line x1="210" y1="0" x2="210" y2="5" style="visibility: inherit;" fill="rgb(0, 0, 0)" stroke="rgb(204, 204, 204)" stroke-width="1px"></line><line x1="240" y1="0" x2="240" y2="5" style="visibility: inherit;" fill="rgb(0, 0, 0)" stroke="rgb(204, 204, 204)" stroke-width="1px"></line><line x1="270" y1="0" x2="270" y2="5" style="visibility: inherit;" fill="rgb(0, 0, 0)" stroke="rgb(204, 204, 204)" stroke-width="1px"></line></g><g transform="translate(0, 8)"><text x="0" y="0" dx="0em" dy="0.95em" style="text-anchor: middle; visibility: hidden; font-family: Roboto, sans-serif; font-size: 12px; font-weight: 200;" fill="rgb(33, 33, 33)" stroke="none" stroke-width="1px">-20</text><text x="30" y="0" dx="0em" dy="0.95em" style="text-anchor: middle; visibility: inherit; font-family: Roboto, sans-serif; font-size: 12px; font-weight: 200;" fill="rgb(33, 33, 33)" stroke="none" stroke-width="1px">0</text><text x="60" y="0" dx="0em" dy="0.95em" style="text-anchor: middle; visibility: inherit; font-family: Roboto, sans-serif; font-size: 12px; font-weight: 200;" fill="rgb(33, 33, 33)" stroke="none" stroke-width="1px">20</text><text x="90" y="0" dx="0em" dy="0.95em" style="text-anchor: middle; visibility: inherit; font-family: Roboto, sans-serif; font-size: 12px; font-weight: 200;" fill="rgb(33, 33, 33)" stroke="none" stroke-width="1px">40</text><text x="120" y="0" dx="0em" dy="0.95em" style="text-anchor: middle; visibility: inherit; font-family: Roboto, sans-serif; font-size: 12px; font-weight: 200;" fill="rgb(33, 33, 33)" stroke="none" stroke-width="1px">60</text><text x="150" y="0" dx="0em" dy="0.95em" style="text-anchor: middle; visibility: inherit; font-family: Roboto, sans-serif; font-size: 12px; font-weight: 200;" fill="rgb(33, 33, 33)" stroke="none" stroke-width="1px">80</text><text x="180" y="0" dx="0em" dy="0.95em" style="text-anchor: middle; visibility: inherit; font-family: Roboto, sans-serif; font-size: 12px; font-weight: 200;" fill="rgb(33, 33, 33)" stroke="none" stroke-width="1px">100</text><text x="210" y="0" dx="0em" dy="0.95em" style="text-anchor: middle; visibility: inherit; font-family: Roboto, sans-serif; font-size: 12px; font-weight: 200;" fill="rgb(33, 33, 33)" stroke="none" stroke-width="1px">120</text><text x="240" y="0" dx="0em" dy="0.95em" style="text-anchor: middle; visibility: inherit; font-family: Roboto, sans-serif; font-size: 12px; font-weight: 200;" fill="rgb(33, 33, 33)" stroke="none" stroke-width="1px">140</text><text x="270" y="0" dx="0em" dy="0.95em" style="text-anchor: middle; visibility: hidden; font-family: Roboto, sans-serif; font-size: 12px; font-weight: 200;" fill="rgb(33, 33, 33)" stroke="none" stroke-width="1px">160</text></g><line x1="0" y1="0" x2="270" y2="0" fill="rgb(0, 0, 0)" stroke="rgb(204, 204, 204)" stroke-width="1px"></line></g></g></g></g></svg>