<svg viewBox="0 0 857.8333740234375 400" xmlns="http://www.w3.org/2000/svg"><g><g><g><g><g><line x1="40" y1="377" x2="35" y2="377" style="visibility: inherit;" fill="rgb(0, 0, 0)" stroke="rgb(204, 204, 204)" stroke-width="1px"></line><line x1="40" y1="335.1111111111111" x2="35" y2="335.1111111111111" style="visibility: inherit;" fill="rgb(0, 0, 0)" stroke="rgb(204, 204, 204)" stroke-width="1px"></line><line x1="40" y1="293.22222222222223" x2="35" y2="293.22222222222223" style="visibility: inherit;" fill="rgb(0, 0, 0)" stroke="rgb(204, 204, 204)" stroke-width="1px"></line><line x1="40" y1="251.33333333333337" x2="35" y2="251.33333333333337" style="visibility: inherit;" fill="rgb(0, 0, 0)" stroke="rgb(204, 204, 204)" stroke-width="1px"></line><line x1="40" y1="209.44444444444446" x2="35" y2="209.44444444444446" style="visibility: inherit;" fill="rgb(0, 0, 0)" stroke="rgb(204, 204, 204)" stroke-width="1px"></line><line x1="40" y1="167.55555555555554" x2="35" y2="167.55555555555554" style="visibility: inherit;" fill="rgb(0, 0, 0)" stroke="rgb(204, 204, 204)" stroke-width="1px"></line><line x1="40" y1="125.66666666666669" x2="35" y2="125.66666666666669" style="visibility: inherit;" fill="rgb(0, 0, 0)" stroke="rgb(204, 204, 204)" stroke-width="1px"></line><line x1="40" y1="83.77777777777781" x2="35" y2="83.77777777777781" style="visibility: inherit;" fill="rgb(0, 0, 0)" stroke="rgb(204, 204, 204)" stroke-width="1px"></line><line x1="40" y1="41.888888888888864" x2="35" y2="41.888888888888864" style="visibility: inherit;" fill="rgb(0, 0, 0)" stroke="rgb(204, 204, 204)" stroke-width="1px"></line><line x1="40" y1="0" x2="35" y2="0" style="visibility: inherit;" fill="rgb(0, 0, 0)" stroke="rgb(204, 204, 204)" stroke-width="1px"></line></g><g transform="translate(30, 0)"><text x="0" y="377" dx="0em" dy="0.3em" style="text-anchor: end; visibility: hidden; font-family: Roboto, sans-serif; font-size: 12px; font-weight: 200;" fill="rgb(33, 33, 33)" stroke="none" stroke-width="1px">0</text><text x="0" y="335.1111111111111" dx="0em" dy="0.3em" style="text-anchor: end; visibility: inherit; font-family: Roboto, sans-serif; font-size: 12px; font-weight: 200;" fill="rgb(33, 33, 33)" stroke="none" stroke-width="1px">0.1</text><text x="0" y="293.22222222222223" dx="0em" dy="0.3em" style="text-anchor: end; visibility: inherit; font-family: Roboto, sans-serif; font-size: 12px; font-weight: 200;" fill="rgb(33, 33, 33)" stroke="none" stroke-width="1px">0.2</text><text x="0" y="251.33333333333337" dx="0em" dy="0.3em" style="text-anchor: end; visibility: inherit; font-family: Roboto, sans-serif; font-size: 12px; font-weight: 200;" fill="rgb(33, 33, 33)" stroke="none" stroke-width="1px">0.3</text><text x="0" y="209.44444444444446" dx="0em" dy="0.3em" style="text-anchor: end; visibility: inherit; font-family: Roboto, sans-serif; font-size: 12px; font-weight: 200;" fill="rgb(33, 33, 33)" stroke="none" stroke-width="1px">0.4</text><text x="0" y="167.55555555555554" dx="0em" dy="0.3em" style="text-anchor: end; visibility: inherit; font-family: Roboto, sans-serif; font-size: 12px; font-weight: 200;" fill="rgb(33, 33, 33)" stroke="none" stroke-width="1px">0.5</text><text x="0" y="125.66666666666669" dx="0em" dy="0.3em" style="text-anchor: end; visibility: inherit; font-family: Roboto, sans-serif; font-size: 12px; font-weight: 200;" fill="rgb(33, 33, 33)" stroke="none" stroke-width="1px">0.6</text><text x="0" y="83.77777777777781" dx="0em" dy="0.3em" style="text-anchor: end; visibility: inherit; font-family: Roboto, sans-serif; font-size: 12px; font-weight: 200;" fill="rgb(33, 33, 33)" stroke="none" stroke-width="1px">0.7</text><text x="0" y="41.888888888888864" dx="0em" dy="0.3em" style="text-anchor: end; visibility: inherit; font-family: Roboto, sans-serif; font-size: 12px; font-weight: 200;" fill="rgb(33, 33, 33)" stroke="none" stroke-width="1px">0.8</text><text x="0" y="0" dx="0em" dy="0.3em" style="text-anchor: end; visibility: hidden; font-family: Roboto, sans-serif; font-size: 12px; font-weight: 200;" fill="rgb(33, 33, 33)" stroke="none" stroke-width="1px">0.9</text></g><line x1="40" y1="0" x2="40" y2="377" fill="rgb(0, 0, 0)" stroke="rgb(204, 204, 204)" stroke-width="1px"></line></g></g><g transform="translate(40, 0)" clip-path="url(#clip_0)"><clipPath id="clip_0"><rect width="817" height="377"></rect></clipPath><g><g><g><line x1="0" y1="0" x2="0" y2="377" fill="rgb(0, 0, 0)" stroke="rgb(66, 66, 66)" stroke-width="1px" opacity="0.25"></line><line x1="68.15275" y1="0" x2="68.15275" y2="377" fill="rgb(0, 0, 0)" stroke="rgb(66, 66, 66)" stroke-width="1px" opacity="0.25"></line><line x1="136.3055" y1="0" x2="136.3055" y2="377" fill="rgb(0, 0, 0)" stroke="rgb(66, 66, 66)" stroke-width="1px" opacity="0.25"></line><line x1="204.45825" y1="0" x2="204.45825" y2="377" fill="rgb(0, 0, 0)" stroke="rgb(66, 66, 66)" stroke-width="1px" opacity="0.25"></line><line x1="272.611" y1="0" x2="272.611" y2="377" fill="rgb(0, 0, 0)" stroke="rgb(66, 66, 66)" stroke-width="1px" opacity="0.25"></line><line x1="340.76375" y1="0" x2="340.76375" y2="377" fill="rgb(0, 0, 0)" stroke="rgb(66, 66, 66)" stroke-width="1px" opacity="0.25"></line><line x1="408.9165" y1="0" x2="408.9165" y2="377" fill="rgb(0, 0, 0)" stroke="rgb(66, 66, 66)" stroke-width="1px" opacity="0.25"></line><line x1="477.06925" y1="0" x2="477.06925" y2="377" fill="rgb(0, 0, 0)" stroke="rgb(66, 66, 66)" stroke-width="1px" opacity="0.25"></line><line x1="545.222" y1="0" x2="545.222" y2="377" fill="rgb(0, 0, 0)" stroke="rgb(66, 66, 66)" stroke-width="1px" opacity="0.25"></line><line x1="613.37475" y1="0" x2="613.37475" y2="377" fill="rgb(0, 0, 0)" stroke="rgb(66, 66, 66)" stroke-width="1px" opacity="0.25"></line><line x1="681.5275" y1="0" x2="681.5275" y2="377" fill="rgb(0, 0, 0)" stroke="rgb(66, 66, 66)" stroke-width="1px" opacity="0.25"></line><line x1="749.6802499999999" y1="0" x2="749.6802499999999" y2="377" fill="rgb(0, 0, 0)" stroke="rgb(66, 66, 66)" stroke-width="1px" opacity="0.25"></line><line x1="817.833" y1="0" x2="817.833" y2="377" fill="rgb(0, 0, 0)" stroke="rgb(66, 66, 66)" stroke-width="1px" opacity="0.25"></line></g><g><line x1="0" y1="377" x2="817.833" y2="377" fill="rgb(0, 0, 0)" stroke="rgb(66, 66, 66)" stroke-width="1px" opacity="0.25"></line><line x1="0" y1="335.1111111111111" x2="817.833" y2="335.1111111111111" fill="rgb(0, 0, 0)" stroke="rgb(66, 66, 66)" stroke-width="1px" opacity="0.25"></line><line x1="0" y1="293.22222222222223" x2="817.833" y2="293.22222222222223" fill="rgb(0, 0, 0)" stroke="rgb(66, 66, 66)" stroke-width="1px" opacity="0.25"></line><line x1="0" y1="251.33333333333337" x2="817.833" y2="251.33333333333337" fill="rgb(0, 0, 0)" stroke="rgb(66, 66, 66)" stroke-width="1px" opacity="0.25"></line><line x1="0" y1="209.44444444444446" x2="817.833" y2="209.44444444444446" fill="rgb(0, 0, 0)" stroke="rgb(66, 66, 66)" stroke-width="1px" opacity="0.25"></line><line x1="0" y1="167.55555555555554" x2="817.833" y2="167.55555555555554" fill="rgb(0, 0, 0)" stroke="rgb(66, 66, 66)" stroke-width="1px" opacity="0.25"></line><line x1="0" y1="125.66666666666669" x2="817.833" y2="125.66666666666669" fill="rgb(0, 0, 0)" stroke="rgb(66, 66, 66)" stroke-width="1px" opacity="0.25"></line><line x1="0" y1="83.77777777777781" x2="817.833" y2="83.77777777777781" fill="rgb(0, 0, 0)" stroke="rgb(66, 66, 66)" stroke-width="1px" opacity="0.25"></line><line x1="0" y1="41.888888888888864" x2="817.833" y2="41.888888888888864" fill="rgb(0, 0, 0)" stroke="rgb(66, 66, 66)" stroke-width="1px" opacity="0.25"></line><line x1="0" y1="0" x2="817.833" y2="0" fill="rgb(0, 0, 0)" stroke="rgb(66, 66, 66)" stroke-width="1px" opacity="0.25"></line></g></g></g><g><g><line x1="0" y1="377" x2="817.833" y2="377" fill="rgb(0, 0, 0)" stroke="rgb(153, 153, 153)" stroke-width="1.5px"></line></g></g><g><g><line x1="68.15275" y1="0" x2="68.15275" y2="377" fill="rgb(0, 0, 0)" stroke="rgb(153, 153, 153)" stroke-width="1.5px"></line></g></g><g><g><g><g><g><path stroke="rgb(255, 112, 67)" stroke-width="2px" d="M68.15275,346.45601955884035L74.968025,341.5471642218116L81.7833,333.58836381184676L88.598575,339.1007573197054L95.41385,336.61332865096716L102.229125,337.44766436551606L109.0444,328.4057619976719L115.859675,321.3701942508963L122.67495,314.2279171300989L129.49022499999998,304.5453336940772L136.3055,283.5333745242569L143.12077499999998,264.6780535273306L149.93605,248.49773486981377L156.751325,230.2440578039521L163.5666,212.1416252295793L170.381875,184.5253317601784L177.19715,164.9929160497787L184.012425,141.58041222305997L190.8277,118.98159647004474L197.642975,100.1868858235741L204.45825,93.62310061324126L211.273525,73.80184487858197L218.0888,61.90925840918199L224.904075,57.915440199653176L231.71935,46.79228805190545L238.534625,36.10405963429417L245.3499,22.18602865188119L252.165175,16.104207380521895L258.98044999999996,18.912991089414657L265.795725,26.183441745880106L272.611,17.80451037797253L279.426275,140.88734531925584L286.24154999999996,229.22361532155222L293.056825,278.2110227396203L299.8721,308.99976252926496L306.687375,327.47300606431236L313.50265,338.55695206339465L320.317925,345.20731961894336L327.1332,349.19754013646843L333.948475,351.59167244129395L340.76375,353.02815182214096L347.579025,353.89003944991185L354.3943,354.40717202630896L361.209575,354.71745157205163L368.02485,354.90361929946283L374.84012499999994,355.0153199358972L381.6554,355.08234031775334L388.47067499999997,355.1225525468654L395.28595,355.14667988433206L402.10122499999994,355.1611562868119L408.9165,355.1698421282997L415.73177499999997,355.17505363319236L422.54705,355.1781805361279L429.362325,355.18005667788924L436.1776,355.18118236294606L442.99287499999997,355.18185777398014L449.80815,355.1822630206006L456.623425,355.18250616857284L463.4387,355.1826520573562L470.25397499999997,355.1827395906262L477.06925,355.18279211058825L483.884525,355.1828236225654L490.6998,355.1828425297518L497.51507499999997,355.1828538740636L504.33035,355.18286068065066L511.145625,355.1828647646029L517.9608999999999,355.18286721497424L524.776175,355.1828686851971L531.59145,355.1828695673308L538.4067249999999,355.18287009661094L545.222,355.1828704141791L552.037275,355.18287060472L558.85255,355.18287071904444L565.667825,355.1828707876392L572.4830999999999,355.18287082879607L579.298375,355.18287085349016L586.11365,355.18287086830657L592.9289249999999,355.1828708771965L599.7442,356.2300927302367L606.559475,356.16027773552565L613.37475,356.46746310406314L620.190025,355.60455185328624L627.0053,355.08680510282005L633.820575,354.7761570525404L640.63585,354.5897682223726L647.4511249999999,354.4779349242719L654.2664,354.41083494541147L661.081675,354.3705749580952L667.89695,354.3464189657054L674.712225,354.3319253702716L681.5275,354.32322921301125L688.342775,354.3180115186551L695.15805,354.3148809020414L701.9733249999999,354.31300253207314L708.7886,354.31187551009225L715.603875,354.3111992969037L722.41915,354.3107935689905L729.234425,356.05592071067736L736.0497,355.70670078261895L742.864975,355.14809446041966L749.6802499999999,354.81293066710015L756.495525,354.6118323911084L763.3108,354.49117342551335" style="fill: none;" fill="none"></path></g></g></g></g><g opacity="0.2"><g><g><g><path stroke="rgb(255, 112, 67)" stroke-width="2px" d="M68.15275,346.45601955884035L74.968025,338.6018510195944L81.7833,325.9479154182805L88.598575,345.5833320849472L95.41385,333.3657417810625L102.229125,338.6018510195944L109.0444,315.47569694121677L115.859675,311.11226893464726L122.67495,303.69444569283064L129.49022499999998,290.167825738589L136.3055,252.2060126927164L143.12077499999998,236.4976818561554L149.93605,224.28008843130533L156.751325,202.89930305878323L163.5666,185.00925509797202L170.381875,143.12036870585547L177.19715,135.70255794790057L184.012425,106.46760091516705L190.8277,85.08681554264494L197.642975,71.99653776486717L204.45825,83.77778277132245L211.273525,44.070613503456116L218.0888,44.070613503456116L224.904075,51.92476019594403L231.71935,30.107638888888907L238.534625,20.071762588289058L245.3499,1.3090177906884133L252.165175,6.981484810511285L258.98044999999996,23.12616406546698L265.795725,37.08911371231079L272.611,5.236116104655814L279.426275,325.5115732418166L286.24154999999996,361.7280097794202L293.056825,351.6921303578549L299.8721,355.18287089053126L306.687375,355.18287089053126L313.50265,355.18287089053126L320.317925,355.18287089053126L327.1332,355.18287089053126L333.948475,355.18287089053126L340.76375,355.18287089053126L347.579025,355.18287089053126L354.3943,355.18287089053126L361.209575,355.18287089053126L368.02485,355.18287089053126L374.84012499999994,355.18287089053126L381.6554,355.18287089053126L388.47067499999997,355.18287089053126L395.28595,355.18287089053126L402.10122499999994,355.18287089053126L408.9165,355.18287089053126L415.73177499999997,355.18287089053126L422.54705,355.18287089053126L429.362325,355.18287089053126L436.1776,355.18287089053126L442.99287499999997,355.18287089053126L449.80815,355.18287089053126L456.623425,355.18287089053126L463.4387,355.18287089053126L470.25397499999997,355.18287089053126L477.06925,355.18287089053126L483.884525,355.18287089053126L490.6998,355.18287089053126L497.51507499999997,355.18287089053126L504.33035,355.18287089053126L511.145625,355.18287089053126L517.9608999999999,355.18287089053126L524.776175,355.18287089053126L531.59145,355.18287089053126L538.4067249999999,355.18287089053126L545.222,355.18287089053126L552.037275,355.18287089053126L558.85255,355.18287089053126L565.667825,355.18287089053126L572.4830999999999,355.18287089053126L579.298375,355.18287089053126L586.11365,355.18287089053126L592.9289249999999,355.18287089053126L599.7442,357.8009255097972L606.559475,356.055555243459L613.37475,356.9282411568695L620.190025,354.3101849771208L627.0053,354.3101849771208L633.820575,354.3101849771208L640.63585,354.3101849771208L647.4511249999999,354.3101849771208L654.2664,354.3101849771208L661.081675,354.3101849771208L667.89695,354.3101849771208L674.712225,354.3101849771208L681.5275,354.3101849771208L688.342775,354.3101849771208L695.15805,354.3101849771208L701.9733249999999,354.3101849771208L708.7886,354.3101849771208L715.603875,354.3101849771208L722.41915,354.3101849771208L729.234425,358.67361142320766L736.0497,355.18287089053126L742.864975,354.3101849771208L749.6802499999999,354.3101849771208L756.495525,354.3101849771208L763.3108,354.3101849771208" style="fill: none;" fill="none"></path></g></g></g></g></g></g><g transform="translate(40, 377)" clip-path="url(#clip_1)"><clipPath id="clip_1"><rect width="817" height="23"></rect></clipPath><g><g><line x1="0" y1="0" x2="0" y2="5" style="visibility: inherit;" fill="rgb(0, 0, 0)" stroke="rgb(204, 204, 204)" stroke-width="1px"></line><line x1="68.15275" y1="0" x2="68.15275" y2="5" style="visibility: inherit;" fill="rgb(0, 0, 0)" stroke="rgb(204, 204, 204)" stroke-width="1px"></line><line x1="136.3055" y1="0" x2="136.3055" y2="5" style="visibility: inherit;" fill="rgb(0, 0, 0)" stroke="rgb(204, 204, 204)" stroke-width="1px"></line><line x1="204.45825" y1="0" x2="204.45825" y2="5" style="visibility: inherit;" fill="rgb(0, 0, 0)" stroke="rgb(204, 204, 204)" stroke-width="1px"></line><line x1="272.611" y1="0" x2="272.611" y2="5" style="visibility: inherit;" fill="rgb(0, 0, 0)" stroke="rgb(204, 204, 204)" stroke-width="1px"></line><line x1="340.76375" y1="0" x2="340.76375" y2="5" style="visibility: inherit;" fill="rgb(0, 0, 0)" stroke="rgb(204, 204, 204)" stroke-width="1px"></line><line x1="408.9165" y1="0" x2="408.9165" y2="5" style="visibility: inherit;" fill="rgb(0, 0, 0)" stroke="rgb(204, 204, 204)" stroke-width="1px"></line><line x1="477.06925" y1="0" x2="477.06925" y2="5" style="visibility: inherit;" fill="rgb(0, 0, 0)" stroke="rgb(204, 204, 204)" stroke-width="1px"></line><line x1="545.222" y1="0" x2="545.222" y2="5" style="visibility: inherit;" fill="rgb(0, 0, 0)" stroke="rgb(204, 204, 204)" stroke-width="1px"></line><line x1="613.37475" y1="0" x2="613.37475" y2="5" style="visibility: inherit;" fill="rgb(0, 0, 0)" stroke="rgb(204, 204, 204)" stroke-width="1px"></line><line x1="681.5275" y1="0" x2="681.5275" y2="5" style="visibility: inherit;" fill="rgb(0, 0, 0)" stroke="rgb(204, 204, 204)" stroke-width="1px"></line><line x1="749.6802499999999" y1="0" x2="749.6802499999999" y2="5" style="visibility: inherit;" fill="rgb(0, 0, 0)" stroke="rgb(204, 204, 204)" stroke-width="1px"></line><line x1="817.833" y1="0" x2="817.833" y2="5" style="visibility: inherit;" fill="rgb(0, 0, 0)" stroke="rgb(204, 204, 204)" stroke-width="1px"></line></g><g transform="translate(0, 8)"><text x="0" y="0" dx="0em" dy="0.95em" style="text-anchor: middle; visibility: hidden; font-family: Roboto, sans-serif; font-size: 12px; font-weight: 200;" fill="rgb(33, 33, 33)" stroke="none" stroke-width="1px">-10</text><text x="68.15275" y="0" dx="0em" dy="0.95em" style="text-anchor: middle; visibility: inherit; font-family: Roboto, sans-serif; font-size: 12px; font-weight: 200;" fill="rgb(33, 33, 33)" stroke="none" stroke-width="1px">0</text><text x="136.3055" y="0" dx="0em" dy="0.95em" style="text-anchor: middle; visibility: inherit; font-family: Roboto, sans-serif; font-size: 12px; font-weight: 200;" fill="rgb(33, 33, 33)" stroke="none" stroke-width="1px">10</text><text x="204.45825" y="0" dx="0em" dy="0.95em" style="text-anchor: middle; visibility: inherit; font-family: Roboto, sans-serif; font-size: 12px; font-weight: 200;" fill="rgb(33, 33, 33)" stroke="none" stroke-width="1px">20</text><text x="272.611" y="0" dx="0em" dy="0.95em" style="text-anchor: middle; visibility: inherit; font-family: Roboto, sans-serif; font-size: 12px; font-weight: 200;" fill="rgb(33, 33, 33)" stroke="none" stroke-width="1px">30</text><text x="340.76375" y="0" dx="0em" dy="0.95em" style="text-anchor: middle; visibility: inherit; font-family: Roboto, sans-serif; font-size: 12px; font-weight: 200;" fill="rgb(33, 33, 33)" stroke="none" stroke-width="1px">40</text><text x="408.9165" y="0" dx="0em" dy="0.95em" style="text-anchor: middle; visibility: inherit; font-family: Roboto, sans-serif; font-size: 12px; font-weight: 200;" fill="rgb(33, 33, 33)" stroke="none" stroke-width="1px">50</text><text x="477.06925" y="0" dx="0em" dy="0.95em" style="text-anchor: middle; visibility: inherit; font-family: Roboto, sans-serif; font-size: 12px; font-weight: 200;" fill="rgb(33, 33, 33)" stroke="none" stroke-width="1px">60</text><text x="545.222" y="0" dx="0em" dy="0.95em" style="text-anchor: middle; visibility: inherit; font-family: Roboto, sans-serif; font-size: 12px; font-weight: 200;" fill="rgb(33, 33, 33)" stroke="none" stroke-width="1px">70</text><text x="613.37475" y="0" dx="0em" dy="0.95em" style="text-anchor: middle; visibility: inherit; font-family: Roboto, sans-serif; font-size: 12px; font-weight: 200;" fill="rgb(33, 33, 33)" stroke="none" stroke-width="1px">80</text><text x="681.5275" y="0" dx="0em" dy="0.95em" style="text-anchor: middle; visibility: inherit; font-family: Roboto, sans-serif; font-size: 12px; font-weight: 200;" fill="rgb(33, 33, 33)" stroke="none" stroke-width="1px">90</text><text x="749.6802499999999" y="0" dx="0em" dy="0.95em" style="text-anchor: middle; visibility: inherit; font-family: Roboto, sans-serif; font-size: 12px; font-weight: 200;" fill="rgb(33, 33, 33)" stroke="none" stroke-width="1px">100</text><text x="817.833" y="0" dx="0em" dy="0.95em" style="text-anchor: middle; visibility: hidden; font-family: Roboto, sans-serif; font-size: 12px; font-weight: 200;" fill="rgb(33, 33, 33)" stroke="none" stroke-width="1px">110</text></g><line x1="0" y1="0" x2="817.833" y2="0" fill="rgb(0, 0, 0)" stroke="rgb(204, 204, 204)" stroke-width="1px"></line></g></g></g></g></svg>