<svg viewBox="0 0 857.8333740234375 400" xmlns="http://www.w3.org/2000/svg"><g><g><g><g><g><line x1="60" y1="377" x2="55" y2="377" style="visibility: inherit;" fill="rgb(0, 0, 0)" stroke="rgb(204, 204, 204)" stroke-width="1px"></line><line x1="60" y1="329.875" x2="55" y2="329.875" style="visibility: inherit;" fill="rgb(0, 0, 0)" stroke="rgb(204, 204, 204)" stroke-width="1px"></line><line x1="60" y1="282.75" x2="55" y2="282.75" style="visibility: inherit;" fill="rgb(0, 0, 0)" stroke="rgb(204, 204, 204)" stroke-width="1px"></line><line x1="60" y1="235.625" x2="55" y2="235.625" style="visibility: inherit;" fill="rgb(0, 0, 0)" stroke="rgb(204, 204, 204)" stroke-width="1px"></line><line x1="60" y1="188.5" x2="55" y2="188.5" style="visibility: inherit;" fill="rgb(0, 0, 0)" stroke="rgb(204, 204, 204)" stroke-width="1px"></line><line x1="60" y1="141.375" x2="55" y2="141.375" style="visibility: inherit;" fill="rgb(0, 0, 0)" stroke="rgb(204, 204, 204)" stroke-width="1px"></line><line x1="60" y1="94.25" x2="55" y2="94.25" style="visibility: inherit;" fill="rgb(0, 0, 0)" stroke="rgb(204, 204, 204)" stroke-width="1px"></line><line x1="60" y1="47.125" x2="55" y2="47.125" style="visibility: inherit;" fill="rgb(0, 0, 0)" stroke="rgb(204, 204, 204)" stroke-width="1px"></line><line x1="60" y1="0" x2="55" y2="0" style="visibility: inherit;" fill="rgb(0, 0, 0)" stroke="rgb(204, 204, 204)" stroke-width="1px"></line></g><g transform="translate(50, 0)"><text x="0" y="377" dx="0em" dy="0.3em" style="text-anchor: end; visibility: hidden; font-family: Roboto, sans-serif; font-size: 12px; font-weight: 200;" fill="rgb(33, 33, 33)" stroke="none" stroke-width="1px">-1e+7</text><text x="0" y="329.875" dx="0em" dy="0.3em" style="text-anchor: end; visibility: inherit; font-family: Roboto, sans-serif; font-size: 12px; font-weight: 200;" fill="rgb(33, 33, 33)" stroke="none" stroke-width="1px">0</text><text x="0" y="282.75" dx="0em" dy="0.3em" style="text-anchor: end; visibility: inherit; font-family: Roboto, sans-serif; font-size: 12px; font-weight: 200;" fill="rgb(33, 33, 33)" stroke="none" stroke-width="1px">1e+7</text><text x="0" y="235.625" dx="0em" dy="0.3em" style="text-anchor: end; visibility: inherit; font-family: Roboto, sans-serif; font-size: 12px; font-weight: 200;" fill="rgb(33, 33, 33)" stroke="none" stroke-width="1px">2e+7</text><text x="0" y="188.5" dx="0em" dy="0.3em" style="text-anchor: end; visibility: inherit; font-family: Roboto, sans-serif; font-size: 12px; font-weight: 200;" fill="rgb(33, 33, 33)" stroke="none" stroke-width="1px">3e+7</text><text x="0" y="141.375" dx="0em" dy="0.3em" style="text-anchor: end; visibility: inherit; font-family: Roboto, sans-serif; font-size: 12px; font-weight: 200;" fill="rgb(33, 33, 33)" stroke="none" stroke-width="1px">4e+7</text><text x="0" y="94.25" dx="0em" dy="0.3em" style="text-anchor: end; visibility: inherit; font-family: Roboto, sans-serif; font-size: 12px; font-weight: 200;" fill="rgb(33, 33, 33)" stroke="none" stroke-width="1px">5e+7</text><text x="0" y="47.125" dx="0em" dy="0.3em" style="text-anchor: end; visibility: inherit; font-family: Roboto, sans-serif; font-size: 12px; font-weight: 200;" fill="rgb(33, 33, 33)" stroke="none" stroke-width="1px">6e+7</text><text x="0" y="0" dx="0em" dy="0.3em" style="text-anchor: end; visibility: hidden; font-family: Roboto, sans-serif; font-size: 12px; font-weight: 200;" fill="rgb(33, 33, 33)" stroke="none" stroke-width="1px">7e+7</text></g><line x1="60" y1="0" x2="60" y2="377" fill="rgb(0, 0, 0)" stroke="rgb(204, 204, 204)" stroke-width="1px"></line></g></g><g transform="translate(60, 0)" clip-path="url(#clip_0)"><clipPath id="clip_0"><rect width="797" height="377"></rect></clipPath><g><g><g><line x1="0" y1="0" x2="0" y2="377" fill="rgb(0, 0, 0)" stroke="rgb(66, 66, 66)" stroke-width="1px" opacity="0.25"></line><line x1="66.48608333333333" y1="0" x2="66.48608333333333" y2="377" fill="rgb(0, 0, 0)" stroke="rgb(66, 66, 66)" stroke-width="1px" opacity="0.25"></line><line x1="132.97216666666665" y1="0" x2="132.97216666666665" y2="377" fill="rgb(0, 0, 0)" stroke="rgb(66, 66, 66)" stroke-width="1px" opacity="0.25"></line><line x1="199.45825" y1="0" x2="199.45825" y2="377" fill="rgb(0, 0, 0)" stroke="rgb(66, 66, 66)" stroke-width="1px" opacity="0.25"></line><line x1="265.9443333333333" y1="0" x2="265.9443333333333" y2="377" fill="rgb(0, 0, 0)" stroke="rgb(66, 66, 66)" stroke-width="1px" opacity="0.25"></line><line x1="332.43041666666664" y1="0" x2="332.43041666666664" y2="377" fill="rgb(0, 0, 0)" stroke="rgb(66, 66, 66)" stroke-width="1px" opacity="0.25"></line><line x1="398.9165" y1="0" x2="398.9165" y2="377" fill="rgb(0, 0, 0)" stroke="rgb(66, 66, 66)" stroke-width="1px" opacity="0.25"></line><line x1="465.4025833333333" y1="0" x2="465.4025833333333" y2="377" fill="rgb(0, 0, 0)" stroke="rgb(66, 66, 66)" stroke-width="1px" opacity="0.25"></line><line x1="531.8886666666666" y1="0" x2="531.8886666666666" y2="377" fill="rgb(0, 0, 0)" stroke="rgb(66, 66, 66)" stroke-width="1px" opacity="0.25"></line><line x1="598.37475" y1="0" x2="598.37475" y2="377" fill="rgb(0, 0, 0)" stroke="rgb(66, 66, 66)" stroke-width="1px" opacity="0.25"></line><line x1="664.8608333333333" y1="0" x2="664.8608333333333" y2="377" fill="rgb(0, 0, 0)" stroke="rgb(66, 66, 66)" stroke-width="1px" opacity="0.25"></line><line x1="731.3469166666666" y1="0" x2="731.3469166666666" y2="377" fill="rgb(0, 0, 0)" stroke="rgb(66, 66, 66)" stroke-width="1px" opacity="0.25"></line><line x1="797.833" y1="0" x2="797.833" y2="377" fill="rgb(0, 0, 0)" stroke="rgb(66, 66, 66)" stroke-width="1px" opacity="0.25"></line></g><g><line x1="0" y1="377" x2="797.833" y2="377" fill="rgb(0, 0, 0)" stroke="rgb(66, 66, 66)" stroke-width="1px" opacity="0.25"></line><line x1="0" y1="329.875" x2="797.833" y2="329.875" fill="rgb(0, 0, 0)" stroke="rgb(66, 66, 66)" stroke-width="1px" opacity="0.25"></line><line x1="0" y1="282.75" x2="797.833" y2="282.75" fill="rgb(0, 0, 0)" stroke="rgb(66, 66, 66)" stroke-width="1px" opacity="0.25"></line><line x1="0" y1="235.625" x2="797.833" y2="235.625" fill="rgb(0, 0, 0)" stroke="rgb(66, 66, 66)" stroke-width="1px" opacity="0.25"></line><line x1="0" y1="188.5" x2="797.833" y2="188.5" fill="rgb(0, 0, 0)" stroke="rgb(66, 66, 66)" stroke-width="1px" opacity="0.25"></line><line x1="0" y1="141.375" x2="797.833" y2="141.375" fill="rgb(0, 0, 0)" stroke="rgb(66, 66, 66)" stroke-width="1px" opacity="0.25"></line><line x1="0" y1="94.25" x2="797.833" y2="94.25" fill="rgb(0, 0, 0)" stroke="rgb(66, 66, 66)" stroke-width="1px" opacity="0.25"></line><line x1="0" y1="47.125" x2="797.833" y2="47.125" fill="rgb(0, 0, 0)" stroke="rgb(66, 66, 66)" stroke-width="1px" opacity="0.25"></line><line x1="0" y1="0" x2="797.833" y2="0" fill="rgb(0, 0, 0)" stroke="rgb(66, 66, 66)" stroke-width="1px" opacity="0.25"></line></g></g></g><g><g><line x1="0" y1="329.875" x2="797.833" y2="329.875" fill="rgb(0, 0, 0)" stroke="rgb(153, 153, 153)" stroke-width="1.5px"></line></g></g><g><g><line x1="66.48608333333333" y1="0" x2="66.48608333333333" y2="377" fill="rgb(0, 0, 0)" stroke="rgb(153, 153, 153)" stroke-width="1.5px"></line></g></g><g><g><g><g><g><path stroke="rgb(255, 112, 67)" stroke-width="2px" d="M66.48608333333333,329.8749851164622L73.13469166666665,329.8749856706541L79.7833,329.87498549221766L86.43190833333334,329.8749858904235L93.08051666666667,329.8749828861945L99.729125,329.8749842983328L106.37773333333332,329.8749853069085L113.02634166666665,329.8749862391346L119.67495,329.8749868753367L126.32355833333332,329.87498751286654L132.97216666666665,329.8749883407423L139.62077499999998,329.87498914101076L146.2693833333333,329.87498992554237L152.91799166666667,329.87499061643746L159.5666,329.87499130770453L166.21520833333332,329.8749922904354L172.86381666666668,329.8749930959467L179.512425,329.87499380083955L186.16103333333334,329.87499460243464L192.80964166666666,329.87499530080294L199.45825,329.87499548869874L206.10685833333335,329.8749961943482L212.75546666666665,329.87499660946247L219.404075,329.8749967459617L226.0526833333333,329.8749971333329L232.70129166666666,329.87499740253594L239.3499,329.87499784350246L245.99850833333335,329.87499806805744L252.64711666666665,329.87499792009396L259.295725,329.87499762109854L265.9443333333333,329.87499793139597L272.59294166666666,-5229.286614875996L305.83598333333333,-178.91022123903878L312.48459166666663,24.603862361228988L319.1332,146.71231203816885L325.7818083333333,219.9773816706004L332.43041666666664,263.93642338766364L339.079025,290.3118483956398L345.72763333333336,306.1371033924739L352.37624166666666,315.63225638796234L359.02485,321.3293481845145L365.6734583333333,324.74760326237373L372.3220666666667,326.7985563091043L378.97067499999997,328.0291281372751L385.6192833333333,328.7674712342983L392.2678916666666,329.2104770928434L398.9165,329.4762806081034L405.5651083333333,329.6357627174015L412.2137166666667,329.731451983163L418.862325,329.78886554283866L425.5109333333333,329.8233136787806L432.1595416666666,329.84398256048195L438.80815,329.85638388968385L445.4567583333333,329.8638246871731L452.1053666666666,329.86828916582573L458.75397499999997,329.87096785315305L465.4025833333333,329.87257506567437L472.0511916666667,329.8735393932914L478.6998,329.874117989996L485.3484083333333,329.87446514812893L491.9970166666667,329.8746734431237L498.645625,329.87479842011203L505.2942333333333,329.8748734062277L511.9428416666667,329.8749183981106L518.59145,329.8749453932759L525.2400583333333,329.8749615905274L531.8886666666666,329.8749713089057L538.537275,329.8749771398122L545.1858833333333,329.87498063863296L551.8344916666666,329.8749827378989L558.4830999999999,329.8749839975385L565.1317083333333,329.8749847533676L571.7803166666666,329.87498520685426L578.4289249999999,329.8749854790515L585.0775333333332,329.87498564239536L591.7261416666666,329.8749857404112L598.37475,329.8749857991699L605.0233583333332,329.87498583462553L611.6719666666667,329.8749858559313L618.320575,329.87498586874176L624.9691833333333,329.8749858764122L631.6177916666666,329.8749858810388L638.2664,329.87498588374604L644.9150083333333,329.8749858855465L651.5636166666666,329.87498588653955L658.212225,329.874985887202L664.8608333333333,329.8749858876093L671.5094416666667,329.8749858878442L678.15805,329.87498588796586L684.8066583333333,329.87498588813907L691.4552666666667,329.87498588828703L698.103875,329.8749858883138L704.7524833333333,329.87498588833347L711.4010916666667,329.87498588828055L718.0497,329.87498588818363L724.6983083333333,329.8749858882953L731.3469166666666,329.8749858883484L737.995525,329.87498588831784L744.6441333333333,329.87498588840555" style="fill: none;" fill="none"></path></g></g></g></g><g opacity="0.2"><g><g><g><path stroke="rgb(255, 112, 67)" stroke-width="2px" d="M66.48608333333333,329.8749851164622L73.13469166666665,329.8749860031693L79.7833,329.8749853209186L86.43190833333334,329.87498635871367L93.08051666666667,329.87497896387305L99.729125,329.8749862518283L106.37773333333332,329.874986749188L113.02634166666665,329.87498759832926L119.67495,329.8749878136111L126.32355833333332,329.874988459524L132.97216666666665,329.87498957504715L139.62077499999998,329.8749903370585L146.2693833333333,329.87499109977813L152.91799166666667,329.8749916514265L159.5666,329.8749923437925L166.21520833333332,329.87499376383863L172.86381666666668,329.8749943038729L179.512425,329.8749948579998L186.16103333333334,329.8749958047052L192.80964166666666,329.8749963482915L199.45825,329.8749957705322L206.10685833333335,329.8749972527993L212.75546666666665,329.87499723212574L219.404075,329.8749969507088L226.0526833333333,329.874997714387L232.70129166666666,329.8749978063394L239.3499,329.874998504951L245.99850833333335,329.87499840488954L252.64711666666665,329.87499769814895L259.295725,329.8749971726055L265.9443333333333,329.87499839684205L272.59294166666666,-13568.027928L279.24154999999996,-1135.4104475999998L285.8901583333333,323.57364999375L292.5387666666666,329.87498587024686L299.187375,329.87498587076595L305.83598333333333,329.87498587126703L312.48459166666663,329.87498587241305L319.1332,329.8749858734602L325.7818083333333,329.8749858744051L332.43041666666664,329.87498587511516L339.079025,329.8749858758725L345.72763333333336,329.87498587630165L352.37624166666666,329.8749858770825L359.02485,329.8749858778623L365.6734583333333,329.8749858786297L372.3220666666667,329.87498587900825L378.97067499999997,329.8749858794622L385.6192833333333,329.87498587980826L392.2678916666666,329.87498588065205L398.9165,329.8749858809902L405.5651083333333,329.87498588134747L412.2137166666667,329.87498588180483L418.862325,329.87498588235195L425.5109333333333,329.8749858826935L432.1595416666666,329.87498588303396L438.80815,329.8749858834867L445.4567583333333,329.87498588340696L452.1053666666666,329.8749858838047L458.75397499999997,329.874985884144L465.4025833333333,329.87498588445635L472.0511916666667,329.87498588471703L478.6998,329.874985885053L485.3484083333333,329.8749858853282L491.9970166666667,329.87498588561584L498.645625,329.8749858855945L505.2942333333333,329.87498588540126L511.9428416666667,329.8749858859349L518.59145,329.8749858860237L525.2400583333333,329.8749858864046L531.8886666666666,329.87498588647316L538.537275,329.874985886172L545.1858833333333,329.8749858868641L551.8344916666666,329.87498588679784L558.4830999999999,329.8749858869978L565.1317083333333,329.87498588711134L571.7803166666666,329.87498588708434L578.4289249999999,329.87498588734724L585.0775333333332,329.8749858874113L591.7261416666666,329.8749858874349L598.37475,329.87498588730796L605.0233583333332,329.87498588780903L611.6719666666667,329.8749858878899L618.320575,329.87498588795734L624.9691833333333,329.87498588791806L631.6177916666666,329.8749858879787L638.2664,329.87498588780676L644.9150083333333,329.87498588824724L651.5636166666666,329.87498588802924L658.212225,329.87498588819557L664.8608333333333,329.87498588822024L671.5094416666667,329.87498588819665L678.15805,329.87498588814833L684.8066583333333,329.8749858883989L691.4552666666667,329.874985888509L698.103875,329.874985888354L704.7524833333333,329.87498588836297L711.4010916666667,329.87498588820114L718.0497,329.8749858880382L724.6983083333333,329.8749858884629L731.3469166666666,329.8749858884281L737.995525,329.8749858882719L744.6441333333333,329.8749858885371" style="fill: none;" fill="none"></path></g></g></g></g></g><g><g opacity="0.620189"><span fill="rgb(0, 0, 0)" stroke="none" stroke-width="1px">Alt + Scroll to Zoom</span></g></g></g><g transform="translate(60, 377)" clip-path="url(#clip_1)"><clipPath id="clip_1"><rect width="797" height="23"></rect></clipPath><g><g><line x1="0" y1="0" x2="0" y2="5" style="visibility: inherit;" fill="rgb(0, 0, 0)" stroke="rgb(204, 204, 204)" stroke-width="1px"></line><line x1="66.48608333333333" y1="0" x2="66.48608333333333" y2="5" style="visibility: inherit;" fill="rgb(0, 0, 0)" stroke="rgb(204, 204, 204)" stroke-width="1px"></line><line x1="132.97216666666665" y1="0" x2="132.97216666666665" y2="5" style="visibility: inherit;" fill="rgb(0, 0, 0)" stroke="rgb(204, 204, 204)" stroke-width="1px"></line><line x1="199.45825" y1="0" x2="199.45825" y2="5" style="visibility: inherit;" fill="rgb(0, 0, 0)" stroke="rgb(204, 204, 204)" stroke-width="1px"></line><line x1="265.9443333333333" y1="0" x2="265.9443333333333" y2="5" style="visibility: inherit;" fill="rgb(0, 0, 0)" stroke="rgb(204, 204, 204)" stroke-width="1px"></line><line x1="332.43041666666664" y1="0" x2="332.43041666666664" y2="5" style="visibility: inherit;" fill="rgb(0, 0, 0)" stroke="rgb(204, 204, 204)" stroke-width="1px"></line><line x1="398.9165" y1="0" x2="398.9165" y2="5" style="visibility: inherit;" fill="rgb(0, 0, 0)" stroke="rgb(204, 204, 204)" stroke-width="1px"></line><line x1="465.4025833333333" y1="0" x2="465.4025833333333" y2="5" style="visibility: inherit;" fill="rgb(0, 0, 0)" stroke="rgb(204, 204, 204)" stroke-width="1px"></line><line x1="531.8886666666666" y1="0" x2="531.8886666666666" y2="5" style="visibility: inherit;" fill="rgb(0, 0, 0)" stroke="rgb(204, 204, 204)" stroke-width="1px"></line><line x1="598.37475" y1="0" x2="598.37475" y2="5" style="visibility: inherit;" fill="rgb(0, 0, 0)" stroke="rgb(204, 204, 204)" stroke-width="1px"></line><line x1="664.8608333333333" y1="0" x2="664.8608333333333" y2="5" style="visibility: inherit;" fill="rgb(0, 0, 0)" stroke="rgb(204, 204, 204)" stroke-width="1px"></line><line x1="731.3469166666666" y1="0" x2="731.3469166666666" y2="5" style="visibility: inherit;" fill="rgb(0, 0, 0)" stroke="rgb(204, 204, 204)" stroke-width="1px"></line><line x1="797.833" y1="0" x2="797.833" y2="5" style="visibility: inherit;" fill="rgb(0, 0, 0)" stroke="rgb(204, 204, 204)" stroke-width="1px"></line></g><g transform="translate(0, 8)"><text x="0" y="0" dx="0em" dy="0.95em" style="text-anchor: middle; visibility: hidden; font-family: Roboto, sans-serif; font-size: 12px; font-weight: 200;" fill="rgb(33, 33, 33)" stroke="none" stroke-width="1px">-10</text><text x="66.48608333333333" y="0" dx="0em" dy="0.95em" style="text-anchor: middle; visibility: inherit; font-family: Roboto, sans-serif; font-size: 12px; font-weight: 200;" fill="rgb(33, 33, 33)" stroke="none" stroke-width="1px">0</text><text x="132.97216666666665" y="0" dx="0em" dy="0.95em" style="text-anchor: middle; visibility: inherit; font-family: Roboto, sans-serif; font-size: 12px; font-weight: 200;" fill="rgb(33, 33, 33)" stroke="none" stroke-width="1px">10</text><text x="199.45825" y="0" dx="0em" dy="0.95em" style="text-anchor: middle; visibility: inherit; font-family: Roboto, sans-serif; font-size: 12px; font-weight: 200;" fill="rgb(33, 33, 33)" stroke="none" stroke-width="1px">20</text><text x="265.9443333333333" y="0" dx="0em" dy="0.95em" style="text-anchor: middle; visibility: inherit; font-family: Roboto, sans-serif; font-size: 12px; font-weight: 200;" fill="rgb(33, 33, 33)" stroke="none" stroke-width="1px">30</text><text x="332.43041666666664" y="0" dx="0em" dy="0.95em" style="text-anchor: middle; visibility: inherit; font-family: Roboto, sans-serif; font-size: 12px; font-weight: 200;" fill="rgb(33, 33, 33)" stroke="none" stroke-width="1px">40</text><text x="398.9165" y="0" dx="0em" dy="0.95em" style="text-anchor: middle; visibility: inherit; font-family: Roboto, sans-serif; font-size: 12px; font-weight: 200;" fill="rgb(33, 33, 33)" stroke="none" stroke-width="1px">50</text><text x="465.4025833333333" y="0" dx="0em" dy="0.95em" style="text-anchor: middle; visibility: inherit; font-family: Roboto, sans-serif; font-size: 12px; font-weight: 200;" fill="rgb(33, 33, 33)" stroke="none" stroke-width="1px">60</text><text x="531.8886666666666" y="0" dx="0em" dy="0.95em" style="text-anchor: middle; visibility: inherit; font-family: Roboto, sans-serif; font-size: 12px; font-weight: 200;" fill="rgb(33, 33, 33)" stroke="none" stroke-width="1px">70</text><text x="598.37475" y="0" dx="0em" dy="0.95em" style="text-anchor: middle; visibility: inherit; font-family: Roboto, sans-serif; font-size: 12px; font-weight: 200;" fill="rgb(33, 33, 33)" stroke="none" stroke-width="1px">80</text><text x="664.8608333333333" y="0" dx="0em" dy="0.95em" style="text-anchor: middle; visibility: inherit; font-family: Roboto, sans-serif; font-size: 12px; font-weight: 200;" fill="rgb(33, 33, 33)" stroke="none" stroke-width="1px">90</text><text x="731.3469166666666" y="0" dx="0em" dy="0.95em" style="text-anchor: middle; visibility: inherit; font-family: Roboto, sans-serif; font-size: 12px; font-weight: 200;" fill="rgb(33, 33, 33)" stroke="none" stroke-width="1px">100</text><text x="797.833" y="0" dx="0em" dy="0.95em" style="text-anchor: middle; visibility: hidden; font-family: Roboto, sans-serif; font-size: 12px; font-weight: 200;" fill="rgb(33, 33, 33)" stroke="none" stroke-width="1px">110</text></g><line x1="0" y1="0" x2="797.833" y2="0" fill="rgb(0, 0, 0)" stroke="rgb(204, 204, 204)" stroke-width="1px"></line></g></g></g></g></svg>