<svg viewBox="0 0 857.8333740234375 400" xmlns="http://www.w3.org/2000/svg"><g><g><g><g><g><line x1="70" y1="377" x2="65" y2="377" style="visibility: inherit;" fill="rgb(0, 0, 0)" stroke="rgb(204, 204, 204)" stroke-width="1px"></line><line x1="70" y1="342.7272727272727" x2="65" y2="342.7272727272727" style="visibility: inherit;" fill="rgb(0, 0, 0)" stroke="rgb(204, 204, 204)" stroke-width="1px"></line><line x1="70" y1="308.45454545454544" x2="65" y2="308.45454545454544" style="visibility: inherit;" fill="rgb(0, 0, 0)" stroke="rgb(204, 204, 204)" stroke-width="1px"></line><line x1="70" y1="274.1818181818182" x2="65" y2="274.1818181818182" style="visibility: inherit;" fill="rgb(0, 0, 0)" stroke="rgb(204, 204, 204)" stroke-width="1px"></line><line x1="70" y1="239.9090909090909" x2="65" y2="239.9090909090909" style="visibility: inherit;" fill="rgb(0, 0, 0)" stroke="rgb(204, 204, 204)" stroke-width="1px"></line><line x1="70" y1="205.63636363636363" x2="65" y2="205.63636363636363" style="visibility: inherit;" fill="rgb(0, 0, 0)" stroke="rgb(204, 204, 204)" stroke-width="1px"></line><line x1="70" y1="171.36363636363637" x2="65" y2="171.36363636363637" style="visibility: inherit;" fill="rgb(0, 0, 0)" stroke="rgb(204, 204, 204)" stroke-width="1px"></line><line x1="70" y1="137.0909090909091" x2="65" y2="137.0909090909091" style="visibility: inherit;" fill="rgb(0, 0, 0)" stroke="rgb(204, 204, 204)" stroke-width="1px"></line><line x1="70" y1="102.81818181818181" x2="65" y2="102.81818181818181" style="visibility: inherit;" fill="rgb(0, 0, 0)" stroke="rgb(204, 204, 204)" stroke-width="1px"></line><line x1="70" y1="68.54545454545453" x2="65" y2="68.54545454545453" style="visibility: inherit;" fill="rgb(0, 0, 0)" stroke="rgb(204, 204, 204)" stroke-width="1px"></line><line x1="70" y1="34.27272727272729" x2="65" y2="34.27272727272729" style="visibility: inherit;" fill="rgb(0, 0, 0)" stroke="rgb(204, 204, 204)" stroke-width="1px"></line><line x1="70" y1="0" x2="65" y2="0" style="visibility: inherit;" fill="rgb(0, 0, 0)" stroke="rgb(204, 204, 204)" stroke-width="1px"></line></g><g transform="translate(60, 0)"><text x="0" y="377" dx="0em" dy="0.3em" style="text-anchor: end; visibility: hidden; font-family: Roboto, sans-serif; font-size: 12px; font-weight: 200;" fill="rgb(33, 33, 33)" stroke="none" stroke-width="1px">0.051</text><text x="0" y="342.7272727272727" dx="0em" dy="0.3em" style="text-anchor: end; visibility: inherit; font-family: Roboto, sans-serif; font-size: 12px; font-weight: 200;" fill="rgb(33, 33, 33)" stroke="none" stroke-width="1px">0.0515</text><text x="0" y="308.45454545454544" dx="0em" dy="0.3em" style="text-anchor: end; visibility: inherit; font-family: Roboto, sans-serif; font-size: 12px; font-weight: 200;" fill="rgb(33, 33, 33)" stroke="none" stroke-width="1px">0.052</text><text x="0" y="274.1818181818182" dx="0em" dy="0.3em" style="text-anchor: end; visibility: inherit; font-family: Roboto, sans-serif; font-size: 12px; font-weight: 200;" fill="rgb(33, 33, 33)" stroke="none" stroke-width="1px">0.0525</text><text x="0" y="239.9090909090909" dx="0em" dy="0.3em" style="text-anchor: end; visibility: inherit; font-family: Roboto, sans-serif; font-size: 12px; font-weight: 200;" fill="rgb(33, 33, 33)" stroke="none" stroke-width="1px">0.053</text><text x="0" y="205.63636363636363" dx="0em" dy="0.3em" style="text-anchor: end; visibility: inherit; font-family: Roboto, sans-serif; font-size: 12px; font-weight: 200;" fill="rgb(33, 33, 33)" stroke="none" stroke-width="1px">0.0535</text><text x="0" y="171.36363636363637" dx="0em" dy="0.3em" style="text-anchor: end; visibility: inherit; font-family: Roboto, sans-serif; font-size: 12px; font-weight: 200;" fill="rgb(33, 33, 33)" stroke="none" stroke-width="1px">0.054</text><text x="0" y="137.0909090909091" dx="0em" dy="0.3em" style="text-anchor: end; visibility: inherit; font-family: Roboto, sans-serif; font-size: 12px; font-weight: 200;" fill="rgb(33, 33, 33)" stroke="none" stroke-width="1px">0.0545</text><text x="0" y="102.81818181818181" dx="0em" dy="0.3em" style="text-anchor: end; visibility: inherit; font-family: Roboto, sans-serif; font-size: 12px; font-weight: 200;" fill="rgb(33, 33, 33)" stroke="none" stroke-width="1px">0.055</text><text x="0" y="68.54545454545453" dx="0em" dy="0.3em" style="text-anchor: end; visibility: inherit; font-family: Roboto, sans-serif; font-size: 12px; font-weight: 200;" fill="rgb(33, 33, 33)" stroke="none" stroke-width="1px">0.0555</text><text x="0" y="34.27272727272729" dx="0em" dy="0.3em" style="text-anchor: end; visibility: inherit; font-family: Roboto, sans-serif; font-size: 12px; font-weight: 200;" fill="rgb(33, 33, 33)" stroke="none" stroke-width="1px">0.056</text><text x="0" y="0" dx="0em" dy="0.3em" style="text-anchor: end; visibility: hidden; font-family: Roboto, sans-serif; font-size: 12px; font-weight: 200;" fill="rgb(33, 33, 33)" stroke="none" stroke-width="1px">0.0565</text></g><line x1="70" y1="0" x2="70" y2="377" fill="rgb(0, 0, 0)" stroke="rgb(204, 204, 204)" stroke-width="1px"></line></g></g><g transform="translate(70, 0)" clip-path="url(#clip_0)"><clipPath id="clip_0"><rect width="787" height="377"></rect></clipPath><g><g><g><line x1="0" y1="0" x2="0" y2="377" fill="rgb(0, 0, 0)" stroke="rgb(66, 66, 66)" stroke-width="1px" opacity="0.25"></line><line x1="65.65275" y1="0" x2="65.65275" y2="377" fill="rgb(0, 0, 0)" stroke="rgb(66, 66, 66)" stroke-width="1px" opacity="0.25"></line><line x1="131.3055" y1="0" x2="131.3055" y2="377" fill="rgb(0, 0, 0)" stroke="rgb(66, 66, 66)" stroke-width="1px" opacity="0.25"></line><line x1="196.95825" y1="0" x2="196.95825" y2="377" fill="rgb(0, 0, 0)" stroke="rgb(66, 66, 66)" stroke-width="1px" opacity="0.25"></line><line x1="262.611" y1="0" x2="262.611" y2="377" fill="rgb(0, 0, 0)" stroke="rgb(66, 66, 66)" stroke-width="1px" opacity="0.25"></line><line x1="328.26375" y1="0" x2="328.26375" y2="377" fill="rgb(0, 0, 0)" stroke="rgb(66, 66, 66)" stroke-width="1px" opacity="0.25"></line><line x1="393.9165" y1="0" x2="393.9165" y2="377" fill="rgb(0, 0, 0)" stroke="rgb(66, 66, 66)" stroke-width="1px" opacity="0.25"></line><line x1="459.56925" y1="0" x2="459.56925" y2="377" fill="rgb(0, 0, 0)" stroke="rgb(66, 66, 66)" stroke-width="1px" opacity="0.25"></line><line x1="525.222" y1="0" x2="525.222" y2="377" fill="rgb(0, 0, 0)" stroke="rgb(66, 66, 66)" stroke-width="1px" opacity="0.25"></line><line x1="590.87475" y1="0" x2="590.87475" y2="377" fill="rgb(0, 0, 0)" stroke="rgb(66, 66, 66)" stroke-width="1px" opacity="0.25"></line><line x1="656.5275" y1="0" x2="656.5275" y2="377" fill="rgb(0, 0, 0)" stroke="rgb(66, 66, 66)" stroke-width="1px" opacity="0.25"></line><line x1="722.1802499999999" y1="0" x2="722.1802499999999" y2="377" fill="rgb(0, 0, 0)" stroke="rgb(66, 66, 66)" stroke-width="1px" opacity="0.25"></line><line x1="787.833" y1="0" x2="787.833" y2="377" fill="rgb(0, 0, 0)" stroke="rgb(66, 66, 66)" stroke-width="1px" opacity="0.25"></line></g><g><line x1="0" y1="377" x2="787.833" y2="377" fill="rgb(0, 0, 0)" stroke="rgb(66, 66, 66)" stroke-width="1px" opacity="0.25"></line><line x1="0" y1="342.7272727272727" x2="787.833" y2="342.7272727272727" fill="rgb(0, 0, 0)" stroke="rgb(66, 66, 66)" stroke-width="1px" opacity="0.25"></line><line x1="0" y1="308.45454545454544" x2="787.833" y2="308.45454545454544" fill="rgb(0, 0, 0)" stroke="rgb(66, 66, 66)" stroke-width="1px" opacity="0.25"></line><line x1="0" y1="274.1818181818182" x2="787.833" y2="274.1818181818182" fill="rgb(0, 0, 0)" stroke="rgb(66, 66, 66)" stroke-width="1px" opacity="0.25"></line><line x1="0" y1="239.9090909090909" x2="787.833" y2="239.9090909090909" fill="rgb(0, 0, 0)" stroke="rgb(66, 66, 66)" stroke-width="1px" opacity="0.25"></line><line x1="0" y1="205.63636363636363" x2="787.833" y2="205.63636363636363" fill="rgb(0, 0, 0)" stroke="rgb(66, 66, 66)" stroke-width="1px" opacity="0.25"></line><line x1="0" y1="171.36363636363637" x2="787.833" y2="171.36363636363637" fill="rgb(0, 0, 0)" stroke="rgb(66, 66, 66)" stroke-width="1px" opacity="0.25"></line><line x1="0" y1="137.0909090909091" x2="787.833" y2="137.0909090909091" fill="rgb(0, 0, 0)" stroke="rgb(66, 66, 66)" stroke-width="1px" opacity="0.25"></line><line x1="0" y1="102.81818181818181" x2="787.833" y2="102.81818181818181" fill="rgb(0, 0, 0)" stroke="rgb(66, 66, 66)" stroke-width="1px" opacity="0.25"></line><line x1="0" y1="68.54545454545453" x2="787.833" y2="68.54545454545453" fill="rgb(0, 0, 0)" stroke="rgb(66, 66, 66)" stroke-width="1px" opacity="0.25"></line><line x1="0" y1="34.27272727272729" x2="787.833" y2="34.27272727272729" fill="rgb(0, 0, 0)" stroke="rgb(66, 66, 66)" stroke-width="1px" opacity="0.25"></line><line x1="0" y1="0" x2="787.833" y2="0" fill="rgb(0, 0, 0)" stroke="rgb(66, 66, 66)" stroke-width="1px" opacity="0.25"></line></g></g></g><g><g><line x1="0" y1="3872.818181818179" x2="787.833" y2="3872.818181818179" fill="rgb(0, 0, 0)" stroke="rgb(153, 153, 153)" stroke-width="1.5px"></line></g></g><g><g><line x1="65.65275" y1="0" x2="65.65275" y2="377" fill="rgb(0, 0, 0)" stroke="rgb(153, 153, 153)" stroke-width="1.5px"></line></g></g><g><g><g><g><g><path stroke="rgb(255, 112, 67)" stroke-width="2px" d="M65.65275,945.3560435826121L72.218025,186.7150302150037L78.7833,355.2006528261425L85.348575,429.53254515458576L91.91385,374.54033670779455L98.479125,224.58234843462344L105.0444,139.21423453842996L111.609675,89.5489408140364L118.17495,60.289078804912634L124.740225,42.92302772365772L131.3055,32.57084553279443L137.87077499999998,26.38362539900053L144.43605,22.679924259489912L151.001325,20.46080186980345L157.5666,19.1304419174294L164.131875,18.33262638874849L170.69715,17.854081142345336L177.262425,17.567005840872447L183.8277,17.394779320553067L190.392975,17.29145012527338L196.95825,17.229455026000423L203.523525,17.192258836837524L210.0888,17.16994143667548L216.654075,17.156551109376785L223.21935,17.148516953604403L229.784625,17.14369647476035L236.3499,17.14080419271541L242.915175,17.139068825383433L249.48045,17.138027605667077L256.045725,17.137402874082802L262.611,17.137028035220403L269.176275,17.136803131935007L275.74154999999996,17.13666818997442L282.306825,445.5456904083198L288.8721,274.181997609949L295.437375,171.36378381627875L302.00265,109.67285621880335L308.567925,72.65829990465978L315.1332,50.44956620413677L321.698475,37.124326015489444L328.26375,371.85643448772055L334.829025,229.9684469351715L341.3943,144.83565444734253L347.959575,93.75597897037662L354.52485,63.10817368986088L361.09012499999994,44.719490523589954L367.6554,33.68628062456104L374.22067499999997,27.066354685408207L380.78595,23.094399122011662L387.35122499999994,20.711225784007468L393.9165,19.281321781217912L400.48177499999997,18.42337937954848L407.04705,17.908613938548235L413.612325,17.59975467394957L420.1776,17.414439115189076L426.74287499999997,17.303249779933623L433.30815,17.23653617878025L439.873425,17.19650801808769L446.4387,17.172491121672415L453.00397499999997,17.158080983824096L459.56925,17.149434901114073L466.134525,17.14424725148864L472.6998,17.14113466171326L479.26507499999997,17.139267107848344L485.83035,17.13814657552879L492.395625,17.137474256137292L498.9609,331.30374434054875L505.526175,205.63683291514943L512.09145,130.2366860599105L518.6567249999999,84.99659794676592L525.222,57.852545078879444L531.787275,41.56611335814796L538.35255,31.79425432570916L544.917825,25.931138906245575L551.4830999999999,22.41326965456752L558.048375,20.302548103560884L564.61365,19.036115172956734L571.1789249999999,18.276255414594427L577.7442,17.820339559576446L584.309475,17.54679004656587L590.87475,17.38266033875989L597.440025,17.284182514076313L604.0053,17.225095819265597L610.570575,17.189643802379937L617.13585,17.168372592247753L623.7011249999999,17.155609866168653L630.2664,17.147952230520975L636.831675,17.143357649132394L643.39695,17.14060090029942L649.962225,17.13894685100023L656.5275,17.13795442142051L663.092775,17.137358963672682L669.65805,17.13700168902417L676.2233249999999,17.13678732423467L682.7886,17.136658705360613L689.353875,17.136581534036353L695.91915,17.136535231242014L702.484425,17.136507449565595L709.0497,17.136490780559903L715.614975,17.136480779155953L722.1802499999999,17.136474778313747L728.745525,17.136471177808794L735.3108,17.136469017505654L741.876075,17.13646772132357" style="fill: none;" fill="none"></path></g></g></g></g><g opacity="0.2"><g><g><g><path stroke="rgb(255, 112, 67)" stroke-width="2px" d="M85.348575,516.9468505328349L91.91385,302.742509359663L98.479125,17.136465777050464L105.0444,17.136465777050464L111.609675,17.136465777050464L118.17495,17.136465777050464L124.740225,17.136465777050464L131.3055,17.136465777050464L137.87077499999998,17.136465777050464L144.43605,17.136465777050464L151.001325,17.136465777050464L157.5666,17.136465777050464L164.131875,17.136465777050464L170.69715,17.136465777050464L177.262425,17.136465777050464L183.8277,17.136465777050464L190.392975,17.136465777050464L196.95825,17.136465777050464L203.523525,17.136465777050464L210.0888,17.136465777050464L216.654075,17.136465777050464L223.21935,17.136465777050464L229.784625,17.136465777050464L236.3499,17.136465777050464L242.915175,17.136465777050464L249.48045,17.136465777050464L256.045725,17.136465777050464L262.611,17.136465777050464L269.176275,17.136465777050464L275.74154999999996,17.136465777050464L282.306825,1088.1591930497768L288.8721,17.136465777050464L295.437375,17.136465777050464L302.00265,17.136465777050464L308.567925,17.136465777050464L315.1332,17.136465777050464L321.698475,17.136465777050464L328.26375,873.9545965248881L334.829025,17.136465777050464L341.3943,17.136465777050464L347.959575,17.136465777050464L354.52485,17.136465777050464L361.09012499999994,17.136465777050464L367.6554,17.136465777050464L374.22067499999997,17.136465777050464L380.78595,17.136465777050464L387.35122499999994,17.136465777050464L393.9165,17.136465777050464L400.48177499999997,17.136465777050464L407.04705,17.136465777050464L413.612325,17.136465777050464L420.1776,17.136465777050464L426.74287499999997,17.136465777050464L433.30815,17.136465777050464L439.873425,17.136465777050464L446.4387,17.136465777050464L453.00397499999997,17.136465777050464L459.56925,17.136465777050464L466.134525,17.136465777050464L472.6998,17.136465777050464L479.26507499999997,17.136465777050464L485.83035,17.136465777050464L492.395625,17.136465777050464L498.9609,802.5531494671642L505.526175,17.136465777050464L512.09145,17.136465777050464L518.6567249999999,17.136465777050464L525.222,17.136465777050464L531.787275,17.136465777050464L538.35255,17.136465777050464L544.917825,17.136465777050464L551.4830999999999,17.136465777050464L558.048375,17.136465777050464L564.61365,17.136465777050464L571.1789249999999,17.136465777050464L577.7442,17.136465777050464L584.309475,17.136465777050464L590.87475,17.136465777050464L597.440025,17.136465777050464L604.0053,17.136465777050464L610.570575,17.136465777050464L617.13585,17.136465777050464L623.7011249999999,17.136465777050464L630.2664,17.136465777050464L636.831675,17.136465777050464L643.39695,17.136465777050464L649.962225,17.136465777050464L656.5275,17.136465777050464L663.092775,17.136465777050464L669.65805,17.136465777050464L676.2233249999999,17.136465777050464L682.7886,17.136465777050464L689.353875,17.136465777050464L695.91915,17.136465777050464L702.484425,17.136465777050464L709.0497,17.136465777050464L715.614975,17.136465777050464L722.1802499999999,17.136465777050464L728.745525,17.136465777050464L735.3108,17.136465777050464L741.876075,17.136465777050464" style="fill: none;" fill="none"></path></g></g></g></g></g></g><g transform="translate(70, 377)" clip-path="url(#clip_1)"><clipPath id="clip_1"><rect width="787" height="23"></rect></clipPath><g><g><line x1="0" y1="0" x2="0" y2="5" style="visibility: inherit;" fill="rgb(0, 0, 0)" stroke="rgb(204, 204, 204)" stroke-width="1px"></line><line x1="65.65275" y1="0" x2="65.65275" y2="5" style="visibility: inherit;" fill="rgb(0, 0, 0)" stroke="rgb(204, 204, 204)" stroke-width="1px"></line><line x1="131.3055" y1="0" x2="131.3055" y2="5" style="visibility: inherit;" fill="rgb(0, 0, 0)" stroke="rgb(204, 204, 204)" stroke-width="1px"></line><line x1="196.95825" y1="0" x2="196.95825" y2="5" style="visibility: inherit;" fill="rgb(0, 0, 0)" stroke="rgb(204, 204, 204)" stroke-width="1px"></line><line x1="262.611" y1="0" x2="262.611" y2="5" style="visibility: inherit;" fill="rgb(0, 0, 0)" stroke="rgb(204, 204, 204)" stroke-width="1px"></line><line x1="328.26375" y1="0" x2="328.26375" y2="5" style="visibility: inherit;" fill="rgb(0, 0, 0)" stroke="rgb(204, 204, 204)" stroke-width="1px"></line><line x1="393.9165" y1="0" x2="393.9165" y2="5" style="visibility: inherit;" fill="rgb(0, 0, 0)" stroke="rgb(204, 204, 204)" stroke-width="1px"></line><line x1="459.56925" y1="0" x2="459.56925" y2="5" style="visibility: inherit;" fill="rgb(0, 0, 0)" stroke="rgb(204, 204, 204)" stroke-width="1px"></line><line x1="525.222" y1="0" x2="525.222" y2="5" style="visibility: inherit;" fill="rgb(0, 0, 0)" stroke="rgb(204, 204, 204)" stroke-width="1px"></line><line x1="590.87475" y1="0" x2="590.87475" y2="5" style="visibility: inherit;" fill="rgb(0, 0, 0)" stroke="rgb(204, 204, 204)" stroke-width="1px"></line><line x1="656.5275" y1="0" x2="656.5275" y2="5" style="visibility: inherit;" fill="rgb(0, 0, 0)" stroke="rgb(204, 204, 204)" stroke-width="1px"></line><line x1="722.1802499999999" y1="0" x2="722.1802499999999" y2="5" style="visibility: inherit;" fill="rgb(0, 0, 0)" stroke="rgb(204, 204, 204)" stroke-width="1px"></line><line x1="787.833" y1="0" x2="787.833" y2="5" style="visibility: inherit;" fill="rgb(0, 0, 0)" stroke="rgb(204, 204, 204)" stroke-width="1px"></line></g><g transform="translate(0, 8)"><text x="0" y="0" dx="0em" dy="0.95em" style="text-anchor: middle; visibility: hidden; font-family: Roboto, sans-serif; font-size: 12px; font-weight: 200;" fill="rgb(33, 33, 33)" stroke="none" stroke-width="1px">-10</text><text x="65.65275" y="0" dx="0em" dy="0.95em" style="text-anchor: middle; visibility: inherit; font-family: Roboto, sans-serif; font-size: 12px; font-weight: 200;" fill="rgb(33, 33, 33)" stroke="none" stroke-width="1px">0</text><text x="131.3055" y="0" dx="0em" dy="0.95em" style="text-anchor: middle; visibility: inherit; font-family: Roboto, sans-serif; font-size: 12px; font-weight: 200;" fill="rgb(33, 33, 33)" stroke="none" stroke-width="1px">10</text><text x="196.95825" y="0" dx="0em" dy="0.95em" style="text-anchor: middle; visibility: inherit; font-family: Roboto, sans-serif; font-size: 12px; font-weight: 200;" fill="rgb(33, 33, 33)" stroke="none" stroke-width="1px">20</text><text x="262.611" y="0" dx="0em" dy="0.95em" style="text-anchor: middle; visibility: inherit; font-family: Roboto, sans-serif; font-size: 12px; font-weight: 200;" fill="rgb(33, 33, 33)" stroke="none" stroke-width="1px">30</text><text x="328.26375" y="0" dx="0em" dy="0.95em" style="text-anchor: middle; visibility: inherit; font-family: Roboto, sans-serif; font-size: 12px; font-weight: 200;" fill="rgb(33, 33, 33)" stroke="none" stroke-width="1px">40</text><text x="393.9165" y="0" dx="0em" dy="0.95em" style="text-anchor: middle; visibility: inherit; font-family: Roboto, sans-serif; font-size: 12px; font-weight: 200;" fill="rgb(33, 33, 33)" stroke="none" stroke-width="1px">50</text><text x="459.56925" y="0" dx="0em" dy="0.95em" style="text-anchor: middle; visibility: inherit; font-family: Roboto, sans-serif; font-size: 12px; font-weight: 200;" fill="rgb(33, 33, 33)" stroke="none" stroke-width="1px">60</text><text x="525.222" y="0" dx="0em" dy="0.95em" style="text-anchor: middle; visibility: inherit; font-family: Roboto, sans-serif; font-size: 12px; font-weight: 200;" fill="rgb(33, 33, 33)" stroke="none" stroke-width="1px">70</text><text x="590.87475" y="0" dx="0em" dy="0.95em" style="text-anchor: middle; visibility: inherit; font-family: Roboto, sans-serif; font-size: 12px; font-weight: 200;" fill="rgb(33, 33, 33)" stroke="none" stroke-width="1px">80</text><text x="656.5275" y="0" dx="0em" dy="0.95em" style="text-anchor: middle; visibility: inherit; font-family: Roboto, sans-serif; font-size: 12px; font-weight: 200;" fill="rgb(33, 33, 33)" stroke="none" stroke-width="1px">90</text><text x="722.1802499999999" y="0" dx="0em" dy="0.95em" style="text-anchor: middle; visibility: inherit; font-family: Roboto, sans-serif; font-size: 12px; font-weight: 200;" fill="rgb(33, 33, 33)" stroke="none" stroke-width="1px">100</text><text x="787.833" y="0" dx="0em" dy="0.95em" style="text-anchor: middle; visibility: hidden; font-family: Roboto, sans-serif; font-size: 12px; font-weight: 200;" fill="rgb(33, 33, 33)" stroke="none" stroke-width="1px">110</text></g><line x1="0" y1="0" x2="787.833" y2="0" fill="rgb(0, 0, 0)" stroke="rgb(204, 204, 204)" stroke-width="1px"></line></g></g></g></g></svg>