<svg viewBox="0 0 857.8333740234375 400" xmlns="http://www.w3.org/2000/svg"><g><g><g><g><g><line x1="70" y1="377" x2="65" y2="377" style="visibility: inherit;" fill="rgb(0, 0, 0)" stroke="rgb(204, 204, 204)" stroke-width="1px"></line><line x1="70" y1="348" x2="65" y2="348" style="visibility: inherit;" fill="rgb(0, 0, 0)" stroke="rgb(204, 204, 204)" stroke-width="1px"></line><line x1="70" y1="319" x2="65" y2="319" style="visibility: inherit;" fill="rgb(0, 0, 0)" stroke="rgb(204, 204, 204)" stroke-width="1px"></line><line x1="70" y1="290" x2="65" y2="290" style="visibility: inherit;" fill="rgb(0, 0, 0)" stroke="rgb(204, 204, 204)" stroke-width="1px"></line><line x1="70" y1="261" x2="65" y2="261" style="visibility: inherit;" fill="rgb(0, 0, 0)" stroke="rgb(204, 204, 204)" stroke-width="1px"></line><line x1="70" y1="232" x2="65" y2="232" style="visibility: inherit;" fill="rgb(0, 0, 0)" stroke="rgb(204, 204, 204)" stroke-width="1px"></line><line x1="70" y1="203" x2="65" y2="203" style="visibility: inherit;" fill="rgb(0, 0, 0)" stroke="rgb(204, 204, 204)" stroke-width="1px"></line><line x1="70" y1="174" x2="65" y2="174" style="visibility: inherit;" fill="rgb(0, 0, 0)" stroke="rgb(204, 204, 204)" stroke-width="1px"></line><line x1="70" y1="145" x2="65" y2="145" style="visibility: inherit;" fill="rgb(0, 0, 0)" stroke="rgb(204, 204, 204)" stroke-width="1px"></line><line x1="70" y1="116" x2="65" y2="116" style="visibility: inherit;" fill="rgb(0, 0, 0)" stroke="rgb(204, 204, 204)" stroke-width="1px"></line><line x1="70" y1="86.99999999999999" x2="65" y2="86.99999999999999" style="visibility: inherit;" fill="rgb(0, 0, 0)" stroke="rgb(204, 204, 204)" stroke-width="1px"></line><line x1="70" y1="58" x2="65" y2="58" style="visibility: inherit;" fill="rgb(0, 0, 0)" stroke="rgb(204, 204, 204)" stroke-width="1px"></line><line x1="70" y1="28.999999999999982" x2="65" y2="28.999999999999982" style="visibility: inherit;" fill="rgb(0, 0, 0)" stroke="rgb(204, 204, 204)" stroke-width="1px"></line><line x1="70" y1="0" x2="65" y2="0" style="visibility: inherit;" fill="rgb(0, 0, 0)" stroke="rgb(204, 204, 204)" stroke-width="1px"></line></g><g transform="translate(60, 0)"><text x="0" y="377" dx="0em" dy="0.3em" style="text-anchor: end; visibility: hidden; font-family: Roboto, sans-serif; font-size: 12px; font-weight: 200;" fill="rgb(33, 33, 33)" stroke="none" stroke-width="1px">-5e+5</text><text x="0" y="348" dx="0em" dy="0.3em" style="text-anchor: end; visibility: inherit; font-family: Roboto, sans-serif; font-size: 12px; font-weight: 200;" fill="rgb(33, 33, 33)" stroke="none" stroke-width="1px">0</text><text x="0" y="319" dx="0em" dy="0.3em" style="text-anchor: end; visibility: inherit; font-family: Roboto, sans-serif; font-size: 12px; font-weight: 200;" fill="rgb(33, 33, 33)" stroke="none" stroke-width="1px">5e+5</text><text x="0" y="290" dx="0em" dy="0.3em" style="text-anchor: end; visibility: inherit; font-family: Roboto, sans-serif; font-size: 12px; font-weight: 200;" fill="rgb(33, 33, 33)" stroke="none" stroke-width="1px">1e+6</text><text x="0" y="261" dx="0em" dy="0.3em" style="text-anchor: end; visibility: inherit; font-family: Roboto, sans-serif; font-size: 12px; font-weight: 200;" fill="rgb(33, 33, 33)" stroke="none" stroke-width="1px">1.5e+6</text><text x="0" y="232" dx="0em" dy="0.3em" style="text-anchor: end; visibility: inherit; font-family: Roboto, sans-serif; font-size: 12px; font-weight: 200;" fill="rgb(33, 33, 33)" stroke="none" stroke-width="1px">2e+6</text><text x="0" y="203" dx="0em" dy="0.3em" style="text-anchor: end; visibility: inherit; font-family: Roboto, sans-serif; font-size: 12px; font-weight: 200;" fill="rgb(33, 33, 33)" stroke="none" stroke-width="1px">2.5e+6</text><text x="0" y="174" dx="0em" dy="0.3em" style="text-anchor: end; visibility: inherit; font-family: Roboto, sans-serif; font-size: 12px; font-weight: 200;" fill="rgb(33, 33, 33)" stroke="none" stroke-width="1px">3e+6</text><text x="0" y="145" dx="0em" dy="0.3em" style="text-anchor: end; visibility: inherit; font-family: Roboto, sans-serif; font-size: 12px; font-weight: 200;" fill="rgb(33, 33, 33)" stroke="none" stroke-width="1px">3.5e+6</text><text x="0" y="116" dx="0em" dy="0.3em" style="text-anchor: end; visibility: inherit; font-family: Roboto, sans-serif; font-size: 12px; font-weight: 200;" fill="rgb(33, 33, 33)" stroke="none" stroke-width="1px">4e+6</text><text x="0" y="86.99999999999999" dx="0em" dy="0.3em" style="text-anchor: end; visibility: inherit; font-family: Roboto, sans-serif; font-size: 12px; font-weight: 200;" fill="rgb(33, 33, 33)" stroke="none" stroke-width="1px">4.5e+6</text><text x="0" y="58" dx="0em" dy="0.3em" style="text-anchor: end; visibility: inherit; font-family: Roboto, sans-serif; font-size: 12px; font-weight: 200;" fill="rgb(33, 33, 33)" stroke="none" stroke-width="1px">5e+6</text><text x="0" y="28.999999999999982" dx="0em" dy="0.3em" style="text-anchor: end; visibility: inherit; font-family: Roboto, sans-serif; font-size: 12px; font-weight: 200;" fill="rgb(33, 33, 33)" stroke="none" stroke-width="1px">5.5e+6</text><text x="0" y="0" dx="0em" dy="0.3em" style="text-anchor: end; visibility: hidden; font-family: Roboto, sans-serif; font-size: 12px; font-weight: 200;" fill="rgb(33, 33, 33)" stroke="none" stroke-width="1px">6e+6</text></g><line x1="70" y1="0" x2="70" y2="377" fill="rgb(0, 0, 0)" stroke="rgb(204, 204, 204)" stroke-width="1px"></line></g></g><g transform="translate(70, 0)" clip-path="url(#clip_0)"><clipPath id="clip_0"><rect width="787" height="377"></rect></clipPath><g><g><g><line x1="0" y1="0" x2="0" y2="377" fill="rgb(0, 0, 0)" stroke="rgb(66, 66, 66)" stroke-width="1px" opacity="0.25"></line><line x1="65.65275" y1="0" x2="65.65275" y2="377" fill="rgb(0, 0, 0)" stroke="rgb(66, 66, 66)" stroke-width="1px" opacity="0.25"></line><line x1="131.3055" y1="0" x2="131.3055" y2="377" fill="rgb(0, 0, 0)" stroke="rgb(66, 66, 66)" stroke-width="1px" opacity="0.25"></line><line x1="196.95825" y1="0" x2="196.95825" y2="377" fill="rgb(0, 0, 0)" stroke="rgb(66, 66, 66)" stroke-width="1px" opacity="0.25"></line><line x1="262.611" y1="0" x2="262.611" y2="377" fill="rgb(0, 0, 0)" stroke="rgb(66, 66, 66)" stroke-width="1px" opacity="0.25"></line><line x1="328.26375" y1="0" x2="328.26375" y2="377" fill="rgb(0, 0, 0)" stroke="rgb(66, 66, 66)" stroke-width="1px" opacity="0.25"></line><line x1="393.9165" y1="0" x2="393.9165" y2="377" fill="rgb(0, 0, 0)" stroke="rgb(66, 66, 66)" stroke-width="1px" opacity="0.25"></line><line x1="459.56925" y1="0" x2="459.56925" y2="377" fill="rgb(0, 0, 0)" stroke="rgb(66, 66, 66)" stroke-width="1px" opacity="0.25"></line><line x1="525.222" y1="0" x2="525.222" y2="377" fill="rgb(0, 0, 0)" stroke="rgb(66, 66, 66)" stroke-width="1px" opacity="0.25"></line><line x1="590.87475" y1="0" x2="590.87475" y2="377" fill="rgb(0, 0, 0)" stroke="rgb(66, 66, 66)" stroke-width="1px" opacity="0.25"></line><line x1="656.5275" y1="0" x2="656.5275" y2="377" fill="rgb(0, 0, 0)" stroke="rgb(66, 66, 66)" stroke-width="1px" opacity="0.25"></line><line x1="722.1802499999999" y1="0" x2="722.1802499999999" y2="377" fill="rgb(0, 0, 0)" stroke="rgb(66, 66, 66)" stroke-width="1px" opacity="0.25"></line><line x1="787.833" y1="0" x2="787.833" y2="377" fill="rgb(0, 0, 0)" stroke="rgb(66, 66, 66)" stroke-width="1px" opacity="0.25"></line></g><g><line x1="0" y1="377" x2="787.833" y2="377" fill="rgb(0, 0, 0)" stroke="rgb(66, 66, 66)" stroke-width="1px" opacity="0.25"></line><line x1="0" y1="348" x2="787.833" y2="348" fill="rgb(0, 0, 0)" stroke="rgb(66, 66, 66)" stroke-width="1px" opacity="0.25"></line><line x1="0" y1="319" x2="787.833" y2="319" fill="rgb(0, 0, 0)" stroke="rgb(66, 66, 66)" stroke-width="1px" opacity="0.25"></line><line x1="0" y1="290" x2="787.833" y2="290" fill="rgb(0, 0, 0)" stroke="rgb(66, 66, 66)" stroke-width="1px" opacity="0.25"></line><line x1="0" y1="261" x2="787.833" y2="261" fill="rgb(0, 0, 0)" stroke="rgb(66, 66, 66)" stroke-width="1px" opacity="0.25"></line><line x1="0" y1="232" x2="787.833" y2="232" fill="rgb(0, 0, 0)" stroke="rgb(66, 66, 66)" stroke-width="1px" opacity="0.25"></line><line x1="0" y1="203" x2="787.833" y2="203" fill="rgb(0, 0, 0)" stroke="rgb(66, 66, 66)" stroke-width="1px" opacity="0.25"></line><line x1="0" y1="174" x2="787.833" y2="174" fill="rgb(0, 0, 0)" stroke="rgb(66, 66, 66)" stroke-width="1px" opacity="0.25"></line><line x1="0" y1="145" x2="787.833" y2="145" fill="rgb(0, 0, 0)" stroke="rgb(66, 66, 66)" stroke-width="1px" opacity="0.25"></line><line x1="0" y1="116" x2="787.833" y2="116" fill="rgb(0, 0, 0)" stroke="rgb(66, 66, 66)" stroke-width="1px" opacity="0.25"></line><line x1="0" y1="86.99999999999999" x2="787.833" y2="86.99999999999999" fill="rgb(0, 0, 0)" stroke="rgb(66, 66, 66)" stroke-width="1px" opacity="0.25"></line><line x1="0" y1="58" x2="787.833" y2="58" fill="rgb(0, 0, 0)" stroke="rgb(66, 66, 66)" stroke-width="1px" opacity="0.25"></line><line x1="0" y1="28.999999999999982" x2="787.833" y2="28.999999999999982" fill="rgb(0, 0, 0)" stroke="rgb(66, 66, 66)" stroke-width="1px" opacity="0.25"></line><line x1="0" y1="0" x2="787.833" y2="0" fill="rgb(0, 0, 0)" stroke="rgb(66, 66, 66)" stroke-width="1px" opacity="0.25"></line></g></g></g><g><g><line x1="0" y1="348" x2="787.833" y2="348" fill="rgb(0, 0, 0)" stroke="rgb(153, 153, 153)" stroke-width="1.5px"></line></g></g><g><g><line x1="65.65275" y1="0" x2="65.65275" y2="377" fill="rgb(0, 0, 0)" stroke="rgb(153, 153, 153)" stroke-width="1.5px"></line></g></g><g><g><g><g><g><path stroke="rgb(255, 112, 67)" stroke-width="2px" d="M98.479125,-171.97188857811813L105.0444,42.00683193410072L111.609675,166.49495195128475L118.17495,239.83601048291672L124.740225,283.3647382974401L131.3055,309.3129126345653L137.87077499999998,324.8214367198886L144.43605,334.10491737386826L151.001325,339.66723975318854L157.5666,343.00184220428685L164.131875,345.00159994999314L170.69715,346.2010934837991L177.262425,346.9206596502228L183.8277,347.3523525647926L190.392975,347.61135149589177L196.95825,347.76674478546005L203.523525,347.85997858396587L210.0888,347.9159180841253L216.654075,347.94948149689503L223.21935,347.9696194362244L229.784625,347.98170215558565L236.3499,347.98895179310546L242.915175,347.9933015590648L249.48045,347.9959114198514L256.045725,347.997477321675L262.611,347.99841686428994L269.176275,347.99898059818673L275.74154999999996,347.9993188447797L282.306825,347.9995217865632L288.8721,347.9996435356552L295.437375,347.99971660478946L302.00265,347.99976045158513L308.567925,347.99978674364917L315.1332,347.99980252925326L321.698475,347.9998120022142L328.26375,347.99981767844054L334.829025,347.9998210941327L341.3943,347.9998231481279L347.959575,347.9998243637873L354.52485,347.9998251071218L361.09012499999994,347.9998255398806L367.6554,347.9998257903262L374.22067499999997,347.9998259610484L380.78595,347.9998260449905L387.35122499999994,347.99982611197737L393.9165,347.9998261557427L400.48177499999997,347.99982616004814L407.04705,347.9998261798227L413.612325,347.9998261896962L420.1776,347.9998261930205L426.74287499999997,347.9998261895226L433.30815,347.9998262040178L439.873425,347.99982620465573L446.4387,347.9998262083628L453.00397499999997,347.9998262066211L459.56925,347.9998262003767L466.134525,347.9998262048384L472.6998,347.99982619096033L479.26507499999997,347.99982618472984L485.83035,347.9998261897918L492.395625,347.99982618325987L498.9609,347.9998261858676L505.526175,347.9998261871557L512.09145,347.99982619062234L518.6567249999999,347.99982619898583L525.222,347.9998261983012L531.787275,347.9998262103856L538.35255,347.9998261992447L544.917825,347.99982619846753L551.4830999999999,347.9998262057064L558.048375,347.9998262077542L564.61365,347.99982620782134L571.1789249999999,347.9998261919203L577.7442,347.99982619148983L584.309475,347.99982618408507L590.87475,347.9998261895543L597.440025,347.99982618431767L604.0053,347.99982617889674L610.570575,347.9998261902967L617.13585,347.9998261791266L623.7011249999999,347.99982618670646L630.2664,347.9998261760599L636.831675,347.9998261930749L643.39695,347.99982618096504L649.962225,347.99982619095135L656.5275,347.9998261944595L663.092775,347.99982618963924L669.65805,347.99982619131043L676.2233249999999,347.9998261912898L682.7886,347.99982619132726L689.353875,347.9998261903651L695.91915,347.9998261896606L702.484425,347.99982620027845L709.0497,347.9998261956473L715.614975,347.99982618677313L722.1802499999999,347.99982617933017L728.745525,347.9998261884382L735.3108,347.99982619147477L741.876075,347.99982618777096" style="fill: none;" fill="none"></path></g></g></g></g><g opacity="0.2"><g><g><g><path stroke="rgb(255, 112, 67)" stroke-width="2px" d="M65.65275,-15589.104512L72.218025,347.9184081884766L78.7833,347.99982537157393L85.348575,347.9998255689449L91.91385,347.99982572832965L98.479125,347.99982586827184L105.0444,347.9998259261017L111.609675,347.9998260222912L118.17495,347.9998260498648L124.740225,347.99982608995293L131.3055,347.9998261088009L137.87077499999998,347.9998261446576L144.43605,347.9998261797814L151.001325,347.99982615357686L157.5666,347.9998261809292L164.131875,347.9998261844554L170.69715,347.99982619904426L177.262425,347.99982620208647L183.8277,347.9998261725769L190.392975,347.9998262190122L196.95825,347.99982619767525L203.523525,347.9998262138266L210.0888,347.9998262299366L216.654075,347.99982621845913L223.21935,347.99982620208647L229.784625,347.9998261831002L236.3499,347.9998262308354L242.915175,347.9998262013259L249.48045,347.99982620862727L256.045725,347.9998261735449L262.611,347.9998261779008L269.176275,347.9998261989198L275.74154999999996,347.9998262146287L282.306825,347.999826199224L288.8721,347.9998261592879L295.437375,347.99982620848897L302.00265,347.99982622177794L308.567925,347.99982618174505L315.1332,347.9998262076593L321.698475,347.9998262116556L328.26375,347.99982619278006L334.829025,347.9998262176709L341.3943,347.99982622912074L347.959575,347.99982618727637L354.52485,347.9998262221236L361.09012499999994,347.99982618901873L367.6554,347.99982616599465L374.22067499999997,347.9998262171316L380.78595,347.9998261709037L387.35122499999994,347.99982621245766L393.9165,347.9998262213907L400.48177499999997,347.9998261665063L407.04705,347.9998262094846L413.612325,347.9998262045064L420.1776,347.9998261980071L426.74287499999997,347.99982618427566L433.30815,347.99982622576044L439.873425,347.99982620561264L446.4387,347.9998262139235L453.00397499999997,347.99982620400857L459.56925,347.99982619101L466.134525,347.9998262115312L472.6998,347.99982617014314L479.26507499999997,347.99982617538404L485.83035,347.99982619738483L492.395625,347.99982617346194L498.9609,347.9998261897793L505.526175,347.9998261890879L512.09145,347.99982619582227L518.6567249999999,347.9998262115312L525.222,347.9998261972742L531.787275,347.9998262285123L538.35255,347.99982618253324L544.917825,347.99982619730184L551.4830999999999,347.99982621656466L558.048375,347.9998262108259L564.61365,347.99982620792196L571.1789249999999,347.9998261680689L577.7442,347.99982619084403L584.309475,347.9998261729779L590.87475,347.9998261977582L597.440025,347.99982617646265L604.0053,347.9998261707654L610.570575,347.99982620739655L617.13585,347.9998261623716L623.7011249999999,347.9998261980763L630.2664,347.99982616009L636.831675,347.99982621859743L643.39695,347.99982616280033L649.962225,347.99982620593073L656.5275,347.9998261997218L663.092775,347.9998261824088L669.65805,347.9998261938171L676.2233249999999,347.99982619125893L682.7886,347.99982619138336L689.353875,347.99982618892193L695.91915,347.9998261886039L702.484425,347.9998262162051L709.0497,347.9998261887007L715.614975,347.99982617346194L722.1802499999999,347.9998261681657L728.745525,347.9998262021003L735.3108,347.99982619602963L741.876075,347.9998261822152" style="fill: none;" fill="none"></path></g></g></g></g></g><g><g opacity="0.00579011"><span fill="rgb(0, 0, 0)" stroke="none" stroke-width="1px">Alt + Scroll to Zoom</span></g></g></g><g transform="translate(70, 377)" clip-path="url(#clip_1)"><clipPath id="clip_1"><rect width="787" height="23"></rect></clipPath><g><g><line x1="0" y1="0" x2="0" y2="5" style="visibility: inherit;" fill="rgb(0, 0, 0)" stroke="rgb(204, 204, 204)" stroke-width="1px"></line><line x1="65.65275" y1="0" x2="65.65275" y2="5" style="visibility: inherit;" fill="rgb(0, 0, 0)" stroke="rgb(204, 204, 204)" stroke-width="1px"></line><line x1="131.3055" y1="0" x2="131.3055" y2="5" style="visibility: inherit;" fill="rgb(0, 0, 0)" stroke="rgb(204, 204, 204)" stroke-width="1px"></line><line x1="196.95825" y1="0" x2="196.95825" y2="5" style="visibility: inherit;" fill="rgb(0, 0, 0)" stroke="rgb(204, 204, 204)" stroke-width="1px"></line><line x1="262.611" y1="0" x2="262.611" y2="5" style="visibility: inherit;" fill="rgb(0, 0, 0)" stroke="rgb(204, 204, 204)" stroke-width="1px"></line><line x1="328.26375" y1="0" x2="328.26375" y2="5" style="visibility: inherit;" fill="rgb(0, 0, 0)" stroke="rgb(204, 204, 204)" stroke-width="1px"></line><line x1="393.9165" y1="0" x2="393.9165" y2="5" style="visibility: inherit;" fill="rgb(0, 0, 0)" stroke="rgb(204, 204, 204)" stroke-width="1px"></line><line x1="459.56925" y1="0" x2="459.56925" y2="5" style="visibility: inherit;" fill="rgb(0, 0, 0)" stroke="rgb(204, 204, 204)" stroke-width="1px"></line><line x1="525.222" y1="0" x2="525.222" y2="5" style="visibility: inherit;" fill="rgb(0, 0, 0)" stroke="rgb(204, 204, 204)" stroke-width="1px"></line><line x1="590.87475" y1="0" x2="590.87475" y2="5" style="visibility: inherit;" fill="rgb(0, 0, 0)" stroke="rgb(204, 204, 204)" stroke-width="1px"></line><line x1="656.5275" y1="0" x2="656.5275" y2="5" style="visibility: inherit;" fill="rgb(0, 0, 0)" stroke="rgb(204, 204, 204)" stroke-width="1px"></line><line x1="722.1802499999999" y1="0" x2="722.1802499999999" y2="5" style="visibility: inherit;" fill="rgb(0, 0, 0)" stroke="rgb(204, 204, 204)" stroke-width="1px"></line><line x1="787.833" y1="0" x2="787.833" y2="5" style="visibility: inherit;" fill="rgb(0, 0, 0)" stroke="rgb(204, 204, 204)" stroke-width="1px"></line></g><g transform="translate(0, 8)"><text x="0" y="0" dx="0em" dy="0.95em" style="text-anchor: middle; visibility: hidden; font-family: Roboto, sans-serif; font-size: 12px; font-weight: 200;" fill="rgb(33, 33, 33)" stroke="none" stroke-width="1px">-10</text><text x="65.65275" y="0" dx="0em" dy="0.95em" style="text-anchor: middle; visibility: inherit; font-family: Roboto, sans-serif; font-size: 12px; font-weight: 200;" fill="rgb(33, 33, 33)" stroke="none" stroke-width="1px">0</text><text x="131.3055" y="0" dx="0em" dy="0.95em" style="text-anchor: middle; visibility: inherit; font-family: Roboto, sans-serif; font-size: 12px; font-weight: 200;" fill="rgb(33, 33, 33)" stroke="none" stroke-width="1px">10</text><text x="196.95825" y="0" dx="0em" dy="0.95em" style="text-anchor: middle; visibility: inherit; font-family: Roboto, sans-serif; font-size: 12px; font-weight: 200;" fill="rgb(33, 33, 33)" stroke="none" stroke-width="1px">20</text><text x="262.611" y="0" dx="0em" dy="0.95em" style="text-anchor: middle; visibility: inherit; font-family: Roboto, sans-serif; font-size: 12px; font-weight: 200;" fill="rgb(33, 33, 33)" stroke="none" stroke-width="1px">30</text><text x="328.26375" y="0" dx="0em" dy="0.95em" style="text-anchor: middle; visibility: inherit; font-family: Roboto, sans-serif; font-size: 12px; font-weight: 200;" fill="rgb(33, 33, 33)" stroke="none" stroke-width="1px">40</text><text x="393.9165" y="0" dx="0em" dy="0.95em" style="text-anchor: middle; visibility: inherit; font-family: Roboto, sans-serif; font-size: 12px; font-weight: 200;" fill="rgb(33, 33, 33)" stroke="none" stroke-width="1px">50</text><text x="459.56925" y="0" dx="0em" dy="0.95em" style="text-anchor: middle; visibility: inherit; font-family: Roboto, sans-serif; font-size: 12px; font-weight: 200;" fill="rgb(33, 33, 33)" stroke="none" stroke-width="1px">60</text><text x="525.222" y="0" dx="0em" dy="0.95em" style="text-anchor: middle; visibility: inherit; font-family: Roboto, sans-serif; font-size: 12px; font-weight: 200;" fill="rgb(33, 33, 33)" stroke="none" stroke-width="1px">70</text><text x="590.87475" y="0" dx="0em" dy="0.95em" style="text-anchor: middle; visibility: inherit; font-family: Roboto, sans-serif; font-size: 12px; font-weight: 200;" fill="rgb(33, 33, 33)" stroke="none" stroke-width="1px">80</text><text x="656.5275" y="0" dx="0em" dy="0.95em" style="text-anchor: middle; visibility: inherit; font-family: Roboto, sans-serif; font-size: 12px; font-weight: 200;" fill="rgb(33, 33, 33)" stroke="none" stroke-width="1px">90</text><text x="722.1802499999999" y="0" dx="0em" dy="0.95em" style="text-anchor: middle; visibility: inherit; font-family: Roboto, sans-serif; font-size: 12px; font-weight: 200;" fill="rgb(33, 33, 33)" stroke="none" stroke-width="1px">100</text><text x="787.833" y="0" dx="0em" dy="0.95em" style="text-anchor: middle; visibility: hidden; font-family: Roboto, sans-serif; font-size: 12px; font-weight: 200;" fill="rgb(33, 33, 33)" stroke="none" stroke-width="1px">110</text></g><line x1="0" y1="0" x2="787.833" y2="0" fill="rgb(0, 0, 0)" stroke="rgb(204, 204, 204)" stroke-width="1px"></line></g></g></g></g></svg>