<svg viewBox="0 0 857.8333740234375 400" xmlns="http://www.w3.org/2000/svg"><g><g><g><g><g><line x1="50" y1="377" x2="45" y2="377" style="visibility: inherit;" fill="rgb(0, 0, 0)" stroke="rgb(204, 204, 204)" stroke-width="1px"></line><line x1="50" y1="329.875" x2="45" y2="329.875" style="visibility: inherit;" fill="rgb(0, 0, 0)" stroke="rgb(204, 204, 204)" stroke-width="1px"></line><line x1="50" y1="282.75" x2="45" y2="282.75" style="visibility: inherit;" fill="rgb(0, 0, 0)" stroke="rgb(204, 204, 204)" stroke-width="1px"></line><line x1="50" y1="235.625" x2="45" y2="235.625" style="visibility: inherit;" fill="rgb(0, 0, 0)" stroke="rgb(204, 204, 204)" stroke-width="1px"></line><line x1="50" y1="188.5" x2="45" y2="188.5" style="visibility: inherit;" fill="rgb(0, 0, 0)" stroke="rgb(204, 204, 204)" stroke-width="1px"></line><line x1="50" y1="141.375" x2="45" y2="141.375" style="visibility: inherit;" fill="rgb(0, 0, 0)" stroke="rgb(204, 204, 204)" stroke-width="1px"></line><line x1="50" y1="94.25" x2="45" y2="94.25" style="visibility: inherit;" fill="rgb(0, 0, 0)" stroke="rgb(204, 204, 204)" stroke-width="1px"></line><line x1="50" y1="47.125" x2="45" y2="47.125" style="visibility: inherit;" fill="rgb(0, 0, 0)" stroke="rgb(204, 204, 204)" stroke-width="1px"></line><line x1="50" y1="0" x2="45" y2="0" style="visibility: inherit;" fill="rgb(0, 0, 0)" stroke="rgb(204, 204, 204)" stroke-width="1px"></line></g><g transform="translate(40, 0)"><text x="0" y="377" dx="0em" dy="0.3em" style="text-anchor: end; visibility: hidden; font-family: Roboto, sans-serif; font-size: 12px; font-weight: 200;" fill="rgb(33, 33, 33)" stroke="none" stroke-width="1px">-0.5</text><text x="0" y="329.875" dx="0em" dy="0.3em" style="text-anchor: end; visibility: inherit; font-family: Roboto, sans-serif; font-size: 12px; font-weight: 200;" fill="rgb(33, 33, 33)" stroke="none" stroke-width="1px">0</text><text x="0" y="282.75" dx="0em" dy="0.3em" style="text-anchor: end; visibility: inherit; font-family: Roboto, sans-serif; font-size: 12px; font-weight: 200;" fill="rgb(33, 33, 33)" stroke="none" stroke-width="1px">0.5</text><text x="0" y="235.625" dx="0em" dy="0.3em" style="text-anchor: end; visibility: inherit; font-family: Roboto, sans-serif; font-size: 12px; font-weight: 200;" fill="rgb(33, 33, 33)" stroke="none" stroke-width="1px">1</text><text x="0" y="188.5" dx="0em" dy="0.3em" style="text-anchor: end; visibility: inherit; font-family: Roboto, sans-serif; font-size: 12px; font-weight: 200;" fill="rgb(33, 33, 33)" stroke="none" stroke-width="1px">1.5</text><text x="0" y="141.375" dx="0em" dy="0.3em" style="text-anchor: end; visibility: inherit; font-family: Roboto, sans-serif; font-size: 12px; font-weight: 200;" fill="rgb(33, 33, 33)" stroke="none" stroke-width="1px">2</text><text x="0" y="94.25" dx="0em" dy="0.3em" style="text-anchor: end; visibility: inherit; font-family: Roboto, sans-serif; font-size: 12px; font-weight: 200;" fill="rgb(33, 33, 33)" stroke="none" stroke-width="1px">2.5</text><text x="0" y="47.125" dx="0em" dy="0.3em" style="text-anchor: end; visibility: inherit; font-family: Roboto, sans-serif; font-size: 12px; font-weight: 200;" fill="rgb(33, 33, 33)" stroke="none" stroke-width="1px">3</text><text x="0" y="0" dx="0em" dy="0.3em" style="text-anchor: end; visibility: hidden; font-family: Roboto, sans-serif; font-size: 12px; font-weight: 200;" fill="rgb(33, 33, 33)" stroke="none" stroke-width="1px">3.5</text></g><line x1="50" y1="0" x2="50" y2="377" fill="rgb(0, 0, 0)" stroke="rgb(204, 204, 204)" stroke-width="1px"></line></g></g><g transform="translate(50, 0)" clip-path="url(#clip_0)"><clipPath id="clip_0"><rect width="807" height="377"></rect></clipPath><g><g><g><line x1="0" y1="0" x2="0" y2="377" fill="rgb(0, 0, 0)" stroke="rgb(66, 66, 66)" stroke-width="1px" opacity="0.25"></line><line x1="67.31941666666665" y1="0" x2="67.31941666666665" y2="377" fill="rgb(0, 0, 0)" stroke="rgb(66, 66, 66)" stroke-width="1px" opacity="0.25"></line><line x1="134.6388333333333" y1="0" x2="134.6388333333333" y2="377" fill="rgb(0, 0, 0)" stroke="rgb(66, 66, 66)" stroke-width="1px" opacity="0.25"></line><line x1="201.95825" y1="0" x2="201.95825" y2="377" fill="rgb(0, 0, 0)" stroke="rgb(66, 66, 66)" stroke-width="1px" opacity="0.25"></line><line x1="269.2776666666666" y1="0" x2="269.2776666666666" y2="377" fill="rgb(0, 0, 0)" stroke="rgb(66, 66, 66)" stroke-width="1px" opacity="0.25"></line><line x1="336.59708333333333" y1="0" x2="336.59708333333333" y2="377" fill="rgb(0, 0, 0)" stroke="rgb(66, 66, 66)" stroke-width="1px" opacity="0.25"></line><line x1="403.9165" y1="0" x2="403.9165" y2="377" fill="rgb(0, 0, 0)" stroke="rgb(66, 66, 66)" stroke-width="1px" opacity="0.25"></line><line x1="471.2359166666667" y1="0" x2="471.2359166666667" y2="377" fill="rgb(0, 0, 0)" stroke="rgb(66, 66, 66)" stroke-width="1px" opacity="0.25"></line><line x1="538.5553333333332" y1="0" x2="538.5553333333332" y2="377" fill="rgb(0, 0, 0)" stroke="rgb(66, 66, 66)" stroke-width="1px" opacity="0.25"></line><line x1="605.87475" y1="0" x2="605.87475" y2="377" fill="rgb(0, 0, 0)" stroke="rgb(66, 66, 66)" stroke-width="1px" opacity="0.25"></line><line x1="673.1941666666667" y1="0" x2="673.1941666666667" y2="377" fill="rgb(0, 0, 0)" stroke="rgb(66, 66, 66)" stroke-width="1px" opacity="0.25"></line><line x1="740.5135833333333" y1="0" x2="740.5135833333333" y2="377" fill="rgb(0, 0, 0)" stroke="rgb(66, 66, 66)" stroke-width="1px" opacity="0.25"></line><line x1="807.833" y1="0" x2="807.833" y2="377" fill="rgb(0, 0, 0)" stroke="rgb(66, 66, 66)" stroke-width="1px" opacity="0.25"></line></g><g><line x1="0" y1="377" x2="807.833" y2="377" fill="rgb(0, 0, 0)" stroke="rgb(66, 66, 66)" stroke-width="1px" opacity="0.25"></line><line x1="0" y1="329.875" x2="807.833" y2="329.875" fill="rgb(0, 0, 0)" stroke="rgb(66, 66, 66)" stroke-width="1px" opacity="0.25"></line><line x1="0" y1="282.75" x2="807.833" y2="282.75" fill="rgb(0, 0, 0)" stroke="rgb(66, 66, 66)" stroke-width="1px" opacity="0.25"></line><line x1="0" y1="235.625" x2="807.833" y2="235.625" fill="rgb(0, 0, 0)" stroke="rgb(66, 66, 66)" stroke-width="1px" opacity="0.25"></line><line x1="0" y1="188.5" x2="807.833" y2="188.5" fill="rgb(0, 0, 0)" stroke="rgb(66, 66, 66)" stroke-width="1px" opacity="0.25"></line><line x1="0" y1="141.375" x2="807.833" y2="141.375" fill="rgb(0, 0, 0)" stroke="rgb(66, 66, 66)" stroke-width="1px" opacity="0.25"></line><line x1="0" y1="94.25" x2="807.833" y2="94.25" fill="rgb(0, 0, 0)" stroke="rgb(66, 66, 66)" stroke-width="1px" opacity="0.25"></line><line x1="0" y1="47.125" x2="807.833" y2="47.125" fill="rgb(0, 0, 0)" stroke="rgb(66, 66, 66)" stroke-width="1px" opacity="0.25"></line><line x1="0" y1="0" x2="807.833" y2="0" fill="rgb(0, 0, 0)" stroke="rgb(66, 66, 66)" stroke-width="1px" opacity="0.25"></line></g></g></g><g><g><line x1="0" y1="329.875" x2="807.833" y2="329.875" fill="rgb(0, 0, 0)" stroke="rgb(153, 153, 153)" stroke-width="1.5px"></line></g></g><g><g><line x1="67.31941666666665" y1="0" x2="67.31941666666665" y2="377" fill="rgb(0, 0, 0)" stroke="rgb(153, 153, 153)" stroke-width="1.5px"></line></g></g><g><g><g><g><g><path stroke="rgb(255, 112, 67)" stroke-width="2px" d="M74.05135833333333,-147.3199282487234L80.7833,12.195559993875483L87.51524166666667,43.89023256060366L94.24718333333333,56.01106512754945L100.979125,61.48561637718304L107.71106666666667,60.79801962478272L114.44300833333332,56.61473442276515L121.17495,63.11282800122052L127.90689166666665,61.08964771416425L134.6388333333333,54.48699626397811L141.37077499999998,56.18959566680747L148.10271666666665,66.97668081698711L154.83465833333335,77.68107471375409L161.5666,82.4852781001988L168.29854166666667,90.7889108599528L175.03048333333334,105.42444496000209L181.762425,122.30248250967843L188.49436666666665,133.1849495253258L195.22630833333332,150.46655783644638L201.95825,164.08794043156433L208.6901916666667,156.371397363256L215.42213333333333,177.88656482715422L222.154075,195.53948817345446L228.88601666666665,204.6275729606853L235.61795833333335,213.97872303900388L242.3499,236.30413267992978L249.08184166666666,243.07906176452144L255.8137833333333,244.13989341202716L262.545725,253.7517098327542L269.2776666666666,230.69100417285506L276.00960833333335,245.0095060692576L282.74154999999996,265.92461643038627L289.47349166666663,276.6252985706749L296.2054333333333,273.7377830491224L302.937375,275.9273119267598L309.6693166666667,283.0627960879552L316.4012583333333,285.8608590325495L323.1332,285.0660139408856L329.86514166666666,292.52107914846624L336.59708333333333,295.04912753370803L343.329025,294.041406987224L350.0609666666667,299.2875146743147L356.7929083333333,305.2720941942334L363.52485,305.63550060747815L370.25679166666663,302.4282229074826L376.9887333333333,297.437891268007L383.72067499999997,298.96212114580305L390.45261666666664,308.1151120102301L397.1845583333333,313.1993255466769L403.9165,314.8228650176495L410.6484416666666,314.5724638189828L417.3803833333334,311.59654019675287L424.112325,309.74321648427406L430.84426666666667,309.57452213539966L437.5762083333333,309.103980434443L444.30815,308.4602133453972L451.0400916666667,313.0856709632349L457.7720333333333,317.3938808998572L464.50397499999997,318.91811843710354L471.2359166666667,318.9961697138065L477.9678583333333,318.05771612539377L484.6998,304.75947658926106L491.4317416666666,306.43781623928993L498.1636833333333,297.0916797627534L504.895625,307.37323528733367L511.6275666666666,316.06985817227905L518.3595083333333,319.3517226623564L525.09145,321.89226879423717L531.8233916666667,322.2900209423562L538.5553333333332,322.0483851010002L545.287275,324.22983628738797L552.0192166666667,324.97812684525195L558.7511583333333,319.0052279636538L565.4830999999999,310.8208928706199L572.2150416666667,310.40823225449526L578.9469833333333,314.5848117507431L585.6789249999999,319.0935765828777L592.4108666666666,323.2612935135315L599.1428083333334,324.2224773809225L605.87475,325.7276235138889L612.6066916666666,326.58307505400984L619.3386333333334,326.1277706959775L626.070575,324.76098708004247L632.8025166666666,324.1846569188253L639.5344583333333,322.9891493149639L646.2664,321.708997933661L652.9983416666666,324.8189158501283L659.7302833333333,326.81396977007296L666.462225,320.5805437168559L673.1941666666667,296.95250757265444L679.9261083333333,311.726729156184L686.65805,319.9105786058995L693.3899916666666,324.01605448902234L700.1219333333333,325.3965569776326L706.853875,323.6349037039479L713.5858166666666,320.3944913132347L720.3177583333334,321.23075879162275L727.0497,311.18818371175695L733.7816416666666,314.0484079051913L740.5135833333333,319.85188085330907L747.245525,323.0530868320719L753.9774666666666,325.76599810789344L760.7094083333333,326.34671728569447L767.4413499999999,326.8856136582273L774.1732916666666,327.2008136584668L780.9052333333333,327.21385277227677L787.637175,328.40755167075645" style="fill: none;" fill="none"></path></g></g></g></g><g opacity="0.2"><g><g><g><path stroke="rgb(255, 112, 67)" stroke-width="2px" d="M74.05135833333333,-111.98978221416473L80.7833,54.550750494003296L87.51524166666667,52.63429296016693L94.24718333333333,59.38238698244095L100.979125,63.01101863384247L107.71106666666667,60.60635721683502L114.44300833333332,55.44857734441757L121.17495,64.92430776357651L127.90689166666665,60.525641560554504L134.6388333333333,52.646359860897064L141.37077499999998,56.664233326911926L148.10271666666665,69.98382216691971L154.83465833333335,80.6651640534401L161.5666,83.82455730438232L168.29854166666667,93.10373431444168L175.03048333333334,109.50442761182785L181.762425,127.00761318206787L188.49436666666665,136.21868073940277L195.22630833333332,155.28419288992882L201.95825,167.88520565629005L208.6901916666667,154.22023829817772L215.42213333333333,183.88439923524857L222.154075,200.4606356024742L228.88601666666665,207.1610799729824L235.61795833333335,216.58556538820267L242.3499,242.52784022688866L249.08184166666666,244.9677248597145L255.8137833333333,244.43562397360802L262.545725,256.43121875822544L269.2776666666666,224.26231640577316L276.00960833333335,249.00110889971256L282.74154999999996,271.7551714926958L289.47349166666663,279.60835318267345L296.2054333333333,272.93282347917557L302.937375,276.53769209980965L309.6693166666667,285.05197197943926L316.4012583333333,286.6408816948533L323.1332,284.8444330841303L329.86514166666666,294.59934540838003L336.59708333333333,295.753877595067L343.329025,293.7604823336005L350.0609666666667,300.7499845921993L356.7929083333333,306.94042966142297L363.52485,305.73680827766657L370.25679166666663,301.5341224744916L376.9887333333333,296.04672464728355L383.72067499999997,299.38703433424234L390.45261666666664,310.66671304404736L397.1845583333333,314.6166638471186L403.9165,315.2754629775882L410.6484416666666,314.50265888124704L417.3803833333334,310.76693489030004L424.112325,309.22656102478504L430.84426666666667,309.5274948105216L437.5762083333333,308.97280640527606L444.30815,308.2807488627732L451.0400916666667,314.37512078508735L457.7720333333333,318.59489083103836L464.50397499999997,319.34303376078606L471.2359166666667,319.0179282538593L477.9678583333333,317.7961011864245L484.6998,301.05229472368956L491.4317416666666,306.90569097548723L498.1636833333333,294.48623506724834L504.895625,310.23944897577167L511.6275666666666,318.4942364189774L518.3595083333333,320.2666158322245L525.09145,322.6005028821528L531.8233916666667,322.4009032547474L538.5553333333332,321.98102370277047L545.287275,324.83796462323517L552.0192166666667,325.18672958388925L558.7511583333333,317.34014873579144L565.4830999999999,308.5393263101578L572.2150416666667,310.293193873018L578.9469833333333,315.74912675097585L585.6789249999999,320.350495679304L592.4108666666666,324.4231378752738L599.1428083333334,324.4904288938269L605.87475,326.147216681391L612.6066916666666,326.8215513145551L619.3386333333334,326.0008444171399L626.070575,324.37996556051075L632.8025166666666,324.02399198897183L639.5344583333333,322.6558748167008L646.2664,321.35212708823383L652.9983416666666,325.6858750646934L659.7302833333333,327.37013569660485L666.462225,318.8428367096931L673.1941666666667,290.36566373705864L679.9261083333333,315.8453740477562L686.65805,322.1920097824186L693.3899916666666,325.1605477659032L700.1219333333333,325.78140293993056L706.853875,323.14380343072116L713.5858166666666,319.4911538437009L720.3177583333334,321.46388706564903L727.0497,308.388591170311L733.7816416666666,314.84575940668583L740.5135833333333,321.4697288107127L747.245525,323.9454946368933L753.9774666666666,326.52228283695877L760.7094083333333,326.5086057521403L767.4413499999999,327.0358430817723L774.1732916666666,327.288682712242L780.9052333333333,327.21748771704733L787.637175,328.7403219519183" style="fill: none;" fill="none"></path></g></g></g></g></g></g><g transform="translate(50, 377)" clip-path="url(#clip_1)"><clipPath id="clip_1"><rect width="807" height="23"></rect></clipPath><g><g><line x1="0" y1="0" x2="0" y2="5" style="visibility: inherit;" fill="rgb(0, 0, 0)" stroke="rgb(204, 204, 204)" stroke-width="1px"></line><line x1="67.31941666666665" y1="0" x2="67.31941666666665" y2="5" style="visibility: inherit;" fill="rgb(0, 0, 0)" stroke="rgb(204, 204, 204)" stroke-width="1px"></line><line x1="134.6388333333333" y1="0" x2="134.6388333333333" y2="5" style="visibility: inherit;" fill="rgb(0, 0, 0)" stroke="rgb(204, 204, 204)" stroke-width="1px"></line><line x1="201.95825" y1="0" x2="201.95825" y2="5" style="visibility: inherit;" fill="rgb(0, 0, 0)" stroke="rgb(204, 204, 204)" stroke-width="1px"></line><line x1="269.2776666666666" y1="0" x2="269.2776666666666" y2="5" style="visibility: inherit;" fill="rgb(0, 0, 0)" stroke="rgb(204, 204, 204)" stroke-width="1px"></line><line x1="336.59708333333333" y1="0" x2="336.59708333333333" y2="5" style="visibility: inherit;" fill="rgb(0, 0, 0)" stroke="rgb(204, 204, 204)" stroke-width="1px"></line><line x1="403.9165" y1="0" x2="403.9165" y2="5" style="visibility: inherit;" fill="rgb(0, 0, 0)" stroke="rgb(204, 204, 204)" stroke-width="1px"></line><line x1="471.2359166666667" y1="0" x2="471.2359166666667" y2="5" style="visibility: inherit;" fill="rgb(0, 0, 0)" stroke="rgb(204, 204, 204)" stroke-width="1px"></line><line x1="538.5553333333332" y1="0" x2="538.5553333333332" y2="5" style="visibility: inherit;" fill="rgb(0, 0, 0)" stroke="rgb(204, 204, 204)" stroke-width="1px"></line><line x1="605.87475" y1="0" x2="605.87475" y2="5" style="visibility: inherit;" fill="rgb(0, 0, 0)" stroke="rgb(204, 204, 204)" stroke-width="1px"></line><line x1="673.1941666666667" y1="0" x2="673.1941666666667" y2="5" style="visibility: inherit;" fill="rgb(0, 0, 0)" stroke="rgb(204, 204, 204)" stroke-width="1px"></line><line x1="740.5135833333333" y1="0" x2="740.5135833333333" y2="5" style="visibility: inherit;" fill="rgb(0, 0, 0)" stroke="rgb(204, 204, 204)" stroke-width="1px"></line><line x1="807.833" y1="0" x2="807.833" y2="5" style="visibility: inherit;" fill="rgb(0, 0, 0)" stroke="rgb(204, 204, 204)" stroke-width="1px"></line></g><g transform="translate(0, 8)"><text x="0" y="0" dx="0em" dy="0.95em" style="text-anchor: middle; visibility: hidden; font-family: Roboto, sans-serif; font-size: 12px; font-weight: 200;" fill="rgb(33, 33, 33)" stroke="none" stroke-width="1px">-10</text><text x="67.31941666666665" y="0" dx="0em" dy="0.95em" style="text-anchor: middle; visibility: inherit; font-family: Roboto, sans-serif; font-size: 12px; font-weight: 200;" fill="rgb(33, 33, 33)" stroke="none" stroke-width="1px">0</text><text x="134.6388333333333" y="0" dx="0em" dy="0.95em" style="text-anchor: middle; visibility: inherit; font-family: Roboto, sans-serif; font-size: 12px; font-weight: 200;" fill="rgb(33, 33, 33)" stroke="none" stroke-width="1px">10</text><text x="201.95825" y="0" dx="0em" dy="0.95em" style="text-anchor: middle; visibility: inherit; font-family: Roboto, sans-serif; font-size: 12px; font-weight: 200;" fill="rgb(33, 33, 33)" stroke="none" stroke-width="1px">20</text><text x="269.2776666666666" y="0" dx="0em" dy="0.95em" style="text-anchor: middle; visibility: inherit; font-family: Roboto, sans-serif; font-size: 12px; font-weight: 200;" fill="rgb(33, 33, 33)" stroke="none" stroke-width="1px">30</text><text x="336.59708333333333" y="0" dx="0em" dy="0.95em" style="text-anchor: middle; visibility: inherit; font-family: Roboto, sans-serif; font-size: 12px; font-weight: 200;" fill="rgb(33, 33, 33)" stroke="none" stroke-width="1px">40</text><text x="403.9165" y="0" dx="0em" dy="0.95em" style="text-anchor: middle; visibility: inherit; font-family: Roboto, sans-serif; font-size: 12px; font-weight: 200;" fill="rgb(33, 33, 33)" stroke="none" stroke-width="1px">50</text><text x="471.2359166666667" y="0" dx="0em" dy="0.95em" style="text-anchor: middle; visibility: inherit; font-family: Roboto, sans-serif; font-size: 12px; font-weight: 200;" fill="rgb(33, 33, 33)" stroke="none" stroke-width="1px">60</text><text x="538.5553333333332" y="0" dx="0em" dy="0.95em" style="text-anchor: middle; visibility: inherit; font-family: Roboto, sans-serif; font-size: 12px; font-weight: 200;" fill="rgb(33, 33, 33)" stroke="none" stroke-width="1px">70</text><text x="605.87475" y="0" dx="0em" dy="0.95em" style="text-anchor: middle; visibility: inherit; font-family: Roboto, sans-serif; font-size: 12px; font-weight: 200;" fill="rgb(33, 33, 33)" stroke="none" stroke-width="1px">80</text><text x="673.1941666666667" y="0" dx="0em" dy="0.95em" style="text-anchor: middle; visibility: inherit; font-family: Roboto, sans-serif; font-size: 12px; font-weight: 200;" fill="rgb(33, 33, 33)" stroke="none" stroke-width="1px">90</text><text x="740.5135833333333" y="0" dx="0em" dy="0.95em" style="text-anchor: middle; visibility: inherit; font-family: Roboto, sans-serif; font-size: 12px; font-weight: 200;" fill="rgb(33, 33, 33)" stroke="none" stroke-width="1px">100</text><text x="807.833" y="0" dx="0em" dy="0.95em" style="text-anchor: middle; visibility: hidden; font-family: Roboto, sans-serif; font-size: 12px; font-weight: 200;" fill="rgb(33, 33, 33)" stroke="none" stroke-width="1px">110</text></g><line x1="0" y1="0" x2="807.833" y2="0" fill="rgb(0, 0, 0)" stroke="rgb(204, 204, 204)" stroke-width="1px"></line></g></g></g></g></svg>