<svg viewBox="0 0 857.8333740234375 400" xmlns="http://www.w3.org/2000/svg"><g><g><g><g><g><line x1="40" y1="377" x2="35" y2="377" style="visibility: inherit;" fill="rgb(0, 0, 0)" stroke="rgb(204, 204, 204)" stroke-width="1px"></line><line x1="40" y1="342.7272727272727" x2="35" y2="342.7272727272727" style="visibility: inherit;" fill="rgb(0, 0, 0)" stroke="rgb(204, 204, 204)" stroke-width="1px"></line><line x1="40" y1="308.45454545454544" x2="35" y2="308.45454545454544" style="visibility: inherit;" fill="rgb(0, 0, 0)" stroke="rgb(204, 204, 204)" stroke-width="1px"></line><line x1="40" y1="274.1818181818182" x2="35" y2="274.1818181818182" style="visibility: inherit;" fill="rgb(0, 0, 0)" stroke="rgb(204, 204, 204)" stroke-width="1px"></line><line x1="40" y1="239.9090909090909" x2="35" y2="239.9090909090909" style="visibility: inherit;" fill="rgb(0, 0, 0)" stroke="rgb(204, 204, 204)" stroke-width="1px"></line><line x1="40" y1="205.63636363636363" x2="35" y2="205.63636363636363" style="visibility: inherit;" fill="rgb(0, 0, 0)" stroke="rgb(204, 204, 204)" stroke-width="1px"></line><line x1="40" y1="171.36363636363637" x2="35" y2="171.36363636363637" style="visibility: inherit;" fill="rgb(0, 0, 0)" stroke="rgb(204, 204, 204)" stroke-width="1px"></line><line x1="40" y1="137.09090909090915" x2="35" y2="137.09090909090915" style="visibility: inherit;" fill="rgb(0, 0, 0)" stroke="rgb(204, 204, 204)" stroke-width="1px"></line><line x1="40" y1="102.81818181818181" x2="35" y2="102.81818181818181" style="visibility: inherit;" fill="rgb(0, 0, 0)" stroke="rgb(204, 204, 204)" stroke-width="1px"></line><line x1="40" y1="68.54545454545458" x2="35" y2="68.54545454545458" style="visibility: inherit;" fill="rgb(0, 0, 0)" stroke="rgb(204, 204, 204)" stroke-width="1px"></line><line x1="40" y1="34.27272727272729" x2="35" y2="34.27272727272729" style="visibility: inherit;" fill="rgb(0, 0, 0)" stroke="rgb(204, 204, 204)" stroke-width="1px"></line><line x1="40" y1="0" x2="35" y2="0" style="visibility: inherit;" fill="rgb(0, 0, 0)" stroke="rgb(204, 204, 204)" stroke-width="1px"></line></g><g transform="translate(30, 0)"><text x="0" y="377" dx="0em" dy="0.3em" style="text-anchor: end; visibility: hidden; font-family: Roboto, sans-serif; font-size: 12px; font-weight: 200;" fill="rgb(33, 33, 33)" stroke="none" stroke-width="1px">0</text><text x="0" y="342.7272727272727" dx="0em" dy="0.3em" style="text-anchor: end; visibility: inherit; font-family: Roboto, sans-serif; font-size: 12px; font-weight: 200;" fill="rgb(33, 33, 33)" stroke="none" stroke-width="1px">0.1</text><text x="0" y="308.45454545454544" dx="0em" dy="0.3em" style="text-anchor: end; visibility: inherit; font-family: Roboto, sans-serif; font-size: 12px; font-weight: 200;" fill="rgb(33, 33, 33)" stroke="none" stroke-width="1px">0.2</text><text x="0" y="274.1818181818182" dx="0em" dy="0.3em" style="text-anchor: end; visibility: inherit; font-family: Roboto, sans-serif; font-size: 12px; font-weight: 200;" fill="rgb(33, 33, 33)" stroke="none" stroke-width="1px">0.3</text><text x="0" y="239.9090909090909" dx="0em" dy="0.3em" style="text-anchor: end; visibility: inherit; font-family: Roboto, sans-serif; font-size: 12px; font-weight: 200;" fill="rgb(33, 33, 33)" stroke="none" stroke-width="1px">0.4</text><text x="0" y="205.63636363636363" dx="0em" dy="0.3em" style="text-anchor: end; visibility: inherit; font-family: Roboto, sans-serif; font-size: 12px; font-weight: 200;" fill="rgb(33, 33, 33)" stroke="none" stroke-width="1px">0.5</text><text x="0" y="171.36363636363637" dx="0em" dy="0.3em" style="text-anchor: end; visibility: inherit; font-family: Roboto, sans-serif; font-size: 12px; font-weight: 200;" fill="rgb(33, 33, 33)" stroke="none" stroke-width="1px">0.6</text><text x="0" y="137.09090909090915" dx="0em" dy="0.3em" style="text-anchor: end; visibility: inherit; font-family: Roboto, sans-serif; font-size: 12px; font-weight: 200;" fill="rgb(33, 33, 33)" stroke="none" stroke-width="1px">0.7</text><text x="0" y="102.81818181818181" dx="0em" dy="0.3em" style="text-anchor: end; visibility: inherit; font-family: Roboto, sans-serif; font-size: 12px; font-weight: 200;" fill="rgb(33, 33, 33)" stroke="none" stroke-width="1px">0.8</text><text x="0" y="68.54545454545458" dx="0em" dy="0.3em" style="text-anchor: end; visibility: inherit; font-family: Roboto, sans-serif; font-size: 12px; font-weight: 200;" fill="rgb(33, 33, 33)" stroke="none" stroke-width="1px">0.9</text><text x="0" y="34.27272727272729" dx="0em" dy="0.3em" style="text-anchor: end; visibility: inherit; font-family: Roboto, sans-serif; font-size: 12px; font-weight: 200;" fill="rgb(33, 33, 33)" stroke="none" stroke-width="1px">1</text><text x="0" y="0" dx="0em" dy="0.3em" style="text-anchor: end; visibility: hidden; font-family: Roboto, sans-serif; font-size: 12px; font-weight: 200;" fill="rgb(33, 33, 33)" stroke="none" stroke-width="1px">1.1</text></g><line x1="40" y1="0" x2="40" y2="377" fill="rgb(0, 0, 0)" stroke="rgb(204, 204, 204)" stroke-width="1px"></line></g></g><g transform="translate(40, 0)" clip-path="url(#clip_0)"><clipPath id="clip_0"><rect width="817" height="377"></rect></clipPath><g><g><g><line x1="0" y1="0" x2="0" y2="377" fill="rgb(0, 0, 0)" stroke="rgb(66, 66, 66)" stroke-width="1px" opacity="0.25"></line><line x1="68.15275" y1="0" x2="68.15275" y2="377" fill="rgb(0, 0, 0)" stroke="rgb(66, 66, 66)" stroke-width="1px" opacity="0.25"></line><line x1="136.3055" y1="0" x2="136.3055" y2="377" fill="rgb(0, 0, 0)" stroke="rgb(66, 66, 66)" stroke-width="1px" opacity="0.25"></line><line x1="204.45825" y1="0" x2="204.45825" y2="377" fill="rgb(0, 0, 0)" stroke="rgb(66, 66, 66)" stroke-width="1px" opacity="0.25"></line><line x1="272.611" y1="0" x2="272.611" y2="377" fill="rgb(0, 0, 0)" stroke="rgb(66, 66, 66)" stroke-width="1px" opacity="0.25"></line><line x1="340.76375" y1="0" x2="340.76375" y2="377" fill="rgb(0, 0, 0)" stroke="rgb(66, 66, 66)" stroke-width="1px" opacity="0.25"></line><line x1="408.9165" y1="0" x2="408.9165" y2="377" fill="rgb(0, 0, 0)" stroke="rgb(66, 66, 66)" stroke-width="1px" opacity="0.25"></line><line x1="477.06925" y1="0" x2="477.06925" y2="377" fill="rgb(0, 0, 0)" stroke="rgb(66, 66, 66)" stroke-width="1px" opacity="0.25"></line><line x1="545.222" y1="0" x2="545.222" y2="377" fill="rgb(0, 0, 0)" stroke="rgb(66, 66, 66)" stroke-width="1px" opacity="0.25"></line><line x1="613.37475" y1="0" x2="613.37475" y2="377" fill="rgb(0, 0, 0)" stroke="rgb(66, 66, 66)" stroke-width="1px" opacity="0.25"></line><line x1="681.5275" y1="0" x2="681.5275" y2="377" fill="rgb(0, 0, 0)" stroke="rgb(66, 66, 66)" stroke-width="1px" opacity="0.25"></line><line x1="749.6802499999999" y1="0" x2="749.6802499999999" y2="377" fill="rgb(0, 0, 0)" stroke="rgb(66, 66, 66)" stroke-width="1px" opacity="0.25"></line><line x1="817.833" y1="0" x2="817.833" y2="377" fill="rgb(0, 0, 0)" stroke="rgb(66, 66, 66)" stroke-width="1px" opacity="0.25"></line></g><g><line x1="0" y1="377" x2="817.833" y2="377" fill="rgb(0, 0, 0)" stroke="rgb(66, 66, 66)" stroke-width="1px" opacity="0.25"></line><line x1="0" y1="342.7272727272727" x2="817.833" y2="342.7272727272727" fill="rgb(0, 0, 0)" stroke="rgb(66, 66, 66)" stroke-width="1px" opacity="0.25"></line><line x1="0" y1="308.45454545454544" x2="817.833" y2="308.45454545454544" fill="rgb(0, 0, 0)" stroke="rgb(66, 66, 66)" stroke-width="1px" opacity="0.25"></line><line x1="0" y1="274.1818181818182" x2="817.833" y2="274.1818181818182" fill="rgb(0, 0, 0)" stroke="rgb(66, 66, 66)" stroke-width="1px" opacity="0.25"></line><line x1="0" y1="239.9090909090909" x2="817.833" y2="239.9090909090909" fill="rgb(0, 0, 0)" stroke="rgb(66, 66, 66)" stroke-width="1px" opacity="0.25"></line><line x1="0" y1="205.63636363636363" x2="817.833" y2="205.63636363636363" fill="rgb(0, 0, 0)" stroke="rgb(66, 66, 66)" stroke-width="1px" opacity="0.25"></line><line x1="0" y1="171.36363636363637" x2="817.833" y2="171.36363636363637" fill="rgb(0, 0, 0)" stroke="rgb(66, 66, 66)" stroke-width="1px" opacity="0.25"></line><line x1="0" y1="137.09090909090915" x2="817.833" y2="137.09090909090915" fill="rgb(0, 0, 0)" stroke="rgb(66, 66, 66)" stroke-width="1px" opacity="0.25"></line><line x1="0" y1="102.81818181818181" x2="817.833" y2="102.81818181818181" fill="rgb(0, 0, 0)" stroke="rgb(66, 66, 66)" stroke-width="1px" opacity="0.25"></line><line x1="0" y1="68.54545454545458" x2="817.833" y2="68.54545454545458" fill="rgb(0, 0, 0)" stroke="rgb(66, 66, 66)" stroke-width="1px" opacity="0.25"></line><line x1="0" y1="34.27272727272729" x2="817.833" y2="34.27272727272729" fill="rgb(0, 0, 0)" stroke="rgb(66, 66, 66)" stroke-width="1px" opacity="0.25"></line><line x1="0" y1="0" x2="817.833" y2="0" fill="rgb(0, 0, 0)" stroke="rgb(66, 66, 66)" stroke-width="1px" opacity="0.25"></line></g></g></g><g><g><line x1="0" y1="377" x2="817.833" y2="377" fill="rgb(0, 0, 0)" stroke="rgb(153, 153, 153)" stroke-width="1.5px"></line></g></g><g><g><line x1="68.15275" y1="0" x2="68.15275" y2="377" fill="rgb(0, 0, 0)" stroke="rgb(153, 153, 153)" stroke-width="1.5px"></line></g></g><g><g><g><g><g><path stroke="rgb(255, 112, 67)" stroke-width="2px" d="M68.15275,356.6505684371699L74.968025,346.09862101416695L81.7833,338.63888346312996L88.598575,338.2056855298969L95.41385,337.2742291857085L102.229125,330.37057153176045L109.0444,328.8662799644317L115.859675,333.28446031811376L122.67495,317.4967880876689L129.49022499999998,327.4557310765948L136.3055,340.23561789427276L143.12077499999998,322.08313801783555L149.93605,331.52653320251443L156.751325,309.296539109055L163.5666,301.1002405182245L170.381875,300.98852936807384L177.19715,287.005181456377L184.012425,270.8353557047859L190.8277,262.84345117562395L197.642975,256.9135171246321L204.45825,239.42835536296198L211.273525,253.4841041854464L218.0888,223.884209487345L224.904075,198.4471917372461L231.71935,185.08489144384498L238.534625,182.45108564417833L245.3499,155.07565283746035L252.165175,140.73241075832314L258.98044999999996,141.23491554531444L265.795725,130.17725929424714L272.611,129.44177616689035L279.426275,137.09847126900618L286.24154999999996,111.40800035548368L293.056825,99.10716590443894L299.8721,104.80098172138393L306.687375,98.22518717079488L313.50265,87.85791490290408L320.317925,86.15620087709354L327.1332,84.1101572588943L333.948475,75.84707335144388L340.76375,71.53310813135924L347.579025,77.57216714437587L354.3943,70.5132842819408L361.209575,64.22838165090047L368.02485,62.02072990964573L374.84012499999994,64.33126639741087L381.6554,67.9059435833972L388.47067499999997,66.45178594597665L395.28595,57.75938185374625L402.10122499999994,52.51428186569162L408.9165,50.254115461509514L415.73177499999997,51.99485242416678L422.54705,54.886946010286565L429.362325,56.07578971545377L436.1776,57.17248463606478L442.99287499999997,57.96993143215102L449.80815,57.58540753030478L456.623425,50.52209386351057L463.4387,45.91131125249593L470.25397499999997,44.906160643294726L477.06925,46.082932106766556L483.884525,45.22274965382056L490.6998,59.5525880696582L497.51507499999997,58.7679696449693L504.33035,70.0433007873134L511.145625,59.10068341774738L517.9608999999999,50.01488103928516L524.776175,45.80073885681476L531.59145,42.648618597070616L538.4067249999999,41.403089077053316L545.222,43.36500090565513L552.037275,40.72171745263675L558.85255,39.307938692190824L565.667825,46.25841401770352L572.4830999999999,56.70738266933112L579.298375,54.23919166835645L586.11365,49.23425150221277L592.9289249999999,46.468104585420924L599.7442,40.28147542284293L606.559475,40.887051865071676L613.37475,37.94808729782399L620.190025,37.58656868645884L627.0053,38.066124932574326L633.820575,40.40410545819309L640.63585,40.076242245090036L647.4511249999999,41.959029664304346L654.2664,44.32373892136384L661.081675,39.5348280437836L667.89695,36.81575953709524L674.712225,40.410701466273515L681.5275,71.066658155682L688.342775,54.85690079612052L695.15805,46.29793186041175L701.9733249999999,40.523553433085745L708.7886,39.26473893592869L715.603875,40.66540331092436L722.41915,43.76255271203214L729.234425,43.600188313785644L736.0497,56.96543243356499L742.864975,51.50365792440415L749.6802499999999,46.125292217770706L756.495525,41.60265259777622L763.3108,38.66245556094666L770.126075,38.30066827121269L776.9413499999999,36.825904345773004L783.756625,35.94603850663407L790.5719,37.15012204997946L797.387175,35.458366637561376" style="fill: none;" fill="none"></path></g></g></g></g><g opacity="0.2"><g><g><g><path stroke="rgb(255, 112, 67)" stroke-width="2px" d="M68.15275,356.6505684371699L74.968025,343.7982964759523L81.7833,336.6581441096284L88.598575,338.08617305078286L95.41385,337.015151344917L102.229125,328.4469700374387L109.0444,328.4469700374387L115.859675,334.5160981443795L122.67495,313.095643598925L129.49022499999998,330.2320062138818L136.3055,343.7982964759523L143.12077499999998,317.02272829413414L149.93605,334.1590909090909L156.751325,303.099430796775L163.5666,298.8153388662772L170.381875,300.95738738504326L177.19715,283.1070102995092L184.012425,266.3276549198411L190.8277,260.6155289411545L197.642975,255.26041530479085L204.45825,234.55397522991353L211.273525,257.4024587165226L218.0888,215.6325764385137L224.904075,191.35605379668155L231.71935,181.35985120860013L238.534625,181.71685333685443L245.3499,147.44413832100958L252.165175,136.7339110482823L258.98044999999996,141.375L265.795725,127.09469016031787L272.611,129.23674378611827L279.426275,139.23294637419963L286.24154999999996,104.24620667370887L293.056825,95.67803302678199L299.8721,106.38826029950923L306.687375,96.39203728329055L313.50265,84.96780575405471L320.317925,85.68181001056325L327.1332,83.53977681290023L333.948475,73.5435537966815L340.76375,70.33049378611828L347.579025,79.25568998943679L354.3943,68.5454627167095L361.209575,62.476324395699955L368.02485,61.405297582799776L374.84012499999994,64.97538014975466L381.6554,68.9024648449638L388.47067499999997,66.04640696265484L395.28595,55.336179689927555L402.10122499999994,51.052092866464115L408.9165,49.62404349717231L415.73177499999997,52.480121807618595L422.54705,55.693181818181856L429.362325,56.407206502827776L436.1776,57.47821288759059L442.99287499999997,58.192237572236515L449.80815,57.47821288759059L456.623425,48.553037112409456L463.4387,44.62595241720027L470.25397499999997,44.62595241720027L477.06925,46.41098348660905L483.884525,44.98295454545457L490.6998,63.547351208600176L497.51507499999997,58.549239700490816L504.33035,73.18655166842724L511.145625,56.05018394643611L517.9608999999999,47.48201029950923L524.776175,44.62595241720027L531.59145,41.76989453489131L538.4067249999999,41.05586985024543L545.222,43.91192773255439L552.037275,39.98484303734521L558.85255,38.91381622444502L565.667825,48.19601455601783L572.4830999999999,59.620266513390995L579.298375,53.55112819238145L586.11365,47.83901242776353L592.9289249999999,45.696979230100496L599.7442,38.55681409619073L606.559475,41.05586985024543L613.37475,37.12878515503625L620.190025,37.48578728329054L627.0053,38.19981196793647L633.820575,41.05586985024543L640.63585,39.98484303734521L647.4511249999999,42.48389879139991L654.2664,44.98295454545457L661.081675,38.19981196793647L667.89695,36.05775834213606L674.712225,41.41287197849969L681.5275,79.61269211769108L688.342775,50.33806818181819L695.15805,43.91192773255439L701.9733249999999,38.91381622444502L708.7886,38.91381622444502L715.603875,41.05586985024543L722.41915,44.62595241720027L729.234425,43.55492560430009L736.0497,60.691293326291216L742.864975,49.981066053563936L749.6802499999999,44.62595241720027L756.495525,40.34186559373683L763.3108,37.84280983968217L770.126075,38.19981196793647L776.9413499999999,36.41478089852769L783.756625,35.70075621388177L790.5719,37.48578728329054L797.387175,34.98675195737321" style="fill: none;" fill="none"></path></g></g></g></g></g></g><g transform="translate(40, 377)" clip-path="url(#clip_1)"><clipPath id="clip_1"><rect width="817" height="23"></rect></clipPath><g><g><line x1="0" y1="0" x2="0" y2="5" style="visibility: inherit;" fill="rgb(0, 0, 0)" stroke="rgb(204, 204, 204)" stroke-width="1px"></line><line x1="68.15275" y1="0" x2="68.15275" y2="5" style="visibility: inherit;" fill="rgb(0, 0, 0)" stroke="rgb(204, 204, 204)" stroke-width="1px"></line><line x1="136.3055" y1="0" x2="136.3055" y2="5" style="visibility: inherit;" fill="rgb(0, 0, 0)" stroke="rgb(204, 204, 204)" stroke-width="1px"></line><line x1="204.45825" y1="0" x2="204.45825" y2="5" style="visibility: inherit;" fill="rgb(0, 0, 0)" stroke="rgb(204, 204, 204)" stroke-width="1px"></line><line x1="272.611" y1="0" x2="272.611" y2="5" style="visibility: inherit;" fill="rgb(0, 0, 0)" stroke="rgb(204, 204, 204)" stroke-width="1px"></line><line x1="340.76375" y1="0" x2="340.76375" y2="5" style="visibility: inherit;" fill="rgb(0, 0, 0)" stroke="rgb(204, 204, 204)" stroke-width="1px"></line><line x1="408.9165" y1="0" x2="408.9165" y2="5" style="visibility: inherit;" fill="rgb(0, 0, 0)" stroke="rgb(204, 204, 204)" stroke-width="1px"></line><line x1="477.06925" y1="0" x2="477.06925" y2="5" style="visibility: inherit;" fill="rgb(0, 0, 0)" stroke="rgb(204, 204, 204)" stroke-width="1px"></line><line x1="545.222" y1="0" x2="545.222" y2="5" style="visibility: inherit;" fill="rgb(0, 0, 0)" stroke="rgb(204, 204, 204)" stroke-width="1px"></line><line x1="613.37475" y1="0" x2="613.37475" y2="5" style="visibility: inherit;" fill="rgb(0, 0, 0)" stroke="rgb(204, 204, 204)" stroke-width="1px"></line><line x1="681.5275" y1="0" x2="681.5275" y2="5" style="visibility: inherit;" fill="rgb(0, 0, 0)" stroke="rgb(204, 204, 204)" stroke-width="1px"></line><line x1="749.6802499999999" y1="0" x2="749.6802499999999" y2="5" style="visibility: inherit;" fill="rgb(0, 0, 0)" stroke="rgb(204, 204, 204)" stroke-width="1px"></line><line x1="817.833" y1="0" x2="817.833" y2="5" style="visibility: inherit;" fill="rgb(0, 0, 0)" stroke="rgb(204, 204, 204)" stroke-width="1px"></line></g><g transform="translate(0, 8)"><text x="0" y="0" dx="0em" dy="0.95em" style="text-anchor: middle; visibility: hidden; font-family: Roboto, sans-serif; font-size: 12px; font-weight: 200;" fill="rgb(33, 33, 33)" stroke="none" stroke-width="1px">-10</text><text x="68.15275" y="0" dx="0em" dy="0.95em" style="text-anchor: middle; visibility: inherit; font-family: Roboto, sans-serif; font-size: 12px; font-weight: 200;" fill="rgb(33, 33, 33)" stroke="none" stroke-width="1px">0</text><text x="136.3055" y="0" dx="0em" dy="0.95em" style="text-anchor: middle; visibility: inherit; font-family: Roboto, sans-serif; font-size: 12px; font-weight: 200;" fill="rgb(33, 33, 33)" stroke="none" stroke-width="1px">10</text><text x="204.45825" y="0" dx="0em" dy="0.95em" style="text-anchor: middle; visibility: inherit; font-family: Roboto, sans-serif; font-size: 12px; font-weight: 200;" fill="rgb(33, 33, 33)" stroke="none" stroke-width="1px">20</text><text x="272.611" y="0" dx="0em" dy="0.95em" style="text-anchor: middle; visibility: inherit; font-family: Roboto, sans-serif; font-size: 12px; font-weight: 200;" fill="rgb(33, 33, 33)" stroke="none" stroke-width="1px">30</text><text x="340.76375" y="0" dx="0em" dy="0.95em" style="text-anchor: middle; visibility: inherit; font-family: Roboto, sans-serif; font-size: 12px; font-weight: 200;" fill="rgb(33, 33, 33)" stroke="none" stroke-width="1px">40</text><text x="408.9165" y="0" dx="0em" dy="0.95em" style="text-anchor: middle; visibility: inherit; font-family: Roboto, sans-serif; font-size: 12px; font-weight: 200;" fill="rgb(33, 33, 33)" stroke="none" stroke-width="1px">50</text><text x="477.06925" y="0" dx="0em" dy="0.95em" style="text-anchor: middle; visibility: inherit; font-family: Roboto, sans-serif; font-size: 12px; font-weight: 200;" fill="rgb(33, 33, 33)" stroke="none" stroke-width="1px">60</text><text x="545.222" y="0" dx="0em" dy="0.95em" style="text-anchor: middle; visibility: inherit; font-family: Roboto, sans-serif; font-size: 12px; font-weight: 200;" fill="rgb(33, 33, 33)" stroke="none" stroke-width="1px">70</text><text x="613.37475" y="0" dx="0em" dy="0.95em" style="text-anchor: middle; visibility: inherit; font-family: Roboto, sans-serif; font-size: 12px; font-weight: 200;" fill="rgb(33, 33, 33)" stroke="none" stroke-width="1px">80</text><text x="681.5275" y="0" dx="0em" dy="0.95em" style="text-anchor: middle; visibility: inherit; font-family: Roboto, sans-serif; font-size: 12px; font-weight: 200;" fill="rgb(33, 33, 33)" stroke="none" stroke-width="1px">90</text><text x="749.6802499999999" y="0" dx="0em" dy="0.95em" style="text-anchor: middle; visibility: inherit; font-family: Roboto, sans-serif; font-size: 12px; font-weight: 200;" fill="rgb(33, 33, 33)" stroke="none" stroke-width="1px">100</text><text x="817.833" y="0" dx="0em" dy="0.95em" style="text-anchor: middle; visibility: hidden; font-family: Roboto, sans-serif; font-size: 12px; font-weight: 200;" fill="rgb(33, 33, 33)" stroke="none" stroke-width="1px">110</text></g><line x1="0" y1="0" x2="817.833" y2="0" fill="rgb(0, 0, 0)" stroke="rgb(204, 204, 204)" stroke-width="1px"></line></g></g></g></g></svg>