<svg viewBox="0 0 857.8333740234375 400" xmlns="http://www.w3.org/2000/svg"><g><g><g><g><g><line x1="50" y1="377" x2="45" y2="377" style="visibility: inherit;" fill="rgb(0, 0, 0)" stroke="rgb(204, 204, 204)" stroke-width="1px"></line><line x1="50" y1="335.1111111111111" x2="45" y2="335.1111111111111" style="visibility: inherit;" fill="rgb(0, 0, 0)" stroke="rgb(204, 204, 204)" stroke-width="1px"></line><line x1="50" y1="293.22222222222223" x2="45" y2="293.22222222222223" style="visibility: inherit;" fill="rgb(0, 0, 0)" stroke="rgb(204, 204, 204)" stroke-width="1px"></line><line x1="50" y1="251.33333333333337" x2="45" y2="251.33333333333337" style="visibility: inherit;" fill="rgb(0, 0, 0)" stroke="rgb(204, 204, 204)" stroke-width="1px"></line><line x1="50" y1="209.44444444444446" x2="45" y2="209.44444444444446" style="visibility: inherit;" fill="rgb(0, 0, 0)" stroke="rgb(204, 204, 204)" stroke-width="1px"></line><line x1="50" y1="167.55555555555554" x2="45" y2="167.55555555555554" style="visibility: inherit;" fill="rgb(0, 0, 0)" stroke="rgb(204, 204, 204)" stroke-width="1px"></line><line x1="50" y1="125.66666666666669" x2="45" y2="125.66666666666669" style="visibility: inherit;" fill="rgb(0, 0, 0)" stroke="rgb(204, 204, 204)" stroke-width="1px"></line><line x1="50" y1="83.77777777777777" x2="45" y2="83.77777777777777" style="visibility: inherit;" fill="rgb(0, 0, 0)" stroke="rgb(204, 204, 204)" stroke-width="1px"></line><line x1="50" y1="41.88888888888891" x2="45" y2="41.88888888888891" style="visibility: inherit;" fill="rgb(0, 0, 0)" stroke="rgb(204, 204, 204)" stroke-width="1px"></line><line x1="50" y1="0" x2="45" y2="0" style="visibility: inherit;" fill="rgb(0, 0, 0)" stroke="rgb(204, 204, 204)" stroke-width="1px"></line></g><g transform="translate(40, 0)"><text x="0" y="377" dx="0em" dy="0.3em" style="text-anchor: end; visibility: hidden; font-family: Roboto, sans-serif; font-size: 12px; font-weight: 200;" fill="rgb(33, 33, 33)" stroke="none" stroke-width="1px">-0.5</text><text x="0" y="335.1111111111111" dx="0em" dy="0.3em" style="text-anchor: end; visibility: inherit; font-family: Roboto, sans-serif; font-size: 12px; font-weight: 200;" fill="rgb(33, 33, 33)" stroke="none" stroke-width="1px">0</text><text x="0" y="293.22222222222223" dx="0em" dy="0.3em" style="text-anchor: end; visibility: inherit; font-family: Roboto, sans-serif; font-size: 12px; font-weight: 200;" fill="rgb(33, 33, 33)" stroke="none" stroke-width="1px">0.5</text><text x="0" y="251.33333333333337" dx="0em" dy="0.3em" style="text-anchor: end; visibility: inherit; font-family: Roboto, sans-serif; font-size: 12px; font-weight: 200;" fill="rgb(33, 33, 33)" stroke="none" stroke-width="1px">1</text><text x="0" y="209.44444444444446" dx="0em" dy="0.3em" style="text-anchor: end; visibility: inherit; font-family: Roboto, sans-serif; font-size: 12px; font-weight: 200;" fill="rgb(33, 33, 33)" stroke="none" stroke-width="1px">1.5</text><text x="0" y="167.55555555555554" dx="0em" dy="0.3em" style="text-anchor: end; visibility: inherit; font-family: Roboto, sans-serif; font-size: 12px; font-weight: 200;" fill="rgb(33, 33, 33)" stroke="none" stroke-width="1px">2</text><text x="0" y="125.66666666666669" dx="0em" dy="0.3em" style="text-anchor: end; visibility: inherit; font-family: Roboto, sans-serif; font-size: 12px; font-weight: 200;" fill="rgb(33, 33, 33)" stroke="none" stroke-width="1px">2.5</text><text x="0" y="83.77777777777777" dx="0em" dy="0.3em" style="text-anchor: end; visibility: inherit; font-family: Roboto, sans-serif; font-size: 12px; font-weight: 200;" fill="rgb(33, 33, 33)" stroke="none" stroke-width="1px">3</text><text x="0" y="41.88888888888891" dx="0em" dy="0.3em" style="text-anchor: end; visibility: inherit; font-family: Roboto, sans-serif; font-size: 12px; font-weight: 200;" fill="rgb(33, 33, 33)" stroke="none" stroke-width="1px">3.5</text><text x="0" y="0" dx="0em" dy="0.3em" style="text-anchor: end; visibility: hidden; font-family: Roboto, sans-serif; font-size: 12px; font-weight: 200;" fill="rgb(33, 33, 33)" stroke="none" stroke-width="1px">4</text></g><line x1="50" y1="0" x2="50" y2="377" fill="rgb(0, 0, 0)" stroke="rgb(204, 204, 204)" stroke-width="1px"></line></g></g><g transform="translate(50, 0)" clip-path="url(#clip_0)"><clipPath id="clip_0"><rect width="807" height="377"></rect></clipPath><g><g><g><line x1="0" y1="0" x2="0" y2="377" fill="rgb(0, 0, 0)" stroke="rgb(66, 66, 66)" stroke-width="1px" opacity="0.25"></line><line x1="67.31941666666665" y1="0" x2="67.31941666666665" y2="377" fill="rgb(0, 0, 0)" stroke="rgb(66, 66, 66)" stroke-width="1px" opacity="0.25"></line><line x1="134.6388333333333" y1="0" x2="134.6388333333333" y2="377" fill="rgb(0, 0, 0)" stroke="rgb(66, 66, 66)" stroke-width="1px" opacity="0.25"></line><line x1="201.95825" y1="0" x2="201.95825" y2="377" fill="rgb(0, 0, 0)" stroke="rgb(66, 66, 66)" stroke-width="1px" opacity="0.25"></line><line x1="269.2776666666666" y1="0" x2="269.2776666666666" y2="377" fill="rgb(0, 0, 0)" stroke="rgb(66, 66, 66)" stroke-width="1px" opacity="0.25"></line><line x1="336.59708333333333" y1="0" x2="336.59708333333333" y2="377" fill="rgb(0, 0, 0)" stroke="rgb(66, 66, 66)" stroke-width="1px" opacity="0.25"></line><line x1="403.9165" y1="0" x2="403.9165" y2="377" fill="rgb(0, 0, 0)" stroke="rgb(66, 66, 66)" stroke-width="1px" opacity="0.25"></line><line x1="471.2359166666667" y1="0" x2="471.2359166666667" y2="377" fill="rgb(0, 0, 0)" stroke="rgb(66, 66, 66)" stroke-width="1px" opacity="0.25"></line><line x1="538.5553333333332" y1="0" x2="538.5553333333332" y2="377" fill="rgb(0, 0, 0)" stroke="rgb(66, 66, 66)" stroke-width="1px" opacity="0.25"></line><line x1="605.87475" y1="0" x2="605.87475" y2="377" fill="rgb(0, 0, 0)" stroke="rgb(66, 66, 66)" stroke-width="1px" opacity="0.25"></line><line x1="673.1941666666667" y1="0" x2="673.1941666666667" y2="377" fill="rgb(0, 0, 0)" stroke="rgb(66, 66, 66)" stroke-width="1px" opacity="0.25"></line><line x1="740.5135833333333" y1="0" x2="740.5135833333333" y2="377" fill="rgb(0, 0, 0)" stroke="rgb(66, 66, 66)" stroke-width="1px" opacity="0.25"></line><line x1="807.833" y1="0" x2="807.833" y2="377" fill="rgb(0, 0, 0)" stroke="rgb(66, 66, 66)" stroke-width="1px" opacity="0.25"></line></g><g><line x1="0" y1="377" x2="807.833" y2="377" fill="rgb(0, 0, 0)" stroke="rgb(66, 66, 66)" stroke-width="1px" opacity="0.25"></line><line x1="0" y1="335.1111111111111" x2="807.833" y2="335.1111111111111" fill="rgb(0, 0, 0)" stroke="rgb(66, 66, 66)" stroke-width="1px" opacity="0.25"></line><line x1="0" y1="293.22222222222223" x2="807.833" y2="293.22222222222223" fill="rgb(0, 0, 0)" stroke="rgb(66, 66, 66)" stroke-width="1px" opacity="0.25"></line><line x1="0" y1="251.33333333333337" x2="807.833" y2="251.33333333333337" fill="rgb(0, 0, 0)" stroke="rgb(66, 66, 66)" stroke-width="1px" opacity="0.25"></line><line x1="0" y1="209.44444444444446" x2="807.833" y2="209.44444444444446" fill="rgb(0, 0, 0)" stroke="rgb(66, 66, 66)" stroke-width="1px" opacity="0.25"></line><line x1="0" y1="167.55555555555554" x2="807.833" y2="167.55555555555554" fill="rgb(0, 0, 0)" stroke="rgb(66, 66, 66)" stroke-width="1px" opacity="0.25"></line><line x1="0" y1="125.66666666666669" x2="807.833" y2="125.66666666666669" fill="rgb(0, 0, 0)" stroke="rgb(66, 66, 66)" stroke-width="1px" opacity="0.25"></line><line x1="0" y1="83.77777777777777" x2="807.833" y2="83.77777777777777" fill="rgb(0, 0, 0)" stroke="rgb(66, 66, 66)" stroke-width="1px" opacity="0.25"></line><line x1="0" y1="41.88888888888891" x2="807.833" y2="41.88888888888891" fill="rgb(0, 0, 0)" stroke="rgb(66, 66, 66)" stroke-width="1px" opacity="0.25"></line><line x1="0" y1="0" x2="807.833" y2="0" fill="rgb(0, 0, 0)" stroke="rgb(66, 66, 66)" stroke-width="1px" opacity="0.25"></line></g></g></g><g><g><line x1="0" y1="335.1111111111111" x2="807.833" y2="335.1111111111111" fill="rgb(0, 0, 0)" stroke="rgb(153, 153, 153)" stroke-width="1.5px"></line></g></g><g><g><line x1="67.31941666666665" y1="0" x2="67.31941666666665" y2="377" fill="rgb(0, 0, 0)" stroke="rgb(153, 153, 153)" stroke-width="1.5px"></line></g></g><g><g><g><g><g><path stroke="rgb(255, 112, 67)" stroke-width="2px" d="M67.31941666666665,3.19848521550495L74.05135833333333,11.071295281251258L80.7833,24.407806021285964L87.51524166666667,33.47658859242023L94.24718333333333,39.01170206110395L100.979125,53.4765162319283L107.71106666666667,72.73142910177533L114.44300833333332,89.32711491961706L121.17495,96.29798419013235L127.90689166666665,110.43888226102672L134.6388333333333,127.63626284177292L141.37077499999998,143.87148034143286L148.10271666666665,156.5964324941182L154.83465833333335,171.64479886764164L161.5666,183.32978267710777L168.29854166666667,186.39984953389057L175.03048333333334,187.9990074442784L181.762425,197.7772812027505L188.49436666666665,208.45404075602448L195.22630833333332,217.25064474328573L201.95825,220.173477854242L208.6901916666667,227.82418709671168L215.42213333333333,235.96720764951579L222.154075,241.64412783384532L228.88601666666665,247.32708988268539L235.61795833333335,252.4626147764754L242.3499,255.92160824881532L249.08184166666666,261.11745008188456L255.8137833333333,267.05751536421076L262.545725,267.07325135101325L269.2776666666666,268.6363586736612L276.00960833333335,273.61704497092177L282.74154999999996,279.12564468792135L289.47349166666663,281.3991679496608L296.2054333333333,283.76942321112335L302.937375,283.31595699587984L309.6693166666667,289.1689322525191L316.4012583333333,291.6118451447952L323.1332,295.68458473811614L329.86514166666666,299.3100387258585L336.59708333333333,297.8296379185386L343.329025,300.25451446378366L350.0609666666667,303.2401945356124L356.7929083333333,305.40617635467976L363.52485,306.9280421017361L370.25679166666663,309.6155457465786L376.9887333333333,309.827607327843L383.72067499999997,299.54291611007926L390.45261666666664,304.9966259836751L397.1845583333333,310.2800969068397L403.9165,307.51767859495794L410.6484416666666,308.7254696175385L417.3803833333334,310.1029902760501L424.112325,307.8754836994971L430.84426666666667,310.62310107885037L437.5762083333333,313.93221636682483L444.30815,316.52887044127016L451.0400916666667,317.0938041448442L457.7720333333333,319.2541458087409L464.50397499999997,321.5781656178846L471.2359166666667,320.7512805452421L477.9678583333333,319.67551731079334L484.6998,317.5356257724004L491.4317416666666,316.7497155368668L498.1636833333333,320.29155666101695L504.895625,319.54952078012525L511.6275666666666,322.5737154758845L518.3595083333333,323.1135583552511L525.09145,317.9537036160305L531.8233916666667,295.0355695940195L538.5553333333332,299.8951288681179L545.287275,308.5392142109642L552.0192166666667,314.7455414901384L558.7511583333333,319.53992862060255L565.4830999999999,320.48613567153035L572.2150416666667,321.7542774498428L578.9469833333333,320.9885250500817L585.6789249999999,323.61475415195235L592.4108666666666,325.26291823485616L599.1428083333334,326.54661708665697L605.87475,325.4191498480474L612.6066916666666,323.66588100393693L619.3386333333334,324.1037125444417L626.070575,324.84421254995164L632.8025166666666,326.5050658757317L639.5344583333333,327.8680908181499L646.2664,328.27468812786253L652.9983416666666,327.00609358940153L659.7302833333333,329.0895901167675L666.462225,330.8018494572809L673.1941666666667,331.2742668230609L679.9261083333333,332.19320841020004L686.65805,332.4707232523103L693.3899916666666,329.261741075736L700.1219333333333,328.0701566566623L706.853875,326.69200884147733L713.5858166666666,327.22904096815205L720.3177583333334,329.70136042814056L727.0497,331.66015648675483L733.7816416666666,332.5997261572995" style="fill: none;" fill="none"></path></g></g></g></g><g opacity="0.2"><g><g><g><path stroke="rgb(255, 112, 67)" stroke-width="2px" d="M67.31941666666665,3.19848521550495L74.05135833333333,15.794981320699042L80.7833,37.2108563317193L87.51524166666667,44.141476896074096L94.24718333333333,46.23834620581732L100.979125,73.4865615632799L107.71106666666667,100.26626258426245L114.44300833333332,113.52378416061401L121.17495,106.57866234249536L127.90689166666665,131.4364678594801L134.6388333333333,153.27635473675195L141.37077499999998,168.13595525423688L148.10271666666665,175.6423115465376L154.83465833333335,194.18786711162988L161.5666,200.8435231314765L168.29854166666667,191.00278457005822L175.03048333333334,190.3970675998264L181.762425,212.4422091378106L188.49436666666665,224.4675535890791L195.22630833333332,230.44474667972986L201.95825,224.5575672255622L208.6901916666667,239.29999921056958L215.42213333333333,248.18157770898608L222.154075,250.15944086180792L228.88601666666665,255.85149256388343L235.61795833333335,260.16588021649255L242.3499,261.1100896067089L249.08184166666666,268.9112048546473L255.8137833333333,275.9676078160604L262.545725,267.0968553225199L269.2776666666666,270.98101913928986L276.00960833333335,281.0880734258228L282.74154999999996,287.38854360580444L289.47349166666663,284.8094526794222L296.2054333333333,287.3248060014513L302.937375,282.63575768470764L309.6693166666667,297.9483950469229L316.4012583333333,295.2762144605319L323.1332,301.79369410541324L329.86514166666666,304.74821969535617L336.59708333333333,295.6090367105272L343.329025,303.891829278734L350.0609666666667,307.71871464120017L356.7929083333333,308.6551490823428L363.52485,309.2108407219251L370.25679166666663,313.64680121342343L376.9887333333333,310.1456996997197L383.72067499999997,284.115879284011L390.45261666666664,313.17719079388513L397.1845583333333,318.20530329147977L403.9165,303.37405112716885L410.6484416666666,310.53715615140067L417.3803833333334,312.1692712638113L424.112325,304.5342238346736L430.84426666666667,314.7445271478759L437.5762083333333,318.8958892987834L444.30815,320.42385155293675L451.0400916666667,317.94120470020505L457.7720333333333,322.49465830458536L464.50397499999997,325.0641953316L471.2359166666667,319.51095293627844L477.9678583333333,318.0618724591202L484.6998,314.3257884648111L491.4317416666666,315.5708501835664L498.1636833333333,325.60431834724216L504.895625,318.4364669587877L511.6275666666666,327.1100075195233L518.3595083333333,323.92332267430095L525.09145,310.2139215071996L531.8233916666667,260.65836856100293L538.5553333333332,307.1844677792655L545.287275,321.50534222523373L552.0192166666667,324.0550324088997L558.7511583333333,326.7315093162987L565.4830999999999,321.90544624792204L572.2150416666667,323.6564901173115L578.9469833333333,319.8398964504401L585.6789249999999,327.55409780475827L592.4108666666666,327.7351643592119L599.1428083333334,328.47216536435815L605.87475,323.7279489901331L612.6066916666666,321.03597773777113L619.3386333333334,324.76045985519886L626.070575,325.9549625582165L632.8025166666666,328.9963458644019L639.5344583333333,329.9126282317771L646.2664,328.8845840924316L652.9983416666666,325.10320178170997L659.7302833333333,332.2148349078165L666.462225,333.37023846805096L673.1941666666667,331.9828928717309L679.9261083333333,333.57162079090875L686.65805,332.8869955154757L693.3899916666666,324.44826781087454L700.1219333333333,326.2827800280518L706.853875,324.6247871186998L713.5858166666666,328.0345891581641L720.3177583333334,333.4098396181232L727.0497,334.5983505746764L733.7816416666666,334.00908066311644" style="fill: none;" fill="none"></path></g></g></g></g></g></g><g transform="translate(50, 377)" clip-path="url(#clip_1)"><clipPath id="clip_1"><rect width="807" height="23"></rect></clipPath><g><g><line x1="0" y1="0" x2="0" y2="5" style="visibility: inherit;" fill="rgb(0, 0, 0)" stroke="rgb(204, 204, 204)" stroke-width="1px"></line><line x1="67.31941666666665" y1="0" x2="67.31941666666665" y2="5" style="visibility: inherit;" fill="rgb(0, 0, 0)" stroke="rgb(204, 204, 204)" stroke-width="1px"></line><line x1="134.6388333333333" y1="0" x2="134.6388333333333" y2="5" style="visibility: inherit;" fill="rgb(0, 0, 0)" stroke="rgb(204, 204, 204)" stroke-width="1px"></line><line x1="201.95825" y1="0" x2="201.95825" y2="5" style="visibility: inherit;" fill="rgb(0, 0, 0)" stroke="rgb(204, 204, 204)" stroke-width="1px"></line><line x1="269.2776666666666" y1="0" x2="269.2776666666666" y2="5" style="visibility: inherit;" fill="rgb(0, 0, 0)" stroke="rgb(204, 204, 204)" stroke-width="1px"></line><line x1="336.59708333333333" y1="0" x2="336.59708333333333" y2="5" style="visibility: inherit;" fill="rgb(0, 0, 0)" stroke="rgb(204, 204, 204)" stroke-width="1px"></line><line x1="403.9165" y1="0" x2="403.9165" y2="5" style="visibility: inherit;" fill="rgb(0, 0, 0)" stroke="rgb(204, 204, 204)" stroke-width="1px"></line><line x1="471.2359166666667" y1="0" x2="471.2359166666667" y2="5" style="visibility: inherit;" fill="rgb(0, 0, 0)" stroke="rgb(204, 204, 204)" stroke-width="1px"></line><line x1="538.5553333333332" y1="0" x2="538.5553333333332" y2="5" style="visibility: inherit;" fill="rgb(0, 0, 0)" stroke="rgb(204, 204, 204)" stroke-width="1px"></line><line x1="605.87475" y1="0" x2="605.87475" y2="5" style="visibility: inherit;" fill="rgb(0, 0, 0)" stroke="rgb(204, 204, 204)" stroke-width="1px"></line><line x1="673.1941666666667" y1="0" x2="673.1941666666667" y2="5" style="visibility: inherit;" fill="rgb(0, 0, 0)" stroke="rgb(204, 204, 204)" stroke-width="1px"></line><line x1="740.5135833333333" y1="0" x2="740.5135833333333" y2="5" style="visibility: inherit;" fill="rgb(0, 0, 0)" stroke="rgb(204, 204, 204)" stroke-width="1px"></line><line x1="807.833" y1="0" x2="807.833" y2="5" style="visibility: inherit;" fill="rgb(0, 0, 0)" stroke="rgb(204, 204, 204)" stroke-width="1px"></line></g><g transform="translate(0, 8)"><text x="0" y="0" dx="0em" dy="0.95em" style="text-anchor: middle; visibility: hidden; font-family: Roboto, sans-serif; font-size: 12px; font-weight: 200;" fill="rgb(33, 33, 33)" stroke="none" stroke-width="1px">-10</text><text x="67.31941666666665" y="0" dx="0em" dy="0.95em" style="text-anchor: middle; visibility: inherit; font-family: Roboto, sans-serif; font-size: 12px; font-weight: 200;" fill="rgb(33, 33, 33)" stroke="none" stroke-width="1px">0</text><text x="134.6388333333333" y="0" dx="0em" dy="0.95em" style="text-anchor: middle; visibility: inherit; font-family: Roboto, sans-serif; font-size: 12px; font-weight: 200;" fill="rgb(33, 33, 33)" stroke="none" stroke-width="1px">10</text><text x="201.95825" y="0" dx="0em" dy="0.95em" style="text-anchor: middle; visibility: inherit; font-family: Roboto, sans-serif; font-size: 12px; font-weight: 200;" fill="rgb(33, 33, 33)" stroke="none" stroke-width="1px">20</text><text x="269.2776666666666" y="0" dx="0em" dy="0.95em" style="text-anchor: middle; visibility: inherit; font-family: Roboto, sans-serif; font-size: 12px; font-weight: 200;" fill="rgb(33, 33, 33)" stroke="none" stroke-width="1px">30</text><text x="336.59708333333333" y="0" dx="0em" dy="0.95em" style="text-anchor: middle; visibility: inherit; font-family: Roboto, sans-serif; font-size: 12px; font-weight: 200;" fill="rgb(33, 33, 33)" stroke="none" stroke-width="1px">40</text><text x="403.9165" y="0" dx="0em" dy="0.95em" style="text-anchor: middle; visibility: inherit; font-family: Roboto, sans-serif; font-size: 12px; font-weight: 200;" fill="rgb(33, 33, 33)" stroke="none" stroke-width="1px">50</text><text x="471.2359166666667" y="0" dx="0em" dy="0.95em" style="text-anchor: middle; visibility: inherit; font-family: Roboto, sans-serif; font-size: 12px; font-weight: 200;" fill="rgb(33, 33, 33)" stroke="none" stroke-width="1px">60</text><text x="538.5553333333332" y="0" dx="0em" dy="0.95em" style="text-anchor: middle; visibility: inherit; font-family: Roboto, sans-serif; font-size: 12px; font-weight: 200;" fill="rgb(33, 33, 33)" stroke="none" stroke-width="1px">70</text><text x="605.87475" y="0" dx="0em" dy="0.95em" style="text-anchor: middle; visibility: inherit; font-family: Roboto, sans-serif; font-size: 12px; font-weight: 200;" fill="rgb(33, 33, 33)" stroke="none" stroke-width="1px">80</text><text x="673.1941666666667" y="0" dx="0em" dy="0.95em" style="text-anchor: middle; visibility: inherit; font-family: Roboto, sans-serif; font-size: 12px; font-weight: 200;" fill="rgb(33, 33, 33)" stroke="none" stroke-width="1px">90</text><text x="740.5135833333333" y="0" dx="0em" dy="0.95em" style="text-anchor: middle; visibility: inherit; font-family: Roboto, sans-serif; font-size: 12px; font-weight: 200;" fill="rgb(33, 33, 33)" stroke="none" stroke-width="1px">100</text><text x="807.833" y="0" dx="0em" dy="0.95em" style="text-anchor: middle; visibility: hidden; font-family: Roboto, sans-serif; font-size: 12px; font-weight: 200;" fill="rgb(33, 33, 33)" stroke="none" stroke-width="1px">110</text></g><line x1="0" y1="0" x2="807.833" y2="0" fill="rgb(0, 0, 0)" stroke="rgb(204, 204, 204)" stroke-width="1px"></line></g></g></g></g></svg>